<svg width="40" height="40" viewBox="0 0 40 40" fill="none" xmlns="http://www.w3.org/2000/svg">
<g clip-path="url(#clip0_5172_26912)">
<path d="M32.0984 12.9532C31.8453 12.3173 31.8078 11.5946 31.9875 10.9024L31.45 10.668L28.0844 9.19226C27.3312 10.3344 26.0219 10.9157 24.8172 10.6251L21.4453 18.3141V27.5102H21.8156L22.3961 26.1946C22.532 25.8798 22.8961 25.7313 23.2055 25.8735C23.5203 26.0094 23.6625 26.3735 23.5266 26.6884L23.168 27.5094H25.2125L28.85 23.6985L33.0187 14.1813C32.6109 13.8735 32.2961 13.4532 32.0984 12.9532ZM27.7688 13.9227L28.7258 11.7305C28.8617 11.4219 29.2258 11.2735 29.5414 11.4157C29.85 11.5516 29.9922 11.9157 29.8563 12.2251L28.8992 14.4173C28.8008 14.6516 28.5719 14.7876 28.3312 14.7876C28.2508 14.7876 28.1648 14.7688 28.0844 14.7384C27.775 14.5962 27.6328 14.2376 27.7688 13.9227ZM28.9977 21.6555C28.4047 23.0079 27.0766 23.8173 25.6875 23.8173C25.2055 23.8173 24.7117 23.718 24.2422 23.5149C23.9023 23.3665 23.5875 23.1626 23.3156 22.9219C22.8836 22.5454 22.5437 22.0696 22.3273 21.5196C21.975 20.618 22 19.6423 22.3828 18.7587C22.7719 17.8759 23.4758 17.1962 24.3773 16.8438C25.2727 16.4915 26.2547 16.5102 27.1383 16.8993C27.5828 17.0907 27.9781 17.3688 28.3055 17.7149C28.6266 18.0485 28.8797 18.4438 29.0531 18.8884C29.4055 19.7899 29.3867 20.7719 28.9977 21.6555Z" fill="#7ED7AF"/>
<path d="M37.1266 10.6L33.5383 18.7899L31.3461 21.0875L34.3727 14.1766C34.4344 14.0219 34.4406 13.8492 34.3789 13.7008C34.3172 13.5461 34.2 13.4227 34.0453 13.361C33.6867 13.2063 33.4031 12.8977 33.2484 12.5024C33.0445 11.9836 33.0695 11.3719 33.3164 10.8102C33.3844 10.6617 33.3906 10.4891 33.3289 10.3406C33.2734 10.186 33.15 10.0625 33.0016 9.99456L31.7852 9.46331L28.0609 7.83284C27.7461 7.6969 27.3875 7.83909 27.2453 8.15393C26.7945 9.18518 25.732 9.72268 24.8672 9.35237C24.7187 9.23518 24.5211 9.19143 24.3359 9.24143C24.1508 9.2844 23.9961 9.41409 23.9219 9.59377L21.4453 15.2391V12.5094L24.6633 5.15393L32.0438 8.37815L37.1266 10.6Z" fill="#6FD6A2"/>
<path d="M5.375 14.1821H2.05859L5.375 17.6532V14.1821Z" fill="white"/>
<path d="M27.8684 21.1547C27.3434 22.3594 25.9419 22.9024 24.7372 22.3774C24.6012 22.3156 24.4715 22.2477 24.3544 22.1672C23.959 21.9016 23.6567 21.5188 23.477 21.068C23.2489 20.475 23.2606 19.8328 23.5137 19.2524C23.7731 18.6719 24.2364 18.2211 24.8294 17.9922C25.1075 17.8813 25.3973 17.8258 25.6942 17.8258C26.0153 17.8258 26.3364 17.8938 26.645 18.0297C27.0278 18.1961 27.3489 18.4555 27.5778 18.7711C28.084 19.4321 28.2262 20.3399 27.8684 21.1547Z" fill="#FFA812"/>
<path d="M13.5949 28.054L3.60195 35.6563L1.23633 37.4594V15.1024L3.60195 17.5852L5.54727 19.6235C5.55352 19.6298 5.55977 19.636 5.56602 19.6423L7.87617 22.0634L7.89492 22.0821L13.5949 28.054Z" fill="#F9DB8D"/>
<path d="M13.5945 28.054L3.60156 35.6563V17.5852L5.54688 19.6235C5.55313 19.6297 5.55938 19.636 5.56563 19.6422L7.87578 22.0633L7.89453 22.0821L13.5945 28.054Z" fill="#FCE8B4"/>
<path d="M20.2102 1.91016V27.5102H16.9C17.1164 26.6891 17.7523 26.0836 18.5055 26.0836C18.8453 26.0836 19.1234 25.8117 19.1234 25.4656V6.29531C19.1234 5.94922 18.8453 5.67734 18.5055 5.67734C17.5664 5.67734 16.807 4.75078 16.807 3.62031C16.807 3.28047 16.5289 3.00234 16.1891 3.00234H10.7977C10.4578 3.00234 10.1797 3.28047 10.1797 3.62031C10.1797 4.75078 9.42031 5.67734 8.48125 5.67734C8.45625 5.67734 8.43203 5.67734 8.40703 5.67109C8.23438 5.64609 8.05469 5.70234 7.91875 5.81953C7.78281 5.93672 7.70234 6.10391 7.70234 6.28281V20.093L6.60938 18.9508V13.5773C6.60938 13.5711 6.61563 13.5711 6.61563 13.5648C6.61563 13.5586 6.60938 13.5586 6.60938 13.5523V1.91016H20.2102Z" fill="#6FD6A2"/>
<path d="M37.9285 14.1821H36.9035L36.0332 16.1712L37.9285 14.1821Z" fill="white"/>
<path d="M37.552 38.0899H2.44727L5.24492 35.9594L14.7129 28.7579H16.1887C16.2074 28.7579 16.2254 28.7454 16.2441 28.7454H25.2676L34.748 35.9594L37.552 38.0899Z" fill="#F5CC64"/>
<path d="M34.7473 35.9594H5.24414L14.7121 28.7579H16.1879C16.2066 28.7579 16.2246 28.7454 16.2434 28.7454H25.2668L34.7473 35.9594Z" fill="#F7D887"/>
<path d="M15.6203 4.23828H11.3586C11.1305 5.59062 10.1602 6.65313 8.9375 6.86953V21.3898L9.40703 21.8781L14.7867 27.5109H15.6266C15.8547 26.2203 16.7508 25.2008 17.8867 24.9234V6.83906C16.7383 6.56094 15.843 5.53516 15.6203 4.23828ZM12.9711 6.31406C12.9711 5.97422 13.2492 5.69609 13.5891 5.69609C13.9289 5.69609 14.207 5.97422 14.207 6.31406V8.70391C14.207 9.04375 13.9289 9.32188 13.5891 9.32188C13.2492 9.32188 12.9711 9.04375 12.9711 8.70391V6.31406ZM14.2063 24.4898C14.2063 24.8297 13.9281 25.1078 13.5883 25.1078C13.2484 25.1078 12.9703 24.8297 12.9703 24.4898V22.1C12.9703 21.7602 13.2484 21.482 13.5883 21.482C13.9281 21.482 14.2063 21.7602 14.2063 22.1V24.4898ZM13.5883 18.9008C12.9523 18.9008 12.3594 18.7344 11.8406 18.4438C10.7289 17.832 9.97578 16.6523 9.97578 15.2937C9.97578 13.2992 11.5937 11.6805 13.5891 11.6805C13.7555 11.6805 13.9164 11.693 14.0773 11.7172C15.8375 11.9516 17.1961 13.4648 17.1961 15.293C17.1953 17.2828 15.5773 18.9008 13.5883 18.9008Z" fill="#7ED7AF"/>
<path d="M15.9609 15.2938C15.9609 16.6031 14.8984 17.6656 13.5891 17.6656C13.1508 17.6656 12.7367 17.5485 12.3844 17.3383C11.6805 16.9242 11.2109 16.1649 11.2109 15.2938C11.2109 13.9844 12.2797 12.9156 13.5891 12.9156C13.6695 12.9156 13.75 12.9219 13.8297 12.9281C15.0281 13.0516 15.9609 14.0649 15.9609 15.2938Z" fill="#FFA812"/>
<path d="M38.7629 15.0962V37.4603L36.3973 35.6571L26.4043 28.054L29.7949 24.4962C29.8137 24.4774 29.8316 24.4649 29.8504 24.4407L36.3973 17.579L38.7629 15.0962Z" fill="#F9DB8D"/>
<path d="M36.3973 17.579V35.6563L26.4043 28.0532L29.7949 24.4954C29.8137 24.4766 29.8316 24.4641 29.8504 24.4399L36.3973 17.579Z" fill="#FCE8B4"/>
<path d="M13.5895 17.6657C13.1512 17.6657 12.7371 17.5485 12.3848 17.3383C13.027 15.9118 13.4965 14.4172 13.8301 12.929C15.0285 13.0524 15.9605 14.0657 15.9605 15.2946C15.9613 16.6032 14.8988 17.6657 13.5895 17.6657Z" fill="#EA8F0C"/>
<path d="M15.6215 4.23828H14.5902C14.652 6.33203 14.5715 8.98125 14.0777 11.7172C15.8379 11.9516 17.1965 13.4648 17.1965 15.293C17.1965 17.282 15.5785 18.9 13.5895 18.9C12.9535 18.9 12.3605 18.7336 11.8418 18.443C11.1871 19.6719 10.3902 20.8328 9.4082 21.8766L14.7879 27.5094H15.6277C15.8559 26.2188 16.752 25.1992 17.8879 24.9219V6.83906C16.7395 6.56094 15.8441 5.53516 15.6215 4.23828ZM14.2074 24.4898C14.2074 24.8297 13.9293 25.1078 13.5895 25.1078C13.2496 25.1078 12.9715 24.8297 12.9715 24.4898V22.1C12.9715 21.7602 13.2496 21.482 13.5895 21.482C13.9293 21.482 14.2074 21.7602 14.2074 22.1V24.4898Z" fill="#55CA95"/>
<path d="M20.2102 1.91021V27.5102H16.9C17.1164 26.6891 17.7523 26.0836 18.5055 26.0836C18.8453 26.0836 19.1234 25.8118 19.1234 25.4657V6.29536C19.1234 5.94927 18.8453 5.67739 18.5055 5.67739C17.5664 5.67739 16.807 4.75083 16.807 3.62036C16.807 3.28052 16.5289 3.00239 16.1891 3.00239H14.5273C14.5086 2.60708 14.4781 2.24302 14.4531 1.90942H20.2102V1.91021Z" fill="#5CC48D"/>
<path d="M24.7363 22.3781C24.6004 22.3164 24.4707 22.2485 24.3535 22.168C25.6074 21.1735 26.6754 20.0125 27.5777 18.7711C28.084 19.4321 28.2262 20.3399 27.8684 21.1547C27.3434 22.3594 25.941 22.9031 24.7363 22.3781Z" fill="#EA8F0C"/>
<path d="M33.0187 14.182L28.85 23.6992L25.2125 27.5102H23.168L23.5266 26.6891C23.6625 26.3742 23.5203 26.0094 23.2055 25.8742C22.8969 25.732 22.532 25.8805 22.3961 26.1953L21.8156 27.5109H21.4453V23.9844C22.1125 23.6758 22.7297 23.3172 23.3164 22.9219C23.5883 23.1625 23.9031 23.3664 24.243 23.5148C24.7125 23.7187 25.2062 23.8172 25.6883 23.8172C27.0781 23.8172 28.4055 23.0078 28.9984 21.6555C29.3875 20.7727 29.4062 19.7906 29.0539 18.8883C28.8812 18.4437 28.6281 18.0484 28.3062 17.7148C29.8195 15.368 30.8078 12.8359 31.45 10.668L31.9875 10.9023C31.8086 11.5938 31.8453 12.3164 32.0984 12.9531C32.2961 13.4531 32.6109 13.8734 33.0187 14.182Z" fill="#55CA95"/>
<path d="M37.1262 10.6L33.5379 18.7899L31.3457 21.0875L34.3723 14.1766C34.434 14.0219 34.4402 13.8492 34.3785 13.7008C34.3168 13.5461 34.1996 13.4227 34.0449 13.361C33.6863 13.2063 33.4027 12.8977 33.248 12.5024C33.0441 11.9836 33.0691 11.3719 33.316 10.8102C33.384 10.6617 33.3902 10.4891 33.3285 10.3406C33.273 10.186 33.1496 10.0625 33.0012 9.99456L31.7848 9.46331C31.8832 9.08049 31.9699 8.7219 32.0441 8.37659L37.1262 10.6Z" fill="#5CC48D"/>
<path d="M17.1984 15.2922C17.1984 13.3016 15.5789 11.682 13.5883 11.682C11.5977 11.682 9.97812 13.3016 9.97812 15.2922C9.97812 17.2828 11.5977 18.9023 13.5883 18.9023C15.5789 18.9023 17.1984 17.2836 17.1984 15.2922ZM13.5883 17.668C12.2789 17.668 11.2133 16.6023 11.2133 15.293C11.2133 13.9836 12.2789 12.918 13.5883 12.918C14.8977 12.918 15.9633 13.9836 15.9633 15.293C15.9633 16.6023 14.8977 17.668 13.5883 17.668ZM13.5883 9.32266C13.2469 9.32266 12.9703 9.04609 12.9703 8.70469V6.31328C12.9703 5.97187 13.2469 5.69531 13.5883 5.69531C13.9297 5.69531 14.2062 5.97187 14.2062 6.31328V8.70547C14.2055 9.04609 13.9297 9.32266 13.5883 9.32266ZM13.5883 21.4813C13.9297 21.4813 14.2062 21.7578 14.2062 22.0992V24.4914C14.2062 24.8328 13.9297 25.1094 13.5883 25.1094C13.2469 25.1094 12.9703 24.8328 12.9703 24.4914V22.0992C12.9703 21.7578 13.2469 21.4813 13.5883 21.4813ZM22.3297 21.5188C22.6813 22.4172 23.3609 23.125 24.2438 23.5117C24.7133 23.7172 25.2039 23.8148 25.6867 23.8148C27.0773 23.8148 28.4055 23.0063 28.9984 21.6531C29.3852 20.7695 29.4047 19.7891 29.0539 18.8906C28.7023 17.9922 28.0227 17.2844 27.1398 16.8977C26.257 16.5117 25.2758 16.4898 24.3773 16.8422C23.4789 17.193 22.7711 17.8727 22.3844 18.7563C21.9977 19.6398 21.9781 20.6203 22.3297 21.5188ZM23.5164 19.2523C23.7711 18.6711 24.2367 18.2234 24.8273 17.9922C25.1078 17.882 25.4 17.8281 25.6922 17.8281C26.0164 17.8281 26.3391 17.8953 26.6445 18.0289C27.8445 18.5539 28.393 19.957 27.868 21.157C27.3422 22.357 25.9398 22.9055 24.7398 22.3805C24.1586 22.1258 23.7117 21.6602 23.4805 21.0695C23.2492 20.4781 23.2617 19.8328 23.5164 19.2523ZM27.768 13.9219L28.7273 11.7305C28.8633 11.418 29.2266 11.2734 29.5406 11.4125C29.8531 11.5492 29.9953 11.9141 29.8586 12.2258L28.8992 14.4172C28.7977 14.6484 28.5711 14.7867 28.3328 14.7867C28.25 14.7867 28.1664 14.7703 28.0852 14.7352C27.7734 14.5992 27.6312 14.2344 27.768 13.9219ZM39.382 12.9461H37.4477L38.5062 10.532C38.5719 10.382 38.5758 10.2117 38.5156 10.0594C38.4562 9.90703 38.3375 9.78438 38.1883 9.71875L36.5109 8.98438C36.1961 8.84531 35.8336 8.98984 35.6977 9.30234C35.5609 9.61562 35.7031 9.97891 36.0156 10.1156L37.1273 10.6016L33.5367 18.7875L31.3422 21.0875L34.3695 14.1727C34.4359 14.0219 34.4391 13.8508 34.3781 13.6977C34.318 13.5453 34.1984 13.4219 34.0469 13.3578C33.6875 13.2031 33.4023 12.8984 33.2469 12.5008C33.0445 11.9859 33.0711 11.3695 33.318 10.8117C33.3852 10.6617 33.3883 10.4906 33.3297 10.3375C33.2703 10.1844 33.1516 10.0609 33.0008 9.99531L28.0602 7.83516C27.7477 7.69609 27.3836 7.84141 27.2469 8.15312C26.7953 9.18672 25.7281 9.72266 24.8672 9.35312C24.7172 9.23516 24.5195 9.19219 24.3352 9.23984C24.15 9.28594 23.9961 9.41562 23.9195 9.59062L21.4477 15.2359V12.5063L24.6656 5.15L34.2258 9.33125C34.5367 9.46953 34.9016 9.325 35.0391 9.0125C35.1758 8.7 35.0336 8.33594 34.7203 8.19922L24.5938 3.77109C24.4445 3.70547 24.2734 3.70234 24.1219 3.76172C23.9695 3.82109 23.8469 3.93984 23.7812 4.08984L21.4477 9.425V1.29453C21.4477 0.953125 21.1711 0.676563 20.8297 0.676563H10.5953C10.2539 0.676563 9.97734 0.953125 9.97734 1.29453C9.97734 1.63594 10.2539 1.9125 10.5953 1.9125H20.2125V12.3711V12.3719V18.1781V18.1797V27.5109H16.8945C17.1172 26.6852 17.7594 26.0867 18.5023 26.0867C18.8438 26.0867 19.1203 25.8102 19.1203 25.4688V22.4836C19.1203 22.1422 18.8438 21.8656 18.5023 21.8656C18.1609 21.8656 17.8844 22.1422 17.8844 22.4836V24.925C16.7531 25.2016 15.8586 26.2203 15.6336 27.5102H14.7852L8.93984 21.3875V6.87031C10.1594 6.65547 11.132 5.59375 11.3617 4.23906H15.6227C15.843 5.53281 16.7406 6.56016 17.8844 6.83594V20.6172C17.8844 20.9586 18.1609 21.2352 18.5023 21.2352C18.8438 21.2352 19.1203 20.9586 19.1203 20.6172V6.29219C19.1203 5.95078 18.8438 5.67422 18.5023 5.67422C17.5672 5.67422 16.8062 4.75312 16.8062 3.62109C16.8062 3.27969 16.5297 3.00312 16.1883 3.00312H10.7969C10.4555 3.00312 10.1789 3.27969 10.1789 3.62109C10.1789 4.75312 9.41797 5.67422 8.48359 5.67422C8.45547 5.67422 8.43203 5.67578 8.40859 5.67266C8.23281 5.64609 8.05312 5.70078 7.91719 5.81797C7.78281 5.93516 7.70469 6.10469 7.70469 6.28438V20.0938L6.6125 18.9492V13.5758C6.6125 13.5719 6.61484 13.568 6.61484 13.5641C6.61484 13.5602 6.6125 13.5563 6.6125 13.5523V1.91172H8.55391C8.89531 1.91172 9.17188 1.63516 9.17188 1.29375C9.17188 0.952344 8.89531 0.675781 8.55391 0.675781H5.99531C5.65391 0.675781 5.37734 0.952344 5.37734 1.29375V12.9461H0.617969C0.590625 12.9461 0.567187 12.9586 0.540625 12.9617C0.489063 12.968 0.4375 12.9727 0.389062 12.9922C0.342969 13.0109 0.305469 13.0414 0.265625 13.0703C0.241406 13.0875 0.214062 13.0961 0.192188 13.1164C0.190625 13.118 0.189844 13.1203 0.188281 13.1219C0.145313 13.1641 0.114844 13.2164 0.0851563 13.2695C0.0757813 13.2875 0.059375 13.3016 0.0515625 13.3195C0.0421875 13.3422 0.0421875 13.3687 0.0351562 13.393C0.0195312 13.4469 0.003125 13.5 0.00234375 13.5555C0.00234375 13.5578 0.00078125 13.5602 0.00078125 13.5625V18.2836C0.00078125 18.625 0.277344 18.9016 0.61875 18.9016C0.960156 18.9016 1.23672 18.625 1.23672 18.2836V15.1039L5.55078 19.6227C5.55781 19.6297 5.56328 19.6367 5.57031 19.643L7.87969 22.0617C7.88516 22.0672 7.89062 22.0734 7.89609 22.0789L13.5992 28.0523L1.23516 37.4594V20.2891C1.23516 19.9477 0.958594 19.6711 0.617188 19.6711C0.275781 19.6711 0 19.9477 0 20.2891V38.7055C0 38.7313 0.0117188 38.7531 0.0148437 38.7781C0.0195312 38.8195 0.0257812 38.8594 0.0390625 38.9C0.053125 38.9414 0.0726563 38.9773 0.0945313 39.0141C0.107031 39.0352 0.110937 39.0594 0.125781 39.0789C0.133594 39.0891 0.145313 39.0922 0.153125 39.1016C0.196094 39.1516 0.247656 39.1906 0.303906 39.225C0.324219 39.2367 0.339844 39.2539 0.360937 39.2633C0.439062 39.2992 0.525 39.3219 0.616406 39.3219H39.3812C39.4734 39.3219 39.5586 39.2992 39.6367 39.2633C39.6578 39.2539 39.6742 39.2367 39.6937 39.225C39.7508 39.1906 39.8023 39.1516 39.8453 39.1008C39.8531 39.0914 39.8656 39.0883 39.8727 39.0781C39.8875 39.0578 39.8914 39.0344 39.9039 39.0133C39.9258 38.9766 39.9453 38.9398 39.9594 38.8992C39.9727 38.8586 39.9789 38.8188 39.9836 38.7773C39.9867 38.7523 39.9984 38.7305 39.9984 38.7047V35.0055C39.9984 34.6641 39.7219 34.3875 39.3805 34.3875C39.0391 34.3875 38.7625 34.6641 38.7625 35.0055V37.4586L26.4023 28.0547L38.7648 15.0977V32.9375C38.7648 33.2789 39.0414 33.5555 39.3828 33.5555C39.7242 33.5555 40.0008 33.2789 40.0008 32.9375V13.5641C40 13.2227 39.7234 12.9461 39.382 12.9461ZM36.9062 14.1813H37.932L36.0344 16.1703L36.9062 14.1813ZM21.4477 18.3156L24.8156 10.625C26.0188 10.9172 27.332 10.3352 28.0836 9.19297L31.9859 10.8992C31.8117 11.5914 31.8469 12.3141 32.0969 12.9508C32.2938 13.4523 32.6133 13.8742 33.0188 14.1781L28.8742 23.6438C28.8687 23.6563 28.8703 23.6695 28.8656 23.6828L25.2148 27.5094H23.1656L23.5258 26.6852C23.6625 26.3727 23.5203 26.0094 23.207 25.8719C22.8953 25.7328 22.5305 25.8773 22.3938 26.1906L21.8172 27.5094H21.4461V18.3156H21.4477ZM14.7297 28.7453H25.2711L37.5508 38.0883H2.44922L14.7297 28.7453ZM5.37734 17.6555L2.06094 14.1813H5.37734V17.6555Z" fill="#231F20"/>
</g>
<defs>
<clipPath id="clip0_5172_26912">
<rect width="40" height="40" fill="white"/>
</clipPath>
</defs>
</svg>
