<svg width="40" height="40" viewBox="0 0 40 40" fill="none" xmlns="http://www.w3.org/2000/svg">
<path d="M35.4049 38.3911H4.59532C3.3982 38.3911 2.42773 37.4206 2.42773 36.2235V19.0599H37.5725V36.2235C37.5725 37.4206 36.6021 38.3911 35.4049 38.3911Z" fill="#FFDC6E"/>
<path d="M35.4054 38.9467H4.59607C3.09485 38.9467 1.87305 37.7249 1.87305 36.2232V19.0598C1.87305 18.7528 2.12153 18.5043 2.42861 18.5043H37.5734C37.8805 18.5043 38.129 18.7528 38.129 19.0598V36.2232C38.129 37.7249 36.9072 38.9467 35.4054 38.9467ZM2.98417 19.6154V36.2232C2.98417 37.1118 3.70738 37.8356 4.59607 37.8356H35.4054C36.2941 37.8356 37.0178 37.1118 37.0178 36.2232V19.6154H2.98417Z" fill="#101016"/>
<path d="M7.90563 30.6152H6.34401C5.79482 30.6152 5.34961 31.0604 5.34961 31.6096V34.5294C5.34961 35.0786 5.79482 35.5238 6.34401 35.5238H7.90563C8.45482 35.5238 8.90003 35.0786 8.90003 34.5294V31.6096C8.90003 31.0604 8.45482 30.6152 7.90563 30.6152Z" fill="#8EC8EE"/>
<path d="M7.9064 36.0788H6.34442C5.48992 36.0788 4.79492 35.3832 4.79492 34.5293V31.6093C4.79492 30.7554 5.48992 30.0598 6.34442 30.0598H7.9064C8.76091 30.0598 9.45645 30.7554 9.45645 31.6093V34.5293C9.45645 35.3832 8.76091 36.0788 7.9064 36.0788ZM6.34443 31.1709C6.10245 31.1709 5.90605 31.3673 5.90605 31.6093V34.5293C5.90605 34.7713 6.10245 34.9677 6.34443 34.9677H7.90641C8.14838 34.9677 8.34533 34.7713 8.34533 34.5293V31.6093C8.34533 31.3673 8.14838 31.1709 7.90641 31.1709H6.34443Z" fill="#101016"/>
<path d="M7.90563 21.9271H6.34401C5.79482 21.9271 5.34961 22.3723 5.34961 22.9215V25.8412C5.34961 26.3904 5.79482 26.8356 6.34401 26.8356H7.90563C8.45482 26.8356 8.90003 26.3904 8.90003 25.8412V22.9215C8.90003 22.3723 8.45482 21.9271 7.90563 21.9271Z" fill="#8EC8EE"/>
<path d="M7.9064 27.3916H6.34442C5.48992 27.3916 4.79492 26.6961 4.79492 25.841V22.9211C4.79492 22.0671 5.48992 21.3716 6.34442 21.3716H7.9064C8.76091 21.3716 9.45645 22.0671 9.45645 22.9211V25.841C9.45645 26.6961 8.76091 27.3916 7.9064 27.3916ZM6.34443 22.4827C6.10245 22.4827 5.90605 22.6791 5.90605 22.9211V25.841C5.90605 26.083 6.10245 26.2805 6.34443 26.2805H7.90641C8.14838 26.2805 8.34533 26.083 8.34533 25.841V22.9211C8.34533 22.6791 8.14838 22.4827 7.90641 22.4827H6.34443Z" fill="#101016"/>
<path d="M33.6556 30.6152H32.094C31.5448 30.6152 31.0996 31.0604 31.0996 31.6096V34.5294C31.0996 35.0786 31.5448 35.5238 32.094 35.5238H33.6556C34.2048 35.5238 34.65 35.0786 34.65 34.5294V31.6096C34.65 31.0604 34.2048 30.6152 33.6556 30.6152Z" fill="#8EC8EE"/>
<path d="M33.6559 36.0788H32.0944C31.2405 36.0788 30.5449 35.3832 30.5449 34.5293V31.6093C30.5449 30.7554 31.2405 30.0598 32.0944 30.0598H33.6559C34.5109 30.0598 35.2064 30.7554 35.2064 31.6093V34.5293C35.2064 35.3832 34.5109 36.0788 33.6559 36.0788ZM32.0944 31.1709C31.8524 31.1709 31.656 31.3673 31.656 31.6093V34.5293C31.656 34.7713 31.8524 34.9677 32.0944 34.9677H33.6559C33.8978 34.9677 34.0953 34.7713 34.0953 34.5293V31.6093C34.0953 31.3673 33.8978 31.1709 33.6559 31.1709H32.0944Z" fill="#101016"/>
<path d="M33.6556 21.9271H32.094C31.5448 21.9271 31.0996 22.3723 31.0996 22.9215V25.8412C31.0996 26.3904 31.5448 26.8356 32.094 26.8356H33.6556C34.2048 26.8356 34.65 26.3904 34.65 25.8412V22.9215C34.65 22.3723 34.2048 21.9271 33.6556 21.9271Z" fill="#8EC8EE"/>
<path d="M33.6559 27.3916H32.0944C31.2405 27.3916 30.5449 26.6961 30.5449 25.841V22.9211C30.5449 22.0671 31.2405 21.3716 32.0944 21.3716H33.6559C34.5109 21.3716 35.2064 22.0671 35.2064 22.9211V25.841C35.2064 26.6961 34.5109 27.3916 33.6559 27.3916ZM32.0944 22.4827C31.8524 22.4827 31.656 22.6791 31.656 22.9211V25.841C31.656 26.083 31.8524 26.2805 32.0944 26.2805H33.6559C33.8978 26.2805 34.0953 26.083 34.0953 25.841V22.9211C34.0953 22.6791 33.8978 22.4827 33.6559 22.4827H32.0944Z" fill="#101016"/>
<path d="M38.31 15.3065H1.68883C1.06246 15.3065 0.554688 15.8143 0.554688 16.4407V17.9257C0.554688 18.5521 1.06246 19.0598 1.68883 19.0598H38.31C38.9363 19.0598 39.4441 18.5521 39.4441 17.9257V16.4407C39.4441 15.8143 38.9363 15.3065 38.31 15.3065Z" fill="#D1802F"/>
<path d="M38.3105 19.6153H1.68948C0.757931 19.6153 0 18.8574 0 17.9258V16.4409C0 15.5088 0.757931 14.7509 1.68948 14.7509H38.3105C39.2426 14.7509 40 15.5088 40 16.4409V17.9258C40 18.8574 39.2426 19.6153 38.3105 19.6153ZM1.68948 15.862C1.37046 15.862 1.11112 16.1219 1.11112 16.4409V17.9258C1.11112 18.2448 1.37046 18.5042 1.68948 18.5042H38.3105C38.6295 18.5042 38.8889 18.2448 38.8889 17.9258V16.4409C38.8889 16.1219 38.6295 15.862 38.3105 15.862H1.68948Z" fill="#101016"/>
<path d="M11.8223 12.7656H28.1766V38.3906H11.8223V12.7656Z" fill="#FFE691"/>
<path d="M22.5649 30.5784H17.4339C16.8847 30.5784 16.4395 31.0236 16.4395 31.5728V38.391H23.5593V31.5728C23.5593 31.0236 23.1141 30.5784 22.5649 30.5784Z" fill="#8EC8EE"/>
<path d="M19.9999 24.8026C22.5812 24.8026 24.6737 22.7101 24.6737 20.1288C24.6737 17.5476 22.5812 15.4551 19.9999 15.4551C17.4187 15.4551 15.3262 17.5476 15.3262 20.1288C15.3262 22.7101 17.4187 24.8026 19.9999 24.8026Z" fill="#F0F0FC"/>
<path opacity="0.15" d="M22.676 38.3912H11.8203V12.7687H17.3982C16.4315 16.5465 15.7648 22.0133 17.4537 28.1466C18.6871 32.6023 20.7649 35.9912 22.676 38.3912Z" fill="black"/>
<path d="M28.177 38.9467H11.8231C11.5161 38.9467 11.2676 38.6982 11.2676 38.3911V12.7658C11.2676 12.4587 11.5161 12.2102 11.8231 12.2102H28.177C28.4841 12.2102 28.7325 12.4587 28.7325 12.7658V38.3911C28.7326 38.6982 28.4841 38.9467 28.177 38.9467ZM12.3787 37.8356H27.6214V13.3213H12.3787V37.8356Z" fill="#101016"/>
<path d="M20.0009 38.9467C19.6938 38.9467 19.4453 38.6982 19.4453 38.3911V30.5785C19.4453 30.2714 19.6938 30.0229 20.0009 30.0229C20.308 30.0229 20.5564 30.2714 20.5564 30.5785V38.3911C20.5564 38.6982 20.308 38.9467 20.0009 38.9467Z" fill="#101016"/>
<path d="M23.5601 38.9467H16.4403C16.1332 38.9467 15.8848 38.6982 15.8848 38.3911V31.5725C15.8848 30.7185 16.5803 30.0229 17.4348 30.0229H22.5662C23.4201 30.0229 24.1157 30.7185 24.1157 31.5725V38.3911C24.1157 38.6982 23.8672 38.9467 23.5601 38.9467ZM16.9959 37.8356H23.0045V31.5725C23.0045 31.3305 22.8081 31.1341 22.5662 31.1341H17.4348C17.1928 31.1341 16.9959 31.3305 16.9959 31.5725V37.8356Z" fill="#101016"/>
<path d="M20.0009 20.6847C19.6938 20.6847 19.4453 20.4362 19.4453 20.1291V17.94C19.4453 17.6329 19.6938 17.3844 20.0009 17.3844C20.308 17.3844 20.5564 17.6329 20.5564 17.94V20.1291C20.5564 20.4362 20.308 20.6847 20.0009 20.6847Z" fill="#101016"/>
<path d="M21.7039 20.6847H20.0009C19.6938 20.6847 19.4453 20.4362 19.4453 20.1292C19.4453 19.8221 19.6938 19.5736 20.0009 19.5736H21.7039C22.011 19.5736 22.2595 19.8221 22.2595 20.1292C22.2595 20.4362 22.011 20.6847 21.7039 20.6847Z" fill="#101016"/>
<path d="M20.001 25.3581C17.1174 25.3581 14.7715 23.0122 14.7715 20.1291C14.7715 17.2455 17.1174 14.8995 20.001 14.8995C22.8847 14.8995 25.2306 17.2455 25.2306 20.1291C25.2306 23.0122 22.8847 25.3581 20.001 25.3581ZM20.001 16.0107C17.73 16.0107 15.8826 17.858 15.8826 20.1291C15.8826 22.4002 17.73 24.247 20.001 24.247C22.2716 24.247 24.1195 22.4002 24.1195 20.1291C24.1195 17.858 22.2716 16.0107 20.001 16.0107Z" fill="#101016"/>
<path d="M24.6883 6.32335H20V1.60876H24.6883C25.4227 1.60876 26.018 2.20409 26.018 2.93846V4.99365C26.018 5.72803 25.4227 6.32335 24.6883 6.32335Z" fill="#F7524B"/>
<path d="M24.689 6.87862H20.0009C19.6938 6.87862 19.4453 6.63014 19.4453 6.32306V1.60891C19.4453 1.30183 19.6938 1.05334 20.0009 1.05334H24.689C25.7285 1.05334 26.5749 1.89917 26.5749 2.93868V4.99383C26.5749 6.03334 25.7285 6.87862 24.689 6.87862ZM20.5564 5.76749H24.689C25.1165 5.76749 25.4637 5.42027 25.4637 4.99383V2.93868C25.4637 2.5117 25.1165 2.16448 24.689 2.16448H20.5564V5.76749Z" fill="#101016"/>
<path d="M20.0009 9.568C19.6938 9.568 19.4453 9.31951 19.4453 9.01244V1.60891C19.4453 1.30183 19.6938 1.05334 20.0009 1.05334C20.308 1.05334 20.5564 1.30183 20.5564 1.60891V9.01244C20.5564 9.31952 20.308 9.568 20.0009 9.568Z" fill="#101016"/>
<path d="M28.914 9.01257H11.0834C10.457 9.01257 9.94922 9.52035 9.94922 10.1467V11.6317C9.94922 12.2581 10.457 12.7659 11.0834 12.7659H28.914C29.5404 12.7659 30.0482 12.2581 30.0482 11.6317V10.1467C30.0482 9.52034 29.5404 9.01257 28.914 9.01257Z" fill="#D1802F"/>
<path d="M28.9152 13.3213H11.084C10.1525 13.3213 9.39453 12.5634 9.39453 11.6319V10.1469C9.39453 9.21484 10.1525 8.45691 11.084 8.45691H28.9152C29.8473 8.45691 30.6047 9.21484 30.6047 10.1469V11.6319C30.6047 12.5634 29.8473 13.3213 28.9152 13.3213ZM11.084 9.56803C10.765 9.56803 10.5057 9.82791 10.5057 10.1469V11.6319C10.5057 11.9509 10.765 12.2102 11.084 12.2102H28.9152C29.2342 12.2102 29.4935 11.9509 29.4935 11.6319V10.1469C29.4935 9.82791 29.2342 9.56803 28.9152 9.56803H11.084Z" fill="#101016"/>
</svg>
