<svg width="40" height="40" viewBox="0 0 40 40" fill="none" xmlns="http://www.w3.org/2000/svg">
<g clip-path="url(#clip0_5172_26778)">
<path d="M20.2109 0.587524V39.4125C30.8359 39.3 39.4141 30.6516 39.4141 20C39.4141 9.34846 30.8359 0.700024 20.2109 0.587524Z" fill="#FFB751"/>
<path d="M20.2109 0.5875C20.1406 0.586719 20.0703 0.585938 20 0.585938C9.27812 0.585938 0.585938 9.27812 0.585938 20C0.585938 30.7219 9.27812 39.4141 20 39.4141C20.0703 39.4141 20.1406 39.4133 20.2109 39.4125C29.1094 39.2781 36.2891 30.6383 36.2891 20C36.2891 9.36172 29.1094 0.721875 20.2109 0.5875Z" fill="#FFD764"/>
<path d="M6.27539 22.2857L8.3682 27.3382C9.76344 26.7603 10.4259 25.1607 9.84805 23.7655C9.27008 22.3703 7.67062 21.7077 6.27539 22.2857Z" fill="#FF5440"/>
<path d="M6.27467 22.2856C6.87232 22.0381 7.82584 22.9682 8.40373 24.3634C8.98162 25.7587 8.96506 27.0906 8.36748 27.3381C6.97224 27.916 5.37279 27.2535 4.79482 25.8583C4.21685 24.4631 4.87943 22.8635 6.27467 22.2856Z" fill="#FF804C"/>
<path d="M31.3223 11.9111L33.4151 16.9636C34.8103 16.3857 35.4728 14.7862 34.8949 13.391C34.317 11.9957 32.7174 11.3332 31.3223 11.9111Z" fill="#FF5440"/>
<path d="M31.3215 11.9111C31.9192 11.6635 32.8727 12.5937 33.4506 13.9889C34.0285 15.3842 34.0119 16.716 33.4144 16.9636C32.0191 17.5415 30.4197 16.879 29.8417 15.4838C29.2637 14.0885 29.9263 12.489 31.3215 11.9111Z" fill="#FF804C"/>
<path d="M27.1505 16.1669C26.8418 16.0696 26.5127 16.2411 26.4156 16.5497C25.5727 19.2258 23.6041 21.3757 21.0149 22.4483C18.4254 23.5208 15.5131 23.3925 13.0248 22.0961C12.738 21.9467 12.3839 22.058 12.2344 22.345C12.0849 22.6319 12.1963 22.9858 12.4833 23.1354C14.0231 23.9376 15.7075 24.3418 17.3963 24.3418C18.7743 24.3418 20.1555 24.0726 21.4633 23.531C24.3735 22.3255 26.5859 19.9093 27.5332 16.9018C27.6305 16.5931 27.4591 16.2641 27.1505 16.1669Z" fill="black"/>
<path d="M13.0439 17.1906C13.3429 17.0668 13.4848 16.724 13.361 16.425C12.7428 14.9325 11.0255 14.2213 9.53319 14.8395C8.04076 15.4578 7.32944 17.1749 7.94764 18.6674C8.04108 18.893 8.25928 19.0293 8.4892 19.0293C8.56397 19.0293 8.6399 19.0149 8.71319 18.9845C9.01217 18.8607 9.15412 18.5179 9.0303 18.2189C8.65936 17.3235 9.08615 16.2932 9.98162 15.9222C10.8769 15.5514 11.9073 15.9781 12.2783 16.8736C12.4022 17.1724 12.745 17.3144 13.0439 17.1906Z" fill="black"/>
<path d="M25.9942 8.94975C25.2712 8.65021 24.4749 8.65021 23.7519 8.94975C22.2594 9.56795 21.5482 11.2851 22.1664 12.7776C22.2598 13.0032 22.478 13.1394 22.708 13.1394C22.7827 13.1394 22.8587 13.1251 22.9319 13.0947C23.2309 12.9708 23.3729 12.6281 23.2491 12.3291C22.8781 11.4337 23.3049 10.4033 24.2004 10.0325C24.6342 9.85279 25.1119 9.85279 25.5458 10.0325C25.9796 10.2122 26.3174 10.5501 26.4971 10.9838C26.6209 11.2828 26.9638 11.4248 27.2626 11.3009C27.5616 11.1771 27.7036 10.8344 27.5798 10.5354C27.2803 9.81225 26.7172 9.2492 25.9942 8.94975Z" fill="black"/>
<path d="M22.4523 24.3893L21.3697 24.8377C21.0707 24.9615 20.9287 25.3044 21.0526 25.6033C21.1461 25.8289 21.3642 25.9651 21.5941 25.9651C21.6689 25.9651 21.7448 25.9508 21.8181 25.9204L22.9008 25.4719C23.1998 25.3481 23.3417 25.0053 23.2179 24.7064C23.094 24.4075 22.7512 24.2656 22.4523 24.3893Z" fill="black"/>
<path d="M9.7682 22.5659C9.54937 22.3275 9.17875 22.3117 8.94031 22.5306C8.70195 22.7494 8.68609 23.12 8.905 23.3585C9.07172 23.54 9.20508 23.7478 9.3014 23.976C9.52461 24.5047 9.52851 25.0887 9.3125 25.6203C9.09648 26.152 8.68633 26.5677 8.15765 26.7909C7.62898 27.0141 7.04507 27.0181 6.51336 26.8021C5.98172 26.586 5.56601 26.1759 5.34281 25.6472C5.11961 25.1185 5.1157 24.5346 5.33172 24.0029C5.54773 23.4713 5.95789 23.0556 6.48656 22.8324C6.71367 22.7365 6.95312 22.6807 7.19836 22.6665C7.5214 22.6478 7.7682 22.3708 7.74953 22.0478C7.73086 21.7247 7.45382 21.4768 7.13078 21.4966C6.75156 21.5185 6.38156 21.6046 6.03078 21.7527C5.21375 22.0976 4.57992 22.7401 4.24601 23.5617C3.91218 24.3834 3.91828 25.2859 4.2632 26.1029C4.60812 26.9199 5.25062 27.5538 6.07226 27.8877C6.47601 28.0517 6.89929 28.1337 7.32242 28.1337C7.76023 28.1337 8.19797 28.0459 8.61343 27.8705C9.43047 27.5256 10.0643 26.8831 10.3982 26.0614C10.7321 25.2398 10.726 24.3373 10.3811 23.5203C10.2323 23.1678 10.0261 22.8467 9.7682 22.5659Z" fill="black"/>
<path d="M35.4259 13.1459C35.2771 12.7936 35.0709 12.4724 34.813 12.1915C34.5942 11.9532 34.2235 11.9373 33.9852 12.1562C33.7468 12.375 33.7309 12.7457 33.9498 12.9841C34.1166 13.1657 34.2499 13.3735 34.3462 13.6017C34.5695 14.1304 34.5734 14.7143 34.3574 15.246C34.1414 15.7776 33.7312 16.1933 33.2026 16.4165C32.6739 16.6397 32.09 16.6437 31.5583 16.4277C31.0266 16.2117 30.6109 15.8015 30.3877 15.2729C30.1645 14.7442 30.1606 14.1602 30.3766 13.6286C30.5927 13.0969 31.0028 12.6812 31.5315 12.458C31.7587 12.3621 31.9981 12.3063 32.2432 12.2922C32.5662 12.2735 32.813 11.9965 32.7944 11.6735C32.7759 11.3504 32.4987 11.1046 32.1758 11.1222C31.7966 11.1441 31.4266 11.2303 31.0757 11.3784C30.2587 11.7233 29.6248 12.3658 29.2909 13.1875C28.9571 14.0091 28.9632 14.9116 29.3081 15.7286C29.653 16.5457 30.2955 17.1795 31.1172 17.5134C31.5209 17.6775 31.9442 17.7594 32.3673 17.7594C32.8052 17.7594 33.2429 17.6716 33.6584 17.4962C34.4754 17.1513 35.1092 16.5088 35.4431 15.6872C35.777 14.8655 35.7708 13.9629 35.4259 13.1459Z" fill="black"/>
<path d="M34.1422 5.85781C30.3646 2.08031 25.3422 0 20 0C14.6578 0 9.63539 2.08031 5.85781 5.85781C2.08023 9.63531 0 14.6578 0 20C0 25.3422 2.08031 30.3646 5.85781 34.1422C9.63531 37.9198 14.6578 40 20 40C25.3422 40 30.3646 37.9197 34.1422 34.1422C37.9198 30.3647 40 25.3422 40 20C40 14.6578 37.9197 9.63539 34.1422 5.85781ZM20 38.8281C9.61812 38.8281 1.17188 30.3819 1.17188 20C1.17188 9.61812 9.61812 1.17188 20 1.17188C30.3819 1.17188 38.8281 9.61812 38.8281 20C38.8281 30.3819 30.3819 38.8281 20 38.8281Z" fill="black"/>
</g>
<defs>
<clipPath id="clip0_5172_26778">
<rect width="40" height="40" fill="white"/>
</clipPath>
</defs>
</svg>
