<svg width="40" height="40" viewBox="0 0 40 40" fill="none" xmlns="http://www.w3.org/2000/svg">
<path d="M24.9585 27.5116V9.62844C24.9586 9.24709 24.8286 8.87713 24.5899 8.57967C24.3513 8.28222 24.0183 8.07509 23.646 7.9925L21.3023 7.47375H18.6973L16.3535 7.9925C15.9812 8.07509 15.6482 8.28222 15.4096 8.57967C15.1709 8.87713 15.0409 9.24709 15.041 9.62844V27.5116H24.9585Z" fill="#7ED8F6"/>
<path d="M18.5315 37.8125V18.5697C18.5316 18.1883 18.4015 17.8184 18.1629 17.521C17.9242 17.2236 17.5913 17.0166 17.219 16.934L14.8752 16.4153H12.2715L9.92773 16.934C9.55549 17.0166 9.22254 17.2237 8.98391 17.5211C8.74527 17.8185 8.61522 18.1884 8.61523 18.5697V37.8125H18.5315Z" fill="#FF9100"/>
<path d="M31.3859 37.8125V18.5697C31.386 18.1884 31.2559 17.8185 31.0173 17.5211C30.7786 17.2237 30.4457 17.0166 30.0734 16.934L27.7297 16.4153H25.125L22.7813 16.934C22.409 17.0166 22.076 17.2236 21.8374 17.521C21.5987 17.8184 21.4687 18.1883 21.4688 18.5697V37.8125H31.3859Z" fill="#FF9100"/>
<path d="M9.95031 37.8124V34.9224H11.0588C11.3365 34.9224 11.6028 34.8121 11.7992 34.6157C11.9956 34.4193 12.1059 34.153 12.1059 33.8752V27.5115C12.106 27.1302 11.976 26.7602 11.7374 26.4627C11.4987 26.1653 11.1657 25.9581 10.7934 25.8756L8.44969 25.3568H5.84375L3.5 25.8749C3.12762 25.9576 2.79459 26.1648 2.55595 26.4624C2.3173 26.76 2.18733 27.1301 2.1875 27.5115V33.8749C2.1875 34.1527 2.29783 34.419 2.49421 34.6154C2.6906 34.8118 2.95696 34.9221 3.23469 34.9221H4.34375V37.8124H9.95031Z" fill="#7ED8F6"/>
<path d="M35.6571 37.8124V34.9224H36.7655C36.9031 34.9225 37.0394 34.8955 37.1666 34.8429C37.2937 34.7903 37.4092 34.7131 37.5065 34.6158C37.6038 34.5186 37.681 34.403 37.7337 34.2759C37.7863 34.1488 37.8134 34.0125 37.8134 33.8749V27.5115C37.8134 27.1302 37.6833 26.7602 37.4447 26.4628C37.2061 26.1653 36.8731 25.9582 36.5009 25.8756L34.1571 25.3568H31.5527L29.209 25.8756C28.8367 25.9581 28.5037 26.1653 28.2651 26.4627C28.0264 26.7602 27.8964 27.1302 27.8965 27.5115V33.8749C27.8965 34.1527 28.0068 34.419 28.2032 34.6154C28.3996 34.8118 28.6659 34.9221 28.9437 34.9221H30.0521V37.8124H35.6571Z" fill="#7ED8F6"/>
<path d="M13.573 16.7359C15.1213 16.7359 16.3764 15.4808 16.3764 13.9325C16.3764 12.3842 15.1213 11.129 13.573 11.129C12.0247 11.129 10.7695 12.3842 10.7695 13.9325C10.7695 15.4808 12.0247 16.7359 13.573 16.7359Z" fill="#FF7900"/>
<path d="M26.4265 16.7359C27.9748 16.7359 29.2299 15.4808 29.2299 13.9325C29.2299 12.3842 27.9748 11.129 26.4265 11.129C24.8782 11.129 23.623 12.3842 23.623 13.9325C23.623 15.4808 24.8782 16.7359 26.4265 16.7359Z" fill="#FF7900"/>
<path d="M7.14719 25.6774C8.69548 25.6774 9.95062 24.4223 9.95062 22.874C9.95062 21.3257 8.69548 20.0706 7.14719 20.0706C5.59889 20.0706 4.34375 21.3257 4.34375 22.874C4.34375 24.4223 5.59889 25.6774 7.14719 25.6774Z" fill="#34C8EA"/>
<path d="M32.8523 25.6774C34.4006 25.6774 35.6557 24.4223 35.6557 22.874C35.6557 21.3257 34.4006 20.0706 32.8523 20.0706C31.304 20.0706 30.0488 21.3257 30.0488 22.874C30.0488 24.4223 31.304 25.6774 32.8523 25.6774Z" fill="#34C8EA"/>
<path d="M22.8029 37.8124V34.9224H23.9116C24.1893 34.9224 24.4556 34.812 24.6519 34.6156C24.8482 34.4192 24.9585 34.1529 24.9585 33.8752V27.5115C24.9586 27.1302 24.8286 26.7602 24.5899 26.4627C24.3513 26.1653 24.0183 25.9581 23.646 25.8756L21.3023 25.3568H18.6973L16.3535 25.8756C15.9812 25.9581 15.6482 26.1653 15.4096 26.4627C15.1709 26.7602 15.0409 27.1302 15.041 27.5115V33.8749C15.041 34.1526 15.1513 34.4189 15.3476 34.6153C15.5439 34.8117 15.8102 34.922 16.0879 34.9221H17.1966V37.8124H22.8029Z" fill="#7ED8F6"/>
<path d="M20.0007 25.6774C21.549 25.6774 22.8041 24.4223 22.8041 22.874C22.8041 21.3257 21.549 20.0706 20.0007 20.0706C18.4524 20.0706 17.1973 21.3257 17.1973 22.874C17.1973 24.4223 18.4524 25.6774 20.0007 25.6774Z" fill="#34C8EA"/>
<path d="M20.0007 7.79437C21.549 7.79437 22.8041 6.53923 22.8041 4.99094C22.8041 3.44264 21.549 2.1875 20.0007 2.1875C18.4524 2.1875 17.1973 3.44264 17.1973 4.99094C17.1973 6.53923 18.4524 7.79437 20.0007 7.79437Z" fill="#34C8EA"/>
<path d="M20 34.375C19.855 34.375 19.7159 34.4326 19.6133 34.5352C19.5107 34.6377 19.4531 34.7768 19.4531 34.9219V37.8125C19.4531 37.9575 19.5107 38.0966 19.6133 38.1992C19.7159 38.3018 19.855 38.3594 20 38.3594C20.145 38.3594 20.2841 38.3018 20.3867 38.1992C20.4893 38.0966 20.5469 37.9575 20.5469 37.8125V34.9225C20.547 34.8506 20.5329 34.7794 20.5054 34.713C20.478 34.6466 20.4377 34.5862 20.3869 34.5354C20.3361 34.4845 20.2758 34.4442 20.2094 34.4167C20.143 34.3892 20.0719 34.375 20 34.375Z" fill="black"/>
<path d="M7.14648 34.375C7.07466 34.375 7.00352 34.3891 6.93716 34.4165C6.87079 34.444 6.81048 34.4843 6.75969 34.5351C6.7089 34.5859 6.66862 34.6462 6.64115 34.7125C6.61369 34.7789 6.59957 34.85 6.59961 34.9219V37.8125C6.59961 37.9575 6.65723 38.0966 6.75979 38.1992C6.86234 38.3018 7.00144 38.3594 7.14648 38.3594C7.29152 38.3594 7.43062 38.3018 7.53318 38.1992C7.63574 38.0966 7.69336 37.9575 7.69336 37.8125V34.9225C7.69344 34.8506 7.67936 34.7794 7.65191 34.713C7.62446 34.6466 7.58419 34.5862 7.5334 34.5354C7.48261 34.4845 7.4223 34.4442 7.35591 34.4167C7.28952 34.3892 7.21835 34.375 7.14648 34.375Z" fill="black"/>
<path d="M30.0497 34.375H28.9413C28.8087 34.375 28.6815 34.3223 28.5877 34.2285C28.4939 34.1348 28.4413 34.0076 28.4413 33.875V27.5115C28.44 27.2542 28.5272 27.0043 28.6883 26.8037C28.8494 26.603 29.0745 26.4638 29.326 26.4093L31.4885 25.9309C31.9176 26.1243 32.3829 26.2244 32.8536 26.2244C33.3243 26.2244 33.7896 26.1243 34.2188 25.9309L36.3813 26.4093C36.5366 26.4439 36.6828 26.5108 36.8105 26.6058C36.9382 26.7007 37.0444 26.8215 37.1222 26.9603C37.1941 27.0847 37.3122 27.1758 37.4507 27.2139C37.5893 27.252 37.7373 27.234 37.8627 27.1638C37.9881 27.0936 38.0809 26.9769 38.1209 26.8389C38.1609 26.7008 38.145 26.5526 38.0766 26.4262C37.9235 26.1529 37.7144 25.915 37.463 25.7281C37.2116 25.5412 36.9236 25.4095 36.6178 25.3415L35.38 25.0678C35.8555 24.5238 36.142 23.8403 36.1965 23.1199C36.2511 22.3994 36.0709 21.6806 35.6827 21.0712C35.2946 20.4618 34.7195 19.9944 34.0436 19.7392C33.3677 19.4839 32.6272 19.4545 31.9331 19.6553V18.5697C31.9356 18.0631 31.7639 17.5711 31.4468 17.1761C31.1297 16.781 30.6864 16.507 30.1913 16.4L28.9531 16.125C29.4286 15.5809 29.7151 14.8975 29.7697 14.1771C29.8242 13.4566 29.644 12.7378 29.2559 12.1284C28.8678 11.5189 28.2927 11.0516 27.6167 10.7964C26.9408 10.5411 26.2003 10.5117 25.5063 10.7125V9.62809C25.5087 9.12153 25.337 8.62952 25.0198 8.23455C24.7026 7.83958 24.2592 7.56566 23.7641 7.45872L22.5263 7.18466C23.0856 6.54192 23.3788 5.71012 23.3461 4.85873C23.3135 4.00734 22.9575 3.20043 22.3506 2.6024C21.7437 2.00437 20.9317 1.66023 20.0799 1.6401C19.2281 1.61996 18.4007 1.92535 17.7663 2.49403C17.6617 2.59163 17.5995 2.72631 17.5931 2.86921C17.5866 3.01211 17.6364 3.15185 17.7318 3.25846C17.8272 3.36507 17.9605 3.43007 18.1033 3.43952C18.246 3.44898 18.3867 3.40213 18.4953 3.30903C18.8695 2.97442 19.3445 2.77412 19.8453 2.73981C20.3461 2.70549 20.844 2.83913 21.2603 3.11957C21.6766 3.40002 21.9876 3.81126 22.1439 4.28825C22.3002 4.76523 22.2931 5.28073 22.1236 5.75319C21.954 6.22565 21.6318 6.62811 21.2079 6.89689C20.784 7.16567 20.2825 7.28543 19.7829 7.23722C19.2833 7.18902 18.8139 6.97561 18.4492 6.63074C18.0845 6.28588 17.8452 5.82925 17.7691 5.33309C17.7451 5.19175 17.6666 5.06546 17.5504 4.98143C17.4343 4.8974 17.2898 4.86235 17.148 4.88381C17.0063 4.90528 16.8786 4.98155 16.7925 5.09621C16.7065 5.21087 16.6689 5.35474 16.6878 5.49684C16.7843 6.12328 17.0584 6.70892 17.4775 7.18434L16.236 7.45934C15.7409 7.56627 15.2977 7.84009 14.9805 8.23493C14.6633 8.62977 14.4915 9.12164 14.4938 9.62809V10.7137C13.7999 10.5133 13.0598 10.543 12.3842 10.7982C11.7086 11.0535 11.1338 11.5206 10.7458 12.1298C10.3578 12.7389 10.1775 13.4573 10.2317 14.1775C10.286 14.8976 10.572 15.5809 11.0469 16.125L9.80908 16.3987C9.31396 16.5058 8.87069 16.7798 8.55356 17.1748C8.23644 17.5698 8.06472 18.0618 8.06721 18.5684V19.6562C7.37314 19.4554 6.6327 19.4849 5.95676 19.7401C5.28081 19.9954 4.70573 20.4627 4.31762 21.0721C3.9295 21.6816 3.74924 22.4003 3.80381 23.1208C3.85838 23.8413 4.14485 24.5247 4.62033 25.0687L3.38252 25.3425C2.88753 25.4496 2.44438 25.7235 2.12727 26.1184C1.81016 26.5133 1.63836 27.0051 1.64065 27.5115V33.875C1.64123 34.2975 1.80932 34.7025 2.10809 35.0013C2.40685 35.3 2.81189 35.4681 3.2344 35.4687H3.7969V37.8125C3.7969 37.9575 3.85451 38.0966 3.95707 38.1992C4.05963 38.3017 4.19873 38.3593 4.34377 38.3593C4.48881 38.3593 4.62791 38.3017 4.73047 38.1992C4.83303 38.0966 4.89065 37.9575 4.89065 37.8125V34.9225C4.89077 34.8506 4.87671 34.7794 4.84928 34.713C4.82185 34.6465 4.78158 34.5861 4.73078 34.5353C4.67999 34.4844 4.61965 34.4441 4.55325 34.4166C4.48684 34.3891 4.41565 34.3749 4.34377 34.375H3.23471C3.1021 34.375 2.97492 34.3223 2.88116 34.2285C2.78739 34.1348 2.73471 34.0076 2.73471 33.875V27.5115C2.73347 27.2542 2.82068 27.0043 2.98174 26.8037C3.1428 26.603 3.36792 26.4638 3.6194 26.4093L5.7819 25.9309C6.21102 26.1243 6.67635 26.2244 7.14705 26.2244C7.61776 26.2244 8.08309 26.1243 8.51221 25.9309L10.6747 26.4093C10.9262 26.4638 11.1513 26.603 11.3124 26.8037C11.4734 27.0043 11.5606 27.2542 11.5594 27.5115V33.875C11.5594 34.0076 11.5067 34.1348 11.413 34.2285C11.3192 34.3223 11.192 34.375 11.0594 34.375H9.95033C9.87851 34.3749 9.80737 34.389 9.74101 34.4165C9.67464 34.444 9.61433 34.4843 9.56354 34.5351C9.51275 34.5858 9.47247 34.6461 9.445 34.7125C9.41754 34.7789 9.40342 34.85 9.40346 34.9218V37.8125C9.40346 37.9575 9.46108 38.0966 9.56364 38.1992C9.66619 38.3017 9.80529 38.3593 9.95033 38.3593C10.0954 38.3593 10.2345 38.3017 10.337 38.1992C10.4396 38.0966 10.4972 37.9575 10.4972 37.8125V35.4687H11.0597C11.4822 35.4681 11.8873 35.3 12.186 35.0013C12.4848 34.7025 12.6529 34.2975 12.6535 33.875V27.5115C12.656 27.0049 12.4843 26.5129 12.1671 26.1178C11.85 25.7227 11.4067 25.4487 10.9116 25.3415L9.67377 25.0678C9.976 24.7221 10.2036 24.3177 10.3422 23.8799C10.4809 23.4421 10.5276 22.9805 10.4796 22.5238C10.4315 22.0671 10.2896 21.6253 10.0628 21.226C9.836 20.8267 9.52919 20.4786 9.16158 20.2034V18.5697C9.16048 18.3126 9.2477 18.063 9.40863 17.8626C9.56956 17.6622 9.79445 17.5231 10.0456 17.4687L12.2081 16.9897C12.6372 17.1833 13.1026 17.2834 13.5733 17.2834C14.044 17.2834 14.5094 17.1833 14.9385 16.9897L17.1013 17.4687C17.3527 17.5231 17.5777 17.6622 17.7388 17.8627C17.8998 18.0633 17.9869 18.3131 17.9856 18.5703V20.204C17.6182 20.4793 17.3115 20.8275 17.0847 21.2268C16.858 21.626 16.7162 22.0678 16.6681 22.5245C16.62 22.9811 16.6667 23.4427 16.8053 23.8805C16.9439 24.3182 17.1714 24.7226 17.4735 25.0684L16.236 25.3422C15.7408 25.4492 15.2974 25.7233 14.9802 26.1183C14.663 26.5134 14.4913 27.0055 14.4938 27.5122V33.875C14.4944 34.2975 14.6624 34.7025 14.9612 35.0013C15.26 35.3 15.665 35.4681 16.0875 35.4687H16.65V37.8125C16.65 37.9575 16.7076 38.0966 16.8102 38.1992C16.9128 38.3017 17.0519 38.3593 17.1969 38.3593C17.3419 38.3593 17.481 38.3017 17.5836 38.1992C17.6862 38.0966 17.7438 37.9575 17.7438 37.8125V34.9225C17.7438 34.7774 17.6862 34.6383 17.5836 34.5358C17.481 34.4332 17.3419 34.3756 17.1969 34.3756H16.0878C15.9552 34.3756 15.828 34.3229 15.7343 34.2291C15.6405 34.1354 15.5878 34.0082 15.5878 33.8756V27.5115C15.5866 27.2542 15.6738 27.0043 15.8349 26.8037C15.9959 26.603 16.2211 26.4638 16.4725 26.4093L18.6353 25.9309C19.0644 26.1243 19.5297 26.2243 20.0003 26.2243C20.471 26.2243 20.9363 26.1243 21.3653 25.9309L23.5281 26.4093C23.7796 26.4638 24.0047 26.603 24.1658 26.8037C24.3269 27.0043 24.4141 27.2542 24.4128 27.5115V33.875C24.4128 34.0076 24.3602 34.1348 24.2664 34.2285C24.1726 34.3223 24.0454 34.375 23.9128 34.375H22.8035C22.6584 34.375 22.5193 34.4326 22.4168 34.5351C22.3142 34.6377 22.2566 34.7768 22.2566 34.9218V37.8125C22.2566 37.9575 22.3142 38.0966 22.4168 38.1992C22.5193 38.3017 22.6584 38.3593 22.8035 38.3593C22.9485 38.3593 23.0876 38.3017 23.1902 38.1992C23.2927 38.0966 23.3503 37.9575 23.3503 37.8125V35.4687H23.9128C24.3353 35.4681 24.7403 35.2999 25.0391 35.0012C25.3378 34.7024 25.5059 34.2975 25.5066 33.875V27.5115C25.5091 27.0049 25.3373 26.5128 25.0201 26.1177C24.7029 25.7226 24.2596 25.4486 23.7644 25.3415L22.5269 25.0678C22.829 24.722 23.0565 24.3176 23.195 23.8798C23.3336 23.4421 23.3803 22.9805 23.3322 22.5238C23.2842 22.0672 23.1423 21.6254 22.9156 21.2261C22.6889 20.8269 22.3822 20.4787 22.0147 20.2034V18.5697C22.0134 18.3125 22.1006 18.0626 22.2616 17.8621C22.4226 17.6615 22.6477 17.5224 22.8991 17.4681L25.0625 16.989C25.4916 17.1826 25.9569 17.2828 26.4277 17.2828C26.8984 17.2828 27.3638 17.1826 27.7928 16.989L29.9553 17.4681C30.2068 17.5224 30.4319 17.6615 30.5929 17.8621C30.754 18.0626 30.8412 18.3124 30.84 18.5697V20.2034C30.4724 20.4786 30.1656 20.8267 29.9388 21.226C29.712 21.6253 29.5701 22.0671 29.5221 22.5238C29.474 22.9805 29.5207 23.4421 29.6594 23.8799C29.798 24.3177 30.0256 24.7221 30.3278 25.0678L29.09 25.3415C28.5949 25.4487 28.1516 25.7227 27.8345 26.1178C27.5173 26.5129 27.3456 27.0049 27.3481 27.5115V33.875C27.3487 34.2975 27.5168 34.7025 27.8156 35.0013C28.1143 35.3 28.5194 35.4681 28.9419 35.4687H29.5044V37.8125C29.5044 37.9575 29.562 38.0966 29.6646 38.1992C29.7671 38.3017 29.9062 38.3593 30.0513 38.3593C30.1963 38.3593 30.3354 38.3017 30.438 38.1992C30.5405 38.0966 30.5981 37.9575 30.5981 37.8125V34.9225C30.5983 34.8505 30.5842 34.7791 30.5566 34.7126C30.5291 34.646 30.4887 34.5856 30.4377 34.5347C30.3868 34.4838 30.3263 34.4435 30.2597 34.4161C30.1931 34.3887 30.1217 34.3747 30.0497 34.375ZM7.1469 25.1306C6.70055 25.1306 6.26423 24.9982 5.89312 24.7502C5.52201 24.5022 5.23278 24.1498 5.06202 23.7374C4.89125 23.325 4.84662 22.8712 4.93376 22.4335C5.02091 21.9957 5.23592 21.5936 5.5516 21.2781C5.86728 20.9625 6.26945 20.7477 6.70724 20.6607C7.14503 20.5738 7.59878 20.6186 8.0111 20.7895C8.42341 20.9604 8.77578 21.2498 9.02362 21.621C9.27146 21.9922 9.40365 22.4286 9.40346 22.875C9.40247 23.4731 9.16438 24.0464 8.74138 24.4692C8.31838 24.892 7.74498 25.1299 7.1469 25.1306ZM11.3166 13.9325C11.3165 13.4861 11.4488 13.0497 11.6968 12.6785C11.9447 12.3074 12.2972 12.018 12.7096 11.8472C13.122 11.6763 13.5758 11.6316 14.0136 11.7186C14.4514 11.8057 14.8535 12.0206 15.1692 12.3362C15.4849 12.6518 15.6998 13.0539 15.7869 13.4917C15.8741 13.9295 15.8294 14.3833 15.6586 14.7958C15.4878 15.2082 15.1985 15.5607 14.8273 15.8087C14.4562 16.0567 14.0198 16.189 13.5735 16.189C12.9752 16.1884 12.4015 15.9504 11.9784 15.5274C11.5554 15.1044 11.3173 14.5308 11.3166 13.9325ZM20 25.1306C19.5537 25.1306 19.1174 24.9982 18.7462 24.7502C18.3751 24.5022 18.0859 24.1498 17.9151 23.7374C17.7444 23.325 17.6997 22.8712 17.7869 22.4335C17.874 21.9957 18.089 21.5936 18.4047 21.2781C18.7204 20.9625 19.1226 20.7477 19.5604 20.6607C19.9982 20.5738 20.4519 20.6186 20.8642 20.7895C21.2765 20.9604 21.6289 21.2498 21.8767 21.621C22.1246 21.9922 22.2568 22.4286 22.2566 22.875C22.2557 23.4731 22.0176 24.0464 21.5946 24.4693C21.1716 24.8921 20.5981 25.1299 20 25.1306ZM22.6625 16.4C22.1674 16.507 21.7241 16.781 21.407 17.1761C21.0899 17.5711 20.9182 18.0631 20.9206 18.5697V19.6562C20.3194 19.4808 19.6806 19.4808 19.0794 19.6562V18.5697C19.0819 18.0631 18.9102 17.5711 18.593 17.1761C18.2759 16.781 17.8326 16.507 17.3375 16.4L16.1 16.125C16.4022 15.7792 16.6296 15.3747 16.7682 14.9369C16.9068 14.4991 16.9535 14.0375 16.9054 13.5808C16.8573 13.1241 16.7154 12.6823 16.4886 12.283C16.2619 11.8837 15.9551 11.5355 15.5875 11.2603V9.62809C15.5863 9.37087 15.6735 9.12105 15.8346 8.9205C15.9957 8.71995 16.2208 8.58086 16.4722 8.52653L18.6416 8.04622C19.0694 8.24014 19.5336 8.34046 20.0033 8.34046C20.473 8.34046 20.9372 8.24014 21.365 8.04622L23.5278 8.52497C23.7795 8.57935 24.0048 8.71867 24.1659 8.91955C24.327 9.12042 24.4141 9.37061 24.4125 9.62809V11.2615C24.0452 11.5368 23.7385 11.8849 23.5119 12.2841C23.2852 12.6833 23.1434 13.1249 23.0953 13.5815C23.0472 14.038 23.0939 14.4995 23.2323 14.9372C23.3708 15.3748 23.5981 15.7792 23.9 16.125L22.6625 16.4ZM24.17 13.9312C24.17 13.4848 24.3023 13.0484 24.5502 12.6772C24.7982 12.3061 25.1507 12.0167 25.5631 11.8459C25.9755 11.675 26.4293 11.6303 26.8671 11.7174C27.3049 11.8045 27.7071 12.0194 28.0227 12.3351C28.3384 12.6507 28.5533 13.0529 28.6404 13.4907C28.7275 13.9285 28.6828 14.3823 28.5119 14.7947C28.3411 15.2071 28.0517 15.5596 27.6806 15.8076C27.3094 16.0555 26.873 16.1878 26.4266 16.1878C25.8285 16.1871 25.2551 15.9493 24.8321 15.5266C24.4091 15.1038 24.171 14.5305 24.17 13.9325V13.9312ZM32.8531 20.6175C33.2994 20.6175 33.7357 20.7498 34.1067 20.9977C34.4778 21.2456 34.767 21.598 34.9379 22.0103C35.1087 22.4225 35.1534 22.8762 35.0664 23.3139C34.9794 23.7516 34.7646 24.1537 34.4491 24.4693C34.1336 24.785 33.7316 24.9999 33.294 25.0871C32.8563 25.1743 32.4026 25.1297 31.9902 24.9591C31.5779 24.7884 31.2254 24.4994 30.9773 24.1284C30.7293 23.7574 30.5968 23.3212 30.5966 22.875C30.5971 22.2766 30.835 21.7028 31.258 21.2796C31.6811 20.8563 32.2547 20.6182 32.8531 20.6175Z" fill="black"/>
<path d="M37.8125 33.3284C37.6675 33.3285 37.5284 33.3861 37.4259 33.4886C37.3234 33.5912 37.2657 33.7302 37.2656 33.8752C37.2656 34.0079 37.2129 34.135 37.1192 34.2288C37.0254 34.3226 36.8982 34.3752 36.7656 34.3752H35.6563C35.5844 34.3752 35.5133 34.3893 35.4469 34.4168C35.3806 34.4443 35.3202 34.4845 35.2695 34.5353C35.2187 34.5861 35.1784 34.6464 35.1509 34.7128C35.1235 34.7792 35.1093 34.8503 35.1094 34.9221V37.8124C35.1094 37.9575 35.167 38.0966 35.2696 38.1991C35.3721 38.3017 35.5112 38.3593 35.6563 38.3593C35.8013 38.3593 35.9404 38.3017 36.043 38.1991C36.1455 38.0966 36.2031 37.9575 36.2031 37.8124V35.4687H36.7656C37.1881 35.4681 37.5932 35.3 37.8919 35.0012C38.1907 34.7025 38.3588 34.2974 38.3594 33.8749C38.3592 33.73 38.3015 33.591 38.199 33.4885C38.0965 33.3861 37.9575 33.3285 37.8125 33.3284Z" fill="black"/>
<path d="M37.8125 29.0375C37.6675 29.0376 37.5284 29.0952 37.4259 29.1977C37.3234 29.3003 37.2657 29.4393 37.2656 29.5844V30.9906C37.2656 31.1356 37.3232 31.2747 37.4258 31.3773C37.5284 31.4799 37.6675 31.5375 37.8125 31.5375C37.9575 31.5375 38.0966 31.4799 38.1992 31.3773C38.3018 31.2747 38.3594 31.1356 38.3594 30.9906V29.5844C38.3593 29.4393 38.3016 29.3003 38.1991 29.1977C38.0966 29.0952 37.9575 29.0376 37.8125 29.0375Z" fill="black"/>
<path d="M32.8535 34.375C32.7085 34.375 32.5694 34.4326 32.4668 34.5352C32.3643 34.6377 32.3066 34.7768 32.3066 34.9219V37.8125C32.3066 37.9575 32.3643 38.0966 32.4668 38.1992C32.5694 38.3018 32.7085 38.3594 32.8535 38.3594C32.9986 38.3594 33.1377 38.3018 33.2402 38.1992C33.3428 38.0966 33.4004 37.9575 33.4004 37.8125V34.9225C33.4005 34.8506 33.3865 34.7794 33.359 34.713C33.3316 34.6465 33.2913 34.5862 33.2405 34.5353C33.1897 34.4844 33.1294 34.4441 33.063 34.4166C32.9966 34.3891 32.9254 34.375 32.8535 34.375Z" fill="black"/>
</svg>
