<svg width="20" height="21" viewBox="0 0 20 21" fill="none" xmlns="http://www.w3.org/2000/svg">
<g clip-path="url(#clip0_3708_27252)">
<path d="M13.7265 12.1979C13.689 11.8737 13.3776 11.5624 13.0526 11.5241C12.2557 11.4386 9.09403 11.4386 8.29715 11.5241C7.97255 11.5624 7.66122 11.8737 7.62333 12.1979C7.5538 12.8487 7.5413 18.4304 7.58505 19.7714C7.59051 19.9351 7.7245 20.0729 7.88778 20.0823C9.74833 20.187 11.6136 20.1866 13.4741 20.0815C13.639 20.0722 13.7733 19.9319 13.7768 19.7671C13.805 18.4374 13.7882 12.7788 13.7265 12.1979ZM10.2515 17.9257C10.2366 18.0542 10.1132 18.1776 9.98466 18.1925C9.66903 18.2261 9.3534 18.2261 9.03817 18.1925C8.90965 18.1776 8.78622 18.0542 8.77137 17.9257C8.73778 17.6101 8.73778 16.921 8.77137 16.6054C8.78622 16.4769 8.90965 16.3534 9.03817 16.3386C9.3538 16.305 9.66942 16.305 9.98466 16.3386C10.1132 16.3534 10.2366 16.4769 10.2515 16.6054C10.285 16.921 10.285 17.6101 10.2515 17.9257ZM10.2515 14.6792C10.2366 14.8077 10.1132 14.9312 9.98466 14.946C9.66903 14.9796 9.3534 14.9796 9.03817 14.946C8.90965 14.9312 8.78622 14.8077 8.77137 14.6792C8.73778 14.3636 8.73778 13.6745 8.77137 13.3589C8.78622 13.2304 8.90965 13.1069 9.03817 13.0921C9.3538 13.0585 9.66942 13.0585 9.98466 13.0921C10.1132 13.1069 10.2366 13.2304 10.2515 13.3589C10.285 13.6745 10.285 14.3636 10.2515 14.6792ZM12.5792 17.9257C12.5643 18.0542 12.4409 18.1776 12.3124 18.1925C11.9968 18.2261 11.6811 18.2261 11.3659 18.1925C11.2374 18.1776 11.114 18.0542 11.0991 17.9257C11.0655 17.6101 11.0655 16.921 11.0991 16.6054C11.114 16.4769 11.2374 16.3534 11.3659 16.3386C11.6815 16.305 11.9972 16.305 12.3124 16.3386C12.4409 16.3534 12.5643 16.4769 12.5792 16.6054C12.6128 16.921 12.6128 17.6101 12.5792 17.9257ZM12.5792 14.6792C12.5643 14.8077 12.4409 14.9312 12.3124 14.946C11.9968 14.9796 11.6811 14.9796 11.3659 14.946C11.2374 14.9312 11.114 14.8077 11.0991 14.6792C11.0655 14.3636 11.0655 13.6745 11.0991 13.3589C11.114 13.2304 11.2374 13.1069 11.3659 13.0921C11.6815 13.0585 11.9972 13.0585 12.3124 13.0921C12.4409 13.1069 12.5643 13.2304 12.5792 13.3589C12.6128 13.6745 12.6128 14.3636 12.5792 14.6792Z" fill="#C4D8FE"/>
<path d="M6.03516 5.01191C6.83672 5.01191 7.74922 5.0209 8.54375 5.04199C8.53516 4.18926 8.52187 3.5127 8.5043 3.34668C8.47383 3.08418 8.22187 2.83223 7.95898 2.80137C7.31445 2.73223 4.75547 2.73223 4.11094 2.80137C3.84805 2.83223 3.59609 3.08418 3.56563 3.34668C3.54609 3.53105 3.53203 4.20176 3.52344 5.04199C4.31875 5.02051 5.23242 5.01191 6.03477 5.01191H6.03516Z" fill="#C4D8FE"/>
<path d="M6.03477 2.04707C6.21094 2.04707 6.39453 2.04785 6.58125 2.04902V0.727148C6.58125 0.425195 6.33672 0.180664 6.03477 0.180664C5.73281 0.180664 5.48828 0.425195 5.48828 0.727148V2.04902C5.67461 2.04785 5.85859 2.04707 6.03477 2.04707Z" fill="#C4D8FE"/>
<path d="M11.2041 7.35508C11.1404 6.80586 10.6131 6.27813 10.0631 6.21367C8.71348 6.06875 3.35801 6.06875 2.0084 6.21367C1.4584 6.27813 0.931055 6.80547 0.867383 7.35508C0.844727 7.56602 0.825977 8.05937 0.810352 8.73477H4.34004C4.64199 8.73477 4.88652 8.9793 4.88652 9.28125C4.88652 9.5832 4.64199 9.82773 4.34004 9.82773H0.790039C0.783008 10.2973 0.777539 10.8094 0.772852 11.3469H4.33965C4.6416 11.3469 4.88613 11.5914 4.88613 11.8934C4.88613 12.1953 4.6416 12.4398 4.33965 12.4398H0.765039C0.762305 12.9402 0.760352 13.4508 0.75957 13.959H4.33965C4.6416 13.959 4.88613 14.2035 4.88613 14.5055C4.88613 14.8074 4.6416 15.052 4.33965 15.052H0.758789C0.758789 15.5727 0.760352 16.0801 0.762695 16.5598H4.33965C4.6416 16.5598 4.88613 16.8043 4.88613 17.1063C4.88613 17.4082 4.6416 17.6527 4.33965 17.6527H0.770508C0.777539 18.4426 0.788086 19.0973 0.802148 19.5227C0.811133 19.8 1.03809 20.0336 1.31504 20.0492C3.06074 20.1473 4.8084 20.191 6.55606 20.1801C6.51895 20.0605 6.49746 19.9355 6.49316 19.8082C6.44863 18.4492 6.45762 12.8285 6.53691 12.0828V12.0777L6.53809 12.0727C6.58457 11.6723 6.77715 11.2848 7.08027 10.9816C7.38301 10.6789 7.77012 10.4863 8.17012 10.4395L8.17559 10.4387H8.18105C8.78926 10.3727 10.2439 10.3676 10.6756 10.3676C10.8037 10.3676 11.0232 10.368 11.2834 10.3703C11.2654 8.85469 11.2393 7.67773 11.2049 7.35508H11.2041Z" fill="#C4D8FE"/>
<path d="M19.173 9.69185C19.1398 9.40552 18.8648 8.91685 18.5785 8.88325C17.9043 8.81099 13.3449 8.80786 12.3516 8.87427C12.3605 9.32153 12.3684 9.83521 12.3754 10.3911C12.6863 10.4016 12.9719 10.4161 13.1688 10.4376H13.1738L13.1789 10.4387C13.5793 10.4856 13.9664 10.6782 14.2691 10.9809C14.3805 11.0922 14.477 11.2153 14.5566 11.3461H17.3664C17.6684 11.3461 17.9129 11.5907 17.9129 11.8926C17.9129 12.1946 17.6684 12.4391 17.3664 12.4391H14.8324C14.8453 12.7876 14.8555 13.3254 14.8633 13.9583H17.3664C17.6684 13.9583 17.9129 14.2028 17.9129 14.5047C17.9129 14.8067 17.6684 15.0512 17.3664 15.0512H14.8734C14.877 15.5442 14.8793 16.0575 14.8805 16.559H17.3664C17.6684 16.559 17.9129 16.8036 17.9129 17.1055C17.9129 17.4075 17.6684 17.652 17.3664 17.652H14.8816C14.8813 18.6149 14.8766 19.4235 14.8688 19.7907C14.866 19.9184 14.8457 20.0422 14.8105 20.1598C16.3598 20.168 18.018 20.145 18.9641 20.0918C19.1094 20.0836 19.2281 19.9598 19.2312 19.8141C19.2562 18.6407 19.2273 10.2051 19.1727 9.69263L19.173 9.69185Z" fill="#C4D8FE"/>
</g>
<defs>
<clipPath id="clip0_3708_27252">
<rect width="20" height="20" fill="white" transform="translate(0 0.180664)"/>
</clipPath>
</defs>
</svg>
