<svg width="48" height="44" viewBox="0 0 48 44" fill="none" xmlns="http://www.w3.org/2000/svg">
<path d="M24 7.55749C24.5177 7.55749 24.9375 7.13767 24.9375 6.61999V1.84436C24.9375 1.32667 24.5178 0.90686 24 0.90686C23.4822 0.90686 23.0625 1.32658 23.0625 1.84436V6.61999C23.0626 7.13767 23.4823 7.55749 24 7.55749Z" fill="#9473F2"/>
<path d="M16.9509 9.09757C17.1292 9.38041 17.4336 9.53528 17.7449 9.53528C17.9157 9.53528 18.0887 9.4886 18.2438 9.39082C18.6818 9.11482 18.8131 8.53591 18.5371 8.09782L16.0392 4.13453C15.7631 3.69653 15.1842 3.56519 14.7463 3.84128C14.3083 4.11728 14.1771 4.69619 14.4531 5.13428L16.9509 9.09757Z" fill="#9473F2"/>
<path d="M29.7584 9.39102C29.9136 9.48862 30.0864 9.53521 30.257 9.53521C30.5684 9.53521 30.873 9.38015 31.0512 9.09712L33.5465 5.13384C33.8223 4.69565 33.6908 4.11693 33.2526 3.84093C32.8142 3.56521 32.2357 3.69684 31.9598 4.13484L29.4645 8.09812C29.1887 8.5364 29.3203 9.11512 29.7584 9.39102Z" fill="#9473F2"/>
<path d="M47.6978 22.978L46.0689 20.1003C45.8137 19.6496 45.2416 19.4912 44.7914 19.7463C44.3407 20.0014 44.1823 20.5734 44.4374 21.0239L46.0655 23.9003C46.1471 24.0449 46.1259 24.1843 46.106 24.2545C46.0869 24.3221 46.0342 24.4469 45.8964 24.523L43.386 25.9136C43.1629 26.0368 42.8718 25.959 42.7502 25.7445L42.1125 24.6163C42.1098 24.6112 42.1068 24.6065 42.1041 24.6016L35.5107 12.9396C35.4292 12.7961 35.4498 12.6585 35.4693 12.5892C35.4882 12.5222 35.5405 12.3983 35.6783 12.3221L38.1917 10.9312C38.4176 10.8062 38.7015 10.8821 38.825 11.1009L40.2945 13.6971C40.5495 14.1478 41.1217 14.3061 41.5721 14.0512C42.0227 13.7962 42.1812 13.2242 41.9262 12.7736L40.4574 10.1785C39.831 9.06794 38.4076 8.6696 37.2843 9.2905L34.771 10.6814C34.2271 10.9819 33.8342 11.4787 33.6647 12.0805C33.5048 12.6479 33.562 13.2402 33.8238 13.76L32.4393 14.1613C31.8495 14.3319 31.4916 14.4244 31.2929 14.4244C31.2921 14.4244 31.2914 14.4244 31.2906 14.4244C31.1538 14.424 31.0047 14.3718 30.579 14.2105C30.3858 14.1374 30.1454 14.0463 29.8498 13.9431L27.3968 13.0856C26.0401 12.6118 25.4282 12.6373 24.5417 12.7182L20.359 13.0925C18.4522 13.2615 17.2365 13.6916 16.5655 14.4376L14.1818 13.7469C14.4383 13.2293 14.4933 12.6427 14.3349 12.0805C14.1654 11.4791 13.7728 10.9824 13.2295 10.6818L10.7175 9.29031C9.59329 8.66885 8.16914 9.06738 7.54261 10.1777L0.304732 22.9767C-0.00511171 23.5222 -0.0817992 24.1567 0.0890133 24.7634C0.258701 25.3658 0.651513 25.8631 1.19433 26.1633L3.70626 27.5546C4.06542 27.7532 4.45561 27.8475 4.84064 27.8475C5.65861 27.8475 6.45379 27.4219 6.8812 26.6673L7.14661 26.1978C7.87092 26.5167 8.47908 26.9799 8.89354 27.5283C8.48873 28.0014 8.23373 28.5852 8.1622 29.2202C8.0677 30.0599 8.30489 30.8838 8.83008 31.5405C9.35076 32.1916 10.0953 32.6024 10.9279 32.6991C10.8398 33.5317 11.0779 34.3475 11.5991 34.9969C12.1378 35.6704 12.8991 36.0633 13.6955 36.1561C13.6078 36.9874 13.845 37.8025 14.3646 38.4523C14.885 39.1048 15.6298 39.5164 16.4632 39.6132C16.375 40.4464 16.6131 41.2627 17.1343 41.9122C17.7555 42.6888 18.6725 43.0932 19.5983 43.0931C20.2894 43.0931 20.9854 42.8677 21.5665 42.4037L23.5294 40.833C23.6853 40.7086 23.827 40.571 23.9544 40.4229L25.0756 41.3186C25.6555 41.7813 26.3499 42.0062 27.0401 42.0061C27.9663 42.006 28.8849 41.6012 29.5069 40.8238C29.8348 40.4139 30.0423 39.9461 30.1361 39.4632C30.4639 39.5766 30.81 39.6352 31.1629 39.6351C31.2812 39.6351 31.4003 39.6286 31.5197 39.6153C32.3597 39.5221 33.1109 39.109 33.6328 38.4544C34.1549 37.804 34.393 36.9883 34.305 36.1558C35.1008 36.0629 35.8625 35.6701 36.4028 34.9968C36.9409 34.324 37.1569 33.4956 37.0724 32.6989C37.9045 32.602 38.6487 32.1913 39.1681 31.5417C39.6937 30.8868 39.9319 30.0641 39.8388 29.225C39.7681 28.5881 39.513 28.0023 39.1074 27.528C39.5206 26.9797 40.1276 26.5159 40.8524 26.1973L41.1183 26.6677C41.5455 27.422 42.3403 27.8474 43.1584 27.8474C43.5436 27.8473 43.9342 27.753 44.2937 27.5542L46.8043 26.1635C47.3469 25.8635 47.7395 25.367 47.9099 24.7656C48.0816 24.1595 48.0065 23.525 47.6978 22.978ZM5.24939 25.744C5.12751 25.9593 4.83623 26.0369 4.61414 25.914L2.10229 24.5227C1.96514 24.4468 1.91283 24.3225 1.8937 24.2551C1.87411 24.1852 1.8532 24.0466 1.93589 23.9013L9.17489 11.0997C9.25776 10.9528 9.41395 10.8705 9.57614 10.8705C9.65508 10.8705 9.73533 10.8899 9.80939 10.9308L12.3206 12.3219C12.3209 12.3221 12.3211 12.3223 12.3214 12.3224C12.4589 12.3984 12.5111 12.5223 12.53 12.5893C12.5495 12.6586 12.5701 12.7962 12.4877 12.9413L5.24939 25.744ZM12.0907 30.5684C11.8263 30.7802 11.4925 30.8759 11.1513 30.8379C10.81 30.8 10.5058 30.6337 10.2945 30.3695C10.0827 30.1047 9.98723 29.7709 10.0256 29.4299C10.0637 29.0902 10.2301 28.7875 10.4958 28.5761L14.0056 25.7705C14.5565 25.3308 15.3629 25.4212 15.8031 25.9711C16.0148 26.2357 16.1103 26.5689 16.0721 26.9089C16.034 27.2478 15.8675 27.5503 15.6033 27.7605C15.5975 27.7651 15.5925 27.7702 15.5869 27.775L12.0915 30.5677C12.0913 30.5679 12.091 30.5682 12.0907 30.5684ZM13.0623 33.8247C12.8507 33.561 12.7551 33.2286 12.7929 32.8889C12.8307 32.5488 12.9973 32.2447 13.2618 32.0326L13.2621 32.0324C13.2623 32.0323 13.2625 32.0321 13.2627 32.032C13.2628 32.032 13.2628 32.0319 13.2629 32.0318L18.3184 27.9927C18.8692 27.5528 19.6757 27.6426 20.1159 28.1932C20.3273 28.4575 20.4228 28.7903 20.385 29.1303C20.3472 29.4706 20.1801 29.7747 19.9149 29.9866L14.8606 34.0242C14.3092 34.4643 13.5029 34.3755 13.0623 33.8247ZM16.6865 37.7519C16.3453 37.714 16.0413 37.5475 15.8297 37.2822C15.6183 37.0179 15.5228 36.6851 15.5606 36.3452C15.5985 36.0051 15.7652 35.7013 16.0301 35.4894C16.0303 35.4892 16.0305 35.489 16.0307 35.4888L19.5293 32.694C19.5334 32.6908 19.5379 32.6881 19.542 32.6848C20.0914 32.245 20.8977 32.3345 21.3383 32.8837C21.5501 33.1485 21.6456 33.4822 21.6073 33.8233C21.569 34.1629 21.4026 34.4657 21.137 34.6771L17.6273 37.4825C17.3621 37.6943 17.0279 37.7896 16.6865 37.7519ZM22.8288 38.5129C22.7909 38.853 22.6243 39.1564 22.3589 39.3683L20.3959 40.9393C19.8444 41.3794 19.0381 41.2908 18.5977 40.74C18.3861 40.4764 18.2904 40.1438 18.3282 39.8034C18.366 39.463 18.5324 39.1593 18.7964 38.9484C18.7967 38.9482 18.7971 38.9479 18.7974 38.9478L20.76 37.3789C20.761 37.3781 20.7621 37.3774 20.7631 37.3767C21.3141 36.937 22.1205 37.0271 22.5607 37.5772C22.7715 37.841 22.8669 38.1732 22.8288 38.5129ZM37.7049 30.3694C37.4936 30.6336 37.1893 30.8 36.848 30.8379C36.507 30.8763 36.173 30.7803 35.9086 30.5684C35.9085 30.5683 35.9084 30.5682 35.9082 30.5681C35.9081 30.568 35.9079 30.5679 35.9078 30.5678L33.3992 28.5635C32.9946 28.2403 32.4047 28.3063 32.0817 28.7107C31.7585 29.1152 31.8244 29.7051 32.2289 30.0283L34.7366 32.0319C35.2867 32.4724 35.3774 33.2772 34.9395 33.8246C34.4978 34.3751 33.6915 34.4646 33.141 34.0237L30.4199 31.8523C30.0152 31.5294 29.4254 31.5957 29.1024 32.0003C28.7795 32.4049 28.8457 32.9948 29.2504 33.3178L31.9702 35.4882C32.2352 35.7004 32.402 36.0048 32.4399 36.3452C32.4777 36.6849 32.382 37.0173 32.1687 37.2831C31.9578 37.5475 31.6539 37.7139 31.3127 37.7519C30.9712 37.7895 30.637 37.6941 30.3728 37.4833L29.0189 36.4005C29.0165 36.3986 29.0145 36.3966 29.0121 36.3948L27.8682 35.4802L27.6543 35.3092C27.2498 34.9858 26.6599 35.0515 26.3367 35.4558C26.2963 35.5064 26.2619 35.5598 26.2335 35.6153C26.0978 35.8806 26.1 36.1918 26.2275 36.4527C26.2864 36.5735 26.3714 36.6839 26.4833 36.7734L27.8446 37.8621C28.3911 38.3034 28.4805 39.1054 28.0429 39.6525C27.6026 40.2029 26.7961 40.2928 26.2455 39.8536L24.701 38.6196C24.7653 37.8172 24.5276 37.0347 24.0247 36.4059C23.7121 36.0153 23.3245 35.7194 22.8988 35.5209C23.2108 35.0881 23.4089 34.5796 23.4704 34.0328C23.5649 33.1932 23.3277 32.3693 22.8015 31.7115C22.4889 31.3218 22.1017 31.0266 21.6768 30.8286C21.9894 30.3945 22.1875 29.8849 22.2484 29.3374C22.3417 28.4997 22.1043 27.6774 21.5801 27.0218C20.678 25.894 19.1525 25.5512 17.8829 26.09C17.7812 25.6233 17.5736 25.1831 17.267 24.7998C16.1816 23.4434 14.1939 23.2215 12.8354 24.3054L10.3251 26.3119C9.75745 25.5875 8.98579 24.9868 8.07342 24.5583L13.2371 15.4251L15.9864 16.2217C15.999 16.3688 16.0228 16.5235 16.0626 16.6874C16.7281 19.4238 19.2476 20.6988 22.6379 20.0156C25.4944 19.4408 26.6704 20.297 29.0126 22.0026C29.2556 22.1795 29.508 22.3634 29.7723 22.5527C31.4567 23.7611 33.2567 25.1815 34.4636 26.1442L37.5067 28.5763C37.7711 28.7872 37.9375 29.091 37.9753 29.4317C38.013 29.7721 37.9174 30.1047 37.7049 30.3694ZM37.6757 26.3114L35.6336 24.6793C34.41 23.7033 32.5846 22.263 30.8648 21.029C30.6042 20.8424 30.3556 20.6613 30.1164 20.4872C27.6877 18.7186 25.9324 17.4408 22.2679 18.1777C21.1463 18.4038 18.474 18.668 17.8846 16.2448C17.8016 15.9027 17.886 15.7851 17.9219 15.735C18.0472 15.5602 18.5516 15.1349 20.5249 14.9601L24.7121 14.5854C25.3944 14.5232 25.7367 14.4918 26.778 14.8556L29.2313 15.7132C29.504 15.8085 29.7221 15.891 29.9145 15.9639C31.0958 16.4114 31.4088 16.4113 32.9607 15.9621L34.7693 15.4381L39.926 24.5589C39.0134 24.9871 38.2425 25.5873 37.6757 26.3114Z" fill="#9473F2"/>
</svg>
