<svg width="48" height="48" viewBox="0 0 48 48" fill="none" xmlns="http://www.w3.org/2000/svg">
<path d="M35.3231 26.8341H30.0731V25.3341C30.0731 24.0934 29.0638 23.0841 27.8231 23.0841H20.3231C19.0824 23.0841 18.0731 24.0934 18.0731 25.3341V26.8341H12.8231C11.5824 26.8341 10.5731 27.8434 10.5731 29.0841V34.3341C10.5731 35.5543 11.1679 36.6297 12.0731 37.3149V44.0841C12.0731 45.3248 13.0824 46.3341 14.3231 46.3341H33.8231C35.0638 46.3341 36.0731 45.3248 36.0731 44.0841V37.3149C36.9784 36.6297 37.5731 35.5543 37.5731 34.3341V29.0841C37.5731 27.8434 36.5638 26.8341 35.3231 26.8341ZM19.5731 25.3341C19.5731 24.9203 19.9097 24.5841 20.3231 24.5841H27.8231C28.2369 24.5841 28.5731 24.9203 28.5731 25.3341V26.8341H19.5731V25.3341ZM34.5731 44.0841C34.5731 44.4979 34.2369 44.8341 33.8231 44.8341H14.3231C13.9097 44.8341 13.5731 44.4979 13.5731 44.0841V38.0083C13.8156 38.0577 14.0663 38.0841 14.3231 38.0841H21.0731V38.8341C21.0731 40.0748 22.0824 41.0841 23.3231 41.0841H24.8231C26.0638 41.0841 27.0731 40.0748 27.0731 38.8341V38.0841H33.8231C34.0799 38.0841 34.3307 38.0577 34.5731 38.0083V44.0841ZM22.5731 38.8341V35.8341C22.5731 35.4203 22.9097 35.0841 23.3231 35.0841H24.8231C25.2369 35.0841 25.5731 35.4203 25.5731 35.8341V38.8341C25.5731 39.2479 25.2369 39.5841 24.8231 39.5841H23.3231C22.9097 39.5841 22.5731 39.2479 22.5731 38.8341ZM36.0731 34.3341C36.0731 35.5748 35.0638 36.5841 33.8231 36.5841H27.0731V35.8341C27.0731 34.5934 26.0638 33.5841 24.8231 33.5841H23.3231C22.0824 33.5841 21.0731 34.5934 21.0731 35.8341V36.5841H14.3231C13.0824 36.5841 12.0731 35.5748 12.0731 34.3341V29.0841C12.0731 28.6703 12.4097 28.3341 12.8231 28.3341H18.8231H29.3231H35.3231C35.7369 28.3341 36.0731 28.6703 36.0731 29.0841V34.3341ZM20.3521 9.29333L19.7302 12.9174C19.6823 13.1986 19.798 13.4828 20.0287 13.6505C20.1594 13.7457 20.3143 13.7941 20.4696 13.7941C20.589 13.7941 20.7087 13.7655 20.8186 13.7076L24.0731 11.9967L27.3273 13.7076C27.58 13.8409 27.8861 13.819 28.1176 13.6505C28.3483 13.4828 28.464 13.1986 28.4157 12.9174L27.7946 9.29333L30.4276 6.7262C30.632 6.52698 30.7052 6.22888 30.6173 5.95789C30.5287 5.68616 30.2943 5.4884 30.0116 5.44739L26.3729 4.91858L24.7459 1.62122C24.4932 1.10852 23.6531 1.10852 23.4004 1.62122L21.7733 4.91858L18.1346 5.44739C17.8519 5.4884 17.6172 5.68616 17.5289 5.95789C17.4407 6.22888 17.5143 6.52698 17.7186 6.7262L20.3521 9.29333ZM22.379 6.34607C22.6237 6.31091 22.8346 6.1571 22.9441 5.93591L24.0731 3.64783L25.2025 5.93591C25.3117 6.1571 25.5226 6.31091 25.7672 6.34607L28.2926 6.71301L26.4652 8.49426C26.2887 8.66638 26.2081 8.91467 26.2499 9.15784L26.6805 11.673L24.4221 10.4857C24.313 10.4279 24.1929 10.3993 24.0731 10.3993C23.9534 10.3993 23.8333 10.4279 23.7241 10.4857L21.4657 11.673L21.8971 9.15784C21.9385 8.91467 21.8579 8.66638 21.6814 8.49426L19.854 6.71301L22.379 6.34607ZM45.0365 12.7079C44.9479 12.4362 44.7135 12.2384 44.4308 12.1974L40.7921 11.6686L39.1647 8.37122C38.9127 7.85852 38.0719 7.85852 37.82 8.37122L36.1925 11.6686L32.5538 12.1974C32.2711 12.2384 32.0367 12.4362 31.9481 12.7079C31.8602 12.9789 31.9335 13.277 32.1378 13.4762L34.7709 16.0433L34.1498 19.6674C34.1014 19.9486 34.2172 20.2328 34.4479 20.4005C34.6801 20.569 34.9862 20.5909 35.2382 20.4576L38.4923 18.7467L41.7465 20.4576C41.8563 20.5155 41.9764 20.5441 42.0958 20.5441C42.2511 20.5441 42.4056 20.4957 42.5367 20.4005C42.7675 20.2328 42.8832 19.9486 42.8348 19.6674L42.213 16.0433L44.8468 13.4762C45.0512 13.277 45.1244 12.9789 45.0365 12.7079ZM40.8837 15.2443C40.7072 15.4164 40.6266 15.6647 40.6683 15.9078L41.0997 18.423L38.8417 17.2357C38.622 17.12 38.3627 17.12 38.1429 17.2357L35.8849 18.423L36.3156 15.9078C36.3573 15.6647 36.2767 15.4164 36.1002 15.2443L34.2728 13.463L36.7982 13.0961C37.0429 13.0609 37.2538 12.9071 37.3629 12.6859L38.4923 10.3978L39.6217 12.6859C39.7308 12.9071 39.9418 13.0609 40.1864 13.0961L42.7111 13.463L40.8837 15.2443ZM13.4266 20.5441C13.5819 20.5441 13.7368 20.4957 13.8676 20.4005C14.0983 20.2328 14.214 19.9486 14.166 19.6674L13.5442 16.0433L16.1776 13.4762C16.382 13.277 16.4556 12.9789 16.3673 12.7079C16.2791 12.4362 16.0443 12.2384 15.7616 12.1974L12.1229 11.6686L10.4959 8.37122C10.2432 7.85852 9.40308 7.85852 9.1504 8.37122L7.52332 11.6686L3.88465 12.1974C3.60193 12.2384 3.36719 12.4362 3.27894 12.7079C3.19068 12.9789 3.26429 13.277 3.46863 13.4762L6.10206 16.0433L5.48023 19.6674C5.43226 19.9486 5.54798 20.2328 5.77869 20.4005C6.0105 20.569 6.31629 20.5909 6.56861 20.4576L9.82312 18.7467L13.0776 20.4576C13.1875 20.5155 13.3073 20.5441 13.4266 20.5441ZM10.1721 17.2357C10.063 17.1779 9.94288 17.1493 9.82312 17.1493C9.70337 17.1493 9.58326 17.1779 9.47413 17.2357L7.2157 18.423L7.6471 15.9078C7.68848 15.6647 7.60791 15.4164 7.4314 15.2443L5.60401 13.463L8.12903 13.0961C8.37366 13.0609 8.5846 12.9071 8.6941 12.6859L9.82312 10.3978L10.9522 12.6859C11.0617 12.9071 11.2726 13.0609 11.5172 13.0961L14.0422 13.463L12.2148 15.2443C12.0383 15.4164 11.9578 15.6647 11.9992 15.9078L12.4305 18.423L10.1721 17.2357Z" fill="#9473F2"/>
</svg>
