<svg width="40" height="40" viewBox="0 0 40 40" fill="none" xmlns="http://www.w3.org/2000/svg">
<g clip-path="url(#clip0_5944_61917)">
<path d="M38.756 26.9563C39.56 24.7897 40 22.4462 40 19.9998C40 17.5534 39.56 15.2101 38.756 13.0433L20 11.3042L1.24398 13.0433C0.440078 15.2101 0 17.5534 0 19.9998C0 22.4462 0.440078 24.7897 1.24398 26.9563L20 28.6954L38.756 26.9563Z" fill="#F0F0F0"/>
<path d="M20 40.0001C28.5992 40.0001 35.9301 34.5726 38.7559 26.9565H1.2439C4.06983 34.5726 11.4006 40.0001 20 40.0001Z" fill="#D80027"/>
<path d="M20 0C11.4006 0 4.06983 5.4275 1.2439 13.0435H38.756C35.9301 5.4275 28.5992 0 20 0Z" fill="#D80027"/>
</g>
<defs>
<clipPath id="clip0_5944_61917">
<rect width="40" height="40" fill="white"/>
</clipPath>
</defs>
</svg>
