<svg width="40" height="40" viewBox="0 0 40 40" fill="none" xmlns="http://www.w3.org/2000/svg">
<g clip-path="url(#clip0_5944_61913)">
<path d="M20 40C31.0457 40 40 31.0457 40 20C40 8.9543 31.0457 0 20 0C8.9543 0 0 8.9543 0 20C0 31.0457 8.9543 40 20 40Z" fill="#F0F0F0"/>
<path d="M39.8307 17.3915H15.6523L15.6522 0.475586C13.8039 0.88543 12.0516 1.54973 10.4348 2.43199V17.3914V17.3914H0.169297C0.0579688 18.2454 0 19.1161 0 20.0002C0 20.8843 0.0579688 21.755 0.169297 22.6089H10.4347H10.4348V37.5683C12.0516 38.4505 13.8039 39.115 15.6522 39.5247V22.6091V22.6089H39.8307C39.9419 21.755 40 20.8843 40 20.0002C40 19.1161 39.9419 18.2454 39.8307 17.3915Z" fill="#0052B4"/>
</g>
<defs>
<clipPath id="clip0_5944_61913">
<rect width="40" height="40" fill="white"/>
</clipPath>
</defs>
</svg>
