<svg width="48" height="48" viewBox="0 0 48 48" fill="none" xmlns="http://www.w3.org/2000/svg">
<path d="M46.9247 15.6956L28.545 3.15188C28.4044 3.05625 28.2356 3.01032 28.0659 3.02344L5.88188 4.69782C5.56406 4.72125 5.29688 4.94344 5.21438 5.25094C5.13188 5.55844 5.25281 5.88469 5.51531 6.06375L12.3366 10.7203L10.3078 18.2963H8.78063C6.43781 18.2963 4.53094 20.2022 4.53094 22.5459V28.1372C4.53094 29.1853 4.91344 30.1463 5.54531 30.8878H5.00156C2.65687 30.8878 0.75 32.7938 0.75 35.1375V40.7259C0.75 43.0706 2.65781 44.9784 5.00156 44.9784H40.8056C41.2191 44.9784 41.5547 44.6428 41.5547 44.2294V41.1816C41.5547 40.7672 41.2191 40.4325 40.8056 40.4325H39.4453V35.4366H40.8056C41.2191 35.4366 41.5547 35.1009 41.5547 34.6875V31.6397C41.5547 31.2253 41.2191 30.8906 40.8056 30.8906H34.4147V28.5919C34.4147 28.1775 34.0791 27.8428 33.6656 27.8428H32.3081V26.5041L35.4487 26.3719C35.7759 26.3578 36.0563 26.1338 36.1416 25.8169L38.3184 17.6859L46.5581 17.0644C46.8759 17.0409 47.1431 16.8188 47.2256 16.5113C47.3081 16.2038 47.1872 15.8775 46.9238 15.6984L46.9247 15.6956ZM37.9481 37.1841H17.5359C17.1216 37.1841 16.7869 37.5197 16.7869 37.9331C16.7869 38.3466 17.1225 38.6822 17.5359 38.6822H37.9481V40.4306H5.29781V35.4347H37.9472V37.1831L37.9481 37.1841ZM40.0584 33.9366H5.03437C4.36406 33.9366 3.79875 34.4869 3.79875 35.1375V40.7259C3.79875 41.3784 4.365 41.9297 5.03437 41.9297H40.0575V43.4794H5.0025C3.48469 43.4794 2.24906 42.2447 2.24906 40.7259V35.1375C2.24906 33.6206 3.48375 32.3869 5.0025 32.3869H40.0575V33.9356L40.0584 33.9366ZM32.9175 30.8888H8.78156C7.26469 30.8888 6.03094 29.655 6.03094 28.1381V22.5469C6.03094 21.03 7.26469 19.7963 8.78156 19.7963H10.6659L13.1062 21.3459H8.81344C8.14313 21.3459 7.57781 21.8963 7.57781 22.5469V28.1381C7.57781 28.7897 8.14406 29.3391 8.81344 29.3391H32.9166V30.8888H32.9175ZM30.81 27.8409H9.07687V22.845H15.4678L21.7181 26.8125C21.8381 26.8884 21.9778 26.9297 22.1194 26.9297H22.1503L30.8091 26.5659V27.8419L30.81 27.8409ZM34.8366 24.8963L22.3237 25.4213L16.1062 21.4744C16.1062 21.4744 16.1034 21.4725 16.1025 21.4725L11.7506 18.7097L13.65 11.6175L23.8931 18.6094C24.0178 18.6947 24.165 18.7397 24.3159 18.7397C24.3347 18.7397 24.3534 18.7397 24.3722 18.7378L30.6881 18.2616L29.7197 21.8766C29.6128 22.2759 29.85 22.6875 30.2494 22.7944C30.3141 22.8122 30.3797 22.8197 30.4434 22.8197C30.7744 22.8197 31.0772 22.5984 31.1672 22.2638L32.2716 18.1416L36.7359 17.805L34.8366 24.8972V24.8963ZM32.1197 16.6491L26.7909 10.395C26.5228 10.08 26.0494 10.0425 25.7344 10.3106C25.4194 10.5788 25.3819 11.0522 25.65 11.3672L30.27 16.7888L24.5212 17.2228L8.12625 6.03188L27.9169 4.53844L44.3128 15.7284L32.1188 16.6481L32.1197 16.6491Z" fill="#9473F2"/>
</svg>
