<svg width="48" height="48" viewBox="0 0 48 48" fill="none" xmlns="http://www.w3.org/2000/svg">
<g clip-path="url(#clip0_4988_67199)">
<path d="M47.0642 35.9062C46.6832 35.9062 46.333 35.6664 46.1933 35.3126C46.0498 34.9492 46.1514 34.522 46.446 34.2641C46.7449 34.0025 47.1885 33.9584 47.5327 34.157C47.8765 34.3556 48.0605 34.7624 47.9829 35.1515C47.8968 35.584 47.5059 35.9062 47.0642 35.9062Z" fill="#9473F2"/>
<path d="M46.6851 38.3201C46.1976 38.1454 45.6609 38.3985 45.4859 38.8857C44.9651 40.3365 44.1472 41.6517 43.0863 42.7569C42.5086 41.0436 41.0991 39.7095 39.3403 39.2373C40.4492 38.1564 41.1387 36.6473 41.1387 34.9801C41.1387 31.7008 38.4709 29.033 35.1916 29.033C31.9124 29.033 29.2446 31.7008 29.2446 34.9801C29.2446 36.6473 29.9341 38.1563 31.043 39.2372C29.2837 39.7095 27.8738 41.0442 27.2965 42.7583C25.3487 40.7351 24.2575 38.054 24.2575 35.1908C24.2575 29.1612 29.1625 24.2557 35.1916 24.2557C39.6685 24.2557 43.6479 26.9368 45.3295 31.0861C45.5241 31.566 46.0708 31.7974 46.5505 31.6028C47.0304 31.4084 47.2617 30.8617 47.0673 30.3819C46.1204 28.0457 44.5177 26.0541 42.4325 24.6225C41.5363 24.0072 40.5754 23.5137 39.5699 23.148V17.0457C42.1761 16.5991 44.1656 14.3235 44.1656 11.592C44.1656 8.54091 41.6834 6.05878 38.6324 6.05878C35.9008 6.05878 33.6252 8.04834 33.1787 10.6545H25.4369C24.409 4.61372 19.1377 0 12.8092 0C5.74613 0 0 5.74659 0 12.8102C0 16.8142 1.82119 20.5143 4.9965 22.9615C4.998 22.9627 4.99941 22.9637 5.00091 22.9648C6.05662 23.7776 7.20966 24.411 8.43019 24.8549V30.9541C5.82403 31.4007 3.83447 33.6763 3.83447 36.4078C3.83447 39.4589 6.31669 41.941 9.36769 41.941C12.0993 41.941 14.3749 39.9515 14.8214 37.3453H22.5614C23.0918 40.5027 24.7827 43.3413 27.379 45.3422C27.3809 45.3436 27.3828 45.345 27.3847 45.3464C29.6401 47.0825 32.3395 48 35.1916 48C38.0449 48 40.7453 47.0817 43.0013 45.3443C43.0023 45.3436 43.0032 45.3429 43.0042 45.3422C44.9542 43.8394 46.4226 41.8258 47.2507 39.5193C47.4256 39.032 47.1724 38.4951 46.6851 38.3201ZM38.6323 7.93388C40.6495 7.93388 42.2905 9.57497 42.2905 11.5921C42.2905 13.6092 40.6494 15.2503 38.6323 15.2503C36.6152 15.2503 34.9741 13.6092 34.9741 11.5921C34.9741 9.57497 36.6152 7.93388 38.6323 7.93388ZM1.875 12.8102C1.875 6.78047 6.78009 1.875 12.8092 1.875C18.8382 1.875 23.7432 6.78047 23.7432 12.8102C23.7432 15.6733 22.6521 18.3546 20.7042 20.3778C20.1269 18.6637 18.717 17.3289 16.9577 16.8566C18.0666 15.7758 18.7562 14.2666 18.7562 12.5994C18.7562 9.32016 16.0883 6.65231 12.8091 6.65231C9.52978 6.65231 6.86194 9.32016 6.86194 12.5994C6.86194 14.2666 7.55156 15.7758 8.66044 16.8566C6.90113 17.3288 5.49122 18.6637 4.91391 20.3778C2.96616 18.3545 1.875 15.6733 1.875 12.8102ZM12.8092 16.6715C10.5638 16.6715 8.73703 14.8448 8.73703 12.5993C8.73703 10.3539 10.5637 8.52722 12.8092 8.52722C15.0546 8.52722 16.8813 10.3539 16.8813 12.5993C16.8813 14.8448 15.0545 16.6715 12.8092 16.6715ZM10.0694 18.5466H15.5489C17.395 18.5466 18.9178 19.9579 19.0947 21.7583C17.2496 23.0592 15.0866 23.7443 12.8092 23.7443C10.5317 23.7443 8.36869 23.0592 6.52359 21.7583C6.70041 19.9579 8.22319 18.5466 10.0694 18.5466ZM9.36769 40.0661C7.35047 40.0661 5.70947 38.425 5.70947 36.4079C5.70947 34.3908 7.35056 32.7497 9.36769 32.7497C11.3848 32.7497 13.0259 34.3908 13.0259 36.4079C13.0259 38.425 11.3848 40.0661 9.36769 40.0661ZM14.8214 35.4704C14.427 33.1691 12.6065 31.3486 10.3052 30.9542V25.3769C11.1211 25.5376 11.9583 25.6193 12.8091 25.6193C15.6613 25.6193 18.3608 24.7017 20.616 22.9657C20.6179 22.9643 20.6198 22.9629 20.6216 22.9615C23.797 20.5143 25.6181 16.8142 25.6181 12.8102C25.6181 12.7164 25.6171 12.623 25.615 12.5297H33.1785C33.5729 14.831 35.3934 16.6515 37.6947 17.0459V22.6252C36.8768 22.4633 36.0393 22.3808 35.1915 22.3808C28.1286 22.3808 22.3824 28.1274 22.3824 35.1909C22.3824 35.2843 22.3835 35.3775 22.3854 35.4704H14.8214ZM35.1916 30.9082C37.4369 30.9082 39.2637 32.7349 39.2637 34.9803C39.2637 37.2257 37.437 39.0524 35.1916 39.0524C32.9462 39.0524 31.1196 37.2257 31.1196 34.9803C31.1196 32.7349 32.9463 30.9082 35.1916 30.9082ZM35.1916 46.125C32.9142 46.125 30.7512 45.44 28.906 44.139C29.083 42.3385 30.6057 40.9272 32.4518 40.9272H37.9313C39.7776 40.9272 41.3002 42.3385 41.4772 44.139C39.6321 45.44 37.4691 46.125 35.1916 46.125Z" fill="#9473F2"/>
</g>
<defs>
<clipPath id="clip0_4988_67199">
<rect width="48" height="48" fill="white"/>
</clipPath>
</defs>
</svg>
