<svg width="48" height="48" viewBox="0 0 48 48" fill="none" xmlns="http://www.w3.org/2000/svg">
<g clip-path="url(#clip0_4988_67180)">
<path d="M24 9.55742C24.5177 9.55742 24.9375 9.13761 24.9375 8.61992V3.8443C24.9375 3.32661 24.5178 2.9068 24 2.9068C23.4822 2.9068 23.0625 3.32652 23.0625 3.8443V8.61992C23.0626 9.13761 23.4823 9.55742 24 9.55742Z" fill="#9473F2"/>
<path d="M16.9509 11.0974C17.1292 11.3803 17.4336 11.5352 17.7449 11.5352C17.9157 11.5352 18.0887 11.4885 18.2438 11.3907C18.6818 11.1147 18.8131 10.5358 18.5371 10.0977L16.0392 6.13441C15.7631 5.69641 15.1842 5.56507 14.7463 5.84116C14.3083 6.11716 14.1771 6.69607 14.4531 7.13416L16.9509 11.0974Z" fill="#9473F2"/>
<path d="M29.7584 11.391C29.9136 11.4886 30.0864 11.5352 30.257 11.5352C30.5684 11.5352 30.873 11.3801 31.0512 11.0971L33.5465 7.13378C33.8223 6.69559 33.6908 6.11687 33.2526 5.84087C32.8142 5.56515 32.2357 5.69678 31.9598 6.13478L29.4645 10.0981C29.1887 10.5363 29.3203 11.1151 29.7584 11.391Z" fill="#9473F2"/>
<path d="M47.6978 24.978L46.0689 22.1003C45.8137 21.6496 45.2416 21.4912 44.7914 21.7463C44.3407 22.0014 44.1823 22.5734 44.4374 23.0239L46.0655 25.9003C46.1471 26.0449 46.1259 26.1843 46.106 26.2545C46.0869 26.3221 46.0342 26.4469 45.8964 26.523L43.386 27.9136C43.1629 28.0368 42.8718 27.959 42.7502 27.7445L42.1125 26.6163C42.1098 26.6112 42.1068 26.6065 42.1041 26.6016L35.5107 14.9396C35.4292 14.7961 35.4498 14.6585 35.4693 14.5892C35.4882 14.5222 35.5405 14.3983 35.6783 14.3221L38.1917 12.9312C38.4176 12.8062 38.7015 12.8821 38.825 13.1009L40.2945 15.6971C40.5495 16.1478 41.1217 16.3061 41.5721 16.0512C42.0227 15.7962 42.1812 15.2242 41.9262 14.7736L40.4574 12.1785C39.831 11.0679 38.4076 10.6696 37.2843 11.2905L34.771 12.6814C34.2271 12.9819 33.8342 13.4787 33.6647 14.0805C33.5048 14.6479 33.562 15.2402 33.8238 15.76L32.4393 16.1613C31.8495 16.3319 31.4916 16.4244 31.2929 16.4244C31.2921 16.4244 31.2914 16.4244 31.2906 16.4244C31.1538 16.424 31.0047 16.3718 30.579 16.2105C30.3858 16.1374 30.1454 16.0463 29.8498 15.9431L27.3968 15.0856C26.0401 14.6118 25.4282 14.6373 24.5417 14.7182L20.359 15.0925C18.4522 15.2615 17.2365 15.6916 16.5655 16.4376L14.1818 15.7469C14.4383 15.2293 14.4933 14.6427 14.3349 14.0805C14.1654 13.4791 13.7728 12.9824 13.2295 12.6818L10.7175 11.2903C9.59329 10.6688 8.16914 11.0674 7.54261 12.1777L0.304732 24.9767C-0.00511171 25.5222 -0.0817992 26.1567 0.0890133 26.7634C0.258701 27.3658 0.651513 27.8631 1.19433 28.1633L3.70626 29.5546C4.06542 29.7532 4.45561 29.8475 4.84064 29.8475C5.65861 29.8475 6.45379 29.4219 6.8812 28.6673L7.14661 28.1978C7.87092 28.5167 8.47908 28.9799 8.89354 29.5283C8.48873 30.0014 8.23373 30.5852 8.1622 31.2202C8.0677 32.0599 8.30489 32.8838 8.83008 33.5405C9.35076 34.1916 10.0953 34.6024 10.9279 34.6991C10.8398 35.5317 11.0779 36.3475 11.5991 36.9969C12.1378 37.6704 12.8991 38.0633 13.6955 38.1561C13.6078 38.9874 13.845 39.8025 14.3646 40.4523C14.885 41.1048 15.6298 41.5164 16.4632 41.6132C16.375 42.4464 16.6131 43.2627 17.1343 43.9122C17.7555 44.6888 18.6725 45.0932 19.5983 45.0931C20.2894 45.0931 20.9854 44.8677 21.5665 44.4037L23.5294 42.833C23.6853 42.7086 23.827 42.571 23.9544 42.4229L25.0756 43.3186C25.6555 43.7813 26.3499 44.0062 27.0401 44.0061C27.9663 44.006 28.8849 43.6012 29.5069 42.8238C29.8348 42.4139 30.0423 41.9461 30.1361 41.4632C30.4639 41.5766 30.81 41.6352 31.1629 41.6351C31.2812 41.6351 31.4003 41.6286 31.5197 41.6153C32.3597 41.5221 33.1109 41.109 33.6328 40.4544C34.1549 39.804 34.393 38.9883 34.305 38.1558C35.1008 38.0629 35.8625 37.6701 36.4028 36.9968C36.9409 36.324 37.1569 35.4956 37.0724 34.6989C37.9045 34.602 38.6487 34.1913 39.1681 33.5417C39.6937 32.8868 39.9319 32.0641 39.8388 31.225C39.7681 30.5881 39.513 30.0023 39.1074 29.528C39.5206 28.9797 40.1276 28.5159 40.8524 28.1973L41.1183 28.6677C41.5455 29.422 42.3403 29.8474 43.1584 29.8474C43.5436 29.8473 43.9342 29.753 44.2937 29.5542L46.8043 28.1635C47.3469 27.8635 47.7395 27.367 47.9099 26.7656C48.0816 26.1595 48.0065 25.525 47.6978 24.978ZM5.24939 27.744C5.12751 27.9593 4.83623 28.0369 4.61414 27.914L2.10229 26.5227C1.96514 26.4468 1.91283 26.3225 1.8937 26.2551C1.87411 26.1852 1.8532 26.0466 1.93589 25.9013L9.17489 13.0997C9.25776 12.9528 9.41395 12.8705 9.57614 12.8705C9.65508 12.8705 9.73533 12.8899 9.80939 12.9308L12.3206 14.3219C12.3209 14.3221 12.3211 14.3223 12.3214 14.3224C12.4589 14.3984 12.5111 14.5223 12.53 14.5893C12.5495 14.6586 12.5701 14.7962 12.4877 14.9413L5.24939 27.744ZM12.0907 32.5684C11.8263 32.7802 11.4925 32.8759 11.1513 32.8379C10.81 32.8 10.5058 32.6337 10.2945 32.3695C10.0827 32.1047 9.98723 31.7709 10.0256 31.4299C10.0637 31.0902 10.2301 30.7875 10.4958 30.5761L14.0056 27.7705C14.5565 27.3308 15.3629 27.4212 15.8031 27.9711C16.0148 28.2357 16.1103 28.5689 16.0721 28.9089C16.034 29.2478 15.8675 29.5503 15.6033 29.7605C15.5975 29.7651 15.5925 29.7702 15.5869 29.775L12.0915 32.5677C12.0913 32.5679 12.091 32.5682 12.0907 32.5684ZM13.0623 35.8247C12.8507 35.561 12.7551 35.2286 12.7929 34.8889C12.8307 34.5488 12.9973 34.2447 13.2618 34.0326L13.2621 34.0324C13.2623 34.0323 13.2625 34.0321 13.2627 34.032C13.2628 34.032 13.2628 34.0319 13.2629 34.0318L18.3184 29.9927C18.8692 29.5528 19.6757 29.6426 20.1159 30.1932C20.3273 30.4575 20.4228 30.7903 20.385 31.1303C20.3472 31.4706 20.1801 31.7747 19.9149 31.9866L14.8606 36.0242C14.3092 36.4643 13.5029 36.3755 13.0623 35.8247ZM16.6865 39.7519C16.3453 39.714 16.0413 39.5475 15.8297 39.2822C15.6183 39.0179 15.5228 38.6851 15.5606 38.3452C15.5985 38.0051 15.7652 37.7013 16.0301 37.4894C16.0303 37.4892 16.0305 37.489 16.0307 37.4888L19.5293 34.694C19.5334 34.6908 19.5379 34.6881 19.542 34.6848C20.0914 34.245 20.8977 34.3345 21.3383 34.8837C21.5501 35.1485 21.6456 35.4822 21.6073 35.8233C21.569 36.1629 21.4026 36.4657 21.137 36.6771L17.6273 39.4825C17.3621 39.6943 17.0279 39.7896 16.6865 39.7519ZM22.8288 40.5129C22.7909 40.853 22.6243 41.1564 22.3589 41.3683L20.3959 42.9393C19.8444 43.3794 19.0381 43.2908 18.5977 42.74C18.3861 42.4764 18.2904 42.1438 18.3282 41.8034C18.366 41.463 18.5324 41.1593 18.7964 40.9484C18.7967 40.9482 18.7971 40.9479 18.7974 40.9478L20.76 39.3789C20.761 39.3781 20.7621 39.3774 20.7631 39.3767C21.3141 38.937 22.1205 39.0271 22.5607 39.5772C22.7715 39.841 22.8669 40.1732 22.8288 40.5129ZM37.7049 32.3694C37.4936 32.6336 37.1893 32.8 36.848 32.8379C36.507 32.8763 36.173 32.7803 35.9086 32.5684C35.9085 32.5683 35.9084 32.5682 35.9082 32.5681C35.9081 32.568 35.9079 32.5679 35.9078 32.5678L33.3992 30.5635C32.9946 30.2403 32.4047 30.3063 32.0817 30.7107C31.7585 31.1152 31.8244 31.7051 32.2289 32.0283L34.7366 34.0319C35.2867 34.4724 35.3774 35.2772 34.9395 35.8246C34.4978 36.3751 33.6915 36.4646 33.141 36.0237L30.4199 33.8523C30.0152 33.5294 29.4254 33.5957 29.1024 34.0003C28.7795 34.4049 28.8457 34.9948 29.2504 35.3178L31.9702 37.4882C32.2352 37.7004 32.402 38.0048 32.4399 38.3452C32.4777 38.6849 32.382 39.0173 32.1687 39.2831C31.9578 39.5475 31.6539 39.7139 31.3127 39.7519C30.9712 39.7895 30.637 39.6941 30.3728 39.4833L29.0189 38.4005C29.0165 38.3986 29.0145 38.3966 29.0121 38.3948L27.8682 37.4802L27.6543 37.3092C27.2498 36.9858 26.6599 37.0515 26.3367 37.4558C26.2963 37.5064 26.2619 37.5598 26.2335 37.6153C26.0978 37.8806 26.1 38.1918 26.2275 38.4527C26.2864 38.5735 26.3714 38.6839 26.4833 38.7734L27.8446 39.8621C28.3911 40.3034 28.4805 41.1054 28.0429 41.6525C27.6026 42.2029 26.7961 42.2928 26.2455 41.8536L24.701 40.6196C24.7653 39.8172 24.5276 39.0347 24.0247 38.4059C23.7121 38.0153 23.3245 37.7194 22.8988 37.5209C23.2108 37.0881 23.4089 36.5796 23.4704 36.0328C23.5649 35.1932 23.3277 34.3693 22.8015 33.7115C22.4889 33.3218 22.1017 33.0266 21.6768 32.8286C21.9894 32.3945 22.1875 31.8849 22.2484 31.3374C22.3417 30.4997 22.1043 29.6774 21.5801 29.0218C20.678 27.894 19.1525 27.5512 17.8829 28.09C17.7812 27.6233 17.5736 27.1831 17.267 26.7998C16.1816 25.4434 14.1939 25.2215 12.8354 26.3054L10.3251 28.3119C9.75745 27.5875 8.98579 26.9868 8.07342 26.5583L13.2371 17.4251L15.9864 18.2217C15.999 18.3688 16.0228 18.5235 16.0626 18.6874C16.7281 21.4238 19.2476 22.6988 22.6379 22.0156C25.4944 21.4408 26.6704 22.297 29.0126 24.0026C29.2556 24.1795 29.508 24.3634 29.7723 24.5527C31.4567 25.7611 33.2567 27.1815 34.4636 28.1442L37.5067 30.5763C37.7711 30.7872 37.9375 31.091 37.9753 31.4317C38.013 31.7721 37.9174 32.1047 37.7049 32.3694ZM37.6757 28.3114L35.6336 26.6793C34.41 25.7033 32.5846 24.263 30.8648 23.029C30.6042 22.8424 30.3556 22.6613 30.1164 22.4872C27.6877 20.7186 25.9324 19.4408 22.2679 20.1777C21.1463 20.4038 18.474 20.668 17.8846 18.2448C17.8016 17.9027 17.886 17.7851 17.9219 17.735C18.0472 17.5602 18.5516 17.1349 20.5249 16.9601L24.7121 16.5854C25.3944 16.5232 25.7367 16.4918 26.778 16.8556L29.2313 17.7132C29.504 17.8085 29.7221 17.891 29.9145 17.9639C31.0958 18.4114 31.4088 18.4113 32.9607 17.9621L34.7693 17.4381L39.926 26.5589C39.0134 26.9871 38.2425 27.5873 37.6757 28.3114Z" fill="#9473F2"/>
</g>
<defs>
<clipPath id="clip0_4988_67180">
<rect width="48" height="48" fill="white"/>
</clipPath>
</defs>
</svg>
