<svg width="40" height="40" viewBox="0 0 40 40" fill="none" xmlns="http://www.w3.org/2000/svg">
<g clip-path="url(#clip0_5172_26797)">
<path d="M22.5257 28.1781L29.7726 29.8414C31.5919 30.259 32.9961 31.7063 33.3585 33.5374L34.3349 38.4717C34.4315 38.9596 34.0581 39.414 33.5607 39.414H6.43981C5.94247 39.414 5.56911 38.9596 5.66567 38.4717L6.64208 33.5374C7.00442 31.7063 8.40864 30.259 10.2279 29.8414L17.4749 28.1781H22.5257Z" fill="#918291"/>
<path d="M19.9998 36.5435C24.1646 36.5435 27.6279 33.484 28.2612 29.4946L22.5252 28.1781H17.4744L11.7383 29.4946C12.3716 33.484 15.8349 36.5435 19.9998 36.5435Z" fill="#EAF6FF"/>
<path d="M20.0001 36.5436C20.5484 36.5436 21.0845 36.49 21.6037 36.3888L20.8484 34.0099H19.1517L18.3965 36.3888C18.9156 36.49 19.4516 36.5436 20.0001 36.5436Z" fill="#FD8087"/>
<path d="M34.3352 38.4716L33.3588 33.5373C32.9965 31.7063 31.5923 30.2589 29.773 29.8413L28.4695 29.5421C29.7093 30.2817 30.6084 31.5209 30.8981 32.9851L31.9663 38.3831C32.0719 38.9168 31.6634 39.414 31.1193 39.414H6.43945H6.44016H33.561C34.0584 39.4141 34.4317 38.9596 34.3352 38.4716Z" fill="#7A6D79"/>
<path d="M25.0175 28.7501L22.5254 28.1781H20V30.7037L22.0772 32.781C23.6628 32.0622 24.8138 30.5479 25.0175 28.7501Z" fill="#C4E2FF"/>
<path d="M14.9824 28.7501L17.4745 28.1781H20V30.7037L17.9228 32.781C16.3372 32.0622 15.1861 30.5479 14.9824 28.7501Z" fill="#C4E2FF"/>
<path d="M20 30.7036C18.6052 30.7036 17.4746 29.5729 17.4746 28.1782V22.3511H22.5254V28.1782C22.5254 29.5729 21.3947 30.7036 20 30.7036Z" fill="#F6A96C"/>
<path d="M24.5034 24.0204L23.1098 25.1818C22.237 25.9091 21.1367 26.3075 20.0005 26.3075C18.8644 26.3075 17.7641 25.9091 16.8913 25.1818L15.4977 24.0204C13.894 22.6841 12.9668 20.7044 12.9668 18.617V9.10847L20.0006 8.05261L27.0344 9.10847V18.617C27.0343 20.7045 26.1071 22.6841 24.5034 24.0204Z" fill="#FED2A4"/>
<path d="M24.6663 10.7083V18.6169C24.6663 20.7044 23.7391 22.684 22.1355 24.0204L20.7419 25.1817C20.1779 25.6517 19.5186 25.9833 18.8164 26.1599C19.2009 26.2565 19.5982 26.3074 20.0002 26.3074C21.1363 26.3074 22.2366 25.909 23.1095 25.1817L24.503 24.0204C26.1067 22.684 27.0339 20.7043 27.0339 18.6169V10.7083H24.6663Z" fill="#FFBD86"/>
<path d="M28.0754 18.2541L27.0332 18.6169V12.99H28.6116C29.1346 12.99 29.5586 13.414 29.5586 13.937V16.1673C29.5586 17.1076 28.9635 17.9449 28.0754 18.2541Z" fill="#F6A96C"/>
<path d="M11.9246 18.2541L12.9668 18.6169V12.99H11.3884C10.8654 12.99 10.4414 13.414 10.4414 13.937V16.1673C10.4414 17.1076 11.0365 17.9449 11.9246 18.2541Z" fill="#F6A96C"/>
<path d="M31.9957 3.11133H8.00438C7.6557 3.11133 7.37305 2.82867 7.37305 2.48V1.21727C7.37305 0.868594 7.6557 0.585938 8.00438 0.585938H31.9957C32.3444 0.585938 32.627 0.868594 32.627 1.21727V2.48C32.6271 2.82867 32.3444 3.11133 31.9957 3.11133Z" fill="#918291"/>
<path d="M31.9961 0.585938H29.4707C29.8194 0.585938 30.102 0.868594 30.102 1.21727V2.48C30.102 2.82867 29.8194 3.11133 29.4707 3.11133H31.9961C32.3448 3.11133 32.6274 2.82867 32.6274 2.48V1.21727C32.6275 0.868594 32.3448 0.585938 31.9961 0.585938Z" fill="#7A6D79"/>
<path d="M19.9995 6.85681L11.7031 8.88627V12.99H12.9659L13.7547 12.004C14.0542 11.6295 14.5077 11.4117 14.9872 11.4117H17.0215C17.8922 11.4117 18.7016 10.9631 19.163 10.2247L19.9995 8.88619L20.8361 10.2246C21.2976 10.963 22.1069 11.4116 22.9777 11.4116H25.012C25.4914 11.4116 25.9449 11.6295 26.2445 12.0039L27.0333 12.9899H28.296V8.88619L19.9995 6.85681Z" fill="#FE9738"/>
<path d="M28.2977 8.88613L26.0879 8.34558V11.8343C26.1442 11.8867 26.1974 11.943 26.2461 12.0039L27.0349 12.99H28.2977V8.88613Z" fill="#FE860A"/>
<path d="M11.7031 3.11133H28.2959V8.88617H11.7031V3.11133Z" fill="#7A6D79"/>
<path d="M26.0879 3.11133H28.2977V8.88617H26.0879V3.11133Z" fill="#685E68"/>
<path d="M7.37406 11.3327C8.07145 11.3327 8.6368 10.7674 8.6368 10.07C8.6368 9.3726 8.07145 8.80725 7.37406 8.80725C6.67667 8.80725 6.11133 9.3726 6.11133 10.07C6.11133 10.7674 6.67667 11.3327 7.37406 11.3327Z" fill="#FFE177"/>
<path d="M20.8495 34.0098L22.0783 32.781L20.0011 30.7037L17.9238 32.781L19.1527 34.0098H20.8495Z" fill="#FE646F"/>
<path d="M34.9093 38.3583L34.6624 37.1091C34.5996 36.7916 34.2911 36.5847 33.9739 36.6479C33.6565 36.7106 33.45 37.0188 33.5127 37.3363L33.7597 38.5862C33.7759 38.6677 33.7403 38.7262 33.7176 38.7538C33.6948 38.7816 33.644 38.8282 33.5602 38.8282H29.0384V37.1314L29.8782 36.2917C30.107 36.0628 30.107 35.6919 29.8782 35.463C29.6493 35.2343 29.2783 35.2343 29.0496 35.463L28.0382 36.4744C27.9283 36.5843 27.8666 36.7333 27.8666 36.8887V38.8281H20.5861V37.11C22.5168 36.9829 24.3628 36.2304 25.8378 34.9588C27.2842 33.7119 28.2908 32.0398 28.7182 30.2005L29.6418 30.4124C31.2335 30.7775 32.4668 32.0488 32.784 33.6511L32.9809 34.6463C33.0361 34.9254 33.281 35.1187 33.555 35.1187C33.5927 35.1187 33.631 35.1151 33.6693 35.1074C33.9868 35.0446 34.1932 34.7364 34.1304 34.419L33.9335 33.4237C33.5268 31.3687 31.945 29.7384 29.9039 29.2702L23.1115 27.7113V25.916C23.2396 25.8269 23.3641 25.7321 23.4846 25.6317L24.8782 24.4704C26.5125 23.1085 27.4929 21.147 27.6083 19.0373L28.2688 18.8073C29.3912 18.4166 30.1453 17.3556 30.1453 16.1671V13.9369C30.1453 13.184 29.5992 12.5575 28.8825 12.4292V3.69766H31.9955C32.6671 3.69766 33.2135 3.15133 33.2135 2.47969V1.21719C33.2135 0.546016 32.6671 0 31.9955 0H24.2963C23.9727 0 23.7103 0.262266 23.7103 0.585938C23.7103 0.909609 23.9727 1.17188 24.2963 1.17188H31.9955C32.0209 1.17188 32.0416 1.19219 32.0416 1.21719V2.47969C32.0416 2.50508 32.0209 2.52578 31.9955 2.52578H8.0048C7.97996 2.52578 7.95988 2.50586 7.95902 2.48117V2.48C7.95902 2.47797 7.95871 2.47602 7.95871 2.47398V1.21719C7.95871 1.19219 7.97941 1.17188 8.0048 1.17188H21.554C21.8776 1.17188 22.14 0.909609 22.14 0.585938C22.14 0.262266 21.8776 0 21.554 0H8.0048C7.33324 0 6.78683 0.546016 6.78683 1.21719L6.78715 8.31711C6.05425 8.56273 5.52441 9.25547 5.52441 10.07C5.52441 10.8846 6.05418 11.5773 6.78715 11.823V12.9112C6.78715 13.2348 7.04949 13.4971 7.37308 13.4971C7.69668 13.4971 7.95902 13.2348 7.95902 12.9112V11.823C8.69191 11.5773 9.22176 10.8846 9.22176 10.07C9.22176 9.25547 8.69199 8.56281 7.95902 8.31711V3.69531C7.97433 3.69586 7.98933 3.69766 8.0048 3.69766H11.1178V12.4294C10.4011 12.5576 9.85504 13.1841 9.85504 13.937V16.1673C9.85504 17.3558 10.6091 18.4168 11.7315 18.8075L12.392 19.0374C12.5074 21.1472 13.4878 23.1087 15.1221 24.4705L16.5157 25.6319C16.6362 25.7323 16.7607 25.827 16.8888 25.9162V27.7114L10.0965 29.2703C8.05535 29.7385 6.47355 31.3688 6.06675 33.4239L5.86988 34.4191C5.80707 34.7366 6.01355 35.0448 6.33097 35.1076C6.36933 35.1152 6.40754 35.1188 6.44527 35.1188C6.71933 35.1188 6.96425 34.9255 7.01941 34.6465L7.21629 33.6513C7.53347 32.0489 8.76683 30.7777 10.3586 30.4125L11.282 30.2005C11.7094 32.0398 12.7161 33.712 14.1624 34.9589C15.6373 36.2305 17.4833 36.9829 19.4141 37.1101V38.8281H12.1336V36.8887C12.1336 36.7333 12.0718 36.5843 11.9619 36.4743L10.9506 35.463C10.7218 35.2342 10.3507 35.2342 10.122 35.463C9.89316 35.6919 9.89316 36.0628 10.122 36.2916L10.9618 37.1313V38.8281H6.43996C6.35613 38.8281 6.30535 38.7815 6.28254 38.7537C6.25988 38.7261 6.22425 38.6676 6.24058 38.5855L6.48746 37.3363C6.55019 37.0189 6.34371 36.7106 6.02621 36.6479C5.70863 36.5849 5.4005 36.7916 5.33777 37.1091L5.09105 38.3577C5.01058 38.7626 5.11465 39.1779 5.37675 39.4972C5.63902 39.8167 6.02652 40 6.43996 40H33.5603C33.9737 40 34.3612 39.8167 34.6235 39.4972C34.8855 39.178 34.9896 38.7626 34.9093 38.3583ZM7.37308 10.7468C6.99996 10.7468 6.69629 10.4431 6.69629 10.07C6.69629 9.69687 6.99988 9.39328 7.37308 9.39328C7.74629 9.39328 8.04988 9.69687 8.04988 10.07C8.04988 10.4431 7.74621 10.7468 7.37308 10.7468ZM18.8189 31.0562L17.8089 32.0663C16.7239 31.4514 15.9389 30.403 15.6543 29.197L16.9728 28.8945C17.2049 29.8756 17.9024 30.6787 18.8189 31.0562ZM23.0274 28.8944L24.3458 29.197C24.0613 30.4031 23.2762 31.4514 22.1912 32.0663L21.1812 31.0562C22.0978 30.6787 22.7953 29.8756 23.0274 28.8944ZM19.3758 32.1567L20.0001 31.5324L20.6244 32.1567L21.2487 32.781L20.6058 33.4239H19.3945L18.7516 32.781L19.3758 32.1567ZM19.5805 34.5958H20.4197L20.8371 35.9103C20.5601 35.9404 20.2809 35.9575 20.0001 35.9575C19.7193 35.9575 19.4402 35.9404 19.1632 35.9103L19.5805 34.5958ZM25.0725 34.0713C24.1769 34.8435 23.1236 35.3945 21.9981 35.6946L21.5148 34.1722L22.4201 33.267C23.9697 32.5269 25.0996 31.1102 25.4875 29.459L27.5764 29.9384C27.2046 31.5352 26.3296 32.9875 25.0725 34.0713ZM13.2976 11.638L12.6847 12.4041H12.2896V9.47219H18.9429L18.6667 9.91414C18.31 10.485 17.695 10.8257 17.022 10.8257H14.9877C14.3265 10.8256 13.7106 11.1217 13.2976 11.638ZM27.7106 12.404H27.3154L26.7026 11.638C26.2896 11.1217 25.6736 10.8256 25.0125 10.8256H22.9782C22.305 10.8256 21.6903 10.4849 21.3335 9.91414L21.0572 9.47211H27.7106V12.404ZM28.9732 16.1672C28.9732 16.8575 28.5353 17.4737 27.8833 17.7007L27.6196 17.7925V13.5759H28.6121C28.8112 13.5759 28.9732 13.7378 28.9732 13.937L28.9732 16.1672ZM27.7106 3.69766V8.30023H12.2896V3.69766H27.7106ZM11.0269 16.1672V13.937C11.0269 13.7378 11.1889 13.5759 11.388 13.5759H12.3804V17.7925L12.1168 17.7007C11.4649 17.4737 11.0269 16.8575 11.0269 16.1672ZM15.8723 23.5702C14.3978 22.3416 13.5523 20.5362 13.5523 18.617V13.1955L14.2128 12.37C14.4021 12.1334 14.6846 11.9975 14.9877 11.9975H17.022C18.1018 11.9975 19.0882 11.4509 19.6604 10.5352L20.0001 9.99172L20.3398 10.5352C20.9121 11.4509 21.8984 11.9975 22.9782 11.9975H25.0125C25.3157 11.9975 25.5982 12.1333 25.7875 12.3701L26.4479 13.1955V18.617C26.4479 20.5362 25.6023 22.3416 24.1279 23.5702L22.7343 24.7316C21.9683 25.3699 20.9973 25.7215 20.0001 25.7215C19.0029 25.7215 18.032 25.3699 17.2659 24.7316L15.8723 23.5702ZM20.0001 26.8934C20.6669 26.8934 21.3241 26.7689 21.9396 26.5341V28.1784C21.9396 29.2478 21.0695 30.1179 20.0001 30.1179C18.9307 30.1179 18.0607 29.2478 18.0607 28.1784V26.5341C18.6761 26.7689 19.3333 26.8934 20.0001 26.8934ZM12.4239 29.9384L14.5127 29.459C14.9006 31.1102 16.0305 32.5269 17.5801 33.267L18.4854 34.1722L18.0021 35.6946C16.8766 35.3945 15.8233 34.8435 14.9276 34.0713C13.6705 32.9875 12.7956 31.5352 12.4239 29.9384Z" fill="black"/>
</g>
<defs>
<clipPath id="clip0_5172_26797">
<rect width="40" height="40" fill="white"/>
</clipPath>
</defs>
</svg>
