<svg width="40" height="40" viewBox="0 0 40 40" fill="none" xmlns="http://www.w3.org/2000/svg">
<g clip-path="url(#clip0_5172_26704)">
<path d="M20.8313 28.046H2.29914C1.35297 28.046 0.585938 27.279 0.585938 26.3328V24.1766C0.585938 23.2304 1.35297 22.4634 2.29914 22.4634H20.8313C21.7775 22.4634 22.5445 23.2304 22.5445 24.1766V26.3328C22.5445 27.279 21.7775 28.046 20.8313 28.046Z" fill="#F1E64C"/>
<path d="M5.86461 28.0463H2.29977C1.35305 28.0463 0.585938 27.2791 0.585938 26.3333V24.1766C0.585938 23.2307 1.35313 22.4636 2.29977 22.4636H5.86461C4.91875 22.4636 4.15164 23.2308 4.15164 24.1766V26.3333C4.15164 27.2791 4.91883 28.0463 5.86461 28.0463Z" fill="#FFC250"/>
<path d="M22.5445 24.9711V26.3336C22.5445 27.2797 21.7773 28.0461 20.8312 28.0461H2.29922C1.35313 28.0461 0.585938 27.2797 0.585938 26.3336V24.9711C0.585938 25.9172 1.35313 26.6844 2.29922 26.6844H20.8312C21.7773 26.6844 22.5445 25.9172 22.5445 24.9711Z" fill="#FFC250"/>
<path d="M24.0072 22.4636H5.47492C4.52875 22.4636 3.76172 21.6966 3.76172 20.7504V18.5942C3.76172 17.648 4.52875 16.881 5.47492 16.881H24.0072C24.9534 16.881 25.7204 17.648 25.7204 18.5942V20.7504C25.7204 21.6966 24.9534 22.4636 24.0072 22.4636Z" fill="#F1E64C"/>
<path d="M9.04039 22.4638H5.47555C4.52883 22.4638 3.76172 21.6966 3.76172 20.7508V18.5941C3.76172 17.6482 4.52891 16.8811 5.47555 16.8811H9.04039C8.09453 16.8811 7.32742 17.6483 7.32742 18.5941V20.7508C7.32742 21.6967 8.09453 22.4638 9.04039 22.4638Z" fill="#FFC250"/>
<path d="M25.7203 19.3885V20.7511C25.7203 21.6971 24.9531 22.4635 24.007 22.4635H5.475C4.52891 22.4635 3.76172 21.6971 3.76172 20.7511V19.3885C3.76172 20.3346 4.52891 21.1018 5.475 21.1018H24.007C24.9531 21.1018 25.7203 20.3346 25.7203 19.3885Z" fill="#FFC250"/>
<path d="M21.7727 16.8809H3.24055C2.29438 16.8809 1.52734 16.1138 1.52734 15.1677V13.0114C1.52734 12.0652 2.29438 11.2982 3.24055 11.2982H21.7727C22.7189 11.2982 23.4859 12.0652 23.4859 13.0114V15.1677C23.4859 16.1138 22.7189 16.8809 21.7727 16.8809Z" fill="#F1E64C"/>
<path d="M6.80797 16.8812H3.24312C2.29641 16.8812 1.5293 16.1141 1.5293 15.1683V13.0116C1.5293 12.0657 2.29648 11.2986 3.24312 11.2986H6.80797C5.86211 11.2986 5.095 12.0658 5.095 13.0116V15.1683C5.09492 16.1141 5.86211 16.8812 6.80797 16.8812Z" fill="#FFC250"/>
<path d="M23.4879 13.8059V15.1684C23.4879 16.1145 22.7207 16.8809 21.7746 16.8809H3.24258C2.29648 16.8809 1.5293 16.1145 1.5293 15.1684V13.8059C1.5293 14.752 2.29648 15.5192 3.24258 15.5192H21.7746C22.7207 15.5192 23.4879 14.752 23.4879 13.8059Z" fill="#FFC250"/>
<path d="M22.3938 33.6288H3.86164C2.91547 33.6288 2.14844 32.8618 2.14844 31.9156V29.7593C2.14844 28.8132 2.91547 28.0461 3.86164 28.0461H22.3938C23.34 28.0461 24.107 28.8132 24.107 29.7593V31.9156C24.107 32.8618 23.34 33.6288 22.3938 33.6288Z" fill="#F1E64C"/>
<path d="M24.107 30.5537V31.9162C24.107 32.8623 23.3398 33.6287 22.3937 33.6287H3.86172C2.91563 33.6287 2.14844 32.8623 2.14844 31.9162V30.5537C2.14844 31.4998 2.91563 32.267 3.86172 32.267H22.3937C23.3398 32.267 24.107 31.4998 24.107 30.5537Z" fill="#FFC250"/>
<path d="M7.42711 33.6289H3.86227C2.91555 33.6289 2.14844 32.8617 2.14844 31.916V29.7592C2.14844 28.8134 2.91563 28.0463 3.86227 28.0463H7.42711C6.48125 28.0463 5.71414 28.8135 5.71414 29.7592V31.916C5.71414 32.8617 6.48133 33.6289 7.42711 33.6289Z" fill="#FFC250"/>
<path d="M21.222 39.2114H2.68977C1.74359 39.2114 0.976562 38.4444 0.976562 37.4982V35.342C0.976562 34.3958 1.74359 33.6288 2.68977 33.6288H21.222C22.1681 33.6288 22.9352 34.3958 22.9352 35.342V37.4982C22.9352 38.4444 22.1681 39.2114 21.222 39.2114Z" fill="#F1E64C"/>
<path d="M22.9352 36.1364V37.4989C22.9352 38.4449 22.168 39.2114 21.2219 39.2114H2.68984C1.74375 39.2114 0.976562 38.4449 0.976562 37.4989V36.1364C0.976562 37.0824 1.74375 37.8496 2.68984 37.8496H21.2219C22.168 37.8496 22.9352 37.0824 22.9352 36.1364Z" fill="#FFC250"/>
<path d="M6.25523 39.2117H2.69039C1.74367 39.2117 0.976562 38.4445 0.976562 37.4987V35.342C0.976562 34.3961 1.74375 33.629 2.69039 33.629H6.25523C5.30938 33.629 4.54227 34.3962 4.54227 35.342V37.4987C4.54227 38.4445 5.30945 39.2117 6.25523 39.2117Z" fill="#FFC250"/>
<path d="M28.4344 39.2116C34.4981 39.2116 39.4137 34.296 39.4137 28.2323C39.4137 22.1686 34.4981 17.2531 28.4344 17.2531C22.3707 17.2531 17.4551 22.1686 17.4551 28.2323C17.4551 34.296 22.3707 39.2116 28.4344 39.2116Z" fill="#F1E64C"/>
<path d="M29.3629 39.1723C29.0572 39.1987 28.7473 39.2115 28.4342 39.2115C22.3703 39.2115 17.4551 34.2962 17.4551 28.2323C17.4551 22.1684 22.3703 17.2532 28.4342 17.2532C28.7473 17.2532 29.0572 17.2658 29.3629 17.2923C23.7327 17.763 19.3113 22.4804 19.3113 28.2323C19.3113 33.9842 23.7327 38.7016 29.3629 39.1723Z" fill="#FFC250"/>
<path d="M28.4353 35.6461C32.5299 35.6461 35.8491 32.3269 35.8491 28.2323C35.8491 24.1378 32.5299 20.8185 28.4353 20.8185C24.3408 20.8185 21.0215 24.1378 21.0215 28.2323C21.0215 32.3269 24.3408 35.6461 28.4353 35.6461Z" fill="#FFC250"/>
<path d="M15.419 24.2199V15.1812H16.964C18.8398 15.1812 20.0121 13.1505 19.0742 11.5261L14.1221 2.94989C13.1843 1.32567 10.8399 1.3256 9.90191 2.94981L4.94933 11.526C4.01129 13.1504 5.18355 15.1812 7.05941 15.1812H8.60519V24.2199C8.60519 25.0668 9.29168 25.7533 10.1386 25.7533H13.8857C14.7325 25.7533 15.419 25.0667 15.419 24.2199Z" fill="#95D6A4"/>
<path d="M11.5492 25.7534H10.1384C9.29182 25.7534 8.60557 25.0671 8.60557 24.2206V15.1809H7.05924C5.18338 15.1809 4.01096 13.1506 4.94971 11.5258L9.90151 2.9498C10.3705 2.13785 11.1911 1.7323 12.0118 1.7323C11.4621 1.7323 10.9123 2.13785 10.5986 2.9498L7.28104 11.5258C6.65205 13.1506 7.43791 15.1809 8.69424 15.1809H9.32947C9.98791 15.1809 10.5217 15.7147 10.5217 16.3732V24.2197C10.5217 25.0666 10.9821 25.7534 11.5492 25.7534Z" fill="#78C2A4"/>
<path d="M29.1667 12.8815L29.1218 12.7142C28.9638 12.1244 29.2894 11.5128 29.8671 11.3147L31.6439 10.7055C32.2804 10.4873 32.9685 10.8538 33.1426 11.5036L33.2539 11.9192C33.4281 12.569 33.0154 13.2305 32.3551 13.3597L30.5118 13.7206C29.9125 13.838 29.3247 13.4713 29.1667 12.8815Z" fill="#F7F493"/>
<path d="M26.3279 7.87546L26.2055 7.75303C25.7737 7.32124 25.7499 6.62882 26.1512 6.1685L27.3854 4.75249C27.8275 4.2453 28.6066 4.21858 29.0823 4.69436L29.3866 4.99858C29.8623 5.47436 29.8356 6.2535 29.3284 6.69554L27.9124 7.92975C27.4522 8.331 26.7598 8.30725 26.3279 7.87546Z" fill="#F7F493"/>
<path d="M21.3663 4.95936L21.199 4.91452C20.6092 4.75647 20.2424 4.16866 20.3597 3.56936L20.7206 1.726C20.8498 1.06569 21.5113 0.653036 22.1611 0.827177L22.5767 0.938505C23.2265 1.11265 23.593 1.80077 23.3748 2.43718L22.7656 4.21405C22.5677 4.79179 21.9562 5.11741 21.3663 4.95936Z" fill="#F7F493"/>
<path d="M36.8546 20.304C36.6327 20.0684 36.2619 20.0575 36.0263 20.2793C35.7908 20.5011 35.7797 20.872 36.0016 21.1075C37.8243 23.0425 38.8281 25.5728 38.8281 28.2323C38.8281 33.9635 34.1655 38.6261 28.4344 38.6261C22.7037 38.6261 18.0414 33.9635 18.0414 28.2323C18.0414 22.5016 22.7037 17.8393 28.4344 17.8393C30.5502 17.8393 32.5857 18.4711 34.3207 19.6664C34.5872 19.8499 34.9521 19.7828 35.1356 19.5163C35.3193 19.2498 35.252 18.885 34.9855 18.7014C33.0541 17.3708 30.7887 16.6675 28.4345 16.6675C27.4806 16.6675 26.5538 16.7843 25.6665 17.0031C25.2371 16.5538 24.642 16.295 24.0063 16.295H23.7762C23.9645 15.9616 24.0727 15.5771 24.0727 15.1676V13.0114C24.0727 11.7436 23.0413 10.7122 21.7734 10.7122H19.2809L14.63 2.65716C14.0832 1.71067 13.1045 1.14575 12.0116 1.14575C12.0115 1.14575 12.0112 1.14575 12.011 1.14575C10.9188 1.14599 9.94078 1.71075 9.39492 2.65645L4.74336 10.7122H3.24141C1.97359 10.7122 0.942188 11.7436 0.942188 13.0114V15.1676C0.942188 16.4354 1.97359 17.4668 3.24141 17.4668H3.47148C3.28313 17.8002 3.175 18.1847 3.175 18.5942V20.7504C3.175 21.1599 3.28313 21.5444 3.47148 21.8778H2.29922C1.03141 21.8778 0 22.9089 0 24.1762V26.3325C0 27.4575 0.812422 28.3958 1.88133 28.5929C1.67906 28.9351 1.5625 29.3336 1.5625 29.7591V31.9154C1.5625 32.3781 1.70039 32.809 1.93656 33.1701C1.03773 33.4828 0.390625 34.3379 0.390625 35.3419V37.4982C0.390625 38.766 1.42203 39.7974 2.68984 39.7974H21.2219C22.0922 39.7974 22.8655 39.3044 23.2546 38.5709C24.8137 39.3554 26.5733 39.7979 28.4344 39.7979C34.8117 39.7979 40 34.6097 40 28.2323C40 25.2729 38.883 22.4572 36.8546 20.304ZM2.73438 31.9154V29.7591C2.73438 29.1375 3.24008 28.6318 3.86172 28.6318H16.8772C16.9307 30.2008 17.298 31.6914 17.9185 33.0427H3.86172C3.24008 33.0427 2.73438 32.537 2.73438 31.9154ZM24.1757 17.4801C21.9577 18.3617 20.0754 19.9108 18.7768 21.8779H16.0055V17.4669H21.7734H24.0063C24.0636 17.4669 24.1201 17.4717 24.1757 17.4801ZM22.9008 13.0115V15.1677C22.9008 15.7893 22.3951 16.295 21.7734 16.295H16.0055V15.7675H16.9641C18.057 15.7675 19.0355 15.2023 19.582 14.2556C20.0075 13.5184 20.0999 12.6702 19.8625 11.884H21.7734C22.3951 11.8841 22.9008 12.3898 22.9008 13.0115ZM2.11406 15.1677V13.0115C2.11406 12.3898 2.61977 11.8841 3.24141 11.8841H4.16125C4.01398 12.375 3.99359 12.8955 4.10734 13.4002C4.17844 13.7159 4.49211 13.9142 4.80773 13.843C5.12344 13.7718 5.32172 13.4583 5.25055 13.1426C5.17922 12.826 5.15719 12.3393 5.45742 11.8191L10.4098 3.24247C10.744 2.66356 11.3427 2.31786 12.0113 2.31771H12.0116C12.6809 2.31771 13.2805 2.66372 13.6152 3.24333L18.5669 11.8192C18.9015 12.3984 18.9016 13.0903 18.567 13.6698C18.2324 14.2495 17.6332 14.5956 16.9641 14.5956H15.4195C15.0959 14.5956 14.8336 14.8579 14.8336 15.1815V24.2198C14.8336 24.7423 14.4085 25.1675 13.8859 25.1675H10.1391C9.61656 25.1675 9.19141 24.7424 9.19141 24.2198V15.1815C9.19141 14.8579 8.92906 14.5956 8.60547 14.5956H7.06016C6.83758 14.5956 6.62289 14.5586 6.42211 14.4856C6.11781 14.3749 5.7818 14.5318 5.67125 14.836C5.56063 15.1401 5.7175 15.4763 6.02164 15.5868C6.35117 15.7067 6.70055 15.7675 7.06016 15.7675H8.01953V16.295H5.47422H3.24141C2.61977 16.295 2.11406 15.7893 2.11406 15.1677ZM4.34688 20.7505V18.5943C4.34688 17.9726 4.85258 17.4669 5.47422 17.4669H8.01953V21.8779H5.47422C4.85258 21.8779 4.34688 21.3722 4.34688 20.7505ZM1.17188 26.3325V24.1763C1.17188 23.5551 1.67758 23.0497 2.29922 23.0497H5.47422H8.01953V24.2198C8.01953 25.3885 8.97031 26.3393 10.1391 26.3393H13.8859C15.0546 26.3393 16.0055 25.3886 16.0055 24.2198V23.0497H18.0979C17.4221 24.3922 17.0005 25.8833 16.8959 27.4599H3.86172H2.29922C1.67758 27.4599 1.17188 26.9542 1.17188 26.3325ZM21.2219 38.6255H2.68984C2.0682 38.6255 1.5625 38.1198 1.5625 37.4982V35.3419C1.5625 34.7203 2.0682 34.2146 2.68984 34.2146H3.86172H18.54C19.4651 35.7391 20.7324 37.0337 22.2345 37.9915C22.0501 38.3688 21.6616 38.6255 21.2219 38.6255Z" fill="black"/>
<path d="M29.5913 27.6242C29.384 27.5638 29.1716 27.5004 28.9599 27.4341V24.8378C29.589 24.9307 29.9648 25.1957 29.9931 25.2163C30.2506 25.4087 30.6156 25.3577 30.8104 25.1013C31.0061 24.8436 30.9559 24.476 30.6982 24.2803C30.6605 24.2516 30.013 23.7718 28.9599 23.6586V23.1525C28.9599 22.8289 28.6977 22.5665 28.374 22.5665C28.0503 22.5665 27.7881 22.8289 27.7881 23.1525V23.6962C27.675 23.7153 27.5595 23.7391 27.4415 23.7684C26.4537 24.0135 25.7162 24.7672 25.5626 25.6885C25.4331 26.4657 25.7501 27.2052 26.39 27.6186C26.742 27.8459 27.1821 28.0544 27.7881 28.2756V31.5643C27.1798 31.5386 26.7777 31.4362 26.1159 31.0797C25.8309 30.9261 25.4756 31.0327 25.3222 31.3176C25.1687 31.6025 25.2752 31.9579 25.5601 32.1114C26.4349 32.5826 27.0012 32.7091 27.7881 32.7368V33.3122C27.7881 33.6358 28.0504 33.8982 28.3741 33.8982C28.6977 33.8982 28.96 33.6358 28.96 33.3122V32.6988C30.5036 32.4682 31.4442 31.3723 31.5953 30.2917C31.7653 29.0751 30.9787 28.0281 29.5913 27.6242ZM27.0259 26.6341C26.6731 26.4063 26.6934 26.0316 26.7185 25.8811C26.7795 25.515 27.0756 25.0665 27.7236 24.9057C27.7453 24.9004 27.7666 24.8959 27.788 24.891V27.0183C27.4974 26.8975 27.2356 26.7696 27.0259 26.6341ZM30.4346 30.1294C30.3523 30.7181 29.83 31.314 28.9599 31.5065V28.6595C29.0583 28.689 29.1589 28.719 29.2637 28.7494C30.0966 28.9918 30.5233 29.4948 30.4346 30.1294Z" fill="black"/>
<path d="M28.4352 20.2325C24.0241 20.2325 20.4355 23.8212 20.4355 28.2323C20.4355 32.6434 24.0241 36.232 28.4352 36.232C32.8463 36.232 36.4349 32.6433 36.4349 28.2322C36.4349 23.8211 32.8463 20.2325 28.4352 20.2325ZM28.4352 35.0601C24.6704 35.0601 21.6074 31.9972 21.6074 28.2322C21.6074 24.4673 24.6704 21.4043 28.4352 21.4043C32.2001 21.4043 35.263 24.4673 35.263 28.2322C35.263 31.9972 32.2001 35.0601 28.4352 35.0601Z" fill="black"/>
<path d="M28.5554 12.8659L28.6001 13.0331C28.6002 13.0331 28.6002 13.0332 28.6002 13.0332C28.8076 13.8069 29.5145 14.3283 30.2899 14.3283C30.4002 14.3283 30.512 14.3177 30.6238 14.2958L32.4673 13.9349C32.9408 13.8423 33.3588 13.5543 33.6142 13.145C33.8696 12.7357 33.9444 12.2337 33.8195 11.7677L33.7082 11.352C33.5833 10.886 33.2674 10.4887 32.8416 10.2619C32.4157 10.0351 31.9098 9.99491 31.4534 10.1513L29.6766 10.7605C28.8111 11.0573 28.3186 11.9821 28.5554 12.8659ZM30.0568 11.8691L31.8336 11.26C31.986 11.2076 32.1485 11.2206 32.2908 11.2964C32.4332 11.3722 32.5346 11.4998 32.5763 11.6555L32.6876 12.0712C32.7294 12.2269 32.7054 12.388 32.62 12.5248C32.5346 12.6617 32.4005 12.7541 32.2423 12.7851L30.3988 13.1459C30.102 13.2038 29.8102 13.0212 29.7323 12.7301L29.6874 12.5627C29.6094 12.2715 29.7716 11.9669 30.0568 11.8691Z" fill="black"/>
<path d="M25.9137 8.28989C26.2524 8.62863 26.7007 8.79981 27.1501 8.79981C27.5591 8.79981 27.9688 8.65793 28.2975 8.37153L29.7135 7.13731C30.0772 6.82035 30.2952 6.36199 30.3118 5.87981C30.3284 5.39762 30.1421 4.92543 29.801 4.58434L29.4967 4.28004C29.1556 3.93895 28.6837 3.75223 28.2012 3.76926C27.7191 3.78574 27.2607 4.00387 26.9437 4.36754L25.7094 5.78356C25.1084 6.47332 25.1442 7.52043 25.7912 8.16746L25.9137 8.28989ZM26.593 6.55356L27.8273 5.13754C27.9331 5.01598 28.0802 4.94598 28.2415 4.94051C28.2483 4.94028 28.2551 4.94012 28.2619 4.94012C28.4155 4.94012 28.5591 4.99957 28.6682 5.10871L28.9725 5.41301C29.0865 5.52699 29.1462 5.67856 29.1407 5.83973C29.1352 6.0009 29.0651 6.14801 28.9437 6.25395L27.5276 7.48817C27.3005 7.68614 26.9555 7.67434 26.7423 7.46121L26.62 7.33887C26.4068 7.12567 26.395 6.78074 26.593 6.55356Z" fill="black"/>
<path d="M21.0471 5.48063L21.2143 5.5254C21.364 5.56548 21.5149 5.5847 21.6636 5.5847C22.3933 5.5847 23.0731 5.12313 23.3196 4.40415L23.9288 2.62735C24.0852 2.17095 24.0449 1.66501 23.8181 1.23915C23.5913 0.813368 23.194 0.497508 22.7281 0.372664L22.3125 0.261336C21.8464 0.136414 21.3445 0.211258 20.9351 0.466727C20.5258 0.722117 20.2379 1.14016 20.1452 1.6136L19.7844 3.45704C19.6087 4.35485 20.1634 5.24376 21.0471 5.48063ZM20.9345 3.68204L21.2953 1.83868C21.3263 1.68048 21.4187 1.54626 21.5555 1.46095C21.6484 1.40298 21.7525 1.37329 21.8587 1.37329C21.9088 1.37329 21.9592 1.37993 22.0092 1.39329L22.4248 1.50462C22.5806 1.54634 22.7081 1.64774 22.7838 1.79001C22.8597 1.93235 22.8727 2.09477 22.8203 2.24735L22.2112 4.02415C22.1135 4.30923 21.8089 4.47134 21.5177 4.39352C21.5177 4.39352 21.5177 4.39352 21.5176 4.39352L21.3504 4.34876C21.0592 4.27063 20.8766 3.97782 20.9345 3.68204Z" fill="black"/>
</g>
<defs>
<clipPath id="clip0_5172_26704">
<rect width="40" height="40" fill="white"/>
</clipPath>
</defs>
</svg>
