<svg width="48" height="49" viewBox="0 0 48 49" fill="none" xmlns="http://www.w3.org/2000/svg">
<path d="M5.55078 38.8733V40.4551C5.55514 42.303 6.29162 44.0739 7.59894 45.38C8.90625 46.686 10.6779 47.4208 12.5258 47.4233H37.6508C38.9233 47.4216 40.1431 46.9153 41.0429 46.0155C41.9427 45.1157 42.449 43.8958 42.4508 42.6233V3.17334C42.4508 2.97443 42.3718 2.78366 42.2311 2.64301C42.0905 2.50236 41.8997 2.42334 41.7008 2.42334H13.9035C13.7046 2.42334 13.5139 2.50236 13.3732 2.64301C13.2325 2.78366 13.1535 2.97443 13.1535 3.17334V38.1233H6.30078C6.10187 38.1233 5.9111 38.2024 5.77045 38.343C5.6298 38.4837 5.55078 38.6744 5.55078 38.8733ZM14.6535 3.92334H40.9545V42.6233C40.9545 43.4986 40.6069 44.3379 39.988 44.9568C39.3691 45.5757 38.5297 45.9233 37.6545 45.9233C36.7793 45.9233 35.9399 45.5757 35.3211 44.9568C34.7022 44.3379 34.3545 43.4986 34.3545 42.6233V38.8733C34.3545 38.6744 34.2755 38.4837 34.1349 38.343C33.9942 38.2024 33.8034 38.1233 33.6045 38.1233H14.6535V3.92334ZM7.05078 39.6233H32.8508V42.6233C32.8517 43.8528 33.3263 45.0347 34.176 45.9233H12.5258C11.0732 45.9229 9.68017 45.3462 8.65242 44.3197C7.62467 43.2932 7.04622 41.9009 7.04403 40.4483L7.05078 39.6233Z" fill="#9473F2"/>
<path d="M22.1844 17.1406C22.3705 17.3293 22.5944 17.4767 22.8413 17.5731C23.0883 17.6695 23.3528 17.7128 23.6176 17.7001C24.7944 17.7001 26.3176 16.9726 27.8026 15.9241C29.2906 16.9741 30.8109 17.7001 31.9876 17.7001C32.2524 17.7128 32.5169 17.6695 32.7639 17.5731C33.0108 17.4767 33.2347 17.3293 33.4209 17.1406C34.4964 16.0006 33.6391 13.8856 32.0709 11.8381C32.5076 11.2751 32.896 10.6762 33.2319 10.0478C34.2616 8.07156 33.9069 7.04781 33.4231 6.54006C32.3064 5.35656 30.0189 6.18756 27.8049 7.74756C25.5916 6.18756 23.3049 5.35581 22.1866 6.54006C21.7051 7.04931 21.3481 8.07156 22.3779 10.0478C22.7137 10.6762 23.1021 11.2751 23.5389 11.8381C21.9661 13.8856 21.1089 15.9983 22.1844 17.1406ZM32.3304 16.1108C32.0934 16.3606 30.8199 16.1108 29.0544 14.9626C29.3701 14.6986 29.6806 14.4278 29.9784 14.1466C30.3676 13.7798 30.7344 13.4033 31.0794 13.0216C32.2591 14.6611 32.5599 15.8663 32.3304 16.1108ZM26.6559 13.0553C26.2321 12.6556 25.8481 12.2461 25.4836 11.8351C25.8301 11.4436 26.2164 11.0401 26.6559 10.6253C27.0481 10.2556 27.4291 9.92631 27.7981 9.63006C28.1731 9.93006 28.5526 10.2511 28.9494 10.6253C29.3896 11.0401 29.7744 11.4436 30.1216 11.8351C29.7571 12.2461 29.3716 12.6556 28.9494 13.0553C28.5564 13.4303 28.1731 13.7566 27.8026 14.0543C27.4321 13.7566 27.0496 13.4266 26.6559 13.0553ZM32.3296 7.56906C32.4354 7.68006 32.4684 8.26356 31.8991 9.35481C31.6552 9.80557 31.3795 10.2384 31.0741 10.6501C30.7239 10.2653 30.3571 9.89031 29.9791 9.53331C29.6791 9.25281 29.3716 8.98056 29.0566 8.71656C30.8244 7.56906 32.0941 7.31931 32.3296 7.56906ZM23.7046 9.35481C23.1361 8.26356 23.1691 7.68006 23.2741 7.56906C23.3656 7.49903 23.4807 7.4673 23.5951 7.48056C24.6653 7.6444 25.6787 8.06943 26.5456 8.71806C26.2314 8.98131 25.9224 9.25356 25.6254 9.53331C25.2504 9.89031 24.8814 10.2653 24.5304 10.6501C24.2255 10.2382 23.9501 9.80539 23.7061 9.35481H23.7046ZM24.5244 13.0238C24.8694 13.4033 25.2361 13.7798 25.6254 14.1488C25.9254 14.4301 26.2344 14.7016 26.5494 14.9656C24.7839 16.1146 23.5104 16.3636 23.2734 16.1131C23.0364 15.8626 23.3461 14.6611 24.5244 13.0238Z" fill="#9473F2"/>
<path d="M18.5312 22.8916H27.8027C28.0017 22.8916 28.1924 22.8126 28.3331 22.6719C28.4737 22.5313 28.5527 22.3405 28.5527 22.1416C28.5527 21.9427 28.4737 21.7519 28.3331 21.6113C28.1924 21.4706 28.0017 21.3916 27.8027 21.3916H18.5312C18.3323 21.3916 18.1416 21.4706 18.0009 21.6113C17.8603 21.7519 17.7812 21.9427 17.7812 22.1416C17.7812 22.3405 17.8603 22.5313 18.0009 22.6719C18.1416 22.8126 18.3323 22.8916 18.5312 22.8916Z" fill="#9473F2"/>
<path d="M18.5312 26.895H34.0637C34.2627 26.895 34.4534 26.816 34.5941 26.6753C34.7347 26.5347 34.8137 26.3439 34.8137 26.145C34.8137 25.9461 34.7347 25.7553 34.5941 25.6147C34.4534 25.474 34.2627 25.395 34.0637 25.395H18.5312C18.3323 25.395 18.1416 25.474 18.0009 25.6147C17.8603 25.7553 17.7812 25.9461 17.7812 26.145C17.7812 26.3439 17.8603 26.5347 18.0009 26.6753C18.1416 26.816 18.3323 26.895 18.5312 26.895Z" fill="#9473F2"/>
<path d="M18.5312 30.9473H22.0885C22.2874 30.9473 22.4782 30.8682 22.6188 30.7276C22.7595 30.5869 22.8385 30.3962 22.8385 30.1973C22.8385 29.9984 22.7595 29.8076 22.6188 29.6669C22.4782 29.5263 22.2874 29.4473 22.0885 29.4473H18.5312C18.3323 29.4473 18.1416 29.5263 18.0009 29.6669C17.8603 29.8076 17.7812 29.9984 17.7812 30.1973C17.7812 30.3962 17.8603 30.5869 18.0009 30.7276C18.1416 30.8682 18.3323 30.9473 18.5312 30.9473Z" fill="#9473F2"/>
<path d="M25.5742 29.4473C25.3753 29.4473 25.1845 29.5263 25.0439 29.6669C24.9032 29.8076 24.8242 29.9984 24.8242 30.1973C24.8242 30.3962 24.9032 30.5869 25.0439 30.7276C25.1845 30.8682 25.3753 30.9473 25.5742 30.9473H29.058C29.2569 30.9473 29.4476 30.8682 29.5883 30.7276C29.729 30.5869 29.808 30.3962 29.808 30.1973C29.808 29.9984 29.729 29.8076 29.5883 29.6669C29.4476 29.5263 29.2569 29.4473 29.058 29.4473H25.5742Z" fill="#9473F2"/>
<path d="M32.6125 33.4395H18.5313C18.3323 33.4395 18.1416 33.5185 18.0009 33.6591C17.8603 33.7998 17.7812 33.9905 17.7812 34.1895C17.7812 34.3884 17.8603 34.5791 18.0009 34.7198C18.1416 34.8604 18.3323 34.9395 18.5313 34.9395H32.6125C32.8114 34.9395 33.0022 34.8604 33.1428 34.7198C33.2835 34.5791 33.3625 34.3884 33.3625 34.1895C33.3625 33.9905 33.2835 33.7998 33.1428 33.6591C33.0022 33.5185 32.8114 33.4395 32.6125 33.4395Z" fill="#9473F2"/>
</svg>
