<svg width="48" height="49" viewBox="0 0 48 49" fill="none" xmlns="http://www.w3.org/2000/svg">
<g clip-path="url(#clip0_3868_22535)">
<path d="M21.8069 24.1913C21.0019 24.9963 21.0019 26.3064 21.8069 27.1114C22.6119 27.9165 23.9219 27.9166 24.7272 27.1114C25.5323 26.3064 25.5323 24.9963 24.7272 24.1913C23.9219 23.3861 22.612 23.3861 21.8069 24.1913ZM23.7329 25.1855C23.9897 25.4424 23.9897 25.8604 23.7329 26.1171C23.476 26.374 23.0581 26.374 22.8013 26.1171C22.5444 25.8603 22.5444 25.4424 22.8013 25.1855C23.0581 24.9286 23.4759 24.9286 23.7329 25.1855Z" fill="#9473F2"/>
<path d="M12.5652 48.9233C13.2829 48.9233 13.8755 48.7112 14.3074 48.2791C14.4496 48.137 14.0585 48.632 20.3286 40.4456V40.5242C20.3286 41.1419 21.0218 41.5089 21.5322 41.1606L23.1575 40.0531C23.224 40.0078 23.3098 40.0078 23.3763 40.0531L25.0011 41.1604C25.5118 41.5089 26.2052 41.1423 26.2052 40.5243V38.6725L27.0002 40.3445C27.2645 40.9012 28.0472 40.9377 28.3606 40.4026L29.3527 38.7044C29.3933 38.6349 29.4704 38.5979 29.5504 38.6105L31.494 38.9128C32.1048 39.0067 32.5726 38.3794 32.3074 37.8212L28.9172 30.6918C29.16 30.3438 29.4852 30.0645 29.8716 29.8744L30.6356 29.4987C31.1476 29.247 31.3754 28.6493 31.1761 28.1257C33.0917 26.3388 35.1111 24.6303 37.1869 23.0404C47.9304 14.8118 47.213 15.3733 47.3559 15.2304C48.261 14.3254 48.2017 12.696 47.1941 10.626C47.2635 10.1286 47.172 9.45679 46.7633 8.55358C46.6032 8.19989 46.1868 8.04287 45.8329 8.20289C45.4791 8.363 45.3221 8.7795 45.4822 9.13329C45.9177 10.0956 45.8135 10.5143 45.7422 10.5855C45.7387 10.589 45.7349 10.5923 45.7303 10.5957C44.8789 11.2167 42.8822 10.7413 40.524 9.38836L40.8338 9.07863C41.1984 8.71388 41.2022 8.11533 40.8421 7.74402C39.8277 6.69926 39.0283 5.59075 38.5911 4.62267C38.158 3.66359 38.2621 3.24606 38.3327 3.17547C38.3441 3.16413 38.358 3.1541 38.3742 3.14538C38.4069 3.13704 38.4389 3.12635 38.4701 3.11341C39.0352 3.00589 40.8986 3.67952 43.0685 5.84948C43.2981 6.07915 43.5208 6.31604 43.7306 6.55368C43.9875 6.84475 44.4318 6.8724 44.723 6.61545C45.0142 6.3585 45.0417 5.91416 44.7847 5.62309C44.5558 5.3638 44.313 5.10554 44.0629 4.85534C42.1849 2.97692 39.8382 1.53029 38.2998 1.72761C36.2262 0.7166 34.594 0.655761 33.6879 1.56207C33.6162 1.63378 33.546 1.71468 33.4799 1.8057C25.3001 12.4855 25.4054 12.368 24.388 13.6178C24.0111 14.0807 24.3491 14.7648 24.9328 14.7648C25.1371 14.7648 25.3395 14.6763 25.4785 14.5056C26.522 13.2237 26.5073 13.2218 33.2078 4.47343C33.313 4.88431 33.4588 5.28552 33.6238 5.67231C34.7553 8.32476 37.1919 11.062 39.4372 12.8945C30.7057 19.582 29.3004 20.5901 26.6855 22.8672C25.8837 21.8844 24.7103 21.2985 23.4425 21.2484C22.8234 20.4716 22.2446 19.6556 21.7155 18.8137C22.2334 18.2607 22.7468 17.6972 23.2465 17.1332C23.504 16.8426 23.4771 16.3982 23.1865 16.1407C22.8958 15.8832 22.4514 15.9101 22.194 16.2007C21.7362 16.7175 21.2665 17.234 20.7926 17.742C20.2669 17.5416 19.6704 17.7727 19.4197 18.2824L19.044 19.0464C18.7603 19.6232 18.2729 20.0662 17.6719 20.294L17.2126 20.468C16.626 20.6901 16.3489 21.3557 16.5939 21.9248C14.7473 23.6342 12.8032 25.2729 10.8084 26.8008C0.134292 34.976 0.779148 34.4707 0.63919 34.6108C-0.218368 35.4682 -0.2074 37.0047 0.670125 38.9368C2.74784 43.5121 8.93382 48.9233 12.5652 48.9233ZM24.1682 38.8911C23.6208 38.518 22.9131 38.5181 22.3657 38.8911L21.7348 39.321V35.3074C21.7348 34.9191 21.42 34.6043 21.0317 34.6043C20.6434 34.6043 20.3286 34.9191 20.3286 35.3074V38.133C12.8998 47.8323 13.354 47.244 13.3132 47.2848C12.7932 47.8047 11.0399 47.4768 8.71531 45.9213L20.3286 30.7583V32.0264C20.3286 32.4147 20.6434 32.7294 21.0317 32.7294C21.42 32.7294 21.7348 32.4147 21.7348 32.0264V29.7846C22.6822 30.1342 23.7725 30.1634 24.7991 29.7846V39.321L24.1682 38.8911ZM29.7667 37.221C29.1117 37.1189 28.473 37.4231 28.1388 37.9951L27.7537 38.6543L26.2053 35.3982V28.9378C26.2838 28.8676 26.3563 28.798 26.4258 28.7264L30.5211 37.3384L29.7667 37.221ZM28.259 29.307L27.3319 27.3575C27.3709 27.2642 27.4066 27.1698 27.4389 27.0746C28.1067 27.5758 28.7983 28.0482 29.5064 28.487C29.0879 28.6929 28.7216 28.8618 28.259 29.307ZM46.2483 11.9679C46.7291 13.2193 46.6368 13.9611 46.3619 14.236C46.02 14.578 45.0775 14.5782 43.653 13.9383L46.2483 11.9679ZM39.5259 8.39806L39.2977 8.62614C38.2336 7.91519 37.15 7.06748 36.0948 6.12208L37.1288 4.76028C37.5615 5.93469 38.4709 7.25056 39.5259 8.39806ZM36.9503 2.67001L35.0622 5.15672C34.9888 5.08501 34.9154 5.01292 34.8424 4.94036C34.3917 3.81433 34.3283 2.91008 34.6821 2.5563C34.957 2.28154 35.6988 2.18911 36.9503 2.67001ZM37.5714 9.13319C39.2801 10.3844 41.585 11.7688 43.6749 12.1563L42.2885 13.2089C40.5724 12.1574 38.8939 10.6514 37.5714 9.13319ZM40.5974 13.777C41.7173 14.5671 43.1253 15.3759 44.442 15.7126L36.3322 21.924C34.1797 23.5727 32.0867 25.3466 30.1045 27.2027C29.2628 26.6738 28.4468 26.095 27.6699 25.4759C27.6516 25.0127 27.5609 24.5519 27.3978 24.1121C30.1008 21.7415 31.3741 20.8411 40.5974 13.777ZM25.3899 27.7742C24.2194 28.9448 22.3146 28.9448 21.144 27.7742C19.9734 26.6035 19.9734 24.6989 21.144 23.5282C22.3146 22.3577 24.2193 22.3576 25.3899 23.5282C26.5606 24.6989 26.5606 26.6036 25.3899 27.7742ZM18.1699 21.6088C19.1056 21.2544 19.864 20.5647 20.3057 19.6669L20.4312 19.4117C20.8701 20.1199 21.3425 20.8116 21.8436 21.4793C20.73 21.8572 19.8558 22.6526 19.3547 23.6185C18.8881 22.9743 18.4615 22.3259 18.0577 21.6513L18.1699 21.6088ZM1.63342 35.6051C1.6743 35.5643 1.03178 36.0598 11.6632 27.9171C13.6158 26.4216 15.5205 24.8218 17.3351 23.1538C17.8132 23.8972 18.3282 24.6208 18.8734 25.3149C18.7807 26.5361 19.1933 27.7889 20.1112 28.7295L7.57774 45.094C6.90195 44.5636 6.236 43.9712 5.59152 43.3267C2.02667 39.7617 0.866141 36.3723 1.63342 35.6051Z" fill="#9473F2"/>
</g>
<defs>
<clipPath id="clip0_3868_22535">
<rect width="48" height="48" fill="white" transform="translate(0 0.92334)"/>
</clipPath>
</defs>
</svg>
