<svg width="48" height="50" viewBox="0 0 48 50" fill="none" xmlns="http://www.w3.org/2000/svg">
<rect x="0.5" y="1.16101" width="47" height="47.8136" rx="11.5" fill="#F8FAFF"/>
<rect x="0.5" y="1.16101" width="47" height="47.8136" rx="11.5" stroke="#C4D8FE"/>
<g clip-path="url(#clip0_2852_4707)">
<path d="M37.333 12.1241C37.9399 12.1241 38.4337 11.6304 38.4337 11.0235V9.76101C38.4337 9.15451 37.9399 8.66101 37.333 8.66101H22.2443C21.9853 8.66101 21.7755 8.87082 21.7755 9.12976C21.7755 9.3887 21.9853 9.59851 22.2443 9.59851H37.333C37.423 9.59851 37.4962 9.67139 37.4962 9.76101V11.0235C37.4962 11.1134 37.423 11.1866 37.333 11.1866H18.393C18.3031 11.1866 18.2299 11.1134 18.2299 11.0235V9.76101C18.2299 9.67139 18.3031 9.59851 18.393 9.59851H20.0568C20.3157 9.59851 20.5255 9.3887 20.5255 9.12976C20.5255 8.87082 20.3157 8.66101 20.0568 8.66101H18.393C17.7862 8.66101 17.2924 9.15451 17.2924 9.76101V11.0235C17.2924 11.6304 17.7862 12.1241 18.393 12.1241H19.1867V13.9298L18.064 14.6781C17.581 14.9999 17.2926 15.5385 17.2926 16.1189V20.497C17.0907 20.4709 16.886 20.4564 16.679 20.4564C14.9915 20.4564 13.4585 21.3404 12.6106 22.7818H12.4229C11.9902 22.7818 11.5884 23.0357 11.3992 23.4288C11.0647 24.1244 10.8952 24.8691 10.8952 25.6424V27.5691C10.8952 28.5602 11.7015 29.3666 12.6927 29.3666H12.8939C12.9657 30.721 13.7518 31.8891 14.8815 32.5001V33.0799H13.2243C11.2072 33.0799 9.56616 34.7206 9.56616 36.7374V37.1056C9.56616 37.3645 9.77597 37.5743 10.0349 37.5743C10.2938 37.5743 10.5037 37.3645 10.5037 37.1056V36.7374C10.5037 35.2376 11.7241 34.0174 13.2243 34.0174H14.9439C15.1507 34.7818 15.85 35.3461 16.679 35.3461C17.5079 35.3461 18.2073 34.7818 18.4141 34.0174H20.1337C21.6339 34.0174 22.8543 35.2375 22.8543 36.7374V39.7235H21.0012V38.1991C21.0012 37.9401 20.7914 37.7303 20.5325 37.7303C20.2735 37.7303 20.0637 37.9401 20.0637 38.1991V39.7235H13.2943V38.1991C13.2943 37.9401 13.0845 37.7303 12.8256 37.7303C12.5667 37.7303 12.3568 37.9401 12.3568 38.1991V39.7235H10.5037V39.2929C10.5037 39.0339 10.2938 38.8241 10.0349 38.8241C9.77597 38.8241 9.56616 39.0339 9.56616 39.2929V40.1923C9.56616 40.4512 9.77597 40.661 10.0349 40.661H36.7018C37.6567 40.661 38.4337 39.8844 38.4337 38.9298V22.0191C38.4337 21.7602 38.2239 21.5504 37.9649 21.5504C37.706 21.5504 37.4962 21.7602 37.4962 22.0191V38.9298C37.4962 39.3674 37.1398 39.7235 36.7018 39.7235H34.17C34.1705 39.7114 34.1719 39.6994 34.1719 39.6872V38.1719C34.1719 38.1593 34.1704 38.1469 34.1699 38.1343H34.4979C35.0349 38.1343 35.4717 37.6974 35.4717 37.1604V35.6452C35.4717 35.1082 35.0349 34.6713 34.4979 34.6713H34.17C34.1705 34.6596 34.1718 34.6481 34.1718 34.6363V33.1211C34.1718 33.1079 34.1703 33.0951 34.1698 33.0821H34.4979C35.0349 33.0821 35.4717 32.6453 35.4717 32.1083V30.593C35.4717 30.056 35.0349 29.6192 34.4979 29.6192H23.8282C23.2912 29.6192 22.8544 30.056 22.8544 30.593V32.1083C22.8544 32.1214 22.8558 32.1343 22.8563 32.1473H22.5283C21.9913 32.1473 21.5545 32.5841 21.5545 33.1211V33.3669C21.1174 33.1821 20.6373 33.0798 20.1337 33.0798H18.4766V32.5C19.6063 31.8889 20.3924 30.7209 20.4642 29.3664H20.6654C21.6565 29.3664 22.463 28.5601 22.463 27.5689V25.6423C22.463 24.869 22.2934 24.1243 21.9588 23.4285C21.7697 23.0356 21.3679 22.7817 20.9352 22.7817H20.7472C20.5451 22.4386 20.301 22.1221 20.0176 21.8386C19.5053 21.3263 18.8955 20.9471 18.2302 20.7166V16.1188C18.2302 15.8528 18.3624 15.6059 18.584 15.4583L19.9155 14.5706C20.046 14.4837 20.1243 14.3374 20.1243 14.1806V12.1241H35.6018V14.1804C35.6018 14.3371 35.6801 14.4834 35.8105 14.5704L37.1427 15.4587C37.364 15.606 37.4962 15.8529 37.4962 16.1191V19.8316C37.4962 20.0906 37.706 20.3004 37.9649 20.3004C38.2239 20.3004 38.4337 20.0906 38.4337 19.8316V16.1191C38.4337 15.5384 38.1453 14.9998 37.6625 14.6784L36.5393 13.9295V12.1241H37.333ZM23.7918 39.7235V38.1356H33.1981C33.2181 38.1356 33.2344 38.1519 33.2344 38.1719V39.6872C33.2344 39.7072 33.2181 39.7235 33.1981 39.7235H23.7918ZM34.5343 35.6452V37.1604C34.5343 37.1804 34.518 37.1968 34.498 37.1968H23.7918V36.7372C23.7918 36.3439 23.7287 35.9654 23.6133 35.6101L34.498 35.6088C34.518 35.6088 34.5343 35.6251 34.5343 35.6452ZM23.7919 30.593C23.7919 30.573 23.8082 30.5567 23.8282 30.5567H34.498C34.518 30.5567 34.5343 30.573 34.5343 30.593V32.1083C34.5343 32.1283 34.518 32.1446 34.498 32.1446H23.8282C23.8082 32.1446 23.7919 32.1283 23.7919 32.1083V30.593ZM22.4919 33.1211C22.4919 33.1011 22.5082 33.0848 22.5282 33.0848H33.1981C33.2181 33.0848 33.2344 33.1011 33.2344 33.1211V34.6363C33.2344 34.654 33.2215 34.6681 33.2047 34.6713L23.1512 34.6726C22.9648 34.4012 22.7427 34.1564 22.4919 33.9443V33.1211ZM12.244 23.8351C12.2785 23.7636 12.347 23.7193 12.4229 23.7193H13.357C13.4649 23.7193 13.5527 23.807 13.5527 23.9149V24.9486C13.5527 25.0104 13.5354 25.0708 13.503 25.1226L13.0973 25.7714H12.6927C12.3813 25.7714 12.0882 25.8511 11.8326 25.991V25.6423C11.8327 25.0108 11.9711 24.4028 12.244 23.8351ZM11.8327 27.5689C11.8327 27.0947 12.2185 26.7089 12.6927 26.7089H12.8883V28.4289H12.6927C12.2185 28.4289 11.8327 28.0431 11.8327 27.5689ZM17.539 33.5484C17.539 34.0226 17.1532 34.4084 16.679 34.4084C16.2059 34.4084 15.8208 34.0243 15.8192 33.5515C15.8192 33.5505 15.8193 33.5496 15.8193 33.5486C15.8193 33.5465 15.819 33.5446 15.819 33.5425V32.8546C16.0955 32.919 16.3831 32.9542 16.679 32.9542C16.9749 32.9542 17.2625 32.919 17.539 32.8546V33.5484ZM20.6653 28.4289H20.4697V26.7089H20.6653C21.1395 26.7089 21.5253 27.0947 21.5253 27.5689C21.5253 28.0431 21.1395 28.4289 20.6653 28.4289ZM21.1139 23.8349C21.3869 24.4028 21.5253 25.0108 21.5253 25.6423V25.9909C21.2697 25.8511 20.9767 25.7714 20.6653 25.7714H20.2607L19.8552 25.1231C19.8226 25.0707 19.8053 25.0103 19.8053 24.9486V23.9148C19.8053 23.8069 19.893 23.7192 20.0009 23.7192H20.935C21.011 23.7193 21.0795 23.7637 21.1139 23.8349ZM19.6527 22.8371C19.1979 22.9844 18.8678 23.4116 18.8678 23.9149V24.9486C18.8678 25.1859 18.9342 25.4178 19.06 25.6197L19.5322 26.3747V29.1635C19.5322 30.7368 18.2523 32.0166 16.679 32.0166C15.1058 32.0166 13.8259 30.7367 13.8259 29.1635V26.3747L14.2984 25.6191C14.424 25.4178 14.4903 25.1859 14.4903 24.9486V23.9148C14.4903 23.4114 14.1602 22.9842 13.7052 22.8369C14.4145 21.9329 15.4997 21.3938 16.679 21.3938C17.69 21.3938 18.6402 21.7873 19.3546 22.5016C19.4608 22.6079 19.5603 22.7199 19.6527 22.8371Z" fill="#1A202C"/>
<path d="M21.9187 19.6364C21.9187 22.9141 24.5853 25.5808 27.863 25.5808C31.1408 25.5808 33.8074 22.9141 33.8074 19.6364C33.8074 16.3586 31.1408 13.692 27.863 13.692C24.5853 13.692 21.9187 16.3586 21.9187 19.6364ZM32.87 19.6364C32.87 22.3972 30.6238 24.6433 27.8631 24.6433C25.1023 24.6433 22.8563 22.3971 22.8563 19.6364C22.8563 16.8756 25.1023 14.6295 27.8631 14.6295C30.6238 14.6295 32.87 16.8756 32.87 19.6364Z" fill="#1A202C"/>
<path d="M27.3943 16.0754V16.3187C27.3616 16.3259 27.3288 16.3339 27.2959 16.3432C26.6228 16.532 26.1639 17.0079 26.0368 17.649C25.916 18.2574 26.128 18.878 26.5769 19.2301C26.7853 19.3936 27.0431 19.5429 27.3943 19.6999V21.9069C27.1174 21.8804 26.9299 21.8042 26.6204 21.6018C26.4038 21.4601 26.1133 21.5207 25.9716 21.7375C25.8298 21.9541 25.8906 22.2446 26.1073 22.3864C26.6099 22.7152 26.9568 22.8186 27.3943 22.8472V23.1976C27.3943 23.4565 27.6041 23.6663 27.8631 23.6663C28.122 23.6663 28.3318 23.4565 28.3318 23.1976V22.7931C29.1576 22.5812 29.6868 21.8749 29.804 21.1783C29.957 20.2682 29.4814 19.4769 28.5924 19.1627C28.5066 19.1324 28.4193 19.1009 28.3318 19.0685V17.3378C28.5158 17.4143 28.6661 17.5091 28.7428 17.568C28.9466 17.7264 29.2401 17.6903 29.3994 17.487C29.5591 17.2832 29.5234 16.9886 29.3196 16.8289C29.2937 16.8087 28.8886 16.497 28.3318 16.3516V16.0756C28.3318 15.8166 28.122 15.6068 27.8631 15.6068C27.6041 15.6068 27.3943 15.8165 27.3943 16.0754ZM28.8793 21.0227C28.8298 21.3171 28.6443 21.6278 28.3317 21.7951V20.0662C28.9463 20.3132 28.9071 20.8579 28.8793 21.0227ZM27.1553 18.4923C26.9898 18.3624 26.906 18.0845 26.9562 17.8314C26.9909 17.6564 27.0971 17.4344 27.3942 17.3016V18.651C27.3058 18.5996 27.2248 18.5468 27.1553 18.4923Z" fill="#1A202C"/>
</g>
<defs>
<clipPath id="clip0_2852_4707">
<rect width="32" height="32" fill="white" transform="translate(8 8.66101)"/>
</clipPath>
</defs>
</svg>
