<svg width="48" height="49" viewBox="0 0 48 49" fill="none" xmlns="http://www.w3.org/2000/svg">
<rect x="0.5" y="0.533936" width="47" height="47.8136" rx="11.5" fill="#F8FAFF"/>
<rect x="0.5" y="0.533936" width="47" height="47.8136" rx="11.5" stroke="#C4D8FE"/>
<g clip-path="url(#clip0_2851_4006)">
<path d="M24.9036 22.6796C25.6602 22.6796 26.2759 22.064 26.2759 21.3074C26.2759 21.0484 26.066 20.8386 25.8071 20.8386C25.5482 20.8386 25.3384 21.0484 25.3384 21.3074C25.3384 21.5471 25.1434 21.7421 24.9036 21.7421C24.6639 21.7421 24.4689 21.5471 24.4689 21.3074C24.4689 21.0484 24.259 20.8386 24.0001 20.8386C23.7412 20.8386 23.5314 21.0484 23.5314 21.3074C23.5314 21.5471 23.3364 21.7421 23.0966 21.7421C22.8569 21.7421 22.6619 21.5471 22.6619 21.3074C22.6619 21.0484 22.452 20.8386 22.1931 20.8386C21.9342 20.8386 21.7244 21.0484 21.7244 21.3074C21.7244 22.064 22.3399 22.6796 23.0966 22.6796C23.4424 22.6796 23.7585 22.5507 24.0001 22.3389C24.2417 22.5508 24.5578 22.6796 24.9036 22.6796Z" fill="#1A202C"/>
<path d="M20.155 19.2399C19.4221 19.2399 18.8259 19.8361 18.8259 20.5689C18.8259 20.8279 19.0358 21.0377 19.2947 21.0377C19.5536 21.0377 19.7634 20.8279 19.7634 20.5689C19.7634 20.3531 19.9391 20.1774 20.155 20.1774C20.3709 20.1774 20.5466 20.3531 20.5466 20.5689C20.5466 20.8279 20.7564 21.0377 21.0153 21.0377C21.2742 21.0377 21.4841 20.8279 21.4841 20.5689C21.4841 19.8361 20.8878 19.2399 20.155 19.2399Z" fill="#1A202C"/>
<path d="M26.9849 21.0377C27.2437 21.0377 27.4536 20.8279 27.4536 20.5689C27.4536 20.3531 27.6293 20.1774 27.8452 20.1774C28.0611 20.1774 28.2367 20.3531 28.2367 20.5689C28.2367 20.8279 28.4466 21.0377 28.7055 21.0377C28.9644 21.0377 29.1742 20.8279 29.1742 20.5689C29.1742 19.8361 28.5781 19.2399 27.8452 19.2399C27.1123 19.2399 26.5161 19.8361 26.5161 20.5689C26.5161 20.8278 26.726 21.0377 26.9849 21.0377Z" fill="#1A202C"/>
<path d="M33.6544 31.6002C33.3975 31.1881 32.9852 30.8828 32.5 30.7664V30.5581C32.5 29.2657 31.4487 28.2143 30.1563 28.2143C29.4805 28.213 29.0347 28.2057 28.3349 28.3594C28.1247 28.1067 27.894 27.8751 27.6456 27.6641C30.5689 26.5357 32.8429 24.0921 33.7387 21.0624C35.3232 21.0321 36.5617 19.7401 36.5617 18.1877C36.5617 16.6382 35.3265 15.3444 33.7402 15.3134C33.4867 14.4531 33.1183 13.6278 32.6419 12.857C33.0493 12.1187 33.3753 11.3357 33.6072 10.525C33.9476 9.33506 32.6295 8.35781 31.5919 9.03612C31.0605 9.38356 30.5055 9.68756 29.9325 9.94725C28.1979 8.69475 26.153 8.03394 24 8.03394C21.7997 8.03394 19.7062 8.72594 17.9458 10.0352C17.738 10.1898 17.6949 10.4834 17.8494 10.6911C18.0039 10.8989 18.2975 10.9419 18.5053 10.7876C20.1027 9.59944 22.0027 8.97144 24 8.97144C25.749 8.97144 27.4192 9.45187 28.8792 10.3674C27.662 10.7888 26.3804 11.0185 25.0774 11.0431C24.8185 11.048 24.6127 11.2618 24.6175 11.5207C24.6224 11.7796 24.8365 11.9844 25.095 11.9805C27.5306 11.9345 29.9666 11.2186 32.1048 9.82075C32.4149 9.61794 32.8081 9.90931 32.7057 10.2672C31.4545 14.6413 27.5909 17.6314 23.0997 17.7179H14.796C14.9036 15.588 15.7419 13.567 17.1844 11.9834C17.3588 11.792 17.3449 11.4955 17.1535 11.3211C16.9621 11.1468 16.6657 11.1606 16.4914 11.352C15.4469 12.4986 14.6905 13.8534 14.2604 15.3133C12.6769 15.344 11.4385 16.6353 11.4385 18.1877C11.4385 19.7412 12.6784 21.0323 14.2617 21.0624C15.1578 24.0923 17.4319 26.536 20.3552 27.6643C20.0436 27.9294 19.7594 28.2281 19.5107 28.5532C18.8841 28.4646 18.4547 28.4714 18.0197 28.4714C16.5833 28.4714 15.5 29.479 15.5 30.8152V31.0235C15.1251 31.1135 14.7937 31.3161 14.5438 31.5938H14.5109C13.2075 31.5938 12.1472 32.6452 12.1472 33.9376V35.5001C12.1472 36.4477 12.9182 37.2188 13.866 37.2188H14.1508C14.393 37.9791 15.1082 38.5268 15.9375 38.5268H18.336C19.5619 38.5268 20.772 38.8493 21.8353 39.4594C22.4905 39.8352 23.239 40.0339 24 40.0339C24.761 40.0339 25.5096 39.8352 26.1648 39.4594C27.2282 38.8493 28.4382 38.5268 29.664 38.5268H29.9234C30.1824 38.5268 30.3922 38.317 30.3922 38.0581C30.3922 37.7991 30.1824 37.5893 29.9234 37.5893H29.664C28.2747 37.5893 26.9034 37.9548 25.6982 38.6462C25.1849 38.9407 24.5976 39.0964 24 39.0964C23.4025 39.0964 22.8152 38.9407 22.3019 38.6462C21.0967 37.9548 19.7254 37.5893 18.336 37.5893H15.9375C15.6272 37.5893 15.3491 37.4357 15.1779 37.1992C15.8751 37.1006 16.4665 36.6182 16.6941 35.9355L17.0054 35.0016C17.4112 33.7844 16.5077 32.5314 15.2249 32.5314H15.0557C15.1855 32.1692 15.5313 31.9089 15.9375 31.9089H18.3361C20.06 31.9089 21.719 32.5397 23.0074 33.6851L23.5312 34.1507V37.6902C23.5312 37.9491 23.7411 38.1589 24 38.1589C24.2589 38.1589 24.4687 37.9491 24.4687 37.6902V34.1507L24.9927 33.685C26.4676 32.3738 28.1266 31.6518 29.664 31.6518H32.0625C32.5599 31.6518 32.9669 32.0414 32.9971 32.5313H32.7752C31.4921 32.5313 30.5891 33.7844 30.9947 35.0016L31.3059 35.9354C31.5335 36.6181 32.1249 37.1006 32.8221 37.1992C32.6509 37.4357 32.3729 37.5892 32.0625 37.5892H31.7984C31.5394 37.5892 31.3296 37.7991 31.3296 38.058C31.3296 38.3169 31.5394 38.5267 31.7984 38.5267H32.0625C32.8919 38.5267 33.6072 37.9791 33.8493 37.2187H34.1341C35.0819 37.2187 35.8529 36.4477 35.8529 35.5V33.9375C35.8529 32.7004 34.8809 31.6846 33.6544 31.6002ZM33.9712 16.269C34.9056 16.4044 35.6242 17.218 35.6242 18.1877C35.6242 19.1533 34.9101 19.9701 33.9712 20.1062C34.0906 19.4847 34.1539 18.8434 34.1539 18.1877C34.1538 17.539 34.0915 16.8972 33.9712 16.269ZM12.376 18.1877C12.376 17.2191 13.0932 16.405 14.0284 16.2692C13.9083 16.8963 13.8464 17.5379 13.8464 18.1867C13.8464 18.8429 13.9097 19.4847 14.0292 20.1066C13.0947 19.9713 12.376 19.1576 12.376 18.1877ZM15.2249 33.4688C15.8674 33.4688 16.3192 34.0958 16.116 34.7051L15.8047 35.639C15.6767 36.0231 15.3186 36.2812 14.9137 36.2812H13.866C13.4352 36.2812 13.0847 35.9308 13.0847 35.5V33.9375C13.0847 33.2976 13.4972 32.7704 14.08 32.5942C14.0594 32.7475 14.0626 32.8344 14.0626 33C14.0626 33.2589 14.2725 33.4687 14.5314 33.4687H15.2249V33.4688ZM29.747 16.2799C30.6499 15.5677 31.439 14.7139 32.0854 13.7632C32.7491 14.9734 33.1296 16.3147 33.202 17.7006C31.9204 17.6073 30.6824 17.1459 29.63 16.3703C29.6692 16.3403 29.7083 16.3105 29.747 16.2799ZM14.7957 18.6554C14.7957 18.6554 23.11 18.6554 23.113 18.6553C25.1627 18.6166 27.1167 18.0253 28.8259 16.9349C30.0905 17.9454 31.6194 18.5398 33.2051 18.6402C32.9684 23.5126 28.9302 27.4039 24 27.4039C19.0754 27.4039 15.0405 23.5209 14.7957 18.6554ZM27.3362 28.6529C25.8603 29.1962 24.8063 30.0934 24.0003 30.8116C23.2497 30.1434 22.164 29.2385 20.551 28.7741C20.8186 28.4855 21.1211 28.2301 21.4489 28.0166C22.2644 28.2284 23.1192 28.3414 24 28.3414C24.8814 28.3414 25.7368 28.2283 26.5527 28.0162C26.8368 28.2005 27.0987 28.4132 27.3362 28.6529ZM31.5625 30.7143H29.664C27.8968 30.7143 26.0166 31.5204 24.3699 32.9843L24 33.3131L23.6303 32.9844C22.1701 31.6863 20.2899 30.9714 18.3361 30.9714H16.4375V30.8152C16.4375 30.0004 17.1029 29.4089 18.0197 29.4089C20.4379 29.4089 21.7137 30.0206 23.5354 31.6536C23.5882 31.7009 23.6392 31.7466 23.6886 31.7905C23.8662 31.9483 24.1339 31.9483 24.3115 31.7905C24.367 31.7411 24.4238 31.6903 24.4818 31.6385C25.4003 30.8171 26.5435 29.795 28.2731 29.3387C29.0287 29.1393 29.4547 29.1504 30.1563 29.1517C30.9317 29.1517 31.5625 29.7826 31.5625 30.558V30.7143ZM34.9154 35.5001C34.9154 35.9309 34.565 36.2813 34.1341 36.2813H33.0865C32.6815 36.2813 32.3234 36.0232 32.1954 35.639L31.8841 34.7052C31.681 34.0958 32.1329 33.4689 32.7752 33.4689H33.4688C33.7277 33.4689 33.9375 33.2591 33.9375 33.0001V32.6001C34.511 32.7814 34.9154 33.3042 34.9154 33.9376V35.5001Z" fill="#1A202C"/>
</g>
<defs>
<clipPath id="clip0_2851_4006">
<rect width="32" height="32" fill="white" transform="translate(8 8.03394)"/>
</clipPath>
</defs>
</svg>
