<svg width="48" height="50" viewBox="0 0 48 50" fill="none" xmlns="http://www.w3.org/2000/svg">
<rect x="0.5" y="1.34741" width="47" height="47.8136" rx="11.5" fill="#F8FAFF"/>
<rect x="0.5" y="1.34741" width="47" height="47.8136" rx="11.5" stroke="#C4D8FE"/>
<path d="M24 15.8474H29V16.8474H24V15.8474Z" fill="#1A202C"/>
<path d="M24 17.8474H29V18.8474H24V17.8474Z" fill="#1A202C"/>
<path d="M24 19.8474H29V20.8474H24V19.8474Z" fill="#1A202C"/>
<path d="M24 21.8474H29V22.8474H24V21.8474Z" fill="#1A202C"/>
<path d="M18.436 16.7564C18.8022 16.8777 19.1978 16.8777 19.564 16.7564C19.6527 17.0694 19.8407 17.345 20.0997 17.5418C20.3587 17.7386 20.6747 17.8459 21 17.8474H21.5C21.6326 17.8474 21.7598 17.9001 21.8536 17.9939C21.9473 18.0876 22 18.2148 22 18.3474V19.8474H23V18.3474C23 17.9496 22.842 17.5681 22.5607 17.2868C22.2794 17.0054 21.8978 16.8474 21.5 16.8474H21C20.8674 16.8474 20.7402 16.7947 20.6464 16.701C20.5527 16.6072 20.5 16.48 20.5 16.3474V16.1564C20.8204 15.7955 20.9982 15.3301 21 14.8474V13.8474C21 13.317 20.7893 12.8083 20.4142 12.4332C20.0391 12.0581 19.5304 11.8474 19 11.8474C18.4696 11.8474 17.9609 12.0581 17.5858 12.4332C17.2107 12.8083 17 13.317 17 13.8474V14.8474C17.0018 15.3301 17.1796 15.7955 17.5 16.1564V16.3474C17.5 16.48 17.4473 16.6072 17.3536 16.701C17.2598 16.7947 17.1326 16.8474 17 16.8474H16.5C16.1022 16.8474 15.7206 17.0054 15.4393 17.2868C15.158 17.5681 15 17.9496 15 18.3474V19.8474H16V18.3474C16 18.2148 16.0527 18.0876 16.1464 17.9939C16.2402 17.9001 16.3674 17.8474 16.5 17.8474H17C17.3253 17.8459 17.6413 17.7386 17.9003 17.5418C18.1593 17.345 18.3473 17.0694 18.436 16.7564ZM18 13.8474C18 13.5822 18.1054 13.3278 18.2929 13.1403C18.4804 12.9528 18.7348 12.8474 19 12.8474C19.2652 12.8474 19.5196 12.9528 19.7071 13.1403C19.8946 13.3278 20 13.5822 20 13.8474V14.8474C20 15.1126 19.8946 15.367 19.7071 15.5545C19.5196 15.7421 19.2652 15.8474 19 15.8474C18.7348 15.8474 18.4804 15.7421 18.2929 15.5545C18.1054 15.367 18 15.1126 18 14.8474V13.8474Z" fill="#1A202C"/>
<path d="M24.5 14.8474H28.5C28.6326 14.8474 28.7598 14.7947 28.8536 14.701C28.9473 14.6072 29 14.48 29 14.3474V12.3474C29 12.2148 28.9473 12.0876 28.8536 11.9939C28.7598 11.9001 28.6326 11.8474 28.5 11.8474H24.5C24.3674 11.8474 24.2402 11.9001 24.1464 11.9939C24.0527 12.0876 24 12.2148 24 12.3474V14.3474C24 14.48 24.0527 14.6072 24.1464 14.701C24.2402 14.7947 24.3674 14.8474 24.5 14.8474ZM25 12.8474H28V13.8474H25V12.8474Z" fill="#1A202C"/>
<path d="M39 22.8474C38.9992 22.052 38.6829 21.2894 38.1204 20.727C37.558 20.1645 36.7954 19.8482 36 19.8474H33V12.3474C33 12.2148 32.9473 12.0876 32.8536 11.9939C32.7598 11.9001 32.6326 11.8474 32.5 11.8474H31V10.3474C31 10.2148 30.9473 10.0876 30.8536 9.99386C30.7598 9.90009 30.6326 9.84741 30.5 9.84741H13.5C13.3674 9.84741 13.2402 9.90009 13.1464 9.99386C13.0527 10.0876 13 10.2148 13 10.3474V21.3474H11.5C10.8372 21.3482 10.2018 21.6119 9.73311 22.0805C9.26444 22.5492 9.00079 23.1846 9 23.8474V37.3474C9.00079 38.0102 9.26444 38.6456 9.73311 39.1143C10.2018 39.583 10.8372 39.8466 11.5 39.8474H32.5C33.1431 39.8452 33.7606 39.5952 34.2241 39.1494C34.6877 38.7037 34.9616 38.0964 34.989 37.4539L38.982 22.9804C38.9939 22.9371 39 22.8924 39 22.8474ZM32 12.8474V23.8474H31V12.8474H32ZM14 10.8474H30V23.8474H20.207L17.8535 21.4939C17.7598 21.4001 17.6326 21.3474 17.5 21.3474H14V10.8474ZM34 37.3474C34 37.7452 33.842 38.1268 33.5607 38.4081C33.2794 38.6894 32.8978 38.8474 32.5 38.8474H11.5C11.1022 38.8474 10.7206 38.6894 10.4393 38.4081C10.158 38.1268 10 37.7452 10 37.3474V23.8474C10 23.4496 10.158 23.0681 10.4393 22.7868C10.7206 22.5054 11.1022 22.3474 11.5 22.3474H17.293L19.6465 24.7009C19.7402 24.7947 19.8674 24.8474 20 24.8474H32.5C32.8978 24.8474 33.2794 25.0054 33.5607 25.2868C33.842 25.5681 34 25.9496 34 26.3474V37.3474ZM35 33.6549V26.3474C34.9993 25.7713 34.8 25.2131 34.4356 24.7668C34.0713 24.3205 33.5643 24.0135 33 23.8974V20.8474H36C36.5195 20.8471 37.0188 21.0491 37.3921 21.4104C37.7653 21.7717 37.9834 22.2641 38 22.7834L35 33.6549Z" fill="#1A202C"/>
<path d="M27 29.3474H24.5V26.8474C24.5 26.7148 24.4473 26.5876 24.3536 26.4939C24.2598 26.4001 24.1326 26.3474 24 26.3474H20C19.8674 26.3474 19.7402 26.4001 19.6464 26.4939C19.5527 26.5876 19.5 26.7148 19.5 26.8474V29.3474H17C16.8674 29.3474 16.7402 29.4001 16.6464 29.4939C16.5527 29.5876 16.5 29.7148 16.5 29.8474V33.8474C16.5 33.98 16.5527 34.1072 16.6464 34.201C16.7402 34.2947 16.8674 34.3474 17 34.3474H19.5V36.8474C19.5 36.98 19.5527 37.1072 19.6464 37.201C19.7402 37.2947 19.8674 37.3474 20 37.3474H24C24.1326 37.3474 24.2598 37.2947 24.3536 37.201C24.4473 37.1072 24.5 36.98 24.5 36.8474V34.3474H27C27.1326 34.3474 27.2598 34.2947 27.3536 34.201C27.4473 34.1072 27.5 33.98 27.5 33.8474V29.8474C27.5 29.7148 27.4473 29.5876 27.3536 29.4939C27.2598 29.4001 27.1326 29.3474 27 29.3474ZM26.5 33.3474H24C23.8674 33.3474 23.7402 33.4001 23.6464 33.4939C23.5527 33.5876 23.5 33.7148 23.5 33.8474V36.3474H20.5V33.8474C20.5 33.7148 20.4473 33.5876 20.3536 33.4939C20.2598 33.4001 20.1326 33.3474 20 33.3474H17.5V30.3474H20C20.1326 30.3474 20.2598 30.2947 20.3536 30.201C20.4473 30.1072 20.5 29.98 20.5 29.8474V27.3474H23.5V29.8474C23.5 29.98 23.5527 30.1072 23.6464 30.201C23.7402 30.2947 23.8674 30.3474 24 30.3474H26.5V33.3474Z" fill="#1A202C"/>
</svg>
