<svg width="57" height="57" viewBox="0 0 57 57" fill="none" xmlns="http://www.w3.org/2000/svg">
<path d="M1 12.9492C1 6.59788 6.14873 1.44916 12.5 1.44916H44.5C50.8513 1.44916 56 6.59788 56 12.9492V44.9492C56 51.3004 50.8513 56.4492 44.5 56.4492H12.5C6.14873 56.4492 1 51.3004 1 44.9492V12.9492Z" fill="#222A39"/>
<path d="M1 12.9492C1 6.59788 6.14873 1.44916 12.5 1.44916H44.5C50.8513 1.44916 56 6.59788 56 12.9492V44.9492C56 51.3004 50.8513 56.4492 44.5 56.4492H12.5C6.14873 56.4492 1 51.3004 1 44.9492V12.9492Z" stroke="#2E384B"/>
<path d="M46.7578 25.4273C46.3478 25.4273 46.0156 25.7682 46.0156 26.1879V28.8985C46.0156 30.4539 44.7806 31.7196 43.2628 31.7196H39.0323C38.8354 31.7196 38.6469 31.7995 38.5075 31.9421L33.3787 37.1983V32.4802C33.3787 32.06 33.0464 31.7196 32.6365 31.7196H22.0103C20.4925 31.7196 19.2574 30.4542 19.2574 28.8985V17.3928C19.2574 15.8374 20.4925 14.572 22.0103 14.572H43.2628C44.7806 14.572 46.0156 15.8374 46.0156 17.3928V20.1032C46.0156 20.5234 46.3478 20.8638 46.7578 20.8638C47.1674 20.8638 47.5 20.5234 47.5 20.1032V17.3928C47.5 14.9986 45.5993 13.0508 43.2628 13.0508H22.0103C19.6738 13.0508 17.7731 14.9986 17.7731 17.3928V27.1644H12.3711C10.7882 27.1644 9.5 28.484 9.5 30.1067V37.1156C9.5 38.7383 10.7882 40.0579 12.3711 40.0579H14.641L18.3195 43.8278C18.4617 43.9735 18.6516 44.0508 18.8446 44.0508C18.9402 44.0508 19.0369 44.0318 19.1285 43.9928C19.4059 43.8751 19.5868 43.598 19.5868 43.2902V40.0579H25.3179C26.901 40.0579 28.189 38.7383 28.189 37.1156V33.2408H31.8943V39.0344C31.8943 39.3422 32.0753 39.6194 32.3526 39.737C32.4443 39.776 32.5407 39.795 32.6365 39.795C32.8297 39.795 33.0195 39.7178 33.1614 39.5721L39.3396 33.2408H43.2628C45.5993 33.2408 47.5 31.293 47.5 28.8985V26.1879C47.5 25.7682 47.1674 25.4273 46.7578 25.4273ZM26.7048 37.1156C26.7048 37.8995 26.0828 38.5367 25.3179 38.5367H18.8446C18.4345 38.5367 18.1024 38.8775 18.1024 39.2973V41.4541L15.4732 38.7596C15.3341 38.617 15.1453 38.5367 14.9484 38.5367H12.3711C11.6064 38.5367 10.9844 37.8995 10.9844 37.1156V30.1067C10.9844 29.323 11.6064 28.6855 12.3711 28.6855H17.7731V28.8985C17.7731 31.293 19.6738 33.2408 22.0103 33.2408H26.7048V37.1156Z" fill="white"/>
<path d="M41.5 23.0508C41.5 22.4986 41.1459 22.0508 40.7093 22.0508H25.2907C24.8541 22.0508 24.5 22.4986 24.5 23.0508C24.5 23.6033 24.8541 24.0508 25.2907 24.0508H40.7093C41.1459 24.0508 41.5 23.6033 41.5 23.0508Z" fill="white"/>
<path d="M25.2547 27.0508C24.838 27.0508 24.5 27.2747 24.5 27.5508C24.5 27.827 24.838 28.0508 25.2547 28.0508H33.7453C34.162 28.0508 34.5 27.827 34.5 27.5508C34.5 27.2747 34.162 27.0508 33.7453 27.0508H25.2547Z" fill="white"/>
<path d="M47 22.0508C46.7247 22.0508 46.5 22.5002 46.5 23.0508C46.5 23.6017 46.7247 24.0508 47 24.0508C47.2753 24.0508 47.5 23.6017 47.5 23.0508C47.5 22.5002 47.2753 22.0508 47 22.0508Z" fill="white"/>
</svg>
