<svg width="57" height="58" viewBox="0 0 57 58" fill="none" xmlns="http://www.w3.org/2000/svg">
<path d="M1 12.8983C1 6.54705 6.14873 1.39832 12.5 1.39832H44.5C50.8513 1.39832 56 6.54704 56 12.8983V45.8475C56 52.1987 50.8513 57.3475 44.5 57.3475H12.5C6.14873 57.3475 1 52.1987 1 45.8475V12.8983Z" fill="#222A39"/>
<path d="M1 12.8983C1 6.54705 6.14873 1.39832 12.5 1.39832H44.5C50.8513 1.39832 56 6.54704 56 12.8983V45.8475C56 52.1987 50.8513 57.3475 44.5 57.3475H12.5C6.14873 57.3475 1 52.1987 1 45.8475V12.8983Z" stroke="#2E384B"/>
<g clip-path="url(#clip0_2943_3430)">
<path d="M21.0197 21.3583C21.0197 19.7873 19.7417 18.5093 18.1708 18.5093C16.5998 18.5093 15.3218 19.7873 15.3218 21.3583C15.3218 22.9292 16.5998 24.2072 18.1708 24.2072C19.7417 24.2072 21.0197 22.9292 21.0197 21.3583ZM16.2992 21.3583C16.2992 20.3263 17.1388 19.4867 18.1708 19.4867C19.2027 19.4867 20.0423 20.3263 20.0423 21.3583C20.0423 22.3902 19.2027 23.2298 18.1708 23.2298C17.1388 23.2299 16.2992 22.3902 16.2992 21.3583Z" fill="white"/>
<path d="M31.0823 29.4595V30.2414C31.0823 30.5113 31.3011 30.7301 31.571 30.7301C31.8409 30.7301 32.0597 30.5113 32.0597 30.2414V29.4595C32.0597 29.1896 31.8409 28.9708 31.571 28.9708C31.3011 28.9708 31.0823 29.1896 31.0823 29.4595Z" fill="white"/>
<path d="M39.2205 29.4595V30.2414C39.2205 30.5113 39.4393 30.7301 39.7092 30.7301C39.979 30.7301 40.1979 30.5113 40.1979 30.2414V29.4595C40.1979 29.1896 39.979 28.9708 39.7092 28.9708C39.4393 28.9708 39.2205 29.1896 39.2205 29.4595Z" fill="white"/>
<path d="M36.3444 29.897C36.1666 30.1011 35.9098 30.2181 35.64 30.2181C35.3702 30.2181 35.1135 30.1011 34.9357 29.897C34.7584 29.6935 34.4497 29.6724 34.2463 29.8497C34.0428 30.027 34.0216 30.3356 34.1989 30.5391C34.5624 30.9563 35.0877 31.1955 35.6401 31.1955C36.1924 31.1955 36.7178 30.9563 37.0813 30.5392C37.2586 30.3357 37.2374 30.027 37.0339 29.8497C36.8305 29.6724 36.5218 29.6935 36.3444 29.897Z" fill="white"/>
<path d="M39.8386 39.1867C42.9165 37.0409 44.708 33.9562 44.6805 30.5983C44.6805 27.9794 43.5464 25.4903 41.5691 23.7693C41.3656 23.5921 41.0569 23.6134 40.8797 23.8171C40.7025 24.0206 40.7239 24.3294 40.9274 24.5065C42.6914 26.0418 43.703 28.2622 43.703 30.5982C43.703 33.5507 42.3359 36.0819 39.6397 38.1217C37.9031 39.4354 36.1402 40.1154 35.6301 40.2963C35.1196 40.1152 33.3569 39.4352 31.6206 38.1217C28.9244 36.0819 27.5572 33.5507 27.5572 30.5982C27.5572 26.1468 31.1787 22.5253 35.6301 22.5253C36.8572 22.5253 38.0354 22.7935 39.132 23.3222C39.3749 23.4393 39.6672 23.3374 39.7845 23.0943C39.9017 22.8512 39.7996 22.5591 39.5565 22.4419C38.3264 21.8487 37.0054 21.548 35.6301 21.548C31.0163 21.548 27.1981 25.0185 26.6482 29.4861C25.7942 28.6884 24.6573 28.2237 23.4645 28.2237H21.7538C23.8922 26.5709 25.0222 24.4295 25.0222 22.0222C25.0222 18.2443 21.9487 15.1707 18.1706 15.1707C17.0252 15.1707 15.8914 15.4592 14.8917 16.005C14.6548 16.1344 14.5676 16.4312 14.697 16.6682C14.8263 16.905 15.1232 16.9923 15.3601 16.8628C16.2165 16.3952 17.1884 16.148 18.1706 16.148C21.4097 16.148 24.0448 18.7832 24.0448 22.0222C24.0448 24.1728 23.0475 26.0187 21.0806 27.509C19.8452 28.445 18.5899 28.9445 18.1706 29.0964C17.7509 28.9444 16.4958 28.4448 15.2607 27.509C13.2938 26.0188 12.2965 24.1728 12.2965 22.0223C12.2965 20.6139 12.8026 19.2517 13.7215 18.1868C13.8979 17.9825 13.8751 17.6739 13.6708 17.4976C13.4664 17.3212 13.1579 17.344 12.9816 17.5483C11.9095 18.7906 11.3191 20.3795 11.3191 22.0223C11.314 24.4911 12.5259 26.7055 14.7631 28.3571C14.0656 28.7405 13.6802 29.2468 13.6802 29.8087C13.8491 31.5529 16.4717 31.9564 18.1707 31.9789C18.6909 31.9789 19.198 31.9387 19.6737 31.8625H23.4646C24.0291 31.8625 24.4885 32.3218 24.4885 32.8864C24.4885 33.451 24.0292 33.9103 23.4646 33.9103H17.5885C15.0623 33.9103 13.0071 35.9655 13.0071 38.4917C13.0071 41.0179 15.0623 43.0731 17.5885 43.0731H30.4528C31.5632 43.8265 33.43 44.302 35.6302 44.302C39.2045 44.302 41.8998 43.0476 41.8998 41.3842C41.8998 40.4982 41.1611 39.7231 39.8386 39.1867ZM31.0554 38.9196C31.1777 39.0118 31.3 39.1004 31.4218 39.1867C31.2304 39.2643 31.0515 39.3471 30.885 39.4343H17.5885C17.0687 39.4343 16.6458 39.0114 16.6458 38.4917C16.6458 37.9719 17.0687 37.549 17.5885 37.549H23.4646C25.2681 37.549 26.8593 36.5218 27.6321 34.9773C28.3846 36.4438 29.5329 37.7728 31.0554 38.9196ZM14.6576 29.8086C14.6576 29.5946 14.9926 29.2613 15.72 28.9967C16.9518 29.7379 17.9707 30.0629 18.0245 30.0797C18.1197 30.1095 18.2217 30.1095 18.3169 30.0797C18.3706 30.0628 19.3896 29.7379 20.6214 28.9967C21.3488 29.2613 21.6838 29.5946 21.6838 29.8086C21.6838 30.2835 20.2826 31.0014 18.1707 31.0014C16.0587 31.0015 14.6576 30.2835 14.6576 29.8086ZM13.9845 38.4917C13.9845 36.5044 15.6012 34.8876 17.5884 34.8876H23.4645C24.568 34.8876 25.4658 33.9898 25.4658 32.8863C25.4658 31.7828 24.5681 30.885 23.4645 30.885H22.1196C22.4729 30.5686 22.6611 30.2024 22.6611 29.8086C22.6611 29.5969 22.6062 29.3933 22.5009 29.201H23.4645C24.7278 29.201 25.9125 29.8609 26.5857 30.9313C26.6168 31.8694 26.7799 32.7755 27.0697 33.6425C26.714 35.3463 25.2158 36.5716 23.4645 36.5716H17.5884C16.5297 36.5716 15.6684 37.4329 15.6684 38.4917C15.6684 39.5504 16.5297 40.4117 17.5884 40.4117H29.6845C29.4718 40.7143 29.3606 41.0409 29.3606 41.3842C29.3606 41.6314 29.4206 41.8694 29.5336 42.0957H17.5885C15.6012 42.0957 13.9845 40.479 13.9845 38.4917ZM35.6302 43.3246C32.6013 43.3246 30.338 42.3002 30.338 41.3842C30.338 40.8387 31.1819 40.2382 32.4583 39.8616C34.0799 40.8319 35.4131 41.2566 35.484 41.2789C35.5792 41.3087 35.6812 41.3087 35.7764 41.2789C35.8473 41.2566 37.1805 40.8318 38.802 39.8616C40.0785 40.2382 40.9223 40.8387 40.9223 41.3842C40.9224 42.3002 38.6592 43.3246 35.6302 43.3246Z" fill="white"/>
</g>
<defs>
<clipPath id="clip0_2943_3430">
<rect width="33.3617" height="33.3617" fill="white" transform="translate(11.3191 13.0555)"/>
</clipPath>
</defs>
</svg>
