<svg width="56" height="57" viewBox="0 0 56 57" fill="none" xmlns="http://www.w3.org/2000/svg">
<path d="M0.5 12C0.5 5.64874 5.64873 0.5 12 0.5H44C50.3513 0.5 55.5 5.64873 55.5 12V44.9491C55.5 51.3004 50.3513 56.4492 44 56.4492H12C5.64873 56.4492 0.5 51.3004 0.5 44.9492V12Z" fill="#222A39"/>
<path d="M0.5 12C0.5 5.64874 5.64873 0.5 12 0.5H44C50.3513 0.5 55.5 5.64873 55.5 12V44.9491C55.5 51.3004 50.3513 56.4492 44 56.4492H12C5.64873 56.4492 0.5 51.3004 0.5 44.9492V12Z" stroke="#2E384B"/>
<path d="M11.328 42.394C11.2134 42.5712 11.2186 42.8006 11.3437 42.9726C11.4427 43.1133 11.6043 43.1967 11.7711 43.1967C11.8076 43.1967 11.8441 43.1967 11.8858 43.1863L16.6763 42.1229C18.0577 42.8266 19.6059 43.1967 21.1593 43.1967C26.5649 43.1967 30.9697 38.8389 31.0531 33.4489C33.3989 34.0848 35.9688 33.845 38.1477 32.7399L42.9382 33.7981C42.9747 33.8085 43.0112 33.8085 43.0529 33.8085C43.2197 33.8085 43.3813 33.7251 43.4804 33.5844C43.6003 33.4124 43.6055 33.183 43.496 33.0058L41.5412 29.9146C42.8548 28.1996 43.5742 26.078 43.5742 23.8991C43.5742 18.4361 39.1329 13.9948 33.6699 13.9948C28.207 13.9948 23.8595 18.3527 23.7761 23.7375C22.9421 23.5081 22.0663 23.3778 21.1593 23.3778C15.6859 23.383 11.2446 27.8243 11.2446 33.2873C11.2446 35.461 11.964 37.5826 13.2828 39.3028L11.328 42.394ZM33.6595 15.0426C38.5439 15.0426 42.5212 19.0199 42.5212 23.9043C42.5212 25.9633 41.8019 27.9702 40.4882 29.5497C40.3423 29.7217 40.3267 29.9719 40.4465 30.1596L41.9322 32.5053L38.179 31.6765C38.0591 31.6504 37.9288 31.6661 37.8193 31.7234C35.7394 32.8285 33.2321 33.0423 31.001 32.3437C30.6465 28.5853 28.1757 25.4316 24.7978 24.0867C24.7978 24.0242 24.7926 23.9616 24.7926 23.8991C24.7926 19.0147 28.7699 15.0374 33.6543 15.0374L33.6595 15.0426ZM12.2872 33.2873C12.2872 28.4029 16.2645 24.4256 21.1489 24.4256C26.0332 24.4256 30.0106 28.4029 30.0106 33.2873C30.0106 38.1716 26.0332 42.149 21.1489 42.149C19.6997 42.149 18.261 41.7893 16.9839 41.1064C16.9057 41.0647 16.8223 41.0439 16.7389 41.0439C16.7024 41.0439 16.6607 41.0439 16.6242 41.0543L12.8762 41.8831L14.3619 39.5374C14.4818 39.3445 14.4661 39.0995 14.3254 38.9275C13.0118 37.3428 12.2924 35.3359 12.2924 33.2768L12.2872 33.2873Z" fill="white"/>
<path d="M21.1489 37.9787C21.5807 37.9787 21.9308 37.6287 21.9308 37.1968C21.9308 36.765 21.5807 36.4149 21.1489 36.4149C20.717 36.4149 20.3669 36.765 20.3669 37.1968C20.3669 37.6287 20.717 37.9787 21.1489 37.9787Z" fill="white"/>
<path d="M21.1489 29.117C22.009 29.117 22.7127 29.8207 22.7127 30.6808C22.7127 31.541 22.009 32.2447 21.1489 32.2447C20.8622 32.2447 20.6276 32.4793 20.6276 32.766V35.3723H21.6701V33.2351C22.8587 32.9953 23.7552 31.9423 23.7552 30.6808C23.7552 29.2421 22.5876 28.0745 21.1489 28.0745C19.7101 28.0745 18.5425 29.2421 18.5425 30.6808H19.585C19.585 29.8207 20.2888 29.117 21.1489 29.117Z" fill="white"/>
<path d="M29.4893 20.2554H37.8297V21.2989H29.4893V20.2554Z" fill="white"/>
<path d="M29.4893 23.383H37.8297V24.4265H29.4893V23.383Z" fill="white"/>
<path d="M31.5745 26.5107H37.8298V27.5542H31.5745V26.5107Z" fill="white"/>
</svg>
