<svg width="56" height="57" viewBox="0 0 56 57" fill="none" xmlns="http://www.w3.org/2000/svg">
<path d="M0.5 12C0.5 5.64874 5.64873 0.5 12 0.5H44C50.3513 0.5 55.5 5.64873 55.5 12V44.9491C55.5 51.3004 50.3513 56.4492 44 56.4492H12C5.64873 56.4492 0.5 51.3004 0.5 44.9492V12Z" fill="#222A39"/>
<path d="M0.5 12C0.5 5.64874 5.64873 0.5 12 0.5H44C50.3513 0.5 55.5 5.64873 55.5 12V44.9491C55.5 51.3004 50.3513 56.4492 44 56.4492H12C5.64873 56.4492 0.5 51.3004 0.5 44.9492V12Z" stroke="#2E384B"/>
<path d="M30.9857 13.6321H24.9021C23.8228 13.6321 22.9397 14.5152 22.9397 15.5945V16.6739H18.9166C17.3957 16.6739 16.2183 17.9004 16.2183 19.3723V21.6291C16.2183 22.8065 16.9542 23.7878 17.9845 24.1803V31.5395C17.9845 31.8338 18.1807 32.0301 18.4751 32.0301C18.7695 32.0301 18.9657 31.8338 18.9657 31.5395V24.4746C20.8791 24.9162 23.2831 25.2596 25.5399 25.4068V27.1239C25.5399 27.6146 25.9324 28.0561 26.4721 28.0561H29.4158C29.9064 28.0561 30.3479 27.6636 30.3479 27.1239V25.3577C32.3104 25.2106 34.6653 24.9162 36.9221 24.4256V32.3244C36.9221 32.6188 37.1184 32.8151 37.4128 32.8151C37.7071 32.8151 37.9034 32.6188 37.9034 32.3244V24.1312C38.9337 23.7387 39.6696 22.7575 39.6696 21.58V19.3723C39.6696 17.8514 38.443 16.6739 36.9712 16.6739H32.9482V15.5945C32.9482 14.5152 32.0651 13.6321 30.9857 13.6321ZM23.9209 15.5945C23.9209 15.0549 24.3624 14.6133 24.9021 14.6133H30.9857C31.5254 14.6133 31.9669 15.0549 31.9669 15.5945V16.6739H23.9209V15.5945ZM29.3667 27.0258H26.5702C26.5702 26.9768 26.5702 23.5915 26.5702 23.6406H29.3667C29.3667 23.6897 29.3667 27.1239 29.3667 27.0258ZM36.9712 17.6551C37.9034 17.6551 38.6883 18.4401 38.6883 19.3723V21.58C38.6883 22.3159 38.2468 23.0519 37.3146 23.2972C34.9597 23.7878 33.0463 24.1312 30.3479 24.3274V23.5425C30.3479 23.0519 29.9554 22.6103 29.4158 22.6103H26.4721C25.9815 22.6103 25.5399 23.0028 25.5399 23.5425V24.3765C22.7925 24.2293 19.996 23.7387 18.4751 23.3462C17.7392 23.15 17.1995 22.4631 17.1995 21.6781V19.4213C17.1995 18.4892 17.9845 17.7042 18.9166 17.7042C32.5557 17.6551 28.2383 17.6551 36.9712 17.6551Z" fill="white"/>
<path d="M42.0734 33.6C41.779 33.1094 41.1903 32.7169 40.5525 32.6188C40.111 32.5697 39.6203 32.6188 39.1788 32.9132C38.7863 33.1585 37.9032 34.0416 35.9898 34.9247C35.7445 35.0228 35.6464 35.3172 35.7445 35.5625C35.8426 35.8078 36.137 35.9059 36.3823 35.8078C38.2957 34.9738 39.8166 33.6491 39.7185 33.6982C39.9147 33.551 40.2091 33.5019 40.4544 33.551C40.5525 33.6 40.4544 33.551 41.0922 33.8944C41.3375 34.1397 41.3866 34.6303 40.9941 35.0228C38.4429 37.4268 36.0879 39.978 34.0274 41.3027C32.6046 42.2348 29.9553 42.5292 29.0231 42.4801C27.5513 42.4311 26.8644 41.9895 26.4229 41.7933C23.7735 40.4196 20.2902 39.8799 17.5918 41.4008C17.3465 41.548 17.2484 41.8423 17.3956 42.0876C17.5428 42.333 17.8371 42.4311 18.0824 42.2839C20.4374 40.9592 23.5773 41.4989 26.0304 42.7254C27.2569 43.3632 28.3362 43.5104 29.0722 43.5104C30.0534 43.5104 32.7027 43.3142 34.1745 42.4311C36.137 41.2536 39.7675 37.7212 41.8281 35.6115C42.2697 35.17 42.4659 34.2869 42.0734 33.6Z" fill="white"/>
<path d="M13.0292 43.5595H16.0219C16.3163 43.5595 16.5125 43.3632 16.5125 43.0689C16.5125 42.4311 16.5125 45.3257 16.5125 36.9852C16.5616 36.9852 16.6107 36.9362 16.6597 36.9362C18.0334 35.955 18.1806 35.5134 18.2787 35.4153C18.475 35.1209 18.7203 34.6794 19.1128 34.4341C19.5543 34.1397 19.9468 33.9434 20.6337 33.8453C23.5283 33.3547 26.0795 34.8266 28.1891 35.6115C33.4387 37.4268 33.9784 36.7399 34.7143 37.5249C34.9596 37.8684 35.0577 38.408 34.7143 38.6533C32.9481 39.2421 29.2194 38.8496 27.2079 38.3099C26.9626 38.2608 26.6682 38.408 26.6192 38.6533C26.5701 38.8986 26.7173 39.193 26.9626 39.2421C30.6422 40.2233 34.3709 39.8799 35.0577 39.5364C35.8918 39.193 36.3333 37.9174 35.4993 36.8871C34.469 35.5625 33.684 36.6418 28.7288 34.7284C25.7851 33.6 23.5774 32.3244 20.4374 32.8641C19.9468 32.9622 19.5053 33.1094 18.9656 33.4038C18.475 33.6491 17.8863 34.1888 17.5428 34.8266C17.2975 35.17 17.1013 35.4153 16.5616 35.8078V35.3662C16.5616 35.0719 16.3654 34.8756 16.071 34.8756H13.0292C12.7348 34.8756 12.5386 35.0719 12.5386 35.3662V39.4383C12.5386 39.7327 12.7348 39.9289 13.0292 39.9289C13.3236 39.9289 13.5198 39.7327 13.5198 39.4383V35.8568H15.5313C15.5313 36.004 15.5313 42.9707 15.5313 42.5782H13.5198V41.8423C13.5198 41.548 13.3236 41.3517 13.0292 41.3517C12.7348 41.3517 12.5386 41.548 12.5386 41.8423V43.0689C12.5386 43.3632 12.7348 43.5595 13.0292 43.5595Z" fill="white"/>
</svg>
