<svg width="56" height="57" viewBox="0 0 56 57" fill="none" xmlns="http://www.w3.org/2000/svg">
<path d="M0.5 12C0.5 5.64874 5.64873 0.5 12 0.5H44C50.3513 0.5 55.5 5.64873 55.5 12V44.9491C55.5 51.3004 50.3513 56.4492 44 56.4492H12C5.64873 56.4492 0.5 51.3004 0.5 44.9492V12Z" fill="#222A39"/>
<path d="M0.5 12C0.5 5.64874 5.64873 0.5 12 0.5H44C50.3513 0.5 55.5 5.64873 55.5 12V44.9491C55.5 51.3004 50.3513 56.4492 44 56.4492H12C5.64873 56.4492 0.5 51.3004 0.5 44.9492V12Z" stroke="#2E384B"/>
<g clip-path="url(#clip0_2849_3628)">
<path d="M46.3162 12.8124C46.2936 12.7911 41.8147 8.51975 41.8147 8.51975C41.6435 8.35547 41.4664 8.18567 41.1357 8.18567H23.1044C22.5777 8.18567 22.1492 8.61411 22.1492 9.14078V12.0737L15.7941 13.1631C15.2847 13.2525 14.9421 13.74 15.0304 14.2489L15.3529 16.1294C13.2873 16.8246 11.1665 17.5411 9.11918 18.2766C8.63541 18.4534 8.38153 18.9914 8.55416 19.478L12.6267 30.7991C12.7086 31.0269 12.9233 31.1688 13.1523 31.1688C13.215 31.1688 13.2789 31.1581 13.3413 31.1356C13.6316 31.0312 13.7823 30.7113 13.6779 30.421L9.66559 19.2673C11.5944 18.5768 13.5919 17.9009 15.5441 17.2438L17.4633 28.4329L19.6717 41.3191C19.7515 41.774 20.1513 42.0976 20.6026 42.0976C20.6537 42.0976 20.7056 42.0934 20.7575 42.0849L26.7389 41.0584L31.4128 40.2572L24.3832 42.7839L18.8399 44.777L14.5348 32.8026C14.4304 32.5123 14.1106 32.3617 13.8202 32.466C13.5299 32.5703 13.3792 32.8903 13.4836 33.1806L17.8498 45.3251C17.9894 45.707 18.3512 45.9444 18.7336 45.9444C18.8393 45.9444 18.9466 45.9263 19.0512 45.888L24.761 43.8351L37.7263 39.1751L40.2032 38.7505H45.6748C46.2014 38.7505 46.6299 38.3211 46.6299 37.7932V13.4418C46.63 13.1075 46.4486 12.937 46.3162 12.8124ZM44.8363 12.9447H42.0414L41.9721 12.945C41.8383 12.9459 41.525 12.9482 41.4455 12.8693C41.4272 12.851 41.4058 12.7901 41.4058 12.677L41.3993 9.66715L44.8363 12.9447ZM45.5129 37.6333H23.2663V26.7478C23.2663 26.4394 23.0162 26.1893 22.7078 26.1893C22.3993 26.1893 22.1492 26.4394 22.1492 26.7478V37.7931C22.1492 38.3209 22.5777 38.7504 23.1044 38.7504H33.591L26.55 39.9573L20.7425 40.9539L18.5643 28.2441L16.1612 14.2335L22.1491 13.2071V24.1562C22.1491 24.4646 22.3992 24.7147 22.7077 24.7147C23.0162 24.7147 23.2662 24.4646 23.2662 24.1562V9.30268H40.2814L40.2887 12.6782C40.2887 13.0874 40.4131 13.4183 40.6585 13.662C41.0356 14.0364 41.5686 14.0625 41.8994 14.0625C41.9279 14.0625 41.9548 14.0622 41.9801 14.0621L45.5129 14.0619V37.6333Z" fill="white"/>
<path d="M25.9587 16.8585C25.9587 17.1669 26.2088 17.417 26.5173 17.417H42.4869C42.7954 17.417 43.0455 17.1669 43.0455 16.8585C43.0455 16.55 42.7954 16.2999 42.4869 16.2999H26.5173C26.2088 16.2999 25.9587 16.55 25.9587 16.8585Z" fill="white"/>
<path d="M42.4869 20.2679H26.5173C26.2088 20.2679 25.9587 20.518 25.9587 20.8265C25.9587 21.135 26.2088 21.385 26.5173 21.385H42.4869C42.7954 21.385 43.0455 21.135 43.0455 20.8265C43.0455 20.518 42.7954 20.2679 42.4869 20.2679Z" fill="white"/>
<path d="M42.4869 24.236H26.5173C26.2088 24.236 25.9587 24.4861 25.9587 24.7946C25.9587 25.103 26.2088 25.3531 26.5173 25.3531H42.4869C42.7954 25.3531 43.0455 25.103 43.0455 24.7946C43.0455 24.4861 42.7954 24.236 42.4869 24.236Z" fill="white"/>
<path d="M42.4869 28.204H26.5173C26.2088 28.204 25.9587 28.4541 25.9587 28.7626C25.9587 29.0711 26.2088 29.3211 26.5173 29.3211H42.4869C42.7954 29.3211 43.0455 29.0711 43.0455 28.7626C43.0455 28.4541 42.7954 28.204 42.4869 28.204Z" fill="white"/>
<path d="M42.4869 32.1722H26.5173C26.2088 32.1722 25.9587 32.4223 25.9587 32.7307C25.9587 33.0392 26.2088 33.2893 26.5173 33.2893H42.4869C42.7954 33.2893 43.0455 33.0392 43.0455 32.7307C43.0455 32.4223 42.7954 32.1722 42.4869 32.1722Z" fill="white"/>
</g>
<defs>
<clipPath id="clip0_2849_3628">
<rect width="38.13" height="38.13" fill="white" transform="translate(8.5 8)"/>
</clipPath>
</defs>
</svg>
