<svg width="48" height="49" viewBox="0 0 48 49" fill="none" xmlns="http://www.w3.org/2000/svg">
<g clip-path="url(#clip0_3868_22561)">
<path d="M44 4.12354H4C1.79196 4.12618 0.0026449 5.91549 0 8.12354V36.9235C0.0026449 39.1316 1.79196 40.9209 4 40.9235H28V44.9235C28.0001 45.2471 28.195 45.5387 28.4939 45.6625C28.7928 45.7863 29.1368 45.7179 29.3656 45.4891L32 42.8547L34.6344 45.4891C34.8632 45.7179 35.2072 45.7863 35.5061 45.6625C35.805 45.5387 35.9999 45.2471 36 44.9235V40.9235H44C46.208 40.9209 47.9974 39.1316 48 36.9235V8.12354C47.9974 5.91549 46.208 4.12618 44 4.12354ZM25.848 19.7755C25.7243 19.7185 25.6355 19.6057 25.6089 19.4722C25.5823 19.3386 25.6212 19.2004 25.7136 19.1003C26.4294 18.3223 26.4294 17.1255 25.7136 16.3475C25.6209 16.2474 25.5819 16.1088 25.6087 15.975C25.6354 15.8412 25.7247 15.7284 25.8488 15.6715C26.8071 15.2256 27.2645 14.1203 26.9016 13.1275C26.8544 12.9997 26.8712 12.857 26.9468 12.7437C27.0225 12.6304 27.1478 12.5601 27.284 12.5547C28.3405 12.5103 29.1868 11.664 29.2312 10.6075C29.2365 10.4712 29.3069 10.3456 29.4204 10.2699C29.5339 10.1942 29.6769 10.1776 29.8048 10.2251C30.7977 10.5859 31.9017 10.1287 32.3488 9.17154C32.4054 9.04763 32.518 8.95845 32.6516 8.93183C32.7852 8.90521 32.9234 8.94439 33.0232 9.03714C33.8015 9.75307 34.9985 9.75307 35.7768 9.03714C35.8768 8.94445 36.0152 8.90541 36.149 8.93218C36.2827 8.95895 36.3954 9.04828 36.452 9.17234C36.8982 10.1299 38.0027 10.5872 38.9952 10.2251C39.1231 10.1776 39.2661 10.1942 39.3796 10.2699C39.4931 10.3456 39.5635 10.4712 39.5688 10.6075C39.6137 11.6655 40.462 12.5124 41.52 12.5555C41.6561 12.5607 41.7815 12.6307 41.8572 12.7439C41.9329 12.8572 41.9497 12.9998 41.9024 13.1275C41.5392 14.1205 41.9971 15.2262 42.956 15.6715C43.0797 15.7286 43.1686 15.8414 43.1951 15.9749C43.2217 16.1085 43.1828 16.2467 43.0904 16.3467C42.3746 17.1247 42.3746 18.3215 43.0904 19.0995C43.1831 19.1997 43.2221 19.3382 43.1953 19.472C43.1686 19.6059 43.0793 19.7187 42.9552 19.7755C41.9969 20.2215 41.5395 21.3268 41.9024 22.3195C41.9496 22.4473 41.9328 22.59 41.8572 22.7034C41.7815 22.8167 41.6562 22.887 41.52 22.8923C40.4605 22.9348 39.6113 23.784 39.5688 24.8435C39.5635 24.9799 39.4931 25.1054 39.3796 25.1811C39.2661 25.2568 39.1231 25.2735 38.9952 25.2259C38.0023 24.8648 36.898 25.3221 36.4512 26.2795C36.3967 26.4046 36.2837 26.4945 36.1496 26.5195C36.0157 26.5475 35.8765 26.5084 35.7768 26.4147C34.9984 25.6992 33.8016 25.6992 33.0232 26.4147C32.9234 26.5083 32.7843 26.5474 32.6504 26.5195C32.5161 26.4945 32.4029 26.4046 32.348 26.2795C31.9021 25.3216 30.7973 24.8643 29.8048 25.2267C29.6769 25.2743 29.5339 25.2576 29.4204 25.1819C29.3069 25.1062 29.2365 24.9807 29.2312 24.8443C29.1887 23.7845 28.3398 22.9349 27.28 22.8915C27.1439 22.8864 27.0185 22.8164 26.9428 22.7031C26.8671 22.5899 26.8503 22.4473 26.8976 22.3195C27.2614 21.3276 26.8054 20.2224 25.848 19.7755ZM34.6352 34.7571L34.4 34.9923V27.4723C34.5071 27.472 34.6103 27.5124 34.6888 27.5851C35.0595 27.9326 35.5487 28.126 36.0568 28.1259C36.1927 28.1257 36.3283 28.1123 36.4616 28.0859C37.0982 27.9617 37.635 27.5364 37.9016 26.9451C37.9953 26.7434 38.2281 26.6474 38.4368 26.7243C38.6802 26.8106 38.938 26.8494 39.196 26.8387V34.9923L37.3616 33.1579C37.0492 32.8456 36.5428 32.8456 36.2304 33.1579L34.6352 34.7571ZM34.4 42.9923L32.5656 41.1579C32.2532 40.8456 31.7468 40.8456 31.4344 41.1579L29.6 42.9923V26.8371C29.8581 26.8479 30.1158 26.809 30.3592 26.7227C30.5675 26.6454 30.8002 26.7412 30.8936 26.9427C31.161 27.5355 31.6998 27.9613 32.3384 28.0843C32.4903 28.1144 32.6452 28.1275 32.8 28.1235V36.9235C32.8001 37.2471 32.995 37.5387 33.2939 37.6625C33.5928 37.7863 33.9368 37.7179 34.1656 37.4891L34.4 37.2547V42.9923ZM46.4 36.9235C46.4 38.249 45.3255 39.3235 44 39.3235H36V35.6547L36.8 34.8547L39.4344 37.4891C39.6632 37.7179 40.0072 37.7863 40.3061 37.6625C40.605 37.5387 40.7999 37.2471 40.8 36.9235V25.9691C41.0233 25.6556 41.1508 25.2841 41.1672 24.8995C41.177 24.6776 41.3549 24.5001 41.5768 24.4907C42.2254 24.4657 42.8227 24.1314 43.1832 23.5917C43.5437 23.052 43.6237 22.3722 43.3984 21.7635C43.322 21.5553 43.418 21.3233 43.6192 21.2299C44.2093 20.9589 44.6336 20.4213 44.7603 19.7844C44.8869 19.1476 44.7006 18.4886 44.2592 18.0123C44.1088 17.8489 44.1088 17.5974 44.2592 17.4339C44.7006 16.9578 44.887 16.2989 44.7603 15.6622C44.6336 15.0254 44.2092 14.488 43.6192 14.2171C43.4174 14.1243 43.3209 13.892 43.3976 13.6835C43.6229 13.0748 43.5429 12.3951 43.1824 11.8553C42.8219 11.3156 42.2246 10.9813 41.576 10.9563C41.3541 10.947 41.1762 10.7694 41.1664 10.5475C41.1421 9.89875 40.8083 9.30094 40.2686 8.94004C39.7289 8.57913 39.0489 8.49892 38.44 8.72434C38.2317 8.80298 37.9981 8.70681 37.9056 8.50433C37.6345 7.91428 37.097 7.48995 36.4601 7.36327C35.8232 7.23659 35.1642 7.42292 34.688 7.86434C34.5248 8.01459 34.2736 8.01459 34.1104 7.86434C33.6343 7.42291 32.9754 7.23657 32.3386 7.36326C31.7019 7.48995 31.1645 7.9143 30.8936 8.50433C30.8007 8.70693 30.5671 8.80332 30.3584 8.72514C29.7495 8.49972 29.0695 8.57993 28.5298 8.94084C27.9901 9.30174 27.6563 9.89955 27.632 10.5483C27.6222 10.7702 27.4443 10.9478 27.2224 10.9571C26.5738 10.9821 25.9765 11.3164 25.616 11.8561C25.2555 12.3959 25.1755 13.0756 25.4008 13.6843C25.4772 13.8926 25.3812 14.1246 25.18 14.2179C24.5899 14.489 24.1656 15.0265 24.0389 15.6634C23.9123 16.3003 24.0986 16.9593 24.54 17.4355C24.6904 17.599 24.6904 17.8505 24.54 18.0139C24.0986 18.49 23.9122 19.1489 24.0389 19.7857C24.1656 20.4225 24.59 20.9599 25.18 21.2307C25.3818 21.3235 25.4783 21.5559 25.4016 21.7643C25.1763 22.373 25.2563 23.0528 25.6168 23.5925C25.9773 24.1322 26.5746 24.4665 27.2232 24.4915C27.4451 24.5009 27.623 24.6784 27.6328 24.9003C27.6493 25.2846 27.7769 25.6559 28 25.9691V39.3235H4C2.67452 39.3235 1.6 38.249 1.6 36.9235V8.12354C1.6 6.79805 2.67452 5.72354 4 5.72354H44C45.3255 5.72354 46.4 6.79805 46.4 8.12354V36.9235Z" fill="#9473F2"/>
<path d="M8.80078 32.9234C7.4753 32.9234 6.40078 31.8489 6.40078 30.5234V14.5234C6.40078 13.198 7.4753 12.1234 8.80078 12.1234H23.2008C23.6426 12.1234 24.0008 11.7653 24.0008 11.3234C24.0008 10.8816 23.6426 10.5234 23.2008 10.5234H8.80078C6.59274 10.5261 4.80343 12.3154 4.80078 14.5234V30.5234C4.80343 32.7315 6.59274 34.5208 8.80078 34.5234H24.0008C24.4426 34.5234 24.8008 34.1653 24.8008 33.7234C24.8008 33.2816 24.4426 32.9234 24.0008 32.9234H8.80078Z" fill="#9473F2"/>
<path d="M9.60078 23.3236H20.8008C21.2426 23.3236 21.6008 22.9655 21.6008 22.5236C21.6008 22.0818 21.2426 21.7236 20.8008 21.7236H9.60078C9.15895 21.7236 8.80078 22.0818 8.80078 22.5236C8.80078 22.9655 9.15895 23.3236 9.60078 23.3236Z" fill="#9473F2"/>
<path d="M9.60078 20.1234H20.8008C21.2426 20.1234 21.6008 19.7653 21.6008 19.3234C21.6008 18.8816 21.2426 18.5234 20.8008 18.5234H9.60078C9.15895 18.5234 8.80078 18.8816 8.80078 19.3234C8.80078 19.7653 9.15895 20.1234 9.60078 20.1234Z" fill="#9473F2"/>
<path d="M9.60078 16.9237H20.8008C21.2426 16.9237 21.6008 16.5656 21.6008 16.1237C21.6008 15.6819 21.2426 15.3237 20.8008 15.3237H9.60078C9.15895 15.3237 8.80078 15.6819 8.80078 16.1237C8.80078 16.5656 9.15895 16.9237 9.60078 16.9237Z" fill="#9473F2"/>
<path d="M8.8657 30.8437C8.99299 31.1354 9.28106 31.3239 9.5993 31.3237C9.70943 31.3242 9.81845 31.3016 9.9193 31.2573C10.6599 30.9821 11.3406 30.5668 11.9241 30.0341C12.1407 29.818 12.3301 29.5762 12.4881 29.3141C12.7936 29.6576 13.1526 29.9493 13.5513 30.1781C14.1073 30.5416 14.7993 30.6301 15.4289 30.4181C15.6702 30.3244 15.8885 30.1798 16.0689 29.9941C16.4309 30.2203 16.8297 30.3814 17.2473 30.4701L17.8521 30.6133C19.0866 30.9749 20.3692 31.1449 21.6553 31.1173C21.9404 31.0967 22.1929 30.9256 22.3176 30.6684C22.4423 30.4112 22.4204 30.107 22.26 29.8704C22.0996 29.6338 21.8252 29.5007 21.5401 29.5213C20.4179 29.536 19.3 29.3795 18.2249 29.0573L17.6065 28.9109C16.8601 28.7389 16.6681 28.4381 16.5889 28.2261C16.4495 27.8539 16.0579 27.6405 15.6696 27.725C15.2812 27.8096 15.0138 28.1664 15.0417 28.5629C15.0506 28.7063 14.9827 28.8437 14.8633 28.9237C14.6764 28.9475 14.4875 28.8988 14.3353 28.7877C13.6883 28.3849 13.2018 27.7694 12.9593 27.0469C12.8216 26.6749 12.4322 26.4599 12.044 26.5417C11.6559 26.6235 11.3863 26.9774 11.4105 27.3733C11.424 27.9456 11.1998 28.4979 10.7913 28.8989C10.3471 29.2874 9.83432 29.5896 9.2793 29.7901C9.08467 29.8749 8.93173 30.0336 8.85415 30.2312C8.77658 30.4288 8.78073 30.6492 8.8657 30.8437Z" fill="#9473F2"/>
<path d="M34.4 24.1237C37.9346 24.1237 40.8 21.2584 40.8 17.7237C40.8 14.1891 37.9346 11.3237 34.4 11.3237C30.8654 11.3237 28 14.1891 28 17.7237C28.004 21.2567 30.867 24.1198 34.4 24.1237ZM34.4 12.9237C37.051 12.9237 39.2 15.0728 39.2 17.7237C39.2 20.3747 37.051 22.5237 34.4 22.5237C31.749 22.5237 29.6 20.3747 29.6 17.7237C29.6026 15.0739 31.7501 12.9264 34.4 12.9237Z" fill="#9473F2"/>
</g>
<defs>
<clipPath id="clip0_3868_22561">
<rect width="48" height="48" fill="white" transform="translate(0 0.92334)"/>
</clipPath>
</defs>
</svg>
