<svg width="48" height="49" viewBox="0 0 48 49" fill="none" xmlns="http://www.w3.org/2000/svg">
<g clip-path="url(#clip0_3868_22555)">
<path d="M41.2805 16.2529H31.7534V14.1231C31.7534 12.9048 30.7622 11.9137 29.544 11.9137H29.1992V6.43396C29.1992 3.42121 26.7482 0.970215 23.7354 0.970215H23.7247C20.712 0.970215 18.261 3.42121 18.261 6.43396V11.9227C17.1332 12.0211 16.2452 12.9701 16.2452 14.1231V16.2529H6.71809C3.45531 16.2529 0.800781 18.9074 0.800781 22.1702V42.9591C0.800781 46.2218 3.45531 48.8764 6.71809 48.8764H23.82C23.8206 48.8764 23.8213 48.8765 23.8219 48.8765C23.8224 48.8765 23.823 48.8764 23.8234 48.8764H41.2804C44.5432 48.8764 47.1978 46.2218 47.1978 42.9591V22.1702C47.1978 18.9074 44.5433 16.2529 41.2805 16.2529ZM19.7569 6.43396C19.7569 4.24612 21.5369 2.46609 23.7248 2.46609H23.7355C25.9233 2.46609 27.7033 4.24603 27.7033 6.43396V11.9137H19.7569V6.43396ZM17.7411 14.1231C17.7411 13.7297 18.0612 13.4095 18.4547 13.4095H19.009H28.4512H29.544C29.9373 13.4095 30.2575 13.7296 30.2575 14.1231V16.2529H17.7411V14.1231ZM4.76856 46.9262L5.14281 43.7603C5.21678 43.1345 5.61597 42.6388 6.23884 42.3999L10.7976 40.6458L13.3509 42.9136C13.4926 43.0394 13.6701 43.1023 13.8476 43.1023C14.0251 43.1023 14.2026 43.0394 14.3443 42.9136L16.8977 40.6458L21.4598 42.4002C22.0802 42.6381 22.4783 43.1338 22.5524 43.7605L22.9812 47.3805H6.71809C6.01872 47.3805 5.35713 47.2165 4.76856 46.9262ZM8.34925 28.4279C8.32131 26.7417 9.04975 25.6622 9.85534 24.9857C9.86172 24.9805 9.86809 24.9754 9.87438 24.97C10.0958 24.7861 10.3227 24.6322 10.5409 24.5045C12.4564 23.3841 15.2377 23.3838 17.1542 24.5038C18.1746 25.1002 19.3836 26.2651 19.3487 28.4279C19.2827 32.4012 19.7522 35.1974 20.9533 37.8279C19.935 38.1637 18.8237 38.2792 17.4893 38.1917V37.1305C18.2751 36.2602 18.7545 35.108 18.7545 33.8458V30.6843C18.7545 30.3815 18.5719 30.1086 18.2921 29.993C17.0281 29.4708 16.2459 28.7031 15.8305 27.5768C15.7256 27.2924 15.4594 27.0995 15.1565 27.0882C14.8514 27.077 14.5739 27.2496 14.4482 27.5254C13.675 29.2211 11.5082 29.8042 9.53791 30.2175C9.19159 30.2902 8.94353 30.5956 8.94353 30.9495V33.8458C8.94353 35.1069 9.42184 36.2581 10.206 37.1283V38.1917C8.87266 38.279 7.76209 38.1634 6.74425 37.8278C7.94566 35.1934 8.41516 32.3977 8.34925 28.4279ZM8.93519 21.3732C8.83422 21.1337 8.85747 20.9005 9.00231 20.6825C9.15119 20.4606 9.35978 20.3481 9.62238 20.3481H18.0753C18.3376 20.3481 18.5448 20.4597 18.6929 20.6826C18.839 20.9005 18.8621 21.134 18.7614 21.3762L17.9793 23.2549C17.9558 23.2407 17.9327 23.2262 17.9088 23.2122C15.5169 21.8143 12.1765 21.8147 9.78559 23.2132C9.76281 23.2265 9.74069 23.2404 9.71809 23.254L8.93519 21.3732ZM17.2584 33.8457C17.2584 34.7792 16.8812 35.626 16.2715 36.2425C16.2381 36.2695 16.2074 36.2996 16.1791 36.332C15.5687 36.9047 14.7486 37.2566 13.8475 37.2566C12.9402 37.2566 12.1152 36.8992 11.5038 36.3186C11.481 36.2938 11.457 36.2699 11.4309 36.2483C10.8184 35.6314 10.4392 34.7821 10.4392 33.8457V31.5518C12.1485 31.1626 13.9081 30.5921 15.0497 29.3115C15.581 30.088 16.3125 30.7018 17.2584 31.1669V33.8457ZM11.7018 38.8737C11.7018 38.8731 11.7018 38.8727 11.7018 38.8721V38.2568C12.3504 38.5739 13.0785 38.7525 13.8476 38.7525C14.6166 38.7525 15.3447 38.5742 15.9933 38.2575V38.8721V38.8737V39.4481L13.8476 41.354L11.7018 39.4481V38.8737ZM45.7019 42.9591C45.7019 45.397 43.7184 47.3805 41.2804 47.3805H24.4875L24.0378 43.5847C23.8985 42.4054 23.1349 41.4405 21.9961 41.0037L18.6388 39.7126C19.9937 39.6781 21.1644 39.4172 22.2866 38.912C22.4736 38.8278 22.6179 38.6704 22.6856 38.4768C22.7533 38.2832 22.7385 38.0703 22.6446 37.8878C21.298 35.2695 20.7764 32.5359 20.8442 28.4524C20.8714 26.7723 20.2977 25.31 19.2032 24.2073L20.1425 21.9507C20.4348 21.2474 20.3593 20.4815 19.9369 19.8518C19.5147 19.2165 18.8361 18.8522 18.0753 18.8522H9.62238C8.86375 18.8522 8.185 19.2157 7.75825 19.8518C7.33534 20.4881 7.26184 21.2543 7.55537 21.951L8.49409 24.2062C7.39928 25.3091 6.82562 26.772 6.85347 28.4527C6.92125 32.5316 6.39953 35.2653 5.05281 37.8883C4.95916 38.0707 4.94453 38.2835 5.01222 38.4771C5.08 38.6706 5.22419 38.8278 5.41113 38.912C6.53294 39.4171 7.70256 39.6783 9.05641 39.7129L5.70231 41.0034C4.56091 41.4411 3.79637 42.406 3.65716 43.5847L3.38791 45.8625C2.70925 45.085 2.29666 44.0696 2.29666 42.959V22.1702C2.29666 19.7322 4.28013 17.7487 6.71809 17.7487H16.9932H31.0053H41.2804C43.7184 17.7487 45.7019 19.7322 45.7019 22.1702V42.9591ZM23.7302 3.90628C22.2867 3.90628 21.1123 5.08059 21.1123 6.52415C21.1123 7.96912 22.2866 9.14465 23.7302 9.14465C25.1736 9.14465 26.3479 7.96912 26.3479 6.52415C26.3479 5.08068 25.1735 3.90628 23.7302 3.90628ZM23.7302 7.64878C23.1115 7.64878 22.6082 7.14431 22.6082 6.52415C22.6082 5.9055 23.1115 5.40225 23.7302 5.40225C24.3487 5.40225 24.8521 5.9055 24.8521 6.52415C24.8521 7.14431 24.3487 7.64878 23.7302 7.64878ZM30.9709 26.0638H32.3209V27.4138C32.3209 27.8269 32.6558 28.1617 33.0689 28.1617H36.6442C37.0573 28.1617 37.3922 27.8269 37.3922 27.4138V26.0638H38.7422C39.1552 26.0638 39.4901 25.7289 39.4901 25.3159V21.7432C39.4901 21.3302 39.1552 20.9953 38.7422 20.9953H37.3922V19.6452C37.3922 19.2322 37.0573 18.8973 36.6442 18.8973H33.0689C32.6558 18.8973 32.3209 19.2322 32.3209 19.6452V20.9952H30.9709C30.5579 20.9952 30.223 21.3301 30.223 21.7432V25.3158C30.223 25.7289 30.5579 26.0638 30.9709 26.0638ZM31.7189 22.4912H33.0689C33.4819 22.4912 33.8168 22.1563 33.8168 21.7432V20.3932H35.8962V21.7432C35.8962 22.1563 36.2311 22.4912 36.6441 22.4912H37.9941V24.5679H36.6441C36.2311 24.5679 35.8962 24.9028 35.8962 25.3159V26.6659H33.8168V25.3159C33.8168 24.9028 33.4819 24.5679 33.0689 24.5679H31.7189V22.4912ZM41.8056 31.8592C41.8056 32.2722 41.4707 32.6071 41.0577 32.6071H29.2071C28.7941 32.6071 28.4592 32.2722 28.4592 31.8592C28.4592 31.4461 28.7941 31.1112 29.2071 31.1112H41.0577C41.4707 31.1112 41.8056 31.4461 41.8056 31.8592ZM41.8056 34.7687C41.8056 35.1817 41.4707 35.5166 41.0577 35.5166H29.2071C28.7941 35.5166 28.4592 35.1817 28.4592 34.7687C28.4592 34.3556 28.7941 34.0207 29.2071 34.0207H41.0577C41.4707 34.0207 41.8056 34.3556 41.8056 34.7687ZM41.8056 37.6783C41.8056 38.0914 41.4707 38.4262 41.0577 38.4262H29.2071C28.7941 38.4262 28.4592 38.0914 28.4592 37.6783C28.4592 37.2652 28.7941 36.9304 29.2071 36.9304H41.0577C41.4707 36.9304 41.8056 37.2652 41.8056 37.6783ZM41.8056 40.5879C41.8056 41.001 41.4707 41.3359 41.0577 41.3359H29.2071C28.7941 41.3359 28.4592 41.001 28.4592 40.5879C28.4592 40.1749 28.7941 39.84 29.2071 39.84H41.0577C41.4707 39.8399 41.8056 40.1749 41.8056 40.5879ZM41.8056 43.4975C41.8056 43.9105 41.4707 44.2454 41.0577 44.2454H29.2071C28.7941 44.2454 28.4592 43.9105 28.4592 43.4975C28.4592 43.0844 28.7941 42.7495 29.2071 42.7495H41.0577C41.4707 42.7495 41.8056 43.0844 41.8056 43.4975ZM27.3107 31.8592C27.3107 32.2722 26.9758 32.6071 26.5627 32.6071C26.1497 32.6071 25.8135 32.2722 25.8135 31.8592C25.8135 31.4461 26.147 31.1112 26.5601 31.1112H26.5627C26.9759 31.1112 27.3107 31.446 27.3107 31.8592ZM27.3107 34.7687C27.3107 35.1817 26.9758 35.5166 26.5627 35.5166C26.1497 35.5166 25.8135 35.1817 25.8135 34.7687C25.8135 34.3556 26.147 34.0207 26.5601 34.0207H26.5627C26.9759 34.0207 27.3107 34.3556 27.3107 34.7687ZM27.3107 37.6783C27.3107 38.0914 26.9758 38.4262 26.5627 38.4262C26.1497 38.4262 25.8135 38.0914 25.8135 37.6783C25.8135 37.2652 26.147 36.9304 26.5601 36.9304H26.5627C26.9759 36.9304 27.3107 37.2652 27.3107 37.6783ZM27.3107 40.5879C27.3107 41.001 26.9758 41.3359 26.5627 41.3359C26.1497 41.3359 25.8135 41.001 25.8135 40.5879C25.8135 40.1749 26.147 39.84 26.5601 39.84H26.5627C26.9759 39.8399 27.3107 40.1748 27.3107 40.5879ZM27.3107 43.4975C27.3107 43.9105 26.9758 44.2454 26.5627 44.2454C26.1497 44.2454 25.8135 43.9105 25.8135 43.4975C25.8135 43.0844 26.147 42.7495 26.5601 42.7495H26.5627C26.9759 42.7495 27.3107 43.0843 27.3107 43.4975Z" fill="#9473F2"/>
</g>
<defs>
<clipPath id="clip0_3868_22555">
<rect width="48" height="48" fill="white" transform="translate(0 0.92334)"/>
</clipPath>
</defs>
</svg>
