<svg width="48" height="50" viewBox="0 0 48 50" fill="none" xmlns="http://www.w3.org/2000/svg">
<rect x="0.5" y="0.720337" width="47" height="47.8136" rx="11.5" fill="#F8FAFF"/>
<rect x="0.5" y="0.720337" width="47" height="47.8136" rx="11.5" stroke="#C4D8FE"/>
<path d="M39.2768 23.9088H37.6643V20.2509H37.9008C38.4563 20.2509 38.9401 19.9144 39.1333 19.3936C39.3266 18.8729 39.1794 18.3022 38.7584 17.9398L33.4902 13.4054C32.8165 12.8254 31.8384 12.8255 31.1646 13.4054L29.3436 14.9729C29.1347 15.1526 29.1112 15.4677 29.2909 15.6766C29.4707 15.8855 29.7858 15.9091 29.9947 15.7292L31.8157 14.1619C32.1123 13.9067 32.5426 13.9066 32.8391 14.1619L38.1073 18.6963C38.3319 18.8892 38.1975 19.253 37.9008 19.2528H37.1652C36.8896 19.2528 36.6661 19.4763 36.6661 19.7519V23.9088H34.3326V22.1209C34.3326 21.0151 33.4331 20.1156 32.3273 20.1156C31.2216 20.1156 30.3221 21.0152 30.3221 22.1209V23.9088H27.9886V19.7519C27.9886 19.4763 27.7652 19.2528 27.4896 19.2528H26.754C26.4385 19.2253 26.326 18.9233 26.5474 18.6963L28.4808 17.0321C28.6897 16.8524 28.7133 16.5372 28.5335 16.3284C28.3537 16.1195 28.0386 16.0959 27.8298 16.2757L25.8964 17.9398C25.4753 18.3022 25.3282 18.8729 25.5214 19.3936C25.7147 19.9144 26.1985 20.2509 26.754 20.2509H26.9905V23.9087H21.7361C21.7417 23.8628 21.7456 23.8163 21.7456 23.7689V18.9664L21.7521 18.96C21.9466 18.7717 22.0581 18.5083 22.0581 18.2374V16.0172C22.0581 15.3898 21.5478 14.8794 20.9203 14.8794H17.9799V14.2825C17.9799 13.5671 17.398 12.9851 16.6826 12.9851H14.3168C13.6015 12.9851 13.0195 13.5671 13.0195 14.2825V14.8794H10.0795C9.45212 14.8794 8.94165 15.3898 8.94165 16.0172V18.2374C8.94165 18.5082 9.05321 18.7717 9.24772 18.96L9.25423 18.9664V23.7689C9.25423 23.8163 9.25808 23.8628 9.26372 23.9087H8.72311C7.77297 23.9088 7 24.6817 7 25.6319C7 26.5821 7.77297 27.3551 8.72318 27.3551H22.7127L19.0196 32.9158C18.7818 33.2738 18.7603 33.7316 18.9634 34.1103C19.1666 34.4891 19.5597 34.7244 19.9895 34.7244H28.0105C28.4403 34.7244 28.8334 34.4891 29.0366 34.1103C29.2397 33.7316 29.2182 33.2738 28.9804 32.9158L25.2873 27.3551H32.8358C33.1113 27.3551 33.3348 27.1317 33.3348 26.8561C33.3348 26.5805 33.1113 26.357 32.8358 26.357H8.72318C8.32334 26.357 7.99809 26.0318 7.99809 25.6319C7.99809 25.2321 8.32334 24.9068 8.72318 24.9068H14.2162C14.4918 24.9068 14.7153 24.6833 14.7153 24.4077C14.7153 24.1322 14.4918 23.9087 14.2162 23.9087H10.3921C10.315 23.9087 10.2522 23.846 10.2522 23.7689V19.9332L10.315 19.994C10.5037 20.1767 10.7523 20.2775 11.015 20.2775H13.8554V20.7735C13.8554 21.6804 14.5932 22.4181 15.4999 22.4181C16.4067 22.4181 17.1445 21.6803 17.1445 20.7735V20.2775H19.9849C20.2476 20.2775 20.4962 20.1768 20.6849 19.994L20.7476 19.9332V23.7689C20.7476 23.846 20.6849 23.9087 20.6078 23.9087H16.2122C15.9366 23.9087 15.7132 24.1322 15.7132 24.4077C15.7132 24.6833 15.9366 24.9068 16.2122 24.9068H39.2768C39.6766 24.9068 40.0018 25.2321 40.0018 25.6319C40.0018 26.0318 39.6766 26.357 39.2768 26.357H34.8317C34.5561 26.357 34.3327 26.5805 34.3327 26.8561C34.3327 27.1317 34.5561 27.3551 34.8317 27.3551H39.2768C40.2269 27.3551 40.9999 26.5822 40.9999 25.6319C41 24.6817 40.227 23.9088 39.2768 23.9088ZM24.1386 27.4294L28.1491 33.468C28.2224 33.5822 28.1465 33.7241 28.0105 33.7263H19.9895C19.8537 33.7241 19.7776 33.5824 19.8509 33.468L23.8614 27.4294C23.9333 27.3286 24.0666 27.3284 24.1386 27.4294ZM14.0179 14.2825C14.0179 14.1175 14.1521 13.9832 14.3171 13.9832H16.6829C16.8479 13.9832 16.9821 14.1174 16.9821 14.2825V14.8794H14.0178L14.0179 14.2825ZM16.1465 20.7735C16.1465 21.13 15.8565 21.4201 15.5001 21.4201C15.1436 21.4201 14.8535 21.1301 14.8535 20.7735V20.2775H16.1465V20.7735ZM19.9906 19.2772C19.9891 19.2787 19.9871 19.2795 19.985 19.2795L11.0095 19.2772L9.93967 18.2375V16.0173C9.93967 15.9402 10.0024 15.8775 10.0795 15.8775H20.9205C20.9976 15.8775 21.0603 15.9402 21.0603 16.0173L21.0579 18.2433L19.9906 19.2772ZM31.3203 22.1209C31.3203 21.5655 31.7721 21.1136 32.3275 21.1136C32.8829 21.1136 33.3347 21.5654 33.3347 22.1209V23.9088H31.3202L31.3203 22.1209Z" fill="#1A202C"/>
</svg>
