<svg width="48" height="50" viewBox="0 0 48 50" fill="none" xmlns="http://www.w3.org/2000/svg">
<rect x="0.5" y="0.720337" width="47" height="47.8136" rx="11.5" fill="#F8FAFF"/>
<rect x="0.5" y="0.720337" width="47" height="47.8136" rx="11.5" stroke="#C4D8FE"/>
<path d="M37.7232 20.0812C37.6662 20.0242 37.6082 19.9686 37.5498 19.9136V18.1122C37.5498 16.3211 36.0926 14.8638 34.3014 14.8638H28.6033V13.2313C28.6033 11.4884 27.1854 10.0706 25.4426 10.0706H20.1074C18.3645 10.0706 16.9466 11.4884 16.9466 13.2313V14.8638H11.2484C9.45725 14.8638 8 16.3211 8 18.1122V32.5717C8 34.3629 9.45725 35.8201 11.2484 35.8201H18.0307C18.2896 35.8201 18.4994 35.6102 18.4994 35.3514C18.4994 35.0925 18.2896 34.8826 18.0307 34.8826H11.2484C9.97412 34.8826 8.93744 33.8459 8.93744 32.5716V23.1154C9.85531 24.4769 11.3652 25.4077 13.0949 25.5359V27.2425C13.0949 28.2172 13.8879 29.0102 14.8626 29.0102C15.8373 29.0102 16.6303 28.2172 16.6303 27.2425V25.5512H24.4634C24.4634 25.5587 24.4631 25.5661 24.4631 25.5736C24.4631 27.1698 24.9418 28.6922 25.8304 29.9778L24.8353 30.9729C24.4878 30.8746 24.0984 30.9614 23.8255 31.2345L20.0031 35.0569C19.2464 35.8136 19.2464 37.0447 20.0031 37.8013C20.7614 38.5597 21.989 38.5598 22.7474 37.8013L26.5699 33.9789C26.8429 33.7059 26.9298 33.3166 26.8314 32.9691L27.8274 31.9731C30.4614 33.7871 33.9724 33.7929 36.6124 31.9877V32.5717C36.6124 33.846 35.5758 34.8827 34.3014 34.8827H26.8974C26.6386 34.8827 26.4287 35.0926 26.4287 35.3514C26.4287 35.6103 26.6386 35.8202 26.8974 35.8202H34.3014C36.0926 35.8202 37.5498 34.3629 37.5498 32.5717V31.2338C37.6082 31.1789 37.6661 31.1233 37.7232 31.0662C40.7588 28.0307 40.7591 23.1171 37.7232 20.0812ZM17.884 13.2313C17.884 12.0054 18.8814 11.008 20.1073 11.008H25.4425C26.6684 11.008 27.6658 12.0054 27.6658 13.2313V14.8638H26.6659V13.2313C26.6659 12.5567 26.1171 12.0079 25.4425 12.0079H20.1073C19.4327 12.0079 18.8839 12.5567 18.8839 13.2313V14.8638H17.884V13.2313ZM19.8214 14.8638V13.2313C19.8214 13.0737 19.9496 12.9454 20.1073 12.9454H25.4425C25.6002 12.9454 25.7284 13.0737 25.7284 13.2313V14.8638H19.8214ZM15.6929 25.8017H14.0324V24.2237C14.0324 23.7659 14.4048 23.3935 14.8626 23.3935C15.3204 23.3935 15.6929 23.7659 15.6929 24.2237V25.8017ZM14.8626 28.0728C14.4048 28.0728 14.0324 27.7004 14.0324 27.2426V26.7392H15.6929V27.2426C15.6929 27.7004 15.3204 28.0728 14.8626 28.0728ZM16.6303 24.6138V24.2237C16.6303 23.2491 15.8373 22.4561 14.8626 22.4561C13.8879 22.4561 13.0949 23.2491 13.0949 24.2237V24.5944C10.7678 24.3859 8.93744 22.4259 8.93744 20.0456V18.1122C8.93744 16.8379 9.97412 15.8012 11.2484 15.8012H34.3014C35.5757 15.8012 36.6124 16.8379 36.6124 18.1122V19.1579C33.6483 17.1244 29.4731 17.3462 26.7382 20.0811C25.4998 21.3195 24.7311 22.9024 24.5215 24.6137H16.6303V24.6138ZM22.0845 37.1385C21.6925 37.5305 21.0579 37.5306 20.6659 37.1385C20.4764 36.949 20.3721 36.6971 20.3721 36.4292C20.3721 36.1612 20.4764 35.9093 20.6659 35.7199L23.3139 33.0718L24.7326 34.4904L22.0845 37.1385ZM25.9069 33.3161L25.3954 33.8276L23.9768 32.4089L24.4883 31.8974C24.5063 31.8795 24.5299 31.8705 24.5534 31.8705C24.577 31.8705 24.6006 31.8795 24.6185 31.8974C24.6186 31.8974 24.6187 31.8976 24.6188 31.8976L25.9069 33.1857C25.9428 33.2217 25.9428 33.2801 25.9069 33.3161ZM26.2608 32.2139L25.5904 31.5435L26.4134 30.7206C26.5179 30.8384 26.6259 30.9539 26.7382 31.0661C26.8507 31.1787 26.9663 31.2866 27.0839 31.3907L26.2608 32.2139ZM27.4011 30.4033C26.111 29.1133 25.4006 27.3981 25.4006 25.5737C25.4006 23.7493 26.111 22.0341 27.4011 20.7441C30.0702 18.0749 34.3908 18.0745 37.0603 20.7441C39.7295 23.4132 39.7299 27.7338 37.0603 30.4033C34.3911 33.0726 30.0706 33.0729 27.4011 30.4033Z" fill="#1A202C"/>
<path d="M37.373 26.2174C37.1201 26.1624 36.8703 26.3227 36.8154 26.5758C36.6246 27.4529 36.1866 28.2538 35.5486 28.8917C33.7148 30.7255 30.7466 30.7257 28.9126 28.8917C27.0831 27.0622 27.0831 24.0853 28.9126 22.2557C30.7464 20.4219 33.7146 20.4217 35.5486 22.2557C36.1859 22.893 36.6238 23.693 36.8149 24.5692C36.87 24.8222 37.1198 24.9827 37.3727 24.9274C37.6256 24.8722 37.7859 24.6225 37.7308 24.3695C37.5014 23.3175 36.9761 22.3574 36.2116 21.5929C34.0114 19.3927 30.4502 19.3924 28.2498 21.5929C26.0547 23.7879 26.0547 27.3595 28.2498 29.5546C30.4448 31.7496 34.0164 31.7497 36.2116 29.5546C36.9769 28.7893 37.5024 27.8281 37.7314 26.775C37.7864 26.522 37.6259 26.2724 37.373 26.2174Z" fill="#1A202C"/>
</svg>
