<svg width="56" height="57" viewBox="0 0 56 57" fill="none" xmlns="http://www.w3.org/2000/svg">
<path d="M0.5 12C0.5 5.64874 5.64873 0.5 12 0.5H44C50.3513 0.5 55.5 5.64873 55.5 12V44.9491C55.5 51.3004 50.3513 56.4492 44 56.4492H12C5.64873 56.4492 0.5 51.3004 0.5 44.9492V12Z" fill="#222A39"/>
<path d="M0.5 12C0.5 5.64874 5.64873 0.5 12 0.5H44C50.3513 0.5 55.5 5.64873 55.5 12V44.9491C55.5 51.3004 50.3513 56.4492 44 56.4492H12C5.64873 56.4492 0.5 51.3004 0.5 44.9492V12Z" stroke="#2E384B"/>
<path d="M41.9696 20.0831C41.9668 20.0341 41.9573 19.9858 41.9411 19.9394C41.935 19.9216 41.9305 19.9042 41.9227 19.8869C41.8955 19.8261 41.8576 19.7706 41.8109 19.7231L33.9838 11.896C33.9363 11.8493 33.8808 11.8114 33.82 11.7842C33.8027 11.7764 33.7853 11.7719 33.768 11.7658C33.7213 11.7497 33.6726 11.7399 33.6232 11.7367C33.6137 11.7384 33.6031 11.7322 33.5908 11.7322H17.9367C17.628 11.7322 17.3776 11.9826 17.3776 12.2913V13.9685H14.5823C14.2735 13.9685 14.0232 14.2189 14.0232 14.5276V44.7176C14.0232 45.0264 14.2735 45.2767 14.5823 45.2767H38.0634C38.3721 45.2767 38.6225 45.0264 38.6225 44.7176V41.9222H41.4178C41.7266 41.9222 41.9769 41.6719 41.9769 41.3632V20.1184C41.9769 20.1061 41.9707 20.0954 41.9696 20.0831ZM34.1499 13.6409L40.0682 19.5593H34.1499V13.6409ZM37.5043 44.1585H15.1413V15.0867H17.3776V41.3632C17.3776 41.6719 17.628 41.9222 17.9367 41.9222H37.5043V44.1585ZM40.8587 40.8041H18.4958V12.8504H33.0317V20.1184C33.0317 20.4271 33.282 20.6774 33.5908 20.6774H40.8587V40.8041Z" fill="white"/>
<path d="M22.5025 35.7724H21.403C21.0994 35.7724 20.8533 36.0229 20.8533 36.332C20.8533 36.641 21.0994 36.8915 21.403 36.8915H22.5025C22.8061 36.8915 23.0523 36.641 23.0523 36.332C23.0523 36.0229 22.8061 35.7724 22.5025 35.7724Z" fill="white"/>
<path d="M37.8955 35.7724H24.7014C24.3978 35.7724 24.1516 36.0229 24.1516 36.332C24.1516 36.641 24.3978 36.8915 24.7014 36.8915H37.8955C38.1991 36.8915 38.4453 36.641 38.4453 36.332C38.4453 36.0229 38.1991 35.7724 37.8955 35.7724Z" fill="white"/>
<path d="M22.5025 32.418H21.403C21.0994 32.418 20.8533 32.6685 20.8533 32.9775C20.8533 33.2866 21.0994 33.5371 21.403 33.5371H22.5025C22.8061 33.5371 23.0523 33.2866 23.0523 32.9775C23.0523 32.6685 22.8061 32.418 22.5025 32.418Z" fill="white"/>
<path d="M37.8955 32.418H24.7014C24.3978 32.418 24.1516 32.6685 24.1516 32.9775C24.1516 33.2866 24.3978 33.5371 24.7014 33.5371H37.8955C38.1991 33.5371 38.4453 33.2866 38.4453 32.9775C38.4453 32.6685 38.1991 32.418 37.8955 32.418Z" fill="white"/>
<path d="M22.5025 29.0636H21.403C21.0994 29.0636 20.8533 29.3141 20.8533 29.6232C20.8533 29.9322 21.0994 30.1827 21.403 30.1827H22.5025C22.8061 30.1827 23.0523 29.9322 23.0523 29.6232C23.0523 29.3141 22.8061 29.0636 22.5025 29.0636Z" fill="white"/>
<path d="M37.8955 29.0636H24.7014C24.3978 29.0636 24.1516 29.3141 24.1516 29.6232C24.1516 29.9322 24.3978 30.1827 24.7014 30.1827H37.8955C38.1991 30.1827 38.4453 29.9322 38.4453 29.6232C38.4453 29.3141 38.1991 29.0636 37.8955 29.0636Z" fill="white"/>
<path d="M22.5025 25.7092H21.403C21.0994 25.7092 20.8533 25.9597 20.8533 26.2687C20.8533 26.5778 21.0994 26.8283 21.403 26.8283H22.5025C22.8061 26.8283 23.0523 26.5778 23.0523 26.2687C23.0523 25.9597 22.8061 25.7092 22.5025 25.7092Z" fill="white"/>
<path d="M37.8955 25.7092H24.7014C24.3978 25.7092 24.1516 25.9597 24.1516 26.2687C24.1516 26.5778 24.3978 26.8283 24.7014 26.8283H37.8955C38.1991 26.8283 38.4453 26.5778 38.4453 26.2687C38.4453 25.9597 38.1991 25.7092 37.8955 25.7092Z" fill="white"/>
<path d="M22.5025 22.3546H21.403C21.0994 22.3546 20.8533 22.6052 20.8533 22.9142C20.8533 23.2232 21.0994 23.4738 21.403 23.4738H22.5025C22.8061 23.4738 23.0523 23.2232 23.0523 22.9142C23.0523 22.6052 22.8061 22.3546 22.5025 22.3546Z" fill="white"/>
<path d="M37.8955 22.3546H24.7014C24.3978 22.3546 24.1516 22.6052 24.1516 22.9142C24.1516 23.2232 24.3978 23.4738 24.7014 23.4738H37.8955C38.1991 23.4738 38.4453 23.2232 38.4453 22.9142C38.4453 22.6052 38.1991 22.3546 37.8955 22.3546Z" fill="white"/>
<path d="M24.7016 16.7639H21.403C21.0994 16.7639 20.8533 17.0142 20.8533 17.323V20.6774C20.8533 20.9862 21.0994 21.2365 21.403 21.2365H24.7016C25.0052 21.2365 25.2513 20.9862 25.2513 20.6774V17.323C25.2513 17.0142 25.0052 16.7639 24.7016 16.7639ZM24.1518 20.1184H21.9528V17.8821H24.1518V20.1184Z" fill="white"/>
</svg>
