<svg width="57" height="58" viewBox="0 0 57 58" fill="none" xmlns="http://www.w3.org/2000/svg">
<path d="M1 12.9492C1 6.5979 6.14873 1.44916 12.5 1.44916H44.5C50.8513 1.44916 56 6.59788 56 12.9492V45.8983C56 52.2496 50.8513 57.3983 44.5 57.3983H12.5C6.14873 57.3983 1 52.2496 1 45.8983V12.9492Z" fill="#222A39"/>
<path d="M1 12.9492C1 6.5979 6.14873 1.44916 12.5 1.44916H44.5C50.8513 1.44916 56 6.59788 56 12.9492V45.8983C56 52.2496 50.8513 57.3983 44.5 57.3983H12.5C6.14873 57.3983 1 52.2496 1 45.8983V12.9492Z" stroke="#2E384B"/>
<g clip-path="url(#clip0_2849_3693)">
<path d="M28.1806 24.9332H15.671C15.4011 24.9332 15.1824 25.152 15.1824 25.4219C15.1824 25.6918 15.4011 25.9105 15.671 25.9105H28.1807C28.4506 25.9105 28.6693 25.6917 28.6693 25.4219C28.6693 25.152 28.4506 24.9332 28.1806 24.9332Z" fill="white"/>
<path d="M28.1806 28.3668H15.671C15.4011 28.3668 15.1824 28.5856 15.1824 28.8555C15.1824 29.1253 15.4011 29.3441 15.671 29.3441H28.1807C28.4506 29.3441 28.6693 29.1253 28.6693 28.8555C28.6693 28.5856 28.4506 28.3668 28.1806 28.3668Z" fill="white"/>
<path d="M28.1806 31.8004H15.671C15.4011 31.8004 15.1824 32.0192 15.1824 32.289C15.1824 32.5589 15.4011 32.7777 15.671 32.7777H28.1807C28.4506 32.7777 28.6693 32.5589 28.6693 32.289C28.6693 32.0192 28.4506 31.8004 28.1806 31.8004Z" fill="white"/>
<path d="M28.6693 35.7228C28.6693 35.4529 28.4506 35.2341 28.1807 35.2341H15.671C15.4011 35.2341 15.1824 35.4529 15.1824 35.7228C15.1824 35.9926 15.4011 36.2114 15.671 36.2114H28.1807C28.4506 36.2114 28.6693 35.9927 28.6693 35.7228Z" fill="white"/>
<path d="M15.671 40.2662C15.4011 40.2662 15.1824 40.485 15.1824 40.7549C15.1824 41.0247 15.4011 41.2435 15.671 41.2435H21.9418C22.2117 41.2435 22.4305 41.0247 22.4305 40.7549C22.4305 40.485 22.2117 40.2662 21.9418 40.2662H15.671Z" fill="white"/>
<path d="M33.8117 19.1566V17.571C33.8117 16.967 33.3203 16.4756 32.7162 16.4756H22.6838C22.0797 16.4756 21.5884 16.967 21.5884 17.571V19.1566C21.5884 19.7607 22.0797 20.252 22.6838 20.252H23.531C23.8009 20.252 24.0196 20.0332 24.0196 19.7634C24.0196 19.4935 23.8009 19.2748 23.531 19.2748H22.6838C22.6187 19.2748 22.5657 19.2218 22.5657 19.1567V17.571C22.5657 17.506 22.6187 17.4529 22.6838 17.4529H32.7162C32.7814 17.4529 32.8343 17.5059 32.8343 17.571V19.1566C32.8343 19.2217 32.7814 19.2747 32.7162 19.2747H25.8155C25.5456 19.2747 25.3268 19.4935 25.3268 19.7633C25.3268 20.0332 25.5456 20.252 25.8155 20.252H32.7163C33.3203 20.2521 33.8117 19.7607 33.8117 19.1566Z" fill="white"/>
<path d="M37.4656 42.9035C37.1957 42.9035 36.977 43.1223 36.977 43.3922V44.0502C36.977 44.8444 36.3308 45.4907 35.5364 45.4907H13.919C13.1247 45.4907 12.4785 44.8445 12.4785 44.0502V20.5624C12.4785 20.4566 12.4909 20.3529 12.513 20.252H16.9622C17.8912 20.252 18.6469 19.4963 18.6469 18.5673V14.1181C18.7478 14.096 18.8515 14.0837 18.9572 14.0837H35.5364C36.3307 14.0837 36.9769 14.7298 36.9769 15.5241V22.0298C36.9769 22.2997 37.1957 22.5184 37.4655 22.5184C37.7354 22.5184 37.9542 22.2996 37.9542 22.0298V15.5241C37.9542 14.191 36.8696 13.1063 35.5364 13.1063H18.9573C18.3115 13.1063 17.7043 13.3578 17.2476 13.8145L12.2093 18.8528C11.7527 19.3094 11.5012 19.9166 11.5012 20.5625V44.0503C11.5012 45.3834 12.5858 46.468 13.919 46.468H35.5364C36.8696 46.468 37.9542 45.3834 37.9542 44.0503V43.3922C37.9542 43.1223 37.7355 42.9035 37.4656 42.9035ZM17.6696 14.7747V18.5673C17.6696 18.9574 17.3523 19.2747 16.9622 19.2747H13.1696L17.6696 14.7747Z" fill="white"/>
<path d="M44.1583 30.5691C44.5013 30.0656 44.5901 29.4445 44.4018 28.8651C44.2136 28.2857 43.7767 27.8355 43.2033 27.6298C42.8229 27.4934 42.5691 27.1441 42.557 26.7401C42.5385 26.1312 42.2453 25.5766 41.7523 25.2185C41.2595 24.8604 40.6413 24.753 40.0567 24.9236C39.6685 25.0368 39.2581 24.9034 39.0108 24.5838C38.638 24.1019 38.0748 23.8256 37.4655 23.8256C36.8564 23.8256 36.2931 24.1019 35.9202 24.5838C35.6729 24.9034 35.2623 25.0367 34.8744 24.9236C34.2897 24.7528 33.6716 24.8604 33.1786 25.2185C32.6858 25.5766 32.3926 26.1312 32.3741 26.7401C32.3619 27.1441 32.1082 27.4933 31.7277 27.6298C31.1543 27.8354 30.7174 28.2857 30.5292 28.8651C30.341 29.4445 30.4297 30.0656 30.7727 30.569C31.0003 30.9031 31.0003 31.3347 30.7727 31.6687C30.4297 32.1722 30.341 32.7932 30.5292 33.3726C30.7174 33.952 31.1543 34.4023 31.7277 34.608C32.1082 34.7445 32.362 35.0937 32.3741 35.4977C32.3911 36.0578 32.6478 36.5841 33.0785 36.9415C33.3626 37.1773 33.704 37.3249 34.0613 37.3743V41.8232C34.0613 42.1986 34.2649 42.5456 34.5926 42.7286C34.9199 42.9115 35.3222 42.9034 35.6421 42.7064L37.4343 41.6031C37.4635 41.5851 37.4809 41.5932 37.497 41.6031L39.2891 42.7064C39.6088 42.9032 40.0111 42.9116 40.3387 42.7285C40.6664 42.5454 40.87 42.1985 40.87 41.8232V37.3741C41.2271 37.3249 41.5685 37.1773 41.8527 36.9415C42.2834 36.5841 42.5402 36.0578 42.5572 35.4976C42.5693 35.0936 42.8231 34.7443 43.2035 34.6079C43.777 34.4023 44.2139 33.9519 44.402 33.3725C44.5903 32.7931 44.5015 32.1721 44.1585 31.6686C43.9307 31.3347 43.9307 30.9031 44.1583 30.5691ZM39.8013 41.8742L38.0092 40.7709C37.676 40.5658 37.2553 40.5655 36.9218 40.7709L35.1297 41.8741C35.0889 41.8989 35.0385 41.8703 35.0385 41.8232V37.2815C35.3745 37.2426 35.7076 37.3793 35.9202 37.654C36.2931 38.1358 36.8564 38.4122 37.4656 38.4122C38.0748 38.4122 38.638 38.1358 39.0108 37.654C39.2235 37.3792 39.5566 37.2426 39.8925 37.2815V41.8232C39.8925 41.8707 39.8415 41.899 39.8013 41.8742ZM43.3507 32.2191C43.5222 32.4707 43.5665 32.7811 43.4724 33.0707C43.3783 33.3602 43.16 33.5853 42.8733 33.6881C42.1121 33.9611 41.6045 34.6598 41.5801 35.4681C41.5714 35.7523 41.4465 36.0084 41.2284 36.1895C40.9832 36.3929 40.6512 36.4697 40.3305 36.3761C39.5542 36.1496 38.7328 36.4165 38.2378 37.056C38.0515 37.2968 37.77 37.4349 37.4655 37.4349C37.161 37.4349 36.8795 37.2968 36.6931 37.056C36.3152 36.5676 35.747 36.2965 35.1538 36.2965C34.9702 36.2965 34.7841 36.3225 34.6006 36.3761C34.2768 36.4704 33.9457 36.3913 33.7024 36.1894C33.4844 36.0084 33.3594 35.7522 33.3509 35.4681C33.3264 34.6598 32.8188 33.9611 32.0576 33.688C31.771 33.5852 31.5527 33.3602 31.4585 33.0707C31.3645 32.7811 31.4088 32.4707 31.5803 32.219C32.0355 31.5507 32.0355 30.6871 31.5803 30.0188C31.4088 29.7671 31.3645 29.4567 31.4585 29.1671C31.5526 28.8775 31.771 28.6525 32.0576 28.5497C32.8188 28.2766 33.3264 27.5779 33.3509 26.7696C33.3601 26.4652 33.5066 26.1881 33.7529 26.0091C33.9992 25.8301 34.308 25.7764 34.6005 25.8617C35.3766 26.0882 36.1982 25.8213 36.6931 25.1818C36.8794 24.941 37.1609 24.8028 37.4655 24.8028C37.77 24.8028 38.0515 24.9409 38.2378 25.1817C38.7327 25.8213 39.554 26.0882 40.3304 25.8617C40.6227 25.7763 40.9316 25.8301 41.1779 26.0091C41.4243 26.188 41.5709 26.4652 41.58 26.7695C41.6045 27.5778 42.1121 28.2766 42.8733 28.5496C43.16 28.6524 43.3782 28.8774 43.4724 29.167C43.5665 29.4566 43.5222 29.7671 43.3507 30.0187C42.8953 30.6871 42.8953 31.5507 43.3507 32.2191Z" fill="white"/>
<path d="M37.4654 27.0233C35.2071 27.0233 33.3699 28.8606 33.3699 31.1189C33.3699 33.3772 35.2071 35.2144 37.4654 35.2144C39.7236 35.2144 41.5609 33.3772 41.5609 31.1189C41.5609 28.8606 39.7236 27.0233 37.4654 27.0233ZM37.4654 34.2371C35.746 34.2371 34.3471 32.8383 34.3471 31.1189C34.3471 29.3996 35.746 28.0006 37.4654 28.0006C39.1848 28.0006 40.5836 29.3995 40.5836 31.1189C40.5836 32.8384 39.1848 34.2371 37.4654 34.2371Z" fill="white"/>
</g>
<defs>
<clipPath id="clip0_2849_3693">
<rect width="33.3617" height="33.3617" fill="white" transform="translate(11.3191 13.1063)"/>
</clipPath>
</defs>
</svg>
