<svg width="57" height="58" viewBox="0 0 57 58" fill="none" xmlns="http://www.w3.org/2000/svg">
<path d="M1 12.9492C1 6.5979 6.14873 1.44916 12.5 1.44916H44.5C50.8513 1.44916 56 6.59788 56 12.9492V45.8983C56 52.2496 50.8513 57.3983 44.5 57.3983H12.5C6.14873 57.3983 1 52.2496 1 45.8983V12.9492Z" fill="#222A39"/>
<path d="M1 12.9492C1 6.5979 6.14873 1.44916 12.5 1.44916H44.5C50.8513 1.44916 56 6.59788 56 12.9492V45.8983C56 52.2496 50.8513 57.3983 44.5 57.3983H12.5C6.14873 57.3983 1 52.2496 1 45.8983V12.9492Z" stroke="#2E384B"/>
<g clip-path="url(#clip0_2849_3792)">
<path d="M44.6794 21.5142H44.1103L44.8068 20.4611C45.059 20.0798 45.1476 19.6231 45.0563 19.1751C44.965 18.7271 44.7047 18.3415 44.3235 18.0893C44.0549 17.9118 43.749 17.8157 43.435 17.8061C43.5288 17.1691 43.2583 16.5046 42.6868 16.1265C42.4433 15.9656 42.1733 15.8753 41.9011 15.8504C41.9927 15.5484 41.9974 15.2306 41.9219 14.9323H44.6144C44.8838 14.9323 45.102 14.714 45.102 14.4447C45.102 14.1754 44.8838 13.957 44.6144 13.957H41.2532C41.2382 13.9464 41.2233 13.9355 41.2078 13.9253C40.562 13.4982 39.7304 13.5677 39.1649 14.0409C39.0355 13.8001 38.8468 13.587 38.6033 13.4259C38.222 13.1737 37.7651 13.0851 37.3173 13.1765C36.8693 13.2678 36.4837 13.5281 36.2315 13.9094L36.2 13.9571H28.1752L27.5196 13.6759C26.639 13.2979 25.7065 13.1063 24.7481 13.1063H15.2989C14.3551 13.1063 13.5873 13.8742 13.5873 14.8178C13.5873 15.1466 13.6807 15.4538 13.8419 15.7147C13.2584 15.9877 12.853 16.5801 12.853 17.2657C12.853 17.5576 12.9266 17.8326 13.0561 18.0734C12.3495 18.2841 11.8328 18.9396 11.8328 19.7136C11.8328 20.4877 12.3495 21.1431 13.056 21.3538C12.9266 21.5946 12.853 21.8696 12.853 22.1615C12.853 23.1053 13.6208 23.873 14.5646 23.873H20.0426L19.3583 24.3956C18.9555 24.7032 18.7008 25.1499 18.6412 25.6532C18.5816 26.1566 18.725 26.6504 19.0448 27.0436C19.4126 27.4957 19.9454 27.7314 20.4844 27.7314C20.875 27.7314 21.2689 27.6076 21.6058 27.3528L23.1298 26.2002L28.0603 31.1307C28.1354 31.2058 28.2329 31.2543 28.338 31.2688L36.4859 32.3992C36.9586 32.4648 37.2908 32.8882 37.2419 33.363C37.2174 33.6024 37.0997 33.8163 36.9106 33.9653C36.7216 34.1144 36.4862 34.179 36.2475 34.1469L34.1285 33.8629L33.9008 33.6352C33.7103 33.4448 33.4016 33.4448 33.2112 33.6352C33.0208 33.8256 33.0208 34.1344 33.2112 34.3247L38.4487 39.5622C38.5878 39.7013 38.6643 39.8862 38.6643 40.0829C38.6643 40.2796 38.5877 40.4645 38.4486 40.6035C38.3095 40.7426 38.1247 40.8192 37.928 40.8192C37.7314 40.8192 37.5464 40.7426 37.4073 40.6035L34.2629 37.4591C34.0724 37.2687 33.7638 37.2687 33.5733 37.4591C33.3829 37.6496 33.3829 37.9583 33.5733 38.1487L37.4392 42.0145C37.7263 42.3017 37.7263 42.7688 37.4392 43.0559C37.1522 43.343 36.6849 43.343 36.3979 43.0559L32.7526 39.4106C32.5621 39.2202 32.2534 39.2202 32.063 39.4106C31.8726 39.6011 31.8726 39.9098 32.063 40.1002L34.9869 43.024C35.274 43.3111 35.274 43.7783 34.9869 44.0654C34.8478 44.2045 34.663 44.281 34.4662 44.281C34.2695 44.281 34.0847 44.2045 33.9456 44.0654L31.0217 41.1415C30.8312 40.9511 30.5225 40.9511 30.3321 41.1415C30.1416 41.332 30.1416 41.6407 30.3321 41.8311L32.7367 44.2357C33.0238 44.5228 33.0238 44.99 32.7367 45.2771C32.5976 45.4161 32.4128 45.4927 32.2161 45.4927C32.0193 45.4927 31.8345 45.4161 31.6954 45.2771L25.0137 38.5955C24.43 38.0119 23.9788 37.3273 23.6726 36.5608L23.3708 35.8054C23.3463 35.744 23.3096 35.6882 23.2628 35.6415L20.6964 33.0752C20.506 32.8847 20.1972 32.8847 20.0069 33.0752C19.8164 33.2656 19.8164 33.5743 20.0069 33.7647L22.5023 36.2602L22.7305 36.8311L16.979 45.5274C16.8304 45.752 16.8921 46.0545 17.1167 46.2031C17.1995 46.2578 17.2929 46.284 17.3853 46.284C17.5434 46.284 17.6986 46.2071 17.7924 46.0653L23.222 37.8558C23.5248 38.3758 23.8932 38.8542 24.3241 39.285L27.8416 42.8025L26.0139 45.5661C25.8653 45.7908 25.927 46.0933 26.1516 46.2418C26.2343 46.2966 26.3277 46.3228 26.4201 46.3228C26.5783 46.3228 26.7335 46.2459 26.8273 46.1041L28.5454 43.5063L31.0057 45.9667C31.3291 46.2899 31.7588 46.468 32.216 46.468C32.6732 46.468 33.103 46.2899 33.4263 45.9667C33.6584 45.7346 33.8095 45.4518 33.8801 45.1536C34.0654 45.221 34.2631 45.2563 34.4661 45.2563C34.9233 45.2563 35.3531 45.0782 35.6764 44.7549C35.879 44.5523 36.0245 44.3078 36.1049 44.0408C36.3579 44.1773 36.6381 44.2459 36.9185 44.2459C37.3568 44.2459 37.795 44.0791 38.1287 43.7454C38.6761 43.198 38.7741 42.3692 38.4235 41.7206C38.6853 41.6419 38.9318 41.4995 39.1382 41.2931C39.8055 40.6258 39.8055 39.5399 39.1382 38.8726L35.2647 34.9991L36.118 35.1134C36.2022 35.1247 36.2861 35.1303 36.3695 35.1303C36.7838 35.1303 37.183 34.9925 37.5143 34.7312C37.9124 34.4174 38.1602 33.9669 38.212 33.4627C38.3148 32.4628 37.6154 31.5713 36.6198 31.4332L36.5377 31.4218L36.9942 30.7317L37.5904 30.3401C38.3915 29.8139 39.0656 29.1417 39.5942 28.3425L40.1758 27.4631C40.3244 27.2385 40.2627 26.936 40.0381 26.7874C39.8134 26.6388 39.511 26.7004 39.3623 26.9251L38.7807 27.8046C38.3255 28.4929 37.7448 29.0718 37.0548 29.525L36.375 29.9716C36.3197 30.0079 36.2725 30.055 36.236 30.1101L35.4667 31.2733L28.6341 30.3253L28.3742 30.0655L30.8579 26.3101C30.9164 26.2216 30.9445 26.1163 30.9378 26.0103L30.4181 17.8009C30.388 17.3245 30.7365 16.9145 31.2115 16.8675C31.4508 16.844 31.6841 16.9164 31.8678 17.0719C32.0516 17.2274 32.1618 17.4452 32.1782 17.6854L32.3231 19.8184L32.1454 20.0871C31.9968 20.3118 32.0585 20.6143 32.2831 20.7628C32.3659 20.8176 32.4593 20.8438 32.5517 20.8438C32.7099 20.8438 32.865 20.7669 32.9589 20.6251L37.0449 14.4473C37.1535 14.2832 37.3193 14.1712 37.5121 14.1319C37.7046 14.0927 37.9013 14.1308 38.0653 14.2392C38.404 14.4632 38.4972 14.9209 38.2732 15.2596L35.8202 18.9686C35.6716 19.1932 35.7333 19.4958 35.9579 19.6443C36.1825 19.7928 36.485 19.7312 36.6337 19.5065L39.6496 14.9465C39.7581 14.7825 39.9239 14.6705 40.1167 14.6312C40.3093 14.592 40.5058 14.63 40.6699 14.7385C40.834 14.847 40.9459 15.0129 40.9852 15.2057C41.0246 15.3984 40.9864 15.5948 40.8779 15.7589L38.0341 20.0589C37.8855 20.2835 37.9472 20.586 38.1718 20.7346C38.2546 20.7894 38.348 20.8156 38.4404 20.8156C38.5985 20.8156 38.7537 20.7387 38.8476 20.5969L39.3027 19.9088C39.3027 19.9087 41.1286 17.1479 41.1286 17.1479C41.2371 16.9839 41.403 16.8719 41.5957 16.8326C41.7883 16.7933 41.9849 16.8314 42.149 16.9399C42.4876 17.1639 42.581 17.6216 42.3569 17.9602L40.0759 21.4092C39.9273 21.6338 39.989 21.9363 40.2136 22.0849C40.2964 22.1397 40.3898 22.1659 40.4822 22.1659C40.6403 22.1659 40.7955 22.089 40.8894 21.9472L42.7654 19.1107C42.8739 18.9466 43.0397 18.8347 43.2324 18.7954C43.4251 18.7561 43.6215 18.7942 43.7856 18.9027C43.9497 19.0112 44.0617 19.1771 44.101 19.3698C44.1403 19.5625 44.1022 19.759 43.9937 19.923L40.5802 25.0842C40.4316 25.3088 40.4933 25.6113 40.7179 25.7599C40.8007 25.8147 40.8941 25.8409 40.9865 25.8409C41.1447 25.8409 41.2998 25.764 41.3937 25.6222L43.4656 22.4894H44.6797C44.9491 22.4894 45.1674 22.2711 45.1674 22.0018C45.1674 21.7325 44.9488 21.5142 44.6794 21.5142ZM33.1512 17.6194C33.1169 17.1137 32.8847 16.6549 32.4978 16.3275C32.1108 16.0001 31.6198 15.8473 31.1156 15.8972C30.1152 15.9962 29.3814 16.8595 29.4449 17.8626L29.6761 21.5142H27.8723C27.7661 21.5142 27.6628 21.5489 27.5781 21.613L25.7196 23.0187C25.5047 23.1812 25.4624 23.487 25.6248 23.7018C25.7207 23.8286 25.8665 23.8953 26.0141 23.8953C26.1165 23.8953 26.2198 23.8631 26.3079 23.7965L28.036 22.4894H29.7379L29.9544 25.9087L27.6707 29.3618L23.9151 25.6063L24.6505 25.0501C24.8653 24.8876 24.9077 24.5818 24.7453 24.367C24.5828 24.1523 24.277 24.1098 24.0623 24.2722L21.0177 26.575C20.6369 26.863 20.1028 26.7985 19.8015 26.4281C19.6496 26.2414 19.5815 26.0069 19.6098 25.7679C19.6382 25.5289 19.759 25.3168 19.9504 25.1707L21.6496 23.873H21.9716C22.2409 23.873 22.4592 23.6547 22.4592 23.3854C22.4592 23.1161 22.2409 22.8978 21.9716 22.8978H14.5646C14.1586 22.8978 13.8282 22.5675 13.8282 22.1615C13.8282 21.7555 14.1586 21.4251 14.5646 21.4251H19.0114C19.2807 21.4251 19.499 21.2068 19.499 20.9375C19.499 20.6682 19.2807 20.4499 19.0114 20.4499H13.5444C13.1383 20.4499 12.808 20.1196 12.808 19.7136C12.808 19.3075 13.1383 18.9773 13.5444 18.9773H18.6995C18.9688 18.9773 19.1872 18.7589 19.1872 18.4896C19.1872 18.2204 18.9688 18.002 18.6995 18.002H14.5646C14.1586 18.002 13.8282 17.6717 13.8282 17.2657C13.8282 16.8597 14.1586 16.5294 14.5646 16.5294H18.6995C18.9688 16.5294 19.1872 16.3111 19.1872 16.0418C19.1872 15.7725 18.9688 15.5541 18.6995 15.5541H15.2989C14.8928 15.5541 14.5625 15.2238 14.5625 14.8178C14.5626 14.4119 14.8928 14.0816 15.2989 14.0816H24.7481C25.5735 14.0816 26.3766 14.2466 27.1351 14.572L27.8827 14.8927C27.9435 14.9188 28.0089 14.9322 28.075 14.9322H35.5549L33.2096 18.4783L33.1512 17.6194Z" fill="white"/>
<path d="M18.8303 32.3864C18.9551 32.3864 19.0799 32.3388 19.1751 32.2436C19.3655 32.0532 19.3655 31.7444 19.1751 31.554L12.6651 25.0441C12.4747 24.8536 12.166 24.8536 11.9756 25.0441C11.7852 25.2345 11.7852 25.5433 11.9756 25.7336L18.4856 32.2436C18.5807 32.3388 18.7056 32.3864 18.8303 32.3864Z" fill="white"/>
</g>
<defs>
<clipPath id="clip0_2849_3792">
<rect width="33.3617" height="33.3617" fill="white" transform="translate(11.8191 13.1063)"/>
</clipPath>
</defs>
</svg>
