<svg width="57" height="58" viewBox="0 0 57 58" fill="none" xmlns="http://www.w3.org/2000/svg">
<path d="M1 12.9492C1 6.5979 6.14873 1.44916 12.5 1.44916H44.5C50.8513 1.44916 56 6.59788 56 12.9492V45.8983C56 52.2496 50.8513 57.3983 44.5 57.3983H12.5C6.14873 57.3983 1 52.2496 1 45.8983V12.9492Z" fill="#222A39"/>
<path d="M1 12.9492C1 6.5979 6.14873 1.44916 12.5 1.44916H44.5C50.8513 1.44916 56 6.59788 56 12.9492V45.8983C56 52.2496 50.8513 57.3983 44.5 57.3983H12.5C6.14873 57.3983 1 52.2496 1 45.8983V12.9492Z" stroke="#2E384B"/>
<g clip-path="url(#clip0_2849_3756)">
<path d="M36.5943 16.7707H36.3114V14.8931C36.3114 14.346 36.066 13.8368 35.638 13.4959C35.21 13.1551 34.6587 13.0298 34.1257 13.1522L18.2589 16.7928C18.2577 16.7931 18.2566 16.7935 18.2555 16.7938C17.6045 16.9106 17.1084 17.48 17.1084 18.1641V26.2813C17.1084 26.5517 17.3276 26.771 17.5981 26.771C17.8686 26.771 18.0877 26.5517 18.0877 26.2813V18.1641C18.0877 17.9358 18.2735 17.75 18.5019 17.75H30.3904C30.6609 17.75 30.8801 17.5307 30.8801 17.2603C30.8801 16.9899 30.6609 16.7706 30.3904 16.7706H22.7345L34.3447 14.1066C34.5857 14.0513 34.8347 14.108 35.0279 14.262C35.2212 14.4159 35.332 14.646 35.332 14.8931V16.7706H32.3489C32.0784 16.7706 31.8592 16.9899 31.8592 17.2603C31.8592 17.5307 32.0784 17.75 32.3489 17.75H36.5943C37.321 17.75 37.9122 18.3411 37.9122 19.0679V39.3064C37.9122 39.5768 38.1314 39.796 38.4018 39.796C38.6723 39.796 38.8915 39.5768 38.8915 39.3064V19.0679C38.8915 17.8012 37.861 16.7707 36.5943 16.7707Z" fill="white"/>
<path d="M38.4019 40.7753C38.1314 40.7753 37.9122 40.9946 37.9122 41.265V44.1708C37.9122 44.8975 37.321 45.4887 36.5944 45.4887H18.5019C18.2736 45.4887 18.0877 45.3029 18.0877 45.0745V28.2399C18.0877 27.9695 17.8685 27.7502 17.5981 27.7502C17.3277 27.7502 17.1084 27.9695 17.1084 28.2399V45.0745C17.1084 45.8429 17.7335 46.468 18.5018 46.468H36.5943C37.8609 46.468 38.8914 45.4375 38.8914 44.1708V41.265C38.8916 40.9945 38.6724 40.7753 38.4019 40.7753Z" fill="white"/>
<path d="M27.9807 34.895C31.408 34.895 34.1964 32.1066 34.1964 28.6792C34.1964 25.2518 31.408 22.4634 27.9807 22.4634C24.5533 22.4634 21.7649 25.2518 21.7649 28.6792C21.7649 32.1066 24.5533 34.895 27.9807 34.895ZM27.9807 33.9157C27.4918 33.9157 26.8471 32.8967 26.5105 31.1722H29.4509C29.1142 32.8967 28.4695 33.9157 27.9807 33.9157ZM29.6419 33.644C29.7652 33.4239 29.8799 33.1766 29.9845 32.9029C30.1798 32.3915 30.3352 31.8059 30.4475 31.1722H32.5848C31.9566 32.3274 30.9057 33.22 29.6419 33.644ZM33.2171 28.6792C33.2171 29.2054 33.1383 29.7134 32.9932 30.1929H30.5822C30.6314 29.7038 30.6572 29.1964 30.6572 28.6792C30.6572 28.2118 30.6359 27.7525 30.5956 27.3074H33.0336C33.1525 27.745 33.2171 28.2045 33.2171 28.6792ZM32.6575 26.3281H30.4716C30.3579 25.6398 30.1943 25.0048 29.9844 24.4555C29.8799 24.1818 29.7652 23.9344 29.6418 23.7144C30.9568 24.1555 32.0399 25.1046 32.6575 26.3281ZM27.9807 23.4427C28.4828 23.4427 29.1495 24.5174 29.4777 26.3281H26.4836C26.8118 24.5175 27.4785 23.4427 27.9807 23.4427ZM29.6127 27.3074C29.6544 27.7362 29.6779 28.1941 29.6779 28.6792C29.6779 29.2184 29.6487 29.7237 29.5979 30.1929H26.3635C26.3126 29.7237 26.2835 29.2184 26.2835 28.6792C26.2835 28.1941 26.307 27.7362 26.3487 27.3074H29.6127ZM26.3195 23.7144C26.1961 23.9345 26.0815 24.1818 25.9769 24.4555C25.7671 25.0048 25.6034 25.6398 25.4897 26.3281H23.3038C23.9215 25.1046 25.0046 24.1555 26.3195 23.7144ZM22.7442 28.6792C22.7442 28.2045 22.8088 27.745 22.9277 27.3074H25.3657C25.3254 27.7525 25.3042 28.2118 25.3042 28.6792C25.3042 29.1964 25.33 29.7038 25.3791 30.1929H22.9681C22.823 29.7134 22.7442 29.2054 22.7442 28.6792ZM25.5139 31.1722C25.6262 31.8059 25.7816 32.3915 25.9769 32.9029C26.0815 33.1766 26.1961 33.4239 26.3195 33.644C25.0556 33.2199 24.0047 32.3274 23.3766 31.1722H25.5139Z" fill="white"/>
<path d="M22.2546 37.9327H33.7455C34.0159 37.9327 34.2351 37.7135 34.2351 37.443C34.2351 37.1726 34.0159 36.9534 33.7455 36.9534H22.2546C21.9842 36.9534 21.7649 37.1726 21.7649 37.443C21.7649 37.7135 21.9841 37.9327 22.2546 37.9327Z" fill="white"/>
<path d="M24.4238 39.796C24.1533 39.796 23.9341 40.0152 23.9341 40.2857C23.9341 40.5562 24.1533 40.7754 24.4238 40.7754H31.5765C31.847 40.7754 32.0662 40.5562 32.0662 40.2857C32.0662 40.0152 31.847 39.796 31.5765 39.796H24.4238Z" fill="white"/>
</g>
<defs>
<clipPath id="clip0_2849_3756">
<rect width="33.3617" height="33.3617" fill="white" transform="translate(11.3191 13.1063)"/>
</clipPath>
</defs>
</svg>
