<svg width="49" height="48" viewBox="0 0 49 48" fill="none" xmlns="http://www.w3.org/2000/svg">
<path d="M35.8231 26.8341H30.5731V25.3341C30.5731 24.0934 29.5638 23.0841 28.3231 23.0841H20.8231C19.5824 23.0841 18.5731 24.0934 18.5731 25.3341V26.8341H13.3231C12.0824 26.8341 11.0731 27.8434 11.0731 29.0841V34.3341C11.0731 35.5543 11.6679 36.6297 12.5731 37.3149V44.0841C12.5731 45.3248 13.5824 46.3341 14.8231 46.3341H34.3231C35.5638 46.3341 36.5731 45.3248 36.5731 44.0841V37.3149C37.4784 36.6297 38.0731 35.5543 38.0731 34.3341V29.0841C38.0731 27.8434 37.0638 26.8341 35.8231 26.8341ZM20.0731 25.3341C20.0731 24.9203 20.4097 24.5841 20.8231 24.5841H28.3231C28.7369 24.5841 29.0731 24.9203 29.0731 25.3341V26.8341H20.0731V25.3341ZM35.0731 44.0841C35.0731 44.4979 34.7369 44.8341 34.3231 44.8341H14.8231C14.4097 44.8341 14.0731 44.4979 14.0731 44.0841V38.0083C14.3156 38.0577 14.5663 38.0841 14.8231 38.0841H21.5731V38.8341C21.5731 40.0748 22.5824 41.0841 23.8231 41.0841H25.3231C26.5638 41.0841 27.5731 40.0748 27.5731 38.8341V38.0841H34.3231C34.5799 38.0841 34.8307 38.0577 35.0731 38.0083V44.0841ZM23.0731 38.8341V35.8341C23.0731 35.4203 23.4097 35.0841 23.8231 35.0841H25.3231C25.7369 35.0841 26.0731 35.4203 26.0731 35.8341V38.8341C26.0731 39.2479 25.7369 39.5841 25.3231 39.5841H23.8231C23.4097 39.5841 23.0731 39.2479 23.0731 38.8341ZM36.5731 34.3341C36.5731 35.5748 35.5638 36.5841 34.3231 36.5841H27.5731V35.8341C27.5731 34.5934 26.5638 33.5841 25.3231 33.5841H23.8231C22.5824 33.5841 21.5731 34.5934 21.5731 35.8341V36.5841H14.8231C13.5824 36.5841 12.5731 35.5748 12.5731 34.3341V29.0841C12.5731 28.6703 12.9097 28.3341 13.3231 28.3341H19.3231H29.8231H35.8231C36.2369 28.3341 36.5731 28.6703 36.5731 29.0841V34.3341ZM20.8521 9.29333L20.2302 12.9174C20.1823 13.1986 20.298 13.4828 20.5287 13.6505C20.6594 13.7457 20.8143 13.7941 20.9696 13.7941C21.089 13.7941 21.2087 13.7655 21.3186 13.7076L24.5731 11.9967L27.8273 13.7076C28.08 13.8409 28.3861 13.819 28.6176 13.6505C28.8483 13.4828 28.964 13.1986 28.9157 12.9174L28.2946 9.29333L30.9276 6.7262C31.132 6.52698 31.2052 6.22888 31.1173 5.95789C31.0287 5.68616 30.7943 5.4884 30.5116 5.44739L26.8729 4.91858L25.2459 1.62122C24.9932 1.10852 24.1531 1.10852 23.9004 1.62122L22.2733 4.91858L18.6346 5.44739C18.3519 5.4884 18.1172 5.68616 18.0289 5.95789C17.9407 6.22888 18.0143 6.52698 18.2186 6.7262L20.8521 9.29333ZM22.879 6.34607C23.1237 6.31091 23.3346 6.1571 23.4441 5.93591L24.5731 3.64783L25.7025 5.93591C25.8117 6.1571 26.0226 6.31091 26.2672 6.34607L28.7926 6.71301L26.9652 8.49426C26.7887 8.66638 26.7081 8.91467 26.7499 9.15784L27.1805 11.673L24.9221 10.4857C24.813 10.4279 24.6929 10.3993 24.5731 10.3993C24.4534 10.3993 24.3333 10.4279 24.2241 10.4857L21.9657 11.673L22.3971 9.15784C22.4385 8.91467 22.3579 8.66638 22.1814 8.49426L20.354 6.71301L22.879 6.34607ZM45.5365 12.7079C45.4479 12.4362 45.2135 12.2384 44.9308 12.1974L41.2921 11.6686L39.6647 8.37122C39.4127 7.85852 38.5719 7.85852 38.32 8.37122L36.6925 11.6686L33.0538 12.1974C32.7711 12.2384 32.5367 12.4362 32.4481 12.7079C32.3602 12.9789 32.4335 13.277 32.6378 13.4762L35.2709 16.0433L34.6498 19.6674C34.6014 19.9486 34.7172 20.2328 34.9479 20.4005C35.1801 20.569 35.4862 20.5909 35.7382 20.4576L38.9923 18.7467L42.2465 20.4576C42.3563 20.5155 42.4764 20.5441 42.5958 20.5441C42.7511 20.5441 42.9056 20.4957 43.0367 20.4005C43.2675 20.2328 43.3832 19.9486 43.3348 19.6674L42.713 16.0433L45.3468 13.4762C45.5512 13.277 45.6244 12.9789 45.5365 12.7079ZM41.3837 15.2443C41.2072 15.4164 41.1266 15.6647 41.1683 15.9078L41.5997 18.423L39.3417 17.2357C39.122 17.12 38.8627 17.12 38.6429 17.2357L36.3849 18.423L36.8156 15.9078C36.8573 15.6647 36.7767 15.4164 36.6002 15.2443L34.7728 13.463L37.2982 13.0961C37.5429 13.0609 37.7538 12.9071 37.8629 12.6859L38.9923 10.3978L40.1217 12.6859C40.2308 12.9071 40.4418 13.0609 40.6864 13.0961L43.2111 13.463L41.3837 15.2443ZM13.9266 20.5441C14.0819 20.5441 14.2368 20.4957 14.3676 20.4005C14.5983 20.2328 14.714 19.9486 14.666 19.6674L14.0442 16.0433L16.6776 13.4762C16.882 13.277 16.9556 12.9789 16.8673 12.7079C16.7791 12.4362 16.5443 12.2384 16.2616 12.1974L12.6229 11.6686L10.9959 8.37122C10.7432 7.85852 9.90308 7.85852 9.6504 8.37122L8.02332 11.6686L4.38465 12.1974C4.10193 12.2384 3.86719 12.4362 3.77894 12.7079C3.69068 12.9789 3.76429 13.277 3.96863 13.4762L6.60206 16.0433L5.98023 19.6674C5.93226 19.9486 6.04798 20.2328 6.27869 20.4005C6.5105 20.569 6.81629 20.5909 7.06861 20.4576L10.3231 18.7467L13.5776 20.4576C13.6875 20.5155 13.8073 20.5441 13.9266 20.5441ZM10.6721 17.2357C10.563 17.1779 10.4429 17.1493 10.3231 17.1493C10.2034 17.1493 10.0833 17.1779 9.97413 17.2357L7.7157 18.423L8.1471 15.9078C8.18848 15.6647 8.10791 15.4164 7.9314 15.2443L6.10401 13.463L8.62903 13.0961C8.87366 13.0609 9.0846 12.9071 9.1941 12.6859L10.3231 10.3978L11.4522 12.6859C11.5617 12.9071 11.7726 13.0609 12.0172 13.0961L14.5422 13.463L12.7148 15.2443C12.5383 15.4164 12.4578 15.6647 12.4992 15.9078L12.9305 18.423L10.6721 17.2357Z" fill="#9473F2"/>
</svg>
