<svg width="49" height="48" viewBox="0 0 49 48" fill="none" xmlns="http://www.w3.org/2000/svg">
<path d="M47.4247 15.6956L29.045 3.15188C28.9044 3.05625 28.7356 3.01032 28.5659 3.02344L6.38188 4.69782C6.06406 4.72125 5.79688 4.94344 5.71438 5.25094C5.63188 5.55844 5.75281 5.88469 6.01531 6.06375L12.8366 10.7203L10.8078 18.2963H9.28063C6.93781 18.2963 5.03094 20.2022 5.03094 22.5459V28.1372C5.03094 29.1853 5.41344 30.1463 6.04531 30.8878H5.50156C3.15687 30.8878 1.25 32.7938 1.25 35.1375V40.7259C1.25 43.0706 3.15781 44.9784 5.50156 44.9784H41.3056C41.7191 44.9784 42.0547 44.6428 42.0547 44.2294V41.1816C42.0547 40.7672 41.7191 40.4325 41.3056 40.4325H39.9453V35.4366H41.3056C41.7191 35.4366 42.0547 35.1009 42.0547 34.6875V31.6397C42.0547 31.2253 41.7191 30.8906 41.3056 30.8906H34.9147V28.5919C34.9147 28.1775 34.5791 27.8428 34.1656 27.8428H32.8081V26.5041L35.9487 26.3719C36.2759 26.3578 36.5563 26.1338 36.6416 25.8169L38.8184 17.6859L47.0581 17.0644C47.3759 17.0409 47.6431 16.8188 47.7256 16.5113C47.8081 16.2038 47.6872 15.8775 47.4238 15.6984L47.4247 15.6956ZM38.4481 37.1841H18.0359C17.6216 37.1841 17.2869 37.5197 17.2869 37.9331C17.2869 38.3466 17.6225 38.6822 18.0359 38.6822H38.4481V40.4306H5.79781V35.4347H38.4472V37.1831L38.4481 37.1841ZM40.5584 33.9366H5.53437C4.86406 33.9366 4.29875 34.4869 4.29875 35.1375V40.7259C4.29875 41.3784 4.865 41.9297 5.53437 41.9297H40.5575V43.4794H5.5025C3.98469 43.4794 2.74906 42.2447 2.74906 40.7259V35.1375C2.74906 33.6206 3.98375 32.3869 5.5025 32.3869H40.5575V33.9356L40.5584 33.9366ZM33.4175 30.8888H9.28156C7.76469 30.8888 6.53094 29.655 6.53094 28.1381V22.5469C6.53094 21.03 7.76469 19.7963 9.28156 19.7963H11.1659L13.6062 21.3459H9.31344C8.64313 21.3459 8.07781 21.8963 8.07781 22.5469V28.1381C8.07781 28.7897 8.64406 29.3391 9.31344 29.3391H33.4166V30.8888H33.4175ZM31.31 27.8409H9.57687V22.845H15.9678L22.2181 26.8125C22.3381 26.8884 22.4778 26.9297 22.6194 26.9297H22.6503L31.3091 26.5659V27.8419L31.31 27.8409ZM35.3366 24.8963L22.8237 25.4213L16.6062 21.4744C16.6062 21.4744 16.6034 21.4725 16.6025 21.4725L12.2506 18.7097L14.15 11.6175L24.3931 18.6094C24.5178 18.6947 24.665 18.7397 24.8159 18.7397C24.8347 18.7397 24.8534 18.7397 24.8722 18.7378L31.1881 18.2616L30.2197 21.8766C30.1128 22.2759 30.35 22.6875 30.7494 22.7944C30.8141 22.8122 30.8797 22.8197 30.9434 22.8197C31.2744 22.8197 31.5772 22.5984 31.6672 22.2638L32.7716 18.1416L37.2359 17.805L35.3366 24.8972V24.8963ZM32.6197 16.6491L27.2909 10.395C27.0228 10.08 26.5494 10.0425 26.2344 10.3106C25.9194 10.5788 25.8819 11.0522 26.15 11.3672L30.77 16.7888L25.0212 17.2228L8.62625 6.03188L28.4169 4.53844L44.8128 15.7284L32.6188 16.6481L32.6197 16.6491Z" fill="#9473F2"/>
</svg>
