<svg width="81" height="81" viewBox="0 0 81 81" fill="none" xmlns="http://www.w3.org/2000/svg">
<path d="M0.666016 16.9238C0.666016 8.08727 7.82946 0.923828 16.666 0.923828H64.666C73.5026 0.923828 80.666 8.08727 80.666 16.9238V64.9238C80.666 73.7604 73.5026 80.9238 64.666 80.9238H16.666C7.82946 80.9238 0.666016 73.7604 0.666016 64.9238V16.9238Z" fill="#C4D8FE"/>
<g clip-path="url(#clip0_3167_4093)">
<path fill-rule="evenodd" clip-rule="evenodd" d="M28.0028 42.778C25.3752 42.778 23.2451 44.9081 23.2451 47.5358C23.2451 50.1634 25.3752 52.2935 28.0028 52.2935C30.6304 52.2935 32.7605 50.1634 32.7605 47.5358C32.7605 44.9081 30.6304 42.778 28.0028 42.778ZM42.8482 27.0075C43.3235 26.5296 44.0963 26.5274 44.5743 27.0027C45.0522 27.478 45.0544 28.2508 44.579 28.7288L40.5026 32.8435C40.0305 33.3183 39.2649 33.3234 38.7863 32.8577L36.7694 30.8919C36.2862 30.4219 36.2755 29.6491 36.7455 29.1659C37.2154 28.6827 37.9882 28.672 38.4714 29.142L39.6222 30.2638L42.8482 27.0075ZM50.3934 35.6759C52.1791 35.0577 52.997 32.5401 51.9159 30.9903C51.461 30.3384 51.4609 29.5126 51.9158 28.8607C52.9971 27.311 52.1791 24.7932 50.3935 24.1749C49.6423 23.9149 49.1569 23.2469 49.1417 22.4521C49.1056 20.5629 46.9639 19.0067 45.1559 19.5561C44.3953 19.7873 43.6099 19.5322 43.1305 18.898C41.9909 17.3908 39.3435 17.3907 38.2037 18.8979C37.7242 19.5321 36.9389 19.7874 36.1783 19.5562C34.3703 19.0067 32.2285 20.5628 32.1924 22.452C32.1772 23.2468 31.692 23.9149 30.9407 24.1749C29.155 24.793 28.3369 27.3109 29.4181 28.8606C29.8729 29.5125 29.873 30.3383 29.4182 30.9902C28.3369 32.5399 29.1549 35.0577 30.9406 35.6759C31.6918 35.936 32.1772 36.6039 32.1924 37.3988C32.2285 39.288 34.3702 40.8442 36.1782 40.2947C36.9388 40.0635 37.7241 40.3186 38.2037 40.9527C39.3434 42.46 41.9908 42.46 43.1305 40.9528C43.61 40.3187 44.3953 40.0635 45.1559 40.2947C46.9639 40.8442 49.1057 39.2881 49.1418 37.3989C49.1569 36.6039 49.6421 35.936 50.3934 35.6759ZM40.6669 23.1052C36.9002 23.1052 33.8466 26.1588 33.8466 29.9255C33.8466 33.6922 36.9002 36.7458 40.6669 36.7458C44.4337 36.7458 47.4873 33.6922 47.4873 29.9255C47.4873 26.1587 44.4337 23.1052 40.6669 23.1052ZM31.2233 63.3701C31.5894 58.4898 35.6972 54.6099 40.667 54.6099C45.6369 54.6099 49.7446 58.4898 50.1108 63.3701C50.1397 63.7557 49.8386 64.0802 49.452 64.0802H31.8821C31.4955 64.0802 31.1944 63.7557 31.2233 63.3701ZM40.6669 43.8791C37.8402 43.8791 35.5486 46.1707 35.5486 48.9975C35.5486 51.8243 37.8401 54.1158 40.6669 54.1158C43.4937 54.1158 45.7853 51.8243 45.7853 48.9975C45.7853 46.1707 43.4938 43.8791 40.6669 43.8791ZM47.1841 55.2696C49.227 56.785 50.7344 58.9938 51.3421 61.5559H61.4971C61.8565 61.5559 62.1364 61.2543 62.1094 60.8959C61.7691 56.3594 57.9508 52.7529 53.3311 52.7529C50.9455 52.7529 48.7737 53.7147 47.1841 55.2696ZM19.2244 60.8959C19.1975 61.2543 19.4774 61.5559 19.8369 61.5559H29.992C30.5996 58.9939 32.107 56.785 34.1499 55.2697C32.5603 53.7147 30.3885 52.7529 28.0029 52.7529C23.3831 52.7529 19.5648 56.3594 19.2244 60.8959ZM53.3311 42.778C50.7034 42.778 48.5733 44.9081 48.5733 47.5358C48.5733 50.1634 50.7034 52.2935 53.3311 52.2935C55.9587 52.2935 58.0888 50.1634 58.0888 47.5358C58.0888 44.9081 55.9587 42.778 53.3311 42.778Z" fill="#4F8AFB"/>
</g>
<defs>
<clipPath id="clip0_3167_4093">
<rect width="48" height="48" fill="white" transform="translate(16.666 16.9238)"/>
</clipPath>
</defs>
</svg>
