<svg width="80" height="81" viewBox="0 0 80 81" fill="none" xmlns="http://www.w3.org/2000/svg">
<path d="M0 16.9238C0 8.08727 7.16344 0.923828 16 0.923828H64C72.8366 0.923828 80 8.08727 80 16.9238V64.9238C80 73.7604 72.8366 80.9238 64 80.9238H16C7.16344 80.9238 0 73.7604 0 64.9238V16.9238Z" fill="#C4D8FE"/>
<path d="M44.05 40.1719H35.9492C35.535 40.1719 35.1992 40.5077 35.1992 40.9219V61.1719C35.1992 61.5861 35.535 61.9219 35.9492 61.9219H44.05C44.4642 61.9219 44.8 61.5861 44.8 61.1719V40.9219C44.8 40.5077 44.4642 40.1719 44.05 40.1719Z" fill="#4F8AFB"/>
<path d="M44.5226 30.0811L48.0191 26.7316C48.1202 26.6348 48.1923 26.5116 48.2271 26.376C48.2619 26.2404 48.2581 26.0978 48.216 25.9642C48.1739 25.8307 48.0953 25.7116 47.9891 25.6204C47.8828 25.5293 47.7532 25.4696 47.6148 25.4483L42.8291 24.7103L40.7231 20.3498C40.6625 20.2234 40.5677 20.1165 40.4495 20.0412C40.3312 19.9659 40.1942 19.9252 40.0541 19.9238H40.0481C39.9092 19.9238 39.773 19.9624 39.6548 20.0352C39.5365 20.1081 39.4408 20.2123 39.3783 20.3363L37.1981 24.6593L32.3981 25.3148C32.2595 25.3338 32.1291 25.3912 32.0214 25.4804C31.9137 25.5697 31.8332 25.6872 31.7888 25.8198C31.7444 25.9524 31.738 26.0948 31.7702 26.2309C31.8025 26.3669 31.8721 26.4913 31.9713 26.5898L35.4101 29.9993L34.5491 34.7648C34.524 34.9027 34.5381 35.0448 34.5897 35.1751C34.6414 35.3053 34.7284 35.4185 34.8411 35.5018C34.9537 35.5851 35.0875 35.6352 35.2272 35.6464C35.3668 35.6576 35.5068 35.6294 35.6313 35.5651L39.9386 33.3488L44.2008 35.6423C44.3241 35.7085 44.4635 35.7389 44.6032 35.73C44.7429 35.7211 44.8773 35.6733 44.9913 35.592C45.1052 35.5107 45.1941 35.3991 45.2479 35.2699C45.3018 35.1407 45.3183 34.999 45.2958 34.8608L44.5226 30.0811Z" fill="#4F8AFB"/>
<path d="M19 55.1738V61.1738C19 61.3727 19.079 61.5635 19.2197 61.7042C19.3603 61.8448 19.5511 61.9238 19.75 61.9238H25.6V54.4238H19.75C19.5511 54.4238 19.3603 54.5028 19.2197 54.6435C19.079 54.7841 19 54.9749 19 55.1738Z" fill="#4F8AFB"/>
<path d="M60.2504 54.4238H54.4004V61.9238H60.2504C60.4493 61.9238 60.6401 61.8448 60.7807 61.7042C60.9214 61.5635 61.0004 61.3727 61.0004 61.1738V55.1738C61.0004 54.9749 60.9214 54.7841 60.7807 54.6435C60.6401 54.5028 60.4493 54.4238 60.2504 54.4238Z" fill="#4F8AFB"/>
<path d="M27.0996 48.4238V61.1738C27.0996 61.3727 27.1786 61.5635 27.3193 61.7042C27.4599 61.8448 27.6507 61.9238 27.8496 61.9238H33.6996V47.6738H27.8496C27.6507 47.6738 27.4599 47.7528 27.3193 47.8935C27.1786 48.0341 27.0996 48.2249 27.0996 48.4238Z" fill="#4F8AFB"/>
<path d="M52.1508 47.6738H46.3008V61.9238H52.1508C52.3497 61.9238 52.5405 61.8448 52.6811 61.7042C52.8218 61.5635 52.9008 61.3727 52.9008 61.1738V48.4238C52.9008 48.2249 52.8218 48.0341 52.6811 47.8935C52.5405 47.7528 52.3497 47.6738 52.1508 47.6738Z" fill="#4F8AFB"/>
</svg>
