<svg width="81" height="81" viewBox="0 0 81 81" fill="none" xmlns="http://www.w3.org/2000/svg">
<path d="M0.333984 16.9238C0.333984 8.08727 7.49743 0.923828 16.334 0.923828H64.334C73.1705 0.923828 80.334 8.08727 80.334 16.9238V64.9238C80.334 73.7604 73.1705 80.9238 64.334 80.9238H16.334C7.49743 80.9238 0.333984 73.7604 0.333984 64.9238V16.9238Z" fill="#C4D8FE"/>
<g clip-path="url(#clip0_3167_4109)">
<path d="M59.9148 19.9238H38.8265C36.3861 19.9238 34.4082 21.9021 34.4082 24.3422V34.7297C35.5229 35.2838 36.7274 35.8829 37.8517 36.4418L39.5718 33.0001C40.6133 30.9189 43.1522 30.0734 45.2327 31.113C47.3175 32.1564 48.1624 34.6884 47.1187 36.7736L44.0524 42.9076C44.1337 43.7195 44.0615 44.538 43.8326 45.3301H45.8571L40.5177 60.0122C40.2009 60.8831 40.8132 61.8993 41.8397 61.8993C42.4136 61.8993 42.9534 61.5452 43.1606 60.9731L48.8494 45.3301H49.8348L55.5814 60.9779C55.7905 61.547 56.3289 61.8993 56.9023 61.8993C57.8615 61.8993 58.5646 60.9413 58.2214 60.0085L52.8308 45.3301H59.9148C62.3549 45.3301 64.3331 43.3518 64.3331 40.9117V24.3422C64.3331 21.9021 62.3549 19.9238 59.9148 19.9238ZM56.9016 39.3055H50.5922C49.8158 39.3055 49.1859 38.6757 49.1859 37.8993C49.1859 37.1222 49.8158 36.493 50.5922 36.493H56.9016C57.6787 36.493 58.3079 37.1222 58.3079 37.8993C58.3079 38.6757 57.6787 39.3055 56.9016 39.3055ZM56.9016 34.0332H50.5922C49.8158 34.0332 49.1859 33.4041 49.1859 32.627C49.1859 31.8506 49.8158 31.2207 50.5922 31.2207H56.9016C57.6787 31.2207 58.3079 31.8506 58.3079 32.627C58.3079 33.4041 57.6787 34.0332 56.9016 34.0332ZM56.9016 28.7616H41.8397C41.0626 28.7616 40.4335 28.1317 40.4335 27.3553C40.4335 26.579 41.0626 25.9491 41.8397 25.9491H56.9016C57.6787 25.9491 58.3079 26.579 58.3079 27.3553C58.3079 28.1317 57.6787 28.7616 56.9016 28.7616Z" fill="#4F8AFB"/>
<path d="M41.0767 44.7269C41.3308 43.9824 41.329 43.2046 41.1144 42.4949L44.6044 35.5156C44.9515 34.8209 44.6703 33.9761 43.9756 33.6289C43.2812 33.2814 42.4364 33.563 42.0889 34.2577L39.1123 40.2101C37.3333 39.3242 34.6302 37.9802 32.4528 36.8973C30.4269 35.8899 28.9811 34.9865 26.5143 34.9865H25.2717C27.1925 34.9865 28.9067 34.1024 30.0288 32.7189C30.885 31.666 31.397 30.3242 31.397 28.8619C31.397 25.4785 28.6548 22.7363 25.271 22.7363C21.8887 22.7363 19.1465 25.4785 19.1465 28.8619C19.1465 30.4868 19.7793 31.9634 20.8116 33.0591C21.9279 34.246 23.5132 34.9865 25.2706 34.9868C22.9144 34.9868 20.611 35.9415 18.9539 37.603C17.2645 39.288 16.334 41.5328 16.334 43.9242V48.4429C16.334 50.3882 17.597 52.0435 19.3464 52.6323V60.4927C19.3464 61.2694 19.976 61.8989 20.7527 61.8989H29.79C30.5668 61.8989 31.1963 61.2694 31.1963 60.4927V44.6925C32.5297 45.359 34.2812 46.2346 35.6985 46.9436C36.692 47.4402 37.8529 47.4849 38.8882 47.0637C39.9205 46.6389 40.7163 45.7933 41.0712 44.7434C41.073 44.7379 41.0748 44.7324 41.0767 44.7269Z" fill="#4F8AFB"/>
</g>
<defs>
<clipPath id="clip0_3167_4109">
<rect width="48" height="48" fill="white" transform="translate(16.334 16.9238)"/>
</clipPath>
</defs>
</svg>
