<svg width="80" height="80" viewBox="0 0 80 80" fill="none" xmlns="http://www.w3.org/2000/svg">
<path d="M0 16C0 7.16344 7.16344 0 16 0H64C72.8366 0 80 7.16344 80 16V64C80 72.8366 72.8366 80 64 80H16C7.16344 80 0 72.8366 0 64V16Z" fill="#FDF4DF"/>
<g clip-path="url(#clip0_3072_3463)">
<path d="M47.0818 60.0359C47.4522 59.9558 47.8126 60.2361 47.8126 60.6265V63.2492C47.8126 63.6797 47.4622 64 47.0017 64H32.7869C32.3465 64 31.9961 63.5896 31.9961 63.1491V60.5864C31.9961 60.196 32.3565 59.9157 32.7269 60.0058C36.9913 60.9768 42.7273 60.9969 47.0818 60.0359Z" fill="#D8A123"/>
<path d="M40.004 24.2086C39.5635 24.2086 39.2031 23.8482 39.2031 23.4077V16.8008C39.2031 16.3604 39.5635 16 40.004 16C40.4444 16 40.8048 16.3604 40.8048 16.8008V23.4077C40.8048 23.8482 40.4444 24.2086 40.004 24.2086Z" fill="#D8A123"/>
<path d="M29.8647 24.4188C29.5945 24.4188 29.3342 24.2887 29.184 24.0384L27.1119 20.6849C26.8816 20.3045 26.9917 19.814 27.3721 19.5838C27.7525 19.3535 28.243 19.4637 28.4733 19.8441L30.5454 23.1976C30.8758 23.7281 30.4854 24.4188 29.8647 24.4188Z" fill="#D8A123"/>
<path d="M48.7346 26.6912C48.1139 26.6912 47.7235 26.0004 48.0539 25.4699L50.0359 22.2665C50.2662 21.8861 50.7667 21.776 51.1371 22.0063C51.5175 22.2365 51.6276 22.737 51.3974 23.1074L49.4153 26.3108C49.2651 26.551 49.0049 26.6912 48.7346 26.6912Z" fill="#D8A123"/>
<path d="M25.33 32.1869L21.9565 30.1748C21.5761 29.9445 21.4559 29.454 21.6762 29.0736C21.9064 28.6932 22.3969 28.5731 22.7773 28.7933L26.1508 30.8054C26.5312 31.0357 26.6513 31.5262 26.4311 31.9066C26.1909 32.297 25.7004 32.4171 25.33 32.1869Z" fill="#D8A123"/>
<path d="M17.4311 46.2915C17.0707 46.2915 16.7404 46.0412 16.6503 45.6809C16.5502 45.2504 16.8105 44.82 17.2409 44.7099L23.6576 43.1582C24.088 43.0581 24.5185 43.3184 24.6286 43.7489C24.7387 44.1793 24.4684 44.6097 24.038 44.7199C17.0307 46.4116 17.5613 46.2915 17.4311 46.2915Z" fill="#D8A123"/>
<path d="M55.2998 30.8755C55.0695 30.4951 55.1996 30.0046 55.58 29.7744L59.5241 27.4219C59.9045 27.1917 60.3951 27.3218 60.6253 27.7022C60.8555 28.0826 60.7254 28.5731 60.345 28.8034L56.4009 31.1558C56.0205 31.3861 55.53 31.2659 55.2998 30.8755Z" fill="#D8A123"/>
<path d="M62.5685 46.2915C62.4284 46.2915 62.9789 46.4116 55.9616 44.7099C55.5312 44.6097 55.2709 44.1693 55.371 43.7388C55.4711 43.3084 55.9116 43.0481 56.342 43.1482L62.7587 44.6998C63.1891 44.7999 63.4494 45.2404 63.3493 45.6709C63.2592 46.0412 62.9389 46.2915 62.5685 46.2915Z" fill="#D8A123"/>
<path d="M52.1174 54.8404C52.1174 56.2819 50.5658 57.3631 48.2434 58.0838C43.6186 59.5053 36.381 59.4953 31.7762 58.0838C30.1245 57.5733 27.9022 56.5722 27.9022 54.8404C27.9022 53.9895 28.4428 53.2187 29.4939 52.5781C29.8943 52.3378 30.4048 52.6281 30.4048 53.0886V53.5691C30.4048 53.7693 30.3047 53.9495 30.1445 54.0696C29.6941 54.38 29.5039 54.6502 29.5039 54.8404C29.5039 55.1007 29.8142 55.4411 30.4048 55.7814C30.8553 56.0417 31.3958 56.2719 32.0065 56.4821V52.0675C32.0065 47.1524 27.3917 45.5407 27.0513 40.8659C26.8711 38.4434 26.9212 35.1399 28.4428 33.2479C30.0644 31.2258 33.1176 30.7353 35.3099 32.377C35.7003 32.6673 35.8505 32.8475 36.9116 33.9086C38.5533 35.5603 38.8436 35.8507 38.8536 35.8607C39.234 36.2411 39.5343 36.9318 39.5043 37.6225C39.4642 38.8237 38.5933 39.7447 37.4622 40.005C34.6092 40.5756 32.8874 38.9239 32.8173 38.9239C32.507 38.6836 32.0665 38.7236 31.7862 39.0039C31.3958 39.4044 31.4959 39.9249 31.8363 40.1952C33.0175 41.1061 34.399 41.6367 35.8405 41.7268C36.1208 41.7468 36.351 41.957 36.391 42.2273C36.4511 42.5877 36.4711 42.9581 36.4511 43.3184C36.4311 43.7689 36.7915 44.1493 37.2519 44.1493C37.6824 44.1493 38.0327 43.8089 38.0528 43.3785C38.0728 42.938 38.0428 42.4976 37.9827 42.0571C37.9427 41.7768 38.1028 41.5065 38.3731 41.4164C39.3341 41.0761 40.1349 40.3754 40.6154 39.4744C40.7756 39.1841 41.136 39.074 41.4263 39.2342C42.3973 39.7547 43.4984 39.9249 44.5595 39.7747C44.7698 39.7447 44.99 39.8248 45.1201 39.995C46.5116 41.7868 48.9341 42.3174 50.8961 41.4265C51.3466 41.2162 51.8371 41.6267 51.727 42.1172C50.6659 46.6019 47.873 47.1024 47.8229 52.8383V56.5422C48.4236 56.352 48.9641 56.1418 49.4246 55.8915C50.1554 55.5111 50.5258 55.1307 50.5258 54.8404C50.5258 54.6302 50.2855 54.3099 49.7149 53.9495C49.5347 53.8394 49.4246 53.6492 49.4246 53.439C49.4246 53.2788 49.4246 53.1286 49.4246 52.9685C49.4246 52.518 49.9151 52.2177 50.3155 52.4379C51.4968 53.1186 52.1174 53.9195 52.1174 54.8404Z" fill="#D8A123"/>
<path d="M45.7297 28.1627V37.3723C45.7297 37.5625 45.6196 37.7327 45.4495 37.8228C44.4284 38.3333 43.2171 38.3333 42.2061 37.8228C42.0359 37.7327 41.9258 37.5625 41.9258 37.3723V28.1727C41.9258 27.1216 42.7767 26.2507 43.8278 26.2407H43.8678C44.8889 26.2507 45.7297 27.1417 45.7297 28.1627Z" fill="#D8A123"/>
<path d="M34.8801 28.1127V29.6042C34.8801 29.9346 34.5598 30.1848 34.2395 30.0847C33.6288 29.8945 32.9882 29.8044 32.3275 29.8044C32.0972 29.8044 31.867 29.8144 31.6368 29.8445C31.3364 29.8745 31.0762 29.6443 31.0762 29.344V28.1227C31.0762 27.0716 31.9271 26.2007 32.9782 26.1907H33.0182C34.0493 26.2007 34.8801 27.0916 34.8801 28.1127Z" fill="#D8A123"/>
<path d="M52.1168 32.3971V37.0619C52.1168 39.4044 49.6942 40.8759 47.6421 39.985C47.4619 39.9049 47.3418 39.7247 47.3418 39.5245V32.387C47.3418 29.2838 52.0067 29.1537 52.1168 32.2569C52.1068 32.307 52.1168 32.357 52.1168 32.3971Z" fill="#D8A123"/>
<path d="M40.3254 27.8923V33.8786C40.3254 34.329 39.7849 34.5493 39.4746 34.2289C39.1642 33.9086 38.7038 33.4581 38.0331 32.7874C37.3123 32.0567 36.982 31.7163 36.6917 31.4561C36.5815 31.3559 36.5215 31.2258 36.5215 31.0857V27.9023C36.5215 26.8513 37.3724 25.9803 38.4235 25.9703C39.5046 25.9703 40.3254 26.8913 40.3254 27.8923Z" fill="#D8A123"/>
</g>
<defs>
<clipPath id="clip0_3072_3463">
<rect width="48" height="48" fill="white" transform="translate(16 16)"/>
</clipPath>
</defs>
</svg>
