<svg width="80" height="80" viewBox="0 0 80 80" fill="none" xmlns="http://www.w3.org/2000/svg">
<path d="M0 16C0 7.16344 7.16344 0 16 0H64C72.8366 0 80 7.16344 80 16V64C80 72.8366 72.8366 80 64 80H16C7.16344 80 0 72.8366 0 64V16Z" fill="#FBEAF6"/>
<path d="M34.3416 42.4728C34.7271 42.32 35.1344 42.24 35.5489 42.24H43.0544C44.5089 42.24 45.6871 41.0618 45.6871 39.6073V24.3782C45.6871 22.9237 44.5089 21.7455 43.0544 21.7455H20.8144C19.3598 21.7455 18.1816 22.9237 18.1816 24.3782V39.6073C18.1816 41.0618 19.3598 42.24 20.8144 42.24H21.9635C23.4689 42.24 24.7925 43.2582 25.1707 44.72L25.9271 47.6218C26.0071 47.9128 26.218 48.1382 26.5016 48.2328C26.7853 48.3273 27.0907 48.2691 27.3235 48.0728L33.4325 43.0037C33.6944 42.7855 33.9853 42.6255 34.2907 42.4946C34.3125 42.4873 34.3271 42.48 34.3416 42.4728ZM28.2035 37.7891C27.9126 37.7891 27.6798 37.5564 27.6798 37.2655V30.5018C27.6798 28.1528 29.5853 26.2473 31.9344 26.2473C34.2835 26.2473 36.1889 28.1528 36.1889 30.5018V37.2655C36.1889 37.5564 35.9562 37.7891 35.6653 37.7891C35.3744 37.7891 35.1416 37.5564 35.1416 37.2655V33.4546H28.7271V37.2655C28.7271 37.5564 28.4944 37.7891 28.2035 37.7891Z" fill="#B64F97"/>
<path d="M48.4357 44.8874C49.6212 43.6146 50.1012 42.1601 50.283 41.3746H46.5957C46.7702 42.1601 47.2502 43.6146 48.4357 44.8874Z" fill="#B64F97"/>
<path d="M59.2651 33.1927H46.7341V39.6073C46.7341 39.8546 46.7051 40.0946 46.6614 40.3273H47.9051V37.4546C47.9051 37.1637 48.1378 36.9309 48.4287 36.9309C48.7196 36.9309 48.9523 37.1637 48.9523 37.4546V40.3273H52.6978C52.9887 40.3273 53.2214 40.56 53.2214 40.8509C53.2214 41.1418 52.9887 41.3746 52.6978 41.3746H51.3378C51.1632 42.2037 50.6323 44.0073 49.1851 45.5782C50.0869 46.2982 51.2723 46.8873 52.8651 47.1491C53.1487 47.1927 53.3451 47.4691 53.2941 47.7527C53.2505 48.0073 53.0323 48.1891 52.7778 48.1891C52.7487 48.1891 52.7196 48.1891 52.6905 48.1818C50.8287 47.8764 49.4614 47.1564 48.4214 46.2909C47.3887 47.1564 46.0141 47.8764 44.1523 48.1818C44.1232 48.1891 44.0941 48.1891 44.0651 48.1891C43.8105 48.1891 43.5923 48.0073 43.5487 47.7527C43.5051 47.4691 43.6941 47.2 43.9778 47.1491C45.5705 46.8873 46.756 46.2909 47.6578 45.5782C46.5596 44.3855 45.9923 43.0618 45.7087 42.1237C45.0396 42.8364 44.0941 43.2873 43.0396 43.2873H35.5487C35.3814 43.2873 35.2141 43.3164 35.0469 43.3527V49.8618C35.0469 51.2655 36.1887 52.4146 37.5996 52.4146H44.6323C45.5632 52.4146 46.4723 52.7418 47.1923 53.3309L52.9087 58.0582C53.1414 58.2546 53.4469 58.3055 53.7378 58.2182C54.0287 58.1237 54.2396 57.8982 54.3123 57.6073L54.8651 55.44C55.3232 53.6582 56.916 52.4218 58.756 52.4218H59.2651C60.676 52.4218 61.8178 51.28 61.8178 49.8691V35.7455C61.8178 34.3346 60.676 33.1927 59.2651 33.1927Z" fill="#B64F97"/>
<path d="M35.1411 32.4073V30.5018C35.1411 28.7346 33.7011 27.2946 31.9338 27.2946C30.1666 27.2946 28.7266 28.7346 28.7266 30.5018V32.4073H35.1411Z" fill="#B64F97"/>
</svg>
