<svg width="80" height="80" viewBox="0 0 80 80" fill="none" xmlns="http://www.w3.org/2000/svg">
<path d="M0 16C0 7.16344 7.16344 0 16 0H64C72.8366 0 80 7.16344 80 16V64C80 72.8366 72.8366 80 64 80H16C7.16344 80 0 72.8366 0 64V16Z" fill="#FDF4DF"/>
<g clip-path="url(#clip0_3072_3426)">
<path d="M39.9996 30.264L40.7996 29.448V21.4528C41.3334 21.2641 41.7833 20.8927 42.0697 20.4044C42.3562 19.9161 42.4608 19.3422 42.365 18.7842C42.2693 18.2262 41.9794 17.72 41.5465 17.3551C41.1137 16.9902 40.5658 16.79 39.9996 16.79C39.4335 16.79 38.8855 16.9902 38.4527 17.3551C38.0198 17.72 37.7299 18.2262 37.6342 18.7842C37.5384 19.3422 37.643 19.9161 37.9295 20.4044C38.216 20.8927 38.6658 21.2641 39.1996 21.4528V29.448L39.9996 30.264Z" fill="#D8A123"/>
<path d="M21.4538 40.8H26.041C25.6272 40.3101 25.2727 39.7731 24.985 39.2H21.4538C21.265 38.6662 20.8937 38.2163 20.4054 37.9299C19.917 37.6434 19.3432 37.5388 18.7852 37.6345C18.2272 37.7303 17.721 38.0202 17.3561 38.4531C16.9912 38.8859 16.791 39.4338 16.791 40C16.791 40.5661 16.9912 41.1141 17.3561 41.5469C17.721 41.9798 18.2272 42.2697 18.7852 42.3654C19.3432 42.4612 19.917 42.3565 20.4054 42.0701C20.8937 41.7836 21.265 41.3338 21.4538 40.8Z" fill="#D8A123"/>
<path d="M20 22.4C19.9989 22.9655 20.198 23.5131 20.562 23.9458C20.926 24.3786 21.4314 24.6685 21.9887 24.7644C22.5459 24.8602 23.1192 24.7557 23.6068 24.4694C24.0944 24.183 24.4649 23.7334 24.6528 23.2H30.4C30.824 23.2013 31.2302 23.3703 31.53 23.6701C31.8298 23.9699 31.9987 24.3761 32 24.8V26.432C32.2 26.416 32.4 26.408 32.6 26.408C32.9342 26.4065 33.2681 26.4252 33.6 26.464V24.8C33.6 23.9513 33.2629 23.1374 32.6627 22.5373C32.0626 21.9372 31.2487 21.6 30.4 21.6H24.6528C24.4649 21.0667 24.0944 20.617 23.6068 20.3307C23.1192 20.0444 22.5459 19.9399 21.9887 20.0357C21.4314 20.1315 20.926 20.4215 20.562 20.8542C20.198 21.287 19.9989 21.8346 20 22.4Z" fill="#D8A123"/>
<path d="M39.2 42.4V44.8H40.8V42.4C40.8 42.1879 40.8843 41.9844 41.0343 41.8344C41.1843 41.6843 41.3878 41.6 41.6 41.6H44V40H41.6C41.3878 40 41.1843 39.9158 41.0343 39.7657C40.8843 39.6157 40.8 39.4122 40.8 39.2V36.8H39.2V39.2C39.2 39.4122 39.1157 39.6157 38.9657 39.7657C38.8157 39.9158 38.6122 40 38.4 40H36V41.6H38.4C38.6122 41.6 38.8157 41.6843 38.9657 41.8344C39.1157 41.9844 39.2 42.1879 39.2 42.4Z" fill="#D8A123"/>
<path d="M39.7165 52.48C39.7537 52.5177 39.7981 52.5477 39.847 52.5681C39.8959 52.5886 39.9483 52.5991 40.0013 52.5991C40.0543 52.5991 40.1068 52.5886 40.1557 52.5681C40.2046 52.5477 40.2489 52.5177 40.2861 52.48L52.3117 40.256C53.6504 38.8967 54.4007 37.0654 54.4005 35.1576V35.1504C54.4067 33.2608 53.6687 31.4448 52.3461 30.0952C51.7016 29.4317 50.9304 28.9044 50.0782 28.5445C49.2261 28.1846 48.3104 27.9994 47.3853 28H47.3813C46.4555 27.9993 45.5389 28.1842 44.6857 28.5438C43.8326 28.9034 43.0602 29.4304 42.4141 30.0936L40.5741 31.968C40.4997 32.0437 40.4109 32.1038 40.313 32.1449C40.215 32.1859 40.1099 32.2071 40.0037 32.2071C39.8975 32.2071 39.7924 32.1859 39.6945 32.1449C39.5966 32.1038 39.5078 32.0437 39.4333 31.968L37.5933 30.0936C36.9534 29.4344 36.1878 28.9103 35.3417 28.5522C34.4957 28.1941 33.5864 28.0093 32.6677 28.0088H32.6077C31.6863 28.0097 30.7744 28.1947 29.9255 28.553C29.0766 28.9113 28.3079 29.4356 27.6645 30.0952C26.3455 31.4509 25.6074 33.2677 25.6074 35.1592C25.6074 37.0507 26.3455 38.8675 27.6645 40.2232L39.7165 52.48ZM34.4005 40C34.4005 39.5757 34.5691 39.1687 34.8692 38.8686C35.1692 38.5686 35.5762 38.4 36.0005 38.4H37.6005V36.8C37.6005 36.3757 37.7691 35.9687 38.0692 35.6686C38.3692 35.3686 38.7762 35.2 39.2005 35.2H40.8005C41.2249 35.2 41.6318 35.3686 41.9319 35.6686C42.232 35.9687 42.4005 36.3757 42.4005 36.8V38.4H44.0005C44.4249 38.4 44.8318 38.5686 45.1319 38.8686C45.432 39.1687 45.6005 39.5757 45.6005 40V41.6C45.6005 42.0243 45.432 42.4313 45.1319 42.7314C44.8318 43.0314 44.4249 43.2 44.0005 43.2H42.4005V44.8C42.4005 45.2243 42.232 45.6313 41.9319 45.9314C41.6318 46.2314 41.2249 46.4 40.8005 46.4H39.2005C38.7762 46.4 38.3692 46.2314 38.0692 45.9314C37.7691 45.6313 37.6005 45.2243 37.6005 44.8V43.2H36.0005C35.5762 43.2 35.1692 43.0314 34.8692 42.7314C34.5691 42.4313 34.4005 42.0243 34.4005 41.6V40Z" fill="#D8A123"/>
<path d="M57.6004 55.2C57.1058 55.202 56.6239 55.3569 56.2206 55.6433C55.8174 55.9297 55.5125 56.3337 55.3476 56.8H49.6004C49.1764 56.7987 48.7702 56.6297 48.4704 56.33C48.1706 56.0302 48.0017 55.6239 48.0004 55.2V46.912L46.4004 48.544V55.2C46.4004 56.0487 46.7375 56.8626 47.3376 57.4627C47.9378 58.0628 48.7517 58.4 49.6004 58.4H55.3476C55.495 58.8137 55.7532 59.179 56.0942 59.4559C56.4351 59.7328 56.8456 59.9106 57.2808 59.97C57.7159 60.0294 58.1591 59.968 58.5617 59.7926C58.9643 59.6171 59.311 59.3344 59.5639 58.9753C59.8167 58.6161 59.9659 58.1944 59.9953 57.7562C60.0247 57.318 59.933 56.8801 59.7304 56.4904C59.5277 56.1008 59.2218 55.7743 58.8462 55.5467C58.4706 55.3192 58.0396 55.1992 57.6004 55.2Z" fill="#D8A123"/>
<path d="M40.7996 58.5473V54.2321L40.2852 54.7569C40.248 54.7948 40.2035 54.825 40.1545 54.8456C40.1055 54.8662 40.0528 54.8768 39.9996 54.8768C39.9464 54.8768 39.8938 54.8662 39.8447 54.8456C39.7957 54.825 39.7513 54.7948 39.714 54.7569L39.1996 54.2321V58.5473C38.6658 58.736 38.216 59.1073 37.9295 59.5956C37.643 60.084 37.5384 60.6578 37.6342 61.2158C37.7299 61.7738 38.0198 62.28 38.4527 62.6449C38.8855 63.0099 39.4335 63.21 39.9996 63.21C40.5658 63.21 41.1137 63.0099 41.5465 62.6449C41.9794 62.28 42.2693 61.7738 42.365 61.2158C42.4608 60.6578 42.3562 60.084 42.0697 59.5956C41.7833 59.1073 41.3334 58.736 40.7996 58.5473Z" fill="#D8A123"/>
<path d="M60.8006 37.6C60.306 37.602 59.8241 37.7568 59.4208 38.0433C59.0175 38.3297 58.7126 38.7337 58.5478 39.2H55.0326C54.74 39.7702 54.3859 40.3068 53.9766 40.8H58.5478C58.6951 41.2137 58.9534 41.579 59.2943 41.8559C59.6353 42.1328 60.0458 42.3106 60.4809 42.37C60.9161 42.4294 61.3592 42.368 61.7619 42.1925C62.1645 42.0171 62.5112 41.7344 62.764 41.3752C63.0169 41.0161 63.1661 40.5944 63.1955 40.1562C63.2248 39.7179 63.1332 39.2801 62.9305 38.8904C62.7279 38.5008 62.422 38.1743 62.0464 37.9467C61.6707 37.7191 61.2398 37.5992 60.8006 37.6Z" fill="#D8A123"/>
<path d="M31.1994 54.4C31.1981 54.824 31.0292 55.2302 30.7294 55.53C30.4296 55.8298 30.0234 55.9987 29.5994 56H23.8522C23.6635 55.4662 23.2921 55.0164 22.8038 54.7299C22.3155 54.4434 21.7416 54.3388 21.1836 54.4346C20.6256 54.5303 20.1194 54.8202 19.7545 55.2531C19.3896 55.6859 19.1895 56.2339 19.1895 56.8C19.1895 57.3662 19.3896 57.9141 19.7545 58.3469C20.1194 58.7798 20.6256 59.0697 21.1836 59.1654C21.7416 59.2612 22.3155 59.1566 22.8038 58.8701C23.2921 58.5836 23.6635 58.1338 23.8522 57.6H29.5994C30.4481 57.6 31.262 57.2629 31.8621 56.6627C32.4623 56.0626 32.7994 55.2487 32.7994 54.4V47.728L31.1994 46.104V54.4Z" fill="#D8A123"/>
<path d="M58.3992 25.6C58.8396 25.6019 59.2721 25.4825 59.6491 25.2549C60.0262 25.0274 60.3334 24.7004 60.5371 24.3099C60.7408 23.9195 60.8331 23.4804 60.8039 23.041C60.7747 22.6015 60.6251 22.1786 60.3716 21.8185C60.1181 21.4584 59.7704 21.1749 59.3665 20.9993C58.9626 20.8236 58.5182 20.7624 58.0819 20.8225C57.6456 20.8825 57.2342 21.0615 56.8929 21.3397C56.5515 21.618 56.2932 21.9848 56.1464 22.4H50.3992C49.5505 22.4 48.7366 22.7372 48.1365 23.3373C47.5364 23.9374 47.1992 24.7513 47.1992 25.6V26.4H47.3832C47.8578 26.3996 48.3315 26.4397 48.7992 26.52V25.6C48.8005 25.1761 48.9695 24.7698 49.2692 24.4701C49.569 24.1703 49.9753 24.0013 50.3992 24H56.1464C56.3113 24.4664 56.6162 24.8704 57.0195 25.1568C57.4227 25.4432 57.9046 25.598 58.3992 25.6Z" fill="#D8A123"/>
</g>
<defs>
<clipPath id="clip0_3072_3426">
<rect width="48" height="48" fill="white" transform="translate(16 16)"/>
</clipPath>
</defs>
</svg>
