<svg width="80" height="80" viewBox="0 0 80 80" fill="none" xmlns="http://www.w3.org/2000/svg">
<path d="M0 16C0 7.16344 7.16344 0 16 0H64C72.8366 0 80 7.16344 80 16V64C80 72.8366 72.8366 80 64 80H16C7.16344 80 0 72.8366 0 64V16Z" fill="#EAF1FE"/>
<path d="M59.5003 51.22V56C59.495 56.9266 59.1246 57.8138 58.4693 58.4691C57.8141 59.1243 56.9269 59.4947 56.0003 59.5H44.0003C43.0736 59.4947 42.1864 59.1243 41.5312 58.4691C40.8759 57.8138 40.5055 56.9266 40.5003 56V51.22L48.8003 54.12C49.1852 54.2574 49.5916 54.3251 50.0003 54.32C50.4154 54.3238 50.8281 54.2561 51.2203 54.12L59.5003 51.22ZM56.0003 44.72C56.8882 44.7233 57.7416 45.064 58.3878 45.673C59.0339 46.282 59.4244 47.1138 59.4803 48L50.2203 51.24C50.0763 51.2801 49.9242 51.2801 49.7803 51.24L40.5203 48C40.5761 47.1138 40.9666 46.282 41.6127 45.673C42.2589 45.064 43.1123 44.7233 44.0003 44.72H45.0803V43.68C45.0855 42.8348 45.425 42.0259 46.0246 41.4302C46.6241 40.8344 47.435 40.5 48.2803 40.5H51.7203C52.5655 40.5 53.3764 40.8344 53.976 41.4302C54.5755 42.0259 54.915 42.8348 54.9203 43.68V44.72H56.0003ZM52.0003 43.68C51.9953 43.6305 51.972 43.5846 51.9351 43.5513C51.8981 43.518 51.85 43.4997 51.8003 43.5H48.2803C48.2305 43.4997 48.1824 43.518 48.1455 43.5513C48.1085 43.5846 48.0852 43.6305 48.0803 43.68V44.72H52.0003V43.68ZM22.5003 36C22.5055 36.9266 22.8759 37.8138 23.5312 38.469C24.1864 39.1243 25.0736 39.4947 26.0003 39.5H34.0003C34.9269 39.4947 35.8141 39.1243 36.4693 38.469C37.1246 37.8138 37.495 36.9266 37.5003 36V29.4C37.7988 29.5181 38.1283 29.533 38.4363 29.4424C38.7443 29.3518 39.0132 29.1609 39.2003 28.9C39.4087 28.5893 39.4935 28.2118 39.438 27.8418C39.3825 27.4718 39.1907 27.1359 38.9003 26.9L30.9003 20.9C30.6406 20.7052 30.3248 20.6 30.0003 20.6C29.6757 20.6 29.3599 20.7052 29.1003 20.9L21.1003 26.9C20.8247 27.1189 20.6348 27.4277 20.5639 27.7724C20.4931 28.1171 20.5456 28.4758 20.7125 28.7857C20.8794 29.0956 21.1499 29.3369 21.4767 29.4675C21.8035 29.5981 22.1658 29.6096 22.5003 29.5V36ZM38.0003 54.5C34.685 54.5 31.5056 53.183 29.1614 50.8388C26.8172 48.4946 25.5003 45.3152 25.5003 42C25.5003 41.6021 25.3422 41.2206 25.0609 40.9393C24.7796 40.658 24.3981 40.5 24.0003 40.5C23.6024 40.5 23.2209 40.658 22.9396 40.9393C22.6583 41.2206 22.5003 41.6021 22.5003 42C22.5055 46.1092 24.1403 50.0486 27.0459 52.9543C29.9516 55.86 33.891 57.4947 38.0003 57.5C38.3981 57.5 38.7796 57.3419 39.0609 57.0606C39.3422 56.7793 39.5003 56.3978 39.5003 56C39.5003 55.6022 39.3422 55.2206 39.0609 54.9393C38.7796 54.658 38.3981 54.5 38.0003 54.5ZM42.0003 25.5C45.3155 25.5 48.4949 26.8169 50.8391 29.1611C53.1833 31.5053 54.5003 34.6848 54.5003 38C54.5003 38.3978 54.6583 38.7793 54.9396 39.0606C55.2209 39.3419 55.6024 39.5 56.0003 39.5C56.3981 39.5 56.7796 39.3419 57.0609 39.0606C57.3422 38.7793 57.5003 38.3978 57.5003 38C57.495 33.8907 55.8602 29.9513 52.9546 27.0457C50.0489 24.14 46.1095 22.5053 42.0003 22.5C41.6024 22.5 41.2209 22.658 40.9396 22.9393C40.6583 23.2206 40.5003 23.6022 40.5003 24C40.5003 24.3978 40.6583 24.7793 40.9396 25.0606C41.2209 25.3419 41.6024 25.5 42.0003 25.5Z" fill="#4F8AFB"/>
</svg>
