<svg width="48" height="48" viewBox="0 0 48 48" fill="none" xmlns="http://www.w3.org/2000/svg">
<g clip-path="url(#clip0_5536_19628)">
<path d="M40.9487 20.4009H7.05078V8.01562C7.05078 7.4978 7.47046 7.07812 7.98828 7.07812H40.0112C40.5291 7.07812 40.9487 7.4978 40.9487 8.01562V20.4009Z" fill="#FFCE8B"/>
<path d="M40.9493 8.01514V20.4004H38.9883V8.01514C38.9883 7.49768 38.569 7.07764 38.0508 7.07764H40.0118C40.5293 7.07764 40.9493 7.49768 40.9493 8.01514Z" fill="#FFC26D"/>
<path d="M42.7079 23.9326H5.29102L6.17981 20.6426C6.48523 19.511 7.51172 18.7251 8.68359 18.7251H39.3157C40.4875 18.7251 41.514 19.511 41.8195 20.6426L42.7079 23.9326Z" fill="#5592D7"/>
<path d="M42.7089 23.9323H40.3398L39.451 20.6426C39.1456 19.511 38.1191 18.7251 36.9473 18.7251H39.3163C40.4882 18.7251 41.5146 19.511 41.8201 20.6426L42.7089 23.9323Z" fill="#1475CC"/>
<path d="M45.4521 31.5453H2.54688V26.9951C2.54688 24.6085 4.48157 22.6738 6.86816 22.6738H41.0547C43.4834 22.6738 45.4521 24.6085 45.4521 26.9951V31.5453Z" fill="#CAF1FD"/>
<path d="M45.4528 26.9948V31.5457H43.3295V26.9948C43.3295 24.6089 41.3607 22.6738 38.9316 22.6738H41.0553C43.484 22.6738 45.4528 24.6089 45.4528 26.9948Z" fill="#9DE7FC"/>
<path d="M5.08984 32.8906H43.2183V38.4772H5.08984V32.8906Z" fill="#85AFE2"/>
<path d="M5.76245 40.8904H3.29492C2.7771 40.8904 2.35742 40.4707 2.35742 39.9529V33.5156H6.70032V39.9529C6.69995 40.4707 6.28027 40.8904 5.76245 40.8904Z" fill="#FFAF50"/>
<path d="M6.69922 33.5151V39.9531C6.69922 40.4706 6.27917 40.8906 5.76172 40.8906H4.07422C4.59167 40.8906 5.01172 40.4706 5.01172 39.9531V33.5151H6.69922Z" fill="#F99223"/>
<path d="M44.7062 40.8904H42.2383C41.7208 40.8904 41.3008 40.4707 41.3008 39.9529V33.5156H45.6437V39.9529C45.6437 40.4707 45.224 40.8904 44.7062 40.8904Z" fill="#FFAF50"/>
<path d="M45.6426 33.5151V39.9531C45.6426 40.4706 45.2236 40.8906 44.7051 40.8906H43.0176C43.5361 40.8906 43.9551 40.4706 43.9551 39.9531V33.5151H45.6426Z" fill="#F99223"/>
<path d="M46.3594 34.5543H1.64062C1.1228 34.5543 0.703125 34.1346 0.703125 33.6168V29.7573C0.703125 29.2395 1.1228 28.8198 1.64062 28.8198H46.3594C46.8772 28.8198 47.2969 29.2395 47.2969 29.7573V33.6168C47.2969 34.1346 46.8772 34.5543 46.3594 34.5543Z" fill="#FFCE8B"/>
<path d="M47.2964 29.7573V33.6172C47.2964 34.1346 46.8763 34.5547 46.3589 34.5547H44.5469C45.0643 34.5547 45.4844 34.1346 45.4844 33.6172V29.7573C45.4844 29.2399 45.0643 28.8198 44.5469 28.8198H46.3589C46.8763 28.8198 47.2964 29.2399 47.2964 29.7573Z" fill="#FFC26D"/>
<path d="M20.6293 19.77H11.5571C11.0239 19.77 10.5918 19.3379 10.5918 18.8047V14.0187C10.5918 13.4858 11.0239 13.0537 11.5571 13.0537H20.6293C21.1621 13.0537 21.5942 13.4858 21.5942 14.0187V18.8047C21.5946 19.3379 21.1621 19.77 20.6293 19.77Z" fill="#CAF1FD"/>
<path d="M21.5946 14.019V18.8051C21.5946 19.3375 21.1621 19.77 20.6289 19.77H18.6602C19.1934 19.77 19.6259 19.3375 19.6259 18.8051V14.019C19.6259 13.4858 19.1934 13.0537 18.6602 13.0537H20.6289C21.1621 13.0537 21.5946 13.4858 21.5946 14.019Z" fill="#9DE7FC"/>
<path d="M36.4414 19.77H27.3693C26.8364 19.77 26.4043 19.3379 26.4043 18.8047V14.0187C26.4043 13.4858 26.8364 13.0537 27.3693 13.0537H36.4414C36.9746 13.0537 37.4067 13.4858 37.4067 14.0187V18.8047C37.4067 19.3379 36.9742 19.77 36.4414 19.77Z" fill="#CAF1FD"/>
<path d="M37.4064 14.019V18.8051C37.4064 19.3375 36.9739 19.77 36.4414 19.77H34.4727C35.0051 19.77 35.4376 19.3375 35.4376 18.8051V14.019C35.4376 13.4858 35.0051 13.0537 34.4727 13.0537H36.4414C36.9739 13.0537 37.4064 13.4858 37.4064 14.019Z" fill="#9DE7FC"/>
<path d="M46.3594 28.1169H46.1558V26.9952C46.1558 24.9071 44.8557 23.1127 43.0107 22.3553L42.4988 20.4591C42.3453 19.8915 42.0476 19.392 41.6521 18.995V8.01562C41.6521 7.11108 40.916 6.375 40.0115 6.375H34.8464C34.4583 6.375 34.1433 6.68958 34.1433 7.07812C34.1433 7.46667 34.4583 7.78125 34.8464 7.78125H40.0115C40.1407 7.78125 40.2458 7.88635 40.2458 8.01562V18.1564C39.9489 18.0688 39.6368 18.022 39.316 18.022H38.1108V14.0186C38.1108 13.0986 37.3623 12.3505 36.4424 12.3505H27.3702C26.4503 12.3505 25.7018 13.0986 25.7018 14.0186V18.022H22.2979V17.8619C22.2979 17.4738 21.9833 17.1588 21.5947 17.1588C21.2065 17.1588 20.8916 17.4738 20.8916 17.8619V18.8046C20.8916 18.9492 20.774 19.0668 20.6298 19.0668H11.5576C11.413 19.0668 11.2954 18.9492 11.2954 18.8046V14.0186C11.2954 13.8743 11.413 13.7567 11.5576 13.7567H20.6298C20.774 13.7567 20.8916 13.8743 20.8916 14.0186V14.5441C20.8916 14.9323 21.2065 15.2472 21.5947 15.2472C21.9833 15.2472 22.2979 14.9323 22.2979 14.5441V14.0186C22.2979 13.0986 21.5497 12.3505 20.6298 12.3505H11.5576C10.6377 12.3505 9.88916 13.0986 9.88916 14.0186V18.022H8.68396C8.36316 18.022 8.05115 18.0688 7.75415 18.1564V8.01562C7.75415 7.88635 7.85925 7.78125 7.98853 7.78125H31.5286C31.9167 7.78125 32.2317 7.46667 32.2317 7.07812C32.2317 6.68958 31.9167 6.375 31.5286 6.375H7.98853C7.08398 6.375 6.3479 7.11108 6.3479 8.01562V18.995C5.95239 19.392 5.65466 19.8915 5.50122 20.4591L4.99475 22.3345C3.15015 23.079 1.84424 24.887 1.84424 26.9952V28.1169H1.64062C0.736084 28.1169 0 28.853 0 29.7576V33.6171C0 34.5216 0.736084 35.2577 1.64062 35.2577H1.65344V39.9532C1.65344 40.8578 2.38953 41.5939 3.29407 41.5939H5.7616C6.66614 41.5939 7.40222 40.8578 7.40222 39.9532V39.1802H40.5978V39.9532C40.5978 40.8578 41.3339 41.5939 42.2384 41.5939H44.7059C45.6105 41.5939 46.3466 40.8578 46.3466 39.9532V35.2577H46.3594C47.2639 35.2577 48 34.5216 48 33.6171V29.7576C48 28.853 47.2639 28.1169 46.3594 28.1169ZM27.108 14.0186C27.108 13.8743 27.2256 13.7567 27.3702 13.7567H36.4424C36.587 13.7567 36.7046 13.8743 36.7046 14.0186V18.8046C36.7046 18.9492 36.587 19.0668 36.4424 19.0668H27.3702C27.2256 19.0668 27.108 18.9492 27.108 18.8046V14.0186ZM6.85876 20.8257C7.08105 20.0028 7.83142 19.4282 8.68396 19.4282H10.0115C10.259 20.0398 10.8582 20.473 11.5576 20.473H20.6298C21.3292 20.473 21.9283 20.0398 22.1759 19.4282H25.8241C26.0717 20.0398 26.6708 20.473 27.3702 20.473H36.4424C37.1418 20.473 37.741 20.0398 37.9885 19.4282H39.316C40.1686 19.4282 40.9189 20.0028 41.1412 20.8257L41.4551 21.9877C41.3229 21.9774 41.1899 21.9708 41.0552 21.9708H6.86865C6.76025 21.9708 6.65332 21.9756 6.54639 21.9822L6.85876 20.8257ZM5.7616 40.1873H3.29407C3.16479 40.1873 3.05969 40.0825 3.05969 39.9529V35.2577H5.99597V39.9529C5.99597 40.0825 5.89087 40.1873 5.7616 40.1873ZM7.40222 37.7739V35.2577H40.5978V37.7739H7.40222ZM44.9403 39.9529C44.9403 40.0825 44.8352 40.1873 44.7059 40.1873H42.2384C42.1091 40.1873 42.004 40.0825 42.004 39.9529V35.2577H44.9403V39.9529ZM46.5938 33.6171C46.5938 33.7463 46.4886 33.8514 46.3594 33.8514H1.64062C1.51135 33.8514 1.40625 33.7463 1.40625 33.6171V29.7576C1.40625 29.6283 1.51135 29.5232 1.64062 29.5232H9.49731C9.8855 29.5232 10.2004 29.2086 10.2004 28.8201C10.2004 28.4319 9.8855 28.1169 9.49731 28.1169H3.25049V26.9952C3.25049 25.0001 4.87354 23.3771 6.86865 23.3771H41.0552C43.0924 23.3771 44.7495 25.0001 44.7495 26.9952V28.1169H12.8152C12.427 28.1169 12.1121 28.4319 12.1121 28.8201C12.1121 29.2086 12.427 29.5232 12.8152 29.5232H46.3594C46.4886 29.5232 46.5938 29.6283 46.5938 29.7576V33.6171Z" fill="black"/>
</g>
<defs>
<clipPath id="clip0_5536_19628">
<rect width="48" height="48" fill="white"/>
</clipPath>
</defs>
</svg>
