<svg width="40" height="40" viewBox="0 0 40 40" fill="none" xmlns="http://www.w3.org/2000/svg">
<g clip-path="url(#clip0_5172_26894)">
<path d="M26.7883 39.3814C33.7615 39.3814 39.4145 33.7284 39.4145 26.7552C39.4145 19.782 33.7615 14.129 26.7883 14.129C19.815 14.129 14.1621 19.782 14.1621 26.7552C14.1621 33.7284 19.815 39.3814 26.7883 39.3814Z" fill="#B3E59F"/>
<path d="M26.7881 14.129C26.2821 14.129 25.7834 14.1597 25.293 14.2175C31.5613 14.9572 36.424 20.2879 36.424 26.7551C36.424 33.2223 31.5613 38.5531 25.293 39.2928C25.7834 39.3507 26.2822 39.3813 26.7881 39.3813C33.7613 39.3813 39.4143 33.7284 39.4143 26.7551C39.4143 19.7818 33.7613 14.129 26.7881 14.129Z" fill="#95D6A4"/>
<path d="M13.2121 25.8709C20.1854 25.8709 25.8383 20.2179 25.8383 13.2447C25.8383 6.27146 20.1854 0.61853 13.2121 0.61853C6.23887 0.61853 0.585938 6.27146 0.585938 13.2447C0.585938 20.2179 6.23887 25.8709 13.2121 25.8709Z" fill="#FFE07D"/>
<path d="M13.212 0.61853C12.7059 0.61853 12.2072 0.649233 11.7168 0.707046C17.9852 1.44673 22.8478 6.77744 22.8478 13.2446C22.8478 19.7118 17.9852 25.0426 11.7168 25.7823C12.2073 25.8402 12.706 25.8708 13.212 25.8708C20.1852 25.8708 25.8381 20.2179 25.8381 13.2446C25.8381 6.27134 20.1852 0.61853 13.212 0.61853Z" fill="#FFD064"/>
<path d="M39.0773 21.8959C38.9582 21.5948 38.6174 21.4476 38.317 21.5667C38.016 21.6858 37.8687 22.0262 37.9877 22.3271C38.5453 23.7361 38.8281 25.2259 38.8281 26.7552C38.8281 33.3942 33.4269 38.7954 26.788 38.7954C20.149 38.7954 14.7477 33.3942 14.7477 26.7552C14.7477 26.6265 14.7503 26.497 14.7545 26.3678C15.471 26.2846 16.1759 26.1432 16.8638 25.9458C16.8422 26.2148 16.8311 26.4853 16.8311 26.7552C16.8311 32.2454 21.2977 36.7121 26.788 36.7121C32.2781 36.7121 36.7448 32.2454 36.7448 26.7552C36.7448 21.265 32.2781 16.7983 26.7879 16.7983C26.5021 16.7983 26.2159 16.8105 25.9313 16.8348C26.1245 16.1472 26.262 15.4415 26.3417 14.7232C26.4905 14.7178 26.6396 14.7149 26.7879 14.7149C30.932 14.7149 34.7344 16.8066 36.9592 20.3103C37.0709 20.4861 37.2605 20.5822 37.4544 20.5822C37.5618 20.5822 37.6705 20.5526 37.768 20.4908C38.0412 20.3173 38.122 19.9553 37.9485 19.682C35.5075 15.8379 31.3353 13.5429 26.788 13.5429C26.6659 13.5429 26.5432 13.5452 26.4206 13.5486C26.4229 13.4474 26.4243 13.3461 26.4243 13.2446C26.4243 5.95942 20.4973 0.0324707 13.2122 0.0324707C8.99641 0.0324707 5.06359 2.03192 2.57109 5.41333C2.37906 5.6738 2.43461 6.0406 2.69508 6.23263C2.95555 6.42466 3.32234 6.36919 3.51438 6.10864C5.71852 3.11841 9.25219 1.20435 13.2122 1.20435C19.8512 1.20435 25.2524 6.6056 25.2524 13.2446C25.2524 16.4198 24.0266 19.4161 21.8007 21.6817C21.5739 21.9125 21.5772 22.2835 21.808 22.5102C21.9221 22.6224 22.0704 22.6782 22.2187 22.6782C22.3703 22.6782 22.522 22.6197 22.6366 22.5029C23.9058 21.2111 24.8778 19.7025 25.5196 18.0627C25.9379 18.0023 26.3631 17.9699 26.788 17.9699C31.632 17.9699 35.5729 21.9108 35.5729 26.7549C35.5729 31.599 31.632 35.5399 26.788 35.5399C21.9439 35.5399 18.0029 31.5992 18.0029 26.7552C18.0029 26.3441 18.0332 25.9324 18.0898 25.5274C19.0269 25.1547 19.9237 24.6725 20.7648 24.0856C21.0302 23.9004 21.0952 23.5351 20.9099 23.2698C20.7247 23.0045 20.3595 22.9394 20.0941 23.1247C18.0691 24.538 15.6893 25.285 13.2121 25.285C6.57313 25.285 1.17188 19.8837 1.17188 13.2447C1.17188 11.4243 1.56797 9.67521 2.34914 8.04583C2.48906 7.75411 2.36594 7.40411 2.07414 7.26419C1.78242 7.12419 1.43234 7.24739 1.2925 7.53927C0.434844 9.32786 0 11.2475 0 13.2447C0 20.5299 5.92695 26.4568 13.2121 26.4568C13.3353 26.4568 13.4583 26.4546 13.581 26.4512C13.5788 26.5526 13.5758 26.6542 13.5758 26.7552C13.5758 34.0404 19.5027 39.9673 26.7879 39.9673C34.073 39.9673 39.9999 34.0404 39.9999 26.7552C40 25.0776 39.6895 23.4428 39.0773 21.8959Z" fill="black"/>
<path d="M13.2127 23.2016C18.703 23.2016 23.1696 18.735 23.1696 13.2447C23.1696 7.75448 18.703 3.28784 13.2127 3.28784C7.7225 3.28784 3.25586 7.75448 3.25586 13.2447C3.25586 18.735 7.7225 23.2016 13.2127 23.2016ZM13.2127 4.45972C18.0568 4.45972 21.9977 8.40065 21.9977 13.2447C21.9977 18.0888 18.0568 22.0297 13.2127 22.0297C8.36867 22.0297 4.42773 18.0888 4.42773 13.2447C4.42773 8.40065 8.36867 4.45972 13.2127 4.45972Z" fill="black"/>
<path d="M10.5465 17.4216C11.3348 17.9374 11.8712 18.0867 12.5708 18.1232V18.8131C12.5708 19.1367 12.8331 19.399 13.1567 19.399C13.4803 19.399 13.7426 19.1367 13.7426 18.8131V18.0776C15.1197 17.8178 15.924 16.6871 16.1015 15.631C16.3283 14.2818 15.6224 13.1088 14.303 12.6424C14.119 12.5773 13.9305 12.5089 13.7426 12.4377V9.48291C14.2272 9.59041 14.5168 9.83658 14.5415 9.85822C14.7794 10.0741 15.1474 10.0579 15.3657 9.82135C15.5851 9.58346 15.5701 9.21275 15.3322 8.9933C15.2974 8.96127 14.7076 8.43033 13.7427 8.29283V7.67627C13.7427 7.3526 13.4804 7.09033 13.1568 7.09033C12.8332 7.09033 12.5708 7.3526 12.5708 7.67627V8.33775C12.4736 8.35853 12.3746 8.38322 12.2733 8.41369C11.4057 8.6751 10.7572 9.41799 10.5811 10.3524C10.4207 11.2037 10.6927 12.024 11.2911 12.4932C11.6139 12.7464 12.0168 12.9783 12.5708 13.2238V16.95C12.0759 16.9176 11.7427 16.8036 11.188 16.4407C10.9172 16.2636 10.554 16.3393 10.3769 16.6103C10.1997 16.8813 10.2757 17.2444 10.5465 17.4216ZM12.0143 11.5713C11.7615 11.3731 11.6536 10.9892 11.7327 10.5697C11.8051 10.1859 12.0637 9.72275 12.5708 9.5501V11.9229C12.3605 11.811 12.1706 11.694 12.0143 11.5713ZM13.9125 13.7473C15.0664 14.1552 14.9951 15.1435 14.9459 15.4368C14.8483 16.0178 14.439 16.6355 13.7426 16.8667V13.6864C13.7987 13.7066 13.8544 13.7267 13.9125 13.7473Z" fill="black"/>
<path d="M23.2539 26.3527C22.9302 26.3527 22.668 26.615 22.668 26.9387C22.668 27.2624 22.9302 27.5246 23.2539 27.5246H24.9391L24.9723 27.8104C25.0966 28.9231 25.013 29.3593 24.151 30.5162L23.3109 31.5725C23.1715 31.7478 23.1441 31.9874 23.2406 32.1895C23.3371 32.3916 23.5403 32.5212 23.7643 32.5231L30.316 32.5811H30.3213C30.6424 32.5811 30.9042 32.3222 30.9071 32.0003C30.9099 31.6767 30.6499 31.4121 30.3263 31.4092L24.9756 31.362L25.0739 31.2385C25.0777 31.2336 25.0814 31.2288 25.085 31.224C26.0854 29.8828 26.3016 29.1542 26.1366 27.6776L26.1188 27.5245H27.8552C28.1788 27.5245 28.4411 27.2623 28.4411 26.9386C28.4411 26.6149 28.1788 26.3527 27.8552 26.3527H25.8577C25.6467 26.0492 24.8791 24.8729 24.8837 23.8324C24.8837 23.8317 24.8836 23.8309 24.8836 23.8301C24.8836 23.8293 24.8837 23.8286 24.8837 23.8278C24.8815 23.2165 25.1582 22.7496 25.706 22.4402C26.4962 21.9943 27.7277 21.9894 28.4513 22.4293C29.0234 22.777 29.4421 23.2566 29.5712 23.7119C29.6595 24.0231 29.9839 24.2039 30.2948 24.1156C30.6061 24.0274 30.787 23.7035 30.6986 23.392C30.4877 22.6486 29.8905 21.9327 29.06 21.4279C27.9773 20.7695 26.2876 20.766 25.1298 21.4198C24.2145 21.9367 23.7113 22.7899 23.712 23.8227C23.712 23.8243 23.7118 23.8258 23.7118 23.8273C23.7118 23.8282 23.7119 23.8292 23.7119 23.8302C23.7119 23.8307 23.7118 23.8313 23.7118 23.8318C23.7118 23.8324 23.7119 23.8331 23.7119 23.8337C23.7098 24.7674 24.1247 25.7141 24.4797 26.3525H23.2539V26.3527Z" fill="black"/>
<path d="M28.3535 4.56702H31.9391V9.05616L30.5934 7.93553C30.3447 7.72858 29.9753 7.76225 29.7682 8.01084C29.5612 8.25959 29.5948 8.62897 29.8435 8.83608L32.1501 10.7569C32.2588 10.8473 32.3919 10.8925 32.5251 10.8925C32.6582 10.8925 32.7914 10.8473 32.9 10.7569L35.2066 8.83608C35.4554 8.62905 35.4891 8.25952 35.282 8.01092C35.0749 7.76202 34.7054 7.72858 34.4569 7.93553L33.111 9.05624V3.98108C33.111 3.65741 32.8488 3.39514 32.5251 3.39514H28.3535C28.0298 3.39514 27.7676 3.65741 27.7676 3.98108C27.7676 4.30475 28.0299 4.56702 28.3535 4.56702Z" fill="black"/>
<path d="M11.6462 35.4983H8.06055V31.0092L9.40625 32.1298C9.65484 32.3367 10.0244 32.3032 10.2314 32.0545C10.4385 31.8057 10.4048 31.4364 10.1561 31.2292L7.84953 29.3085C7.63227 29.1277 7.31687 29.1276 7.09961 29.3085L4.79305 31.2292C4.54437 31.4362 4.51062 31.8057 4.71773 32.0543C4.83359 32.1935 5.00031 32.2653 5.16828 32.2653C5.30047 32.2653 5.43344 32.2209 5.54289 32.1297L6.88867 31.0091V36.0842C6.88867 36.4078 7.15102 36.6701 7.47461 36.6701H11.6462C11.9698 36.6701 12.2321 36.4078 12.2321 36.0842C12.2321 35.7605 11.9698 35.4983 11.6462 35.4983Z" fill="black"/>
</g>
<defs>
<clipPath id="clip0_5172_26894">
<rect width="40" height="40" fill="white"/>
</clipPath>
</defs>
</svg>
