<svg width="48" height="48" viewBox="0 0 48 48" fill="none" xmlns="http://www.w3.org/2000/svg">
<path d="M42 14V34C42 40 39 44 32 44H16C9 44 6 40 6 34V14C6 8 9 4 16 4H32C39 4 42 8 42 14Z" stroke="#4F8AFB" stroke-width="2" stroke-miterlimit="10" stroke-linecap="round" stroke-linejoin="round"/>
<path opacity="0.4" d="M29 9V13C29 15.2 30.8 17 33 17H37" stroke="#4F8AFB" stroke-width="2" stroke-miterlimit="10" stroke-linecap="round" stroke-linejoin="round"/>
<path opacity="0.4" d="M14.9603 30.9802C14.3003 28.9202 15.0802 26.3802 17.2202 25.6802C18.3602 25.3202 19.7602 25.6202 20.5402 26.7202C21.2802 25.5802 22.7402 25.3202 23.8602 25.6802C26.0202 26.3802 26.7803 28.9202 26.1403 30.9802C25.1203 34.2402 21.5402 35.9401 20.5402 35.9401C19.5602 35.9201 16.0203 34.2602 14.9603 30.9802Z" stroke="#4F8AFB" stroke-width="2" stroke-linecap="round" stroke-linejoin="round"/>
</svg>
