<svg width="48" height="48" viewBox="0 0 48 48" fill="none" xmlns="http://www.w3.org/2000/svg">
<g clip-path="url(#clip0_5536_19647)">
<path d="M41.8065 25.5483L45.1036 17.6343C46.3334 17.2242 47.2259 16.0769 47.2259 14.7096C47.2259 12.9994 45.8393 11.6128 44.1291 11.6128C42.4189 11.6128 41.0323 12.9994 41.0323 14.7096C41.0323 15.2955 41.2043 15.8376 41.4875 16.3045L37.9355 23.9999L41.8065 25.5483Z" fill="#E6E9ED"/>
<path d="M24.774 45.6772H9.19034C8.37494 45.6772 7.69903 45.0455 7.64497 44.2317L6.19336 22.4514V14.7095H24.774V45.6772Z" fill="#E6E9ED"/>
<path d="M24.7739 22.4515V19.625C23.8618 20.0601 23.2256 20.9836 23.2256 22.0606V22.3982L22.1062 23.1444C21.3528 23.6468 20.903 24.4875 20.903 25.3933V26.3867C19.4877 27.2082 18.4296 28.5721 18.01 30.1942H16.2578V36.3877C16.2578 40.3332 18.3831 43.7819 21.5426 45.6781H24.7739V22.4515Z" fill="#CCD1D9"/>
<path d="M22.4512 24.7742C18.5803 24.7742 15.4835 22.4517 12.3867 22.4517C9.60408 22.4517 6.82863 23.698 6.29297 23.952L7.64478 44.2319C7.6996 45.0458 8.37475 45.6775 9.19015 45.6775H24.7738V25.0646L22.4512 24.7742Z" fill="#FCD770"/>
<path d="M21.0084 24.6699C20.943 24.9035 20.903 25.1443 20.903 25.3935V26.3869C19.4877 27.2084 18.4296 28.5723 18.01 30.1944H16.2578V36.3879C16.2578 40.3334 18.3831 43.7821 21.5426 45.6782H24.7739V25.0646L22.4514 24.7743C21.958 24.7743 21.4783 24.7357 21.0084 24.6699Z" fill="#FFC729"/>
<path d="M42.5747 23.7058C41.6368 23.1637 40.598 22.7796 39.4926 22.5925L38.8723 21.9722L37.9355 23.9999L41.8065 25.5483L42.5747 23.7058Z" fill="#CCD1D9"/>
<path d="M22.4512 27.0969V25.3928C22.4512 25.0064 22.6447 24.6451 22.966 24.4307L24.2589 23.5688C24.5802 23.3545 24.7738 22.9938 24.7738 22.6075V22.0601C24.7738 21.4213 25.2916 20.9034 25.9305 20.9034H26.3819C26.82 20.9034 27.2203 20.6558 27.4161 20.2638L27.5507 19.9946C27.7465 19.6026 28.1469 19.355 28.585 19.355C29.0829 19.355 29.5251 19.6733 29.682 20.1454L29.9292 20.8864C30.0869 21.3593 30.5292 21.6776 31.027 21.6776C31.4652 21.6776 31.8655 21.43 32.0613 21.0379L32.1959 20.7688C32.3917 20.3768 32.792 20.1292 33.2302 20.1292H33.3489C33.787 20.1292 34.1873 20.3768 34.3831 20.7688L34.5177 21.0379C34.7143 21.43 35.1146 21.6776 35.5527 21.6776H35.9073C36.2139 21.6776 36.5084 21.7993 36.725 22.0166L38.7092 24.0001V31.7421H22.4512V27.0969Z" fill="#A0D468"/>
<path d="M27.097 45.6772C21.9664 45.6772 17.8066 41.5174 17.8066 36.3869V31.7417H47.226V36.3869C47.226 41.5174 43.0662 45.6772 37.9357 45.6772H27.097Z" fill="#DFB28B"/>
<path d="M23.9996 25.5483C23.4639 25.5483 22.9475 25.6236 22.4512 25.7521V31.7419H30.1931C30.1931 28.3268 27.4146 25.5483 23.9996 25.5483Z" fill="#8CC152"/>
<path d="M19.3555 31.7418C19.3555 29.1762 21.435 27.0967 24.0006 27.0967C26.5663 27.0967 28.6458 29.1762 28.6458 31.7418H19.3555Z" fill="#FC6E51"/>
<path d="M37.1977 22.4888C32.4195 22.8668 28.6445 26.8678 28.6445 31.742H38.709V24.0001L37.1977 22.4888Z" fill="#8CC152"/>
<path d="M30.1934 31.7419C30.1934 27.4661 33.6595 24 37.9353 24C42.2111 24 45.6772 27.4661 45.6772 31.7419H30.1934Z" fill="#FFEAA7"/>
<path d="M33.291 31.7418C33.291 29.1762 35.3705 27.0967 37.9362 27.0967C40.5018 27.0967 42.5813 29.1762 42.5813 31.7418H33.291Z" fill="#FCD770"/>
<path d="M19.6258 30.1934C19.4538 30.678 19.3555 31.1981 19.3555 31.7417H28.6458C28.6458 31.1981 28.5475 30.678 28.3755 30.1934H19.6258Z" fill="#E9573F"/>
<path d="M30.3491 30.1934C30.2474 30.6935 30.1934 31.2114 30.1934 31.7417H45.6772C45.6772 31.2114 45.6232 30.6935 45.5215 30.1934H30.3491Z" fill="#FCD770"/>
<path d="M33.5613 30.1934C33.3893 30.678 33.291 31.1981 33.291 31.7417H42.5813C42.5813 31.1981 42.4831 30.678 42.3111 30.1934H33.5613Z" fill="#FFC729"/>
<path d="M14.7377 9.71499C13.2611 8.48338 11.3619 7.7417 9.28957 7.7417C4.58619 7.7417 0.773438 11.5545 0.773438 16.2578C0.773438 18.3302 1.51512 20.2294 2.74672 21.7059L14.7377 9.71499Z" fill="#FFC729"/>
<path d="M12.532 11.9219C11.627 11.2445 10.5073 10.8389 9.29045 10.8389C6.29725 10.8389 3.87109 13.265 3.87109 16.2582C3.87109 17.4751 4.27671 18.5948 4.95413 19.4998L12.532 11.9219Z" fill="#FCD770"/>
<path d="M42.9315 24.86L45.6914 18.2362C47.0856 17.6216 48 16.2463 48 14.7096C48 12.5753 46.2634 10.8387 44.129 10.8387C41.9947 10.8387 40.2581 12.5753 40.2581 14.7096C40.2581 15.2638 40.3836 15.8169 40.6236 16.3291L37.9423 22.1382L37.2736 21.4691C36.9088 21.1035 36.4234 20.9032 35.9078 20.9032H35.5532C35.4091 20.9032 35.2761 20.8204 35.2118 20.6926L35.0772 20.4216C34.748 19.7634 34.0861 19.3548 33.3508 19.3548H33.2314C32.4961 19.3548 31.8334 19.7634 31.5049 20.4223L31.3703 20.6919C31.2324 20.9674 30.7632 20.9334 30.6657 20.6423L30.4189 19.8999C30.1535 19.111 29.4171 18.5806 28.5854 18.5806C27.8502 18.5806 27.1875 18.9892 26.859 19.6481L26.7244 19.9177C26.6602 20.0462 26.5263 20.129 26.3823 20.129H25.9309C25.8002 20.129 25.6724 20.143 25.5484 20.1675V13.9354H17.8669L19.9922 3.09673H25.5484V1.54834H18.7175L16.2891 13.9354H11.6129L15.8857 9.66263L15.2348 9.11979C13.5684 7.73168 11.4579 6.96769 9.29032 6.96769C4.16734 6.96769 0 11.135 0 16.258C0 18.4264 0.763987 20.5369 2.15285 22.2024L2.69493 22.8527L5.41936 20.1282L5.42011 22.5026L6.87248 44.2825C6.953 45.4993 7.97177 46.4516 9.19052 46.4516H37.9355C43.4849 46.4516 48 41.9364 48 36.3871V30.9677H46.4123C46.1851 28.4591 44.8639 26.267 42.9315 24.86ZM44.8575 30.9677H43.2928C42.9152 28.3453 40.6599 26.3225 37.9355 26.3225C35.2111 26.3225 32.9558 28.3453 32.5781 30.9677H31.0135C31.3998 27.4891 34.3548 24.7741 37.9355 24.7741C41.5161 24.7741 44.4711 27.4891 44.8575 30.9677ZM41.7282 30.9677H34.1428C34.5026 29.2035 36.0658 27.8709 37.9355 27.8709C39.8052 27.8709 41.3683 29.2035 41.7282 30.9677ZM24 27.8709C25.869 27.8709 27.4328 29.2035 27.7927 30.9677H20.2073C20.5672 29.2035 22.131 27.8709 24 27.8709ZM42.3633 16.2557L42.1501 15.9042C41.9218 15.5281 41.8065 15.1262 41.8065 14.7096C41.8065 13.4293 42.8487 12.3871 44.129 12.3871C45.4094 12.3871 46.4516 13.4293 46.4516 14.7096C46.4516 15.7023 45.8112 16.5824 44.8582 16.9007L44.5237 17.0122L41.5872 24.0604C40.8209 23.6941 39.9934 23.4409 39.1225 23.3188L39.1085 23.3048L42.3633 16.2557ZM25.9309 21.6774H26.3823C27.1176 21.6774 27.7802 21.2687 28.1087 20.6098L28.2433 20.3403C28.3821 20.0647 28.8497 20.0987 28.948 20.3898L29.1948 21.1323C29.4594 21.9212 30.1958 22.4516 31.0275 22.4516C31.7627 22.4516 32.4254 22.0429 32.7539 21.384L32.8885 21.1145C32.9527 20.986 33.0866 20.9032 33.2306 20.9032H33.3501C33.4941 20.9032 33.6271 20.986 33.6914 21.1137L33.826 21.3848C34.1552 22.0429 34.8172 22.4516 35.5524 22.4516H35.907C36.0095 22.4516 36.1055 22.4909 36.1781 22.5638L36.908 23.2938C32.949 23.7724 29.8197 26.9742 29.4579 30.9677H29.3574C28.9797 28.3453 26.7244 26.3225 24 26.3225C23.7369 26.3225 23.4798 26.3482 23.2258 26.3845V25.3926C23.2258 25.2641 23.2893 25.1457 23.3963 25.0747L24.6891 24.2128C25.2271 23.8537 25.5484 23.2537 25.5484 22.6066V22.0599C25.5484 21.8494 25.7204 21.6774 25.9309 21.6774ZM24 15.4838V17.0322H21.6774V18.5806H24V22.6073C24 22.7358 23.9365 22.8542 23.8295 22.9252L22.5367 23.7871C22.4471 23.8465 22.3734 23.9217 22.2966 23.9947C20.4473 23.9622 18.7526 23.3675 17.1135 22.7869C16.8039 22.6776 16.4989 22.5699 16.1946 22.4671L16.9563 18.5806H20.129V17.0322H17.2598L17.5634 15.4838H24ZM15.9848 15.4838L15.6812 17.0322H8.51613L10.0645 15.4838H15.9848ZM4.64516 16.258C4.64516 13.6961 6.72845 11.6129 9.29032 11.6129C9.98853 11.6129 10.6614 11.7777 11.2825 12.0767L5.109 18.251C4.80998 17.6299 4.64516 16.9562 4.64516 16.258ZM1.54839 16.258C1.54839 11.989 5.0213 8.51608 9.29032 8.51608C10.8107 8.51608 12.2979 8.96744 13.5586 9.80061L12.4204 10.9385C11.4689 10.3748 10.4044 10.0645 9.29032 10.0645C5.87525 10.0645 3.09677 12.8429 3.09677 16.258C3.09677 17.3721 3.40713 18.4373 3.97077 19.3881L2.83291 20.5263C1.99975 19.2667 1.54839 17.7792 1.54839 16.258ZM15.3776 18.5806L14.7059 22.0089C13.9378 21.8082 13.1715 21.6774 12.3871 21.6774C10.2868 21.6774 8.22429 22.3325 6.99156 22.813L6.96774 22.4516V18.5806H15.3776ZM9.19052 44.9032C8.7849 44.9032 8.44506 44.5856 8.4186 44.18L7.10081 24.4404C8.09199 24.0215 10.2535 23.2258 12.3871 23.2258C13.043 23.2258 13.7155 23.3475 14.4069 23.5323L10.8535 41.6578L12.3731 41.9557L15.894 24C16.1265 24.0805 16.3601 24.1625 16.5972 24.246C18.1138 24.7836 19.8092 25.3828 21.6774 25.5189V26.8537C20.0735 27.6192 18.905 29.1468 18.6426 30.9685H17.0323V36.3878C17.0323 39.9692 18.9129 43.1193 21.7379 44.9039H9.19052V44.9032ZM37.9355 44.9032H27.0968C22.4013 44.9032 18.5806 41.0825 18.5806 36.3871V35.6129H42.5806V34.0645H18.5806V32.5161H46.4516V34.0645H44.129V35.6129H46.4516V36.3871C46.4516 41.0825 42.6309 44.9032 37.9355 44.9032Z" fill="black"/>
<path d="M23.2266 28.645H24.7749V30.1934H23.2266V28.645Z" fill="black"/>
<path d="M43.3555 13.9355H44.9039V15.4839H43.3555V13.9355Z" fill="black"/>
</g>
<defs>
<clipPath id="clip0_5536_19647">
<rect width="48" height="48" fill="white"/>
</clipPath>
</defs>
</svg>
