<svg width="40" height="40" viewBox="0 0 40 40" fill="none" xmlns="http://www.w3.org/2000/svg">
<path d="M39.4145 21.336C39.4145 15.7922 36.9191 10.8312 32.9902 7.515C29.8434 4.85891 21.0028 4.55469 21.0028 4.55469L14.5956 4.59164C14.548 4.6118 14.4904 4.59781 14.443 4.61836C8.16312 7.34352 4.08789 13.8005 4.08789 21.3062C4.08789 31.2905 11.5319 38.0844 21.5161 38.0844C24.5178 38.0844 27.169 38.6825 29.6604 37.3879C35.4559 34.3765 39.4145 28.3185 39.4145 21.336Z" fill="#94CCD4"/>
<path d="M32.9906 7.51484C31.1523 8.71719 29.1789 9.91016 28.439 10.0719C26.4086 10.6656 23.7656 9.40781 23.2226 12.4023C23.207 12.9805 23.1562 13.5297 23.0695 14.0422C22.9726 14.6141 22.7601 15.1523 22.4515 15.6305C22.1429 16.1086 21.3216 16.2481 20.8435 16.5763C19.5271 17.4809 18.4575 17.5352 17.0403 16.7969C17.0043 16.7781 16.9676 16.7586 16.9309 16.7391C14.57 15.582 13.183 12.9211 15.6307 10.9766C17.2393 9.64844 16.996 7.3057 15.8718 5.84164L15.1952 5.05883C15.7204 4.84187 15.5066 4.20898 16.0554 4.04156C17.7261 3.53187 19.4994 3.25781 21.3366 3.25781C25.7773 3.25781 29.8437 4.85859 32.9906 7.51484Z" fill="#B7E546"/>
<path d="M35.3565 16.861C35.3464 15.3688 34.7439 13.9407 33.6812 12.8922C32.7745 11.8549 32.4609 11.2368 31.2149 12.3821C30.0338 13.8512 31.1987 15.6746 28.6883 18.18C28.2437 18.6325 27.9942 19.2521 28.0193 19.8871C28.0184 19.887 28.0188 19.775 28.0179 19.7748C28.1081 21.3478 29.1826 22.6159 30.714 22.6159C32.6812 22.6158 35.3565 20.3066 35.3565 16.861Z" fill="#B7E546"/>
<path d="M29.6966 18.0633C29.2521 18.5164 29.0021 19.1359 29.0271 19.7711C29.0263 19.7703 29.0263 19.7695 29.0255 19.7695C29.1005 21.0719 30.2294 22.168 31.4849 22.507C31.2216 22.5789 30.9623 22.6156 30.7138 22.6156C29.1826 22.6156 27.5537 21.343 27.463 19.7695C27.4638 19.7695 27.4638 19.7703 27.4646 19.7711C27.4396 19.1359 27.6896 18.5164 28.1341 18.0633C30.6443 15.5586 29.1896 13.6016 30.3709 12.1328C31.0826 11.4781 31.7662 11.4813 32.3896 11.7977C32.2388 11.8813 32.0873 11.9914 31.9334 12.1328C30.7521 13.6016 32.2068 15.5586 29.6966 18.0633Z" fill="#ABD641"/>
<path d="M37.0546 1.9532V10.9771L36.4796 11.523C36.4796 12.2781 35.6212 12.3919 34.866 12.3919L30.7387 12.3609C30.5467 12.3609 30.3595 12.4215 30.2041 12.5341L26.7982 14.8991C26.4969 15.1173 26.0751 14.902 26.0751 14.53L26.3948 13.3926C26.3948 12.8891 25.9866 12.4811 25.4833 12.4811H24.3895C23.6345 12.4811 23.0223 11.869 23.0223 11.1138L22.8574 2.64844C22.8574 1.89336 23.1573 1.09695 23.9124 1.09695L24.2935 0.585938H35.6873C36.4425 0.585938 37.0546 1.19805 37.0546 1.9532Z" fill="#DC4955"/>
<path d="M37.0548 10.9771V11.4329C37.0548 12.188 36.4427 12.8002 35.6876 12.8002H30.7946C30.6023 12.8002 30.4154 12.8613 30.2605 12.9734L26.5661 15.6486C26.2653 15.8673 25.8433 15.6523 25.8433 15.2795V13.7116C25.8433 13.2082 25.4352 12.8002 24.9318 12.8002H23.838C23.0829 12.8002 22.4707 12.188 22.4707 11.4329V1.9532C22.4707 1.19812 23.0828 0.585938 23.838 0.585938H24.2937V10.7948C24.2937 10.8955 24.3754 10.9771 24.476 10.9771H24.9318C25.9809 10.9771 26.8937 11.5705 27.352 12.44C27.4302 12.5882 27.6196 12.635 27.7553 12.5366L29.1903 11.4966C29.6598 11.1566 30.2148 10.9771 30.7945 10.9771H37.0548Z" fill="#D82F3C"/>
<path d="M25.6328 37.8344C15.4094 37.8344 7.12109 29.5704 7.12109 19.3766C7.12109 13.3055 9.90453 7.98247 14.4428 4.61841C7.87805 7.32817 3.25781 13.7926 3.25781 21.336C3.25781 24.41 4.025 27.3047 5.37844 29.8393C5.37844 29.8393 9.67445 33.2416 11.8468 34.8404C14.8435 37.0458 20.6663 38.4684 20.6663 38.4684C20.6663 38.4684 27.1454 38.6883 29.6298 37.4023C28.3422 37.6852 27.0055 37.8344 25.6328 37.8344Z" fill="#6FBBC6"/>
<path d="M29.6596 37.3861C28.2069 35.3627 25.5352 33.1321 25.65 30.4454C25.6891 29.5295 25.5683 28.6105 25.2667 27.7444C25.262 27.7326 25.2581 27.7211 25.2543 27.7097C25.1018 27.2808 24.8727 26.8838 24.5875 26.53C23.8002 25.5519 22.1201 23 21.2986 22.6422C19.7299 21.6719 17.6062 22.3944 16.767 23.9875C16.0385 25.8302 15.8376 28.3551 13.9347 29.349C12.7972 29.9658 11.1577 29.8272 10.2924 28.8058C8.79109 26.8558 6.68914 28.7413 5.38086 29.8385C5.9007 30.8097 8.02172 31.5216 8.70766 32.383C11.5538 35.9581 14.0868 37.3362 18.2572 38.0846C22.1363 38.7885 26.1167 39.2263 29.6173 37.4076C29.6314 37.4002 29.6455 37.3933 29.6596 37.3861Z" fill="#B7E546"/>
<path d="M29.623 37.4039C26.5152 39.0209 22.9266 39.6803 19.4449 39.3148V39.3141C13.5606 38.7387 8.13016 35.0681 5.38086 29.8383C6.41523 28.9703 7.94727 27.6086 9.28555 28.0437C12.3988 33.8695 18.552 37.8344 25.6332 37.8344C27.0035 37.8344 28.3379 37.6859 29.623 37.4039Z" fill="#ABD641"/>
<path d="M33.6543 21.7521V30.776L33.0793 31.3219C33.0793 32.077 32.2209 32.1907 31.4657 32.1907L27.3384 32.1597C27.1464 32.1597 26.9592 32.2204 26.8038 32.333L23.3979 34.6979C23.0966 34.9162 22.6748 34.7009 22.6748 34.3289L22.9945 33.1915C22.9945 32.688 22.5863 32.28 22.083 32.28H20.9891C20.2341 32.28 19.6219 31.6679 19.6219 30.9127L19.457 22.4474C19.457 21.6923 19.757 20.8959 20.512 20.8959L20.8931 20.3849H32.287C33.0421 20.3848 33.6543 20.997 33.6543 21.7521Z" fill="#FFBF54"/>
<path d="M33.6545 30.7761V31.2318C33.6545 31.9869 33.0423 32.5991 32.2872 32.5991H27.3942C27.2019 32.5991 27.015 32.6602 26.8601 32.7723L23.1657 35.4475C22.8649 35.6663 22.4429 35.4512 22.4429 35.0784V33.5106C22.4429 33.0072 22.0348 32.5991 21.5314 32.5991H20.4376C19.6825 32.5991 19.0703 31.987 19.0703 31.2318V21.7522C19.0703 20.9971 19.6824 20.3849 20.4376 20.3849H20.8934V30.5938C20.8934 30.6945 20.975 30.7761 21.0756 30.7761H21.5314C22.5805 30.7761 23.4933 31.3694 23.9516 32.2389C24.0298 32.3872 24.2192 32.4339 24.3549 32.3356L25.7899 31.2956C26.2594 30.9556 26.8145 30.7761 27.3941 30.7761H33.6545Z" fill="#FFA442"/>
<path d="M16.2233 11.9859L16.2006 12.0047C15.8991 12.2445 14.8522 13.2031 14.11 14.025C13.8116 12.8976 14.071 11.7008 15.2288 10.7812C16.8374 9.4531 16.2436 6.8656 15.1194 5.40154L14.4424 4.61834C14.9674 4.40115 15.5053 4.20857 16.0545 4.04138C16.5405 4.77966 16.9725 5.40154 16.9725 5.40154C18.1374 7.57107 18.1897 10.3633 16.2233 11.9859Z" fill="#ABD641"/>
<path d="M22.5158 15.5242C22.4947 15.5602 22.4728 15.5953 22.4502 15.6305C22.1416 16.1086 21.7384 16.5258 21.2603 16.8539C19.9439 17.7586 18.2369 17.8602 16.8197 17.1219C16.7838 17.1031 16.747 17.0836 16.7103 17.0641C14.4884 15.975 12.9689 13.0946 14.8369 11.1383C14.2423 12.9336 15.6463 15.0063 17.5361 15.8922C17.5744 15.9117 17.6127 15.9313 17.6502 15.95C19.1314 16.6883 20.9158 16.5867 22.2916 15.6821C22.3681 15.6321 22.4431 15.5797 22.5158 15.5242Z" fill="#ABD641"/>
<path d="M19.2461 39.2926C19.2511 39.2931 19.2561 39.2938 19.2611 39.2943C19.2561 39.2938 19.2511 39.2932 19.2461 39.2926Z" fill="#94CCD4"/>
<path d="M13.6426 37.698C13.6603 37.7064 13.6782 37.7145 13.6959 37.7228C13.6781 37.7145 13.6603 37.7064 13.6426 37.698Z" fill="#94CCD4"/>
<path d="M29.6281 37.4023C29.3055 37.5695 28.9781 37.7266 28.6445 37.8734C28.9727 37.7281 29.2961 37.5727 29.6148 37.407C29.6172 37.4062 29.6187 37.4047 29.6211 37.4039C29.6234 37.4031 29.6258 37.4031 29.6281 37.4023Z" fill="#94CCD4"/>
<path d="M1.21484 11.2892L1.32953 19.1514C1.32953 19.9214 1.95688 20.5455 2.73078 20.5455L7.12961 20.6893C7.32641 20.6893 7.5182 20.7511 7.67758 20.866L10.6797 23.4039C10.9885 23.6265 11.4208 23.407 11.4208 23.0276L11.6105 21.8007C11.6105 21.2874 12.0287 20.8713 12.5446 20.8713L13.9965 20.866C14.7704 20.866 15.5324 20.6822 15.5324 19.9123V10.2466C15.5324 9.47668 14.9051 8.85254 14.1312 8.85254H1.98695C1.21305 8.85254 1.21484 10.5193 1.21484 11.2892Z" fill="#FAF8F8"/>
<path d="M15.5328 19.7437V19.9125C15.5328 20.682 14.9055 21.3062 14.1313 21.3062H13.0102C12.4945 21.3062 12.0766 21.7226 12.0766 22.2359V23.8351C12.0766 24.214 11.6438 24.4335 11.3352 24.2109L7.55 21.4828C7.39062 21.3679 7.19844 21.3062 7.00156 21.3062H1.9875C1.21328 21.3062 0.585938 20.682 0.585938 19.9125V10.2468C0.585938 9.47651 1.21328 8.85229 1.9875 8.85229H2.14844V19.3531C2.14844 19.5688 2.32336 19.7437 2.53906 19.7437H7.00156C7.52656 19.7437 8.03828 19.9093 8.46328 20.2156L10.2094 21.4742C10.3766 21.5945 10.6094 21.521 10.6844 21.3296C11.0484 20.4023 11.9539 19.7437 13.0102 19.7437H15.5328Z" fill="#F0E9E6"/>
<path d="M37.6475 12.2587C37.7108 12.0656 37.7455 11.8597 37.7455 11.6458V1.98C37.7455 0.888203 36.854 0 35.7583 0H23.6141C22.5184 0 21.6269 0.888203 21.6269 1.98V2.67547C19.0071 2.62297 16.2841 3.16664 13.8767 4.22242C11.6727 5.18437 9.70187 6.54516 8.01375 8.26656H5.9375C5.61391 8.26656 5.35156 8.52891 5.35156 8.8525C5.35156 9.17609 5.61391 9.43844 5.9375 9.43844H14.1314C14.5809 9.43844 14.9467 9.80102 14.9467 10.2466V19.9123C14.9467 20.3579 14.5809 20.7205 14.1314 20.7205H13.0104C12.1722 20.7205 11.4902 21.4002 11.4902 22.2358V23.6006L7.89227 21.0078C7.63148 20.8198 7.32352 20.7205 7.00172 20.7205H1.98719C1.53766 20.7205 1.17188 20.358 1.17188 19.9123V10.2466C1.17188 9.80102 1.53766 9.43852 1.98719 9.43852H3.20312C3.52672 9.43852 3.78906 9.17617 3.78906 8.85258C3.78906 8.52899 3.52672 8.26664 3.20312 8.26664H1.98719C0.891484 8.26664 0 9.15484 0 10.2466V19.9123C0 21.0041 0.891484 21.8924 1.98719 21.8924H2.68102C2.81992 26.6692 4.74492 31.1398 8.13859 34.5335C11.6638 38.0586 16.3507 40 21.336 40C23.928 40 26.437 39.4786 28.7937 38.4503C31.0698 37.4572 33.098 36.04 34.8223 34.2382C35.046 34.0044 35.0379 33.6335 34.8041 33.4098C34.5702 33.186 34.1994 33.1941 33.9756 33.428C32.6882 34.7733 31.2276 35.884 29.6427 36.742C28.898 35.7509 27.8052 34.5584 27.0747 33.4154L27.2144 33.3147C27.2744 33.2714 27.3454 33.2486 27.4197 33.2486H32.4342C33.5299 33.2486 34.4214 32.3604 34.4214 31.2686V21.6029C34.4214 21.472 34.4083 21.3443 34.3838 21.2205C35.3909 20.0151 35.9425 18.4785 35.9425 16.857C35.9347 15.704 35.6089 14.5899 35.0107 13.6258H35.7582C36.1695 13.6258 36.552 13.5006 36.8694 13.2866C38.1527 15.761 38.8281 18.5271 38.8281 21.336C38.8281 24.953 37.7339 28.4237 35.6637 31.3732C35.4778 31.638 35.5418 32.0035 35.8067 32.1894C35.9816 32.315 36.3575 32.3653 36.6229 32.0464C38.8322 28.8988 40 25.1952 40 21.336C40 18.1534 39.1873 15.0214 37.6475 12.2587ZM14.1314 8.26664H9.70859C11.0846 7.03734 12.6223 6.04883 14.2731 5.32031L14.6648 5.77227C15.3224 6.63555 15.7329 7.87484 15.5983 8.91242C15.2347 8.51586 14.7117 8.26664 14.1314 8.26664ZM27.778 36.2834C28.0581 36.6247 28.3275 36.9532 28.5748 37.2739C26.3351 38.2924 23.8816 38.8281 21.336 38.8281C14.7798 38.8281 9.05555 35.2018 6.06078 29.8502C6.88688 29.1689 7.95102 28.3409 8.80117 28.4395C9.14812 28.4798 9.45531 28.6825 9.74023 29.0595C10.4532 30.002 11.6563 30.1857 12.4992 30.2419C13.7578 30.1641 14.8794 29.5212 15.5796 28.4846C15.7627 28.2177 15.6948 27.853 15.4279 27.67C15.161 27.4869 14.7963 27.5549 14.6133 27.8217C14.1098 28.5558 13.4448 28.953 12.5238 29.0688C11.5672 28.9986 10.9957 28.7768 10.6749 28.3527C10.1936 27.7159 9.60867 27.3534 8.93633 27.2753C7.69531 27.1315 6.47477 28.0034 5.51172 28.7852C4.51766 26.682 3.93086 24.3504 3.85359 21.8923H7.00164C7.07602 21.8923 7.14703 21.9152 7.20703 21.9584L10.9924 24.6864C11.1762 24.8188 11.3915 24.8862 11.6083 24.8862C11.7723 24.8862 11.9372 24.8476 12.0898 24.7695C12.4428 24.5888 12.662 24.2307 12.662 23.8348V22.2358C12.662 22.0464 12.8183 21.8923 13.0103 21.8923H14.1313C15.227 21.8923 16.1185 21.0041 16.1185 19.9123V17.4117C16.8159 17.8418 17.9205 18.2236 18.8198 18.1991C19.7921 18.1991 20.7598 17.9091 21.5927 17.3371C22.6798 16.5905 23.4282 15.4252 23.6462 14.14C23.6745 13.9731 23.6993 13.8012 23.7205 13.6257H24.735C24.927 13.6257 25.0832 13.7798 25.0832 13.9691V15.5681C25.0832 15.964 25.3025 16.3222 25.6555 16.5029C25.9533 16.6423 26.3162 16.6895 26.7527 16.4198L29.1648 14.6816C29.0716 15.5891 28.8275 16.5438 27.7161 17.653C27.1941 18.1843 26.8945 18.8941 26.8786 19.6227H20.2899C19.1942 19.6227 18.3027 20.511 18.3027 21.6028V21.8561C17.2149 22.2708 16.344 23.1861 15.9537 24.3391C15.8686 24.5905 15.7354 25.0187 15.6116 25.4277C15.517 25.7371 15.6912 26.0647 16.0006 26.1593C16.2366 26.2255 16.5706 26.1438 16.7323 25.7703C16.8153 25.4986 16.9292 25.1197 17.0637 24.7148C17.2894 24.0482 17.7356 23.4952 18.3028 23.1542V31.2684C18.3028 32.3602 19.1943 33.2484 20.29 33.2484H21.411C21.603 33.2484 21.7592 33.4025 21.7592 33.5919V35.1908C21.7592 35.5866 21.9785 35.9448 22.3315 36.1255C22.4841 36.2037 22.6489 36.2422 22.813 36.2422C23.0298 36.2422 23.2452 36.1748 23.4289 36.0425L26.1233 34.1009C26.6173 34.8679 27.2052 35.586 27.778 36.2834ZM33.2497 31.2685C33.2497 31.7141 32.8839 32.0766 32.4344 32.0766H27.4198C27.098 32.0766 26.79 32.176 26.5293 32.364L22.9312 34.9569V33.592C22.9312 32.7564 22.2493 32.0766 21.4112 32.0766H20.2902C19.8406 32.0766 19.4748 31.7141 19.4748 31.2685V21.6029C19.4748 21.1573 19.8406 20.7947 20.2902 20.7947H27.5273C27.5279 20.7947 27.5284 20.7948 27.5291 20.7948C27.5299 20.7948 27.5308 20.7947 27.5316 20.7947H32.4345C32.884 20.7947 33.2498 21.1573 33.2498 21.6029L33.2497 31.2685ZM34.7708 16.861C34.7708 18.0513 34.4116 19.1858 33.7508 20.1213C33.3999 19.8115 32.939 19.6228 32.4344 19.6228H28.0511C28.0667 19.1996 28.2448 18.7871 28.5481 18.4784C30.1984 16.8316 30.2987 15.3723 30.3792 14.1997C30.3891 14.0556 30.399 13.9173 30.4112 13.7835L30.5382 13.692C30.5983 13.6487 30.6693 13.6258 30.7437 13.6258H33.5634C34.3351 14.5292 34.7627 15.6712 34.7708 16.861ZM35.7583 12.4539H30.7437C30.422 12.4539 30.114 12.5532 29.8532 12.7412L29.5031 12.9934C29.5018 12.9944 29.5005 12.9953 29.4991 12.9963L26.2552 15.3341V13.9691C26.2552 13.1336 25.5732 12.4538 24.7351 12.4538H23.6141C23.1645 12.4538 22.7987 12.0913 22.7987 11.6457V9.45312C22.7987 9.12953 22.5364 8.86719 22.2128 8.86719C21.8892 8.86719 21.6269 9.12953 21.6269 9.45312V11.6457C21.6269 12.3578 22.0062 12.983 22.574 13.332C22.5516 13.5424 22.5243 13.7477 22.4909 13.9441C22.3257 14.9185 21.7565 15.8031 20.9294 16.3712C19.4702 17.3982 17.5042 17.1389 16.1186 15.9921V10.6941C17.3758 9.03602 16.7468 6.39867 15.4255 4.86047C17.3117 4.18391 19.5029 3.80258 21.6268 3.84727V6.71875C21.6268 7.04234 21.8891 7.30469 22.2127 7.30469C22.5363 7.30469 22.7987 7.04234 22.7987 6.71875V1.98C22.7987 1.53437 23.1645 1.17188 23.614 1.17188H35.7582C36.2077 1.17188 36.5735 1.53445 36.5735 1.98V11.6457C36.5736 12.0913 36.2078 12.4539 35.7583 12.4539Z" fill="black"/>
<path d="M33.3047 3.88695H30.2715V2.89062C30.2715 2.56703 30.0091 2.30469 29.6855 2.30469C29.362 2.30469 29.0996 2.56703 29.0996 2.89062V3.88695H26.0664C25.7428 3.88695 25.4805 4.1493 25.4805 4.47289C25.4805 4.79648 25.7428 5.05883 26.0664 5.05883H27.2813C27.5627 6.30578 28.1191 7.4525 28.8941 8.42781C28.3011 8.99398 27.6073 9.46336 26.8336 9.8082L26.0263 10.168C25.7307 10.2997 25.5979 10.6461 25.7296 10.9416C25.8268 11.1598 26.0409 11.2892 26.2652 11.2892C26.3448 11.2892 26.4259 11.2729 26.5033 11.2384L27.3105 10.8786C28.2011 10.4817 29.0008 9.94289 29.6855 9.2932C30.3703 9.94289 31.17 10.4817 32.0605 10.8786L32.8678 11.2384C33.0738 11.3237 33.46 11.2998 33.6415 10.9416C33.7732 10.6461 33.6404 10.2997 33.3448 10.168L32.5375 9.8082C31.7638 9.46344 31.07 8.99398 30.477 8.42781C31.252 7.4525 31.8084 6.30578 32.0897 5.05883H33.3046C33.6282 5.05883 33.8905 4.79648 33.8905 4.47289C33.8905 4.1493 33.6283 3.88695 33.3047 3.88695ZM29.6855 7.53484C29.1365 6.80148 28.7268 5.96352 28.4875 5.05883H30.8835C30.6442 5.96352 30.2346 6.80148 29.6855 7.53484Z" fill="black"/>
<path d="M5.07651 19.1419C5.37932 19.2561 5.71745 19.1033 5.83159 18.8006L6.3401 17.4532H9.77331L10.2871 18.8023C10.3762 19.0361 10.5987 19.1799 10.8348 19.1799C10.9041 19.1799 10.9746 19.1675 11.0432 19.1414C11.3457 19.0262 11.4974 18.6877 11.3822 18.3853L8.74206 11.4531C8.74034 11.4486 8.73862 11.4442 8.73682 11.4397C8.62182 11.1587 8.35135 10.977 8.04776 10.9767C8.04745 10.9767 8.04729 10.9767 8.04698 10.9767C7.74378 10.9767 7.47323 11.1579 7.35776 11.4383C7.35557 11.4436 7.35346 11.449 7.35135 11.4545L4.73518 18.387C4.62089 18.6896 4.7737 19.0277 5.07651 19.1419ZM8.04878 12.9253L9.32698 16.2813H6.78229L8.04878 12.9253Z" fill="black"/>
<path d="M30.8495 22.8906H28.1237C27.8001 22.8906 27.5377 23.153 27.5377 23.4766C27.5377 23.8002 27.8001 24.0625 28.1237 24.0625H28.9006V25.8984H26.5699C26.7061 25.6212 26.7827 25.3096 26.7827 24.9805C26.7827 23.8281 25.8452 22.8906 24.6929 22.8906H23.001C22.6774 22.8906 22.4151 23.153 22.4151 23.4766C22.4151 23.8002 22.6774 24.0625 23.001 24.0625H24.6929C25.199 24.0625 25.6108 24.4743 25.6108 24.9805C25.6108 25.4866 25.199 25.8984 24.6929 25.8984H22.813C22.4894 25.8984 22.227 26.1608 22.227 26.4844C22.227 26.808 22.4894 27.0703 22.813 27.0703H24.6929C25.199 27.0703 25.6108 27.4821 25.6108 27.9883C25.6108 28.503 25.2076 28.9062 24.6929 28.9062C23.8833 28.9062 22.9644 28.815 22.2873 28.138C22.0585 27.9091 21.6875 27.9091 21.4587 28.138C21.2299 28.3668 21.2299 28.7378 21.4587 28.9666C22.444 29.9518 23.7047 30.0781 24.6929 30.0781C25.8452 30.0781 26.7827 29.1406 26.7827 27.9883C26.7827 27.6591 26.7061 27.3476 26.5699 27.0703H28.9006V29.4922C28.9006 29.8158 29.163 30.0781 29.4865 30.0781C29.8101 30.0781 30.0725 29.8158 30.0725 29.4922V24.0625H30.8494C31.173 24.0625 31.4354 23.8002 31.4354 23.4766C31.4354 23.153 31.1731 22.8906 30.8495 22.8906Z" fill="black"/>
</svg>
