<svg width="32" height="32" viewBox="0 0 32 32" fill="none" xmlns="http://www.w3.org/2000/svg">
<path d="M30.4105 10.8034C29.4569 8.93142 27.5145 7.64502 25.2745 7.64502H3.52094C2.10974 7.64502 0.960938 8.79382 0.960938 10.205V21.0818C0.960938 22.493 2.10974 23.6418 3.52094 23.6418H5.30654C5.60414 25.1394 6.92894 26.2722 8.51294 26.2722C10.0969 26.2722 11.4185 25.1394 11.7193 23.6418H20.2889C20.5865 25.1394 21.9113 26.2722 23.4953 26.2722C25.0793 26.2722 26.4009 25.1394 26.7017 23.6418H28.4809C29.8921 23.6418 31.0409 22.493 31.0409 21.0818V13.4146C31.0409 12.5378 30.8393 11.709 30.4873 10.9634C30.4681 10.909 30.4425 10.8546 30.4105 10.8034ZM25.8569 11.8082H29.4569C29.6489 12.3074 29.7609 12.8482 29.7609 13.4178V15.6514H25.8569V11.8082ZM8.50974 24.9922C7.41214 24.9922 6.52254 24.0994 6.52254 23.005C6.52254 21.9074 7.41534 21.0178 8.50974 21.0178C9.60734 21.0178 10.5001 21.9106 10.5001 23.0082C10.5001 24.0994 9.60734 24.9922 8.50974 24.9922ZM23.4921 24.9922C22.3945 24.9922 21.5017 24.0994 21.5017 23.0018C21.5017 21.9042 22.3945 21.0114 23.4921 21.0114C24.5897 21.0114 25.4793 21.9042 25.4825 22.9986C25.4793 24.1026 24.5865 24.9922 23.4921 24.9922ZM28.4809 22.365H26.6953C26.3977 20.8674 25.0729 19.7346 23.4889 19.7346C21.9049 19.7346 20.5833 20.8674 20.2825 22.365H11.7161C11.4185 20.8674 10.0937 19.7346 8.50974 19.7346C6.92574 19.7346 5.60414 20.8674 5.30334 22.365H3.52094C2.81374 22.365 2.24094 21.7922 2.24094 21.085V10.2082C2.24094 9.50102 2.81374 8.92822 3.52094 8.92822H25.2713C26.6473 8.92822 27.8761 9.55222 28.7017 10.5282H25.2169H20.0329H14.8489H9.66494H4.48094C4.12894 10.5282 3.84094 10.8162 3.84094 11.1682V16.2914C3.84094 16.6434 4.12894 16.9314 4.48094 16.9314H9.66494H14.8489H20.0329H25.2169H29.7609V19.0082H28.1993C27.8473 19.0082 27.5593 19.2962 27.5593 19.6482C27.5593 20.0002 27.8473 20.2882 28.1993 20.2882H29.7609V21.085C29.7609 21.789 29.1881 22.365 28.4809 22.365ZM20.6729 11.8082H24.5769V15.6514H20.6729V11.8082ZM15.4889 11.8082H19.3929V15.6514H15.4889V11.8082ZM10.3049 11.8082H14.2089V15.6514H10.3049V11.8082ZM5.12094 15.6514V11.8082H9.02494V15.6514H5.12094Z" fill="white"/>
<path d="M20.4254 7.00803C20.7774 7.00803 21.0654 6.72003 21.0654 6.36803C21.0654 6.01603 20.7774 5.72803 20.4254 5.72803H8.36461C8.01261 5.72803 7.72461 6.01603 7.72461 6.36803C7.72461 6.72003 8.01261 7.00803 8.36461 7.00803H20.4254Z" fill="white"/>
</svg>
