<svg width="32" height="32" viewBox="0 0 32 32" fill="none" xmlns="http://www.w3.org/2000/svg">
<path d="M2.26475 30.75H2.25C1.90487 30.75 1.625 31.0299 1.625 31.375C1.625 31.7201 1.90481 32 2.25 32H2.26475C2.60993 32 2.88974 31.7201 2.88974 31.375C2.88974 31.0299 2.60993 30.75 2.26475 30.75Z" fill="white"/>
<path d="M29.7492 30.75H29.7344C29.3892 30.75 29.1094 31.0299 29.1094 31.375C29.1094 31.7201 29.3892 32 29.7344 32H29.7492C30.0944 32 30.3742 31.7201 30.3742 31.375C30.3742 31.0299 30.0944 30.75 29.7492 30.75Z" fill="white"/>
<path d="M27.9397 30.7498H26.6251V28.875C26.6251 28.5298 26.3453 28.25 26.0001 28.25H24.1252V26.3748C24.1252 26.0297 23.8454 25.7498 23.5002 25.7498H21.5804L19.9985 4.56616C19.9887 4.43466 19.9376 4.30966 19.8523 4.20898L16.4773 0.220999C16.4735 0.216561 16.4693 0.212624 16.4655 0.208311C16.4578 0.199686 16.45 0.191249 16.4417 0.182999C16.4338 0.175061 16.4256 0.167562 16.4173 0.160124C16.4128 0.156062 16.4087 0.151624 16.404 0.147687C16.4014 0.145499 16.3987 0.143749 16.396 0.141624C16.3864 0.133687 16.3765 0.126312 16.3665 0.119062C16.3595 0.113999 16.3527 0.108937 16.3456 0.104249C16.3355 0.0975619 16.3253 0.0914995 16.315 0.085437C16.3072 0.080937 16.2995 0.0763121 16.2917 0.0721246C16.282 0.0670621 16.2721 0.0624996 16.2622 0.0578747C16.2532 0.0537497 16.2444 0.0495622 16.2353 0.0459372C16.2261 0.0421873 16.2167 0.0389998 16.2074 0.0356873C16.1975 0.0321873 16.1877 0.0286873 16.1776 0.0257498C16.1685 0.0230624 16.1593 0.0209374 16.1502 0.0186874C16.1398 0.0161249 16.1295 0.0134999 16.119 0.0114999C16.1096 0.00968744 16.1001 0.00837495 16.0906 0.00706246C16.0805 0.00556247 16.0703 0.00399998 16.0601 0.00306248C16.0498 0.00206249 16.0395 0.00168749 16.0291 0.00118749C16.0197 0.000562497 16.0103 0 16.0009 0C15.9895 0 15.9782 0.000624996 15.9669 0.00124999C15.9585 0.00168749 15.9502 0.00199999 15.9417 0.00274998C15.9298 0.00387498 15.9178 0.00562497 15.9059 0.00743746C15.8982 0.00862495 15.8903 0.00962494 15.8827 0.0111249C15.8707 0.0133749 15.8588 0.0163749 15.847 0.0193749C15.8393 0.0213124 15.8315 0.0231249 15.8238 0.0253749C15.8127 0.0286248 15.8018 0.0324998 15.7909 0.0364373C15.7825 0.0394373 15.774 0.0423122 15.7658 0.0455622C15.7562 0.0494997 15.7466 0.0539997 15.7371 0.0584372C15.7277 0.0627496 15.7183 0.0671246 15.7092 0.0719371C15.7011 0.0761871 15.6932 0.0808745 15.6852 0.0856245C15.675 0.0916245 15.6648 0.0976244 15.6548 0.104312C15.6479 0.108874 15.6412 0.113812 15.6345 0.118687C15.6242 0.126124 15.614 0.133749 15.6041 0.141937C15.6017 0.143937 15.599 0.145624 15.5965 0.147687C15.5922 0.151374 15.5883 0.155624 15.584 0.159499C15.5753 0.167249 15.5668 0.175061 15.5585 0.183374C15.5506 0.191311 15.5431 0.199499 15.5357 0.207811C15.5317 0.212311 15.5272 0.216374 15.5233 0.221061L12.1485 4.20904C12.0633 4.30966 12.0121 4.43472 12.0022 4.56622L10.4204 25.7499H8.50027C8.15508 25.7499 7.87527 26.0298 7.87527 26.3749V28.2501H6.00028C5.6551 28.2501 5.37529 28.53 5.37529 28.8751V30.7499H4.06054C3.71542 30.7499 3.43555 31.0298 3.43555 31.3749C3.43555 31.7201 3.71542 31.9999 4.06054 31.9999H6.00003H13.5002H21.0001H26H27.9397C28.2848 31.9999 28.5646 31.7201 28.5646 31.3749C28.5647 31.0297 28.2849 30.7498 27.9397 30.7498ZM13.2335 4.86147L16.0002 1.59212L18.7671 4.86147L20.3269 25.7497H16.6252V7.9507C16.6252 7.60558 16.3453 7.32571 16.0002 7.32571C15.655 7.32571 15.3752 7.60558 15.3752 7.9507V25.7497H11.6736L13.2335 4.86147ZM9.12508 26.9997H22.8751V28.2499H9.12508V26.9997ZM25.3751 30.7498H21.0001H13.5002H6.62509V29.5H8.50008H23.5001H25.375V30.7498H25.3751Z" fill="white"/>
<path d="M16 6.78037C16.3451 6.78037 16.625 6.50049 16.625 6.15537V6.14062C16.625 5.7955 16.3451 5.51562 16 5.51562C15.6548 5.51562 15.375 5.7955 15.375 6.14062V6.15537C15.375 6.50056 15.6547 6.78037 16 6.78037Z" fill="white"/>
</svg>
