<svg width="32" height="32" viewBox="0 0 32 32" fill="none" xmlns="http://www.w3.org/2000/svg">
<g clip-path="url(#clip0_5172_27667)">
<path d="M16.0003 10.5649C14.5484 10.5649 13.3672 11.7461 13.3672 13.198C13.3672 14.6499 14.5484 15.8311 16.0003 15.8311C17.4522 15.8311 18.6334 14.6499 18.6334 13.198C18.6334 11.7461 17.4522 10.5649 16.0003 10.5649ZM16.0003 14.5811C15.2376 14.5811 14.6172 13.9607 14.6172 13.1981C14.6172 12.4354 15.2376 11.815 16.0003 11.815C16.7629 11.815 17.3834 12.4354 17.3834 13.1981C17.3834 13.9607 16.7629 14.5811 16.0003 14.5811Z" fill="white"/>
<path d="M29.2785 25.6811V19.5271H29.9036C30.0944 19.5271 30.2747 19.4399 30.3933 19.2904C30.5118 19.1409 30.5556 18.9454 30.5121 18.7596L29.8871 16.0904C29.8209 15.8077 29.5689 15.6079 29.2786 15.6079H23.9671V13.1334L24.4269 13.4262C24.718 13.6116 25.1044 13.5259 25.2898 13.2347C25.4752 12.9435 25.3894 12.5572 25.0983 12.3718L16.625 6.97691V5.60391H20.3097C20.6549 5.60391 20.9347 5.3241 20.9347 4.97891V2.36816C20.9347 2.02298 20.6549 1.74316 20.3097 1.74316H16C15.6548 1.74316 15.375 2.02298 15.375 2.36816V6.97691L6.90175 12.3719C6.61056 12.5572 6.52481 12.9435 6.71019 13.2347C6.82937 13.4219 7.03144 13.5242 7.238 13.5242C7.35281 13.5242 7.46906 13.4925 7.57306 13.4263L8.03294 13.1335V15.6079H2.72144C2.43112 15.6079 2.17906 15.8078 2.11287 16.0904L1.48787 18.7597C1.44438 18.9455 1.48813 19.141 1.60669 19.2905C1.72525 19.44 1.90562 19.5272 2.09644 19.5272H2.7215V25.6811C1.19887 25.8135 0 27.0945 0 28.651V29.6322C0 29.9774 0.279813 30.2572 0.625 30.2572H13.1875C13.5327 30.2572 13.8125 29.9774 13.8125 29.6322C13.8125 29.287 13.5327 29.0072 13.1875 29.0072H1.25V28.651C1.25 27.696 2.02694 26.919 2.98194 26.919H29.018C29.973 26.919 30.75 27.696 30.75 28.651V29.0072H18.8125C18.4673 29.0072 18.1875 29.287 18.1875 29.6322C18.1875 29.9774 18.4673 30.2572 18.8125 30.2572H31.375C31.7202 30.2572 32 29.9774 32 29.6322V28.651C32 27.0945 30.8011 25.8135 29.2785 25.6811ZM28.7829 16.8579L29.1152 18.2772H23.967V16.8579H28.7829ZM16.625 2.99316H19.6847V4.35385H16.625V2.99316ZM3.217 16.8579H8.03294V18.2772H2.88469L3.217 16.8579ZM3.9715 19.5271H8.03294V25.669H3.9715V19.5271ZM16.625 18.5848H18.8418V22.7275H16.625V18.5848ZM15.375 22.7274H13.1582V18.5847H15.375V22.7274ZM20.1629 23.9774V25.669H11.8371V23.9774H20.1629ZM21.4129 25.669V23.3524C21.4129 23.0072 21.1331 22.7274 20.7879 22.7274H20.0917V17.9597C20.0917 17.6145 19.8119 17.3347 19.4667 17.3347H16H12.5332C12.188 17.3347 11.9082 17.6145 11.9082 17.9597V22.7274H11.2121C10.8669 22.7274 10.5871 23.0072 10.5871 23.3524V25.669H9.28294V12.3376L16 8.06079L22.717 12.3376V25.669H21.4129ZM23.967 25.669V19.5271H28.0284V25.669H23.967Z" fill="white"/>
<path d="M16.5763 29.3932C16.4199 28.9881 15.857 28.8763 15.557 29.1901C15.1655 29.5764 15.4484 30.2606 15.9989 30.2569C16.4325 30.2664 16.7521 29.7901 16.5763 29.3932Z" fill="white"/>
</g>
<defs>
<clipPath id="clip0_5172_27667">
<rect width="32" height="32" fill="white"/>
</clipPath>
</defs>
</svg>
