<svg width="32" height="32" viewBox="0 0 32 32" fill="none" xmlns="http://www.w3.org/2000/svg">
<g clip-path="url(#clip0_5172_27739)">
<path d="M28.6667 29.3332H3.33333C1.496 29.3332 0 27.8372 0 25.9998V23.3332C0 22.9652 0.298667 22.6665 0.666667 22.6665H1.33333C2.804 22.6665 4 21.4705 4 19.9998C4 18.5292 2.804 17.3332 1.33333 17.3332H0.666667C0.298667 17.3332 0 17.0345 0 16.6665V13.9998C0 12.1625 1.496 10.6665 3.33333 10.6665H28.6667C30.504 10.6665 32 12.1625 32 13.9998V16.6665C32 17.0345 31.7013 17.3332 31.3333 17.3332H30.6667C29.196 17.3332 28 18.5292 28 19.9998C28 20.7118 28.2773 21.3812 28.7813 21.8852C29.284 22.3892 29.9533 22.6665 30.6653 22.6665H31.332C31.7 22.6665 31.9987 22.9652 31.9987 23.3332V25.9998C32 27.8372 30.504 29.3332 28.6667 29.3332ZM1.33333 23.9998V25.9998C1.33333 27.1025 2.23067 27.9998 3.33333 27.9998H28.6667C29.7693 27.9998 30.6667 27.1025 30.6667 25.9998V23.9998C29.5987 23.9998 28.5933 23.5838 27.8387 22.8292C27.0827 22.0732 26.6667 21.0678 26.6667 19.9998C26.6667 17.7945 28.4613 15.9998 30.6667 15.9998V13.9998C30.6667 12.8972 29.7693 11.9998 28.6667 11.9998H3.33333C2.23067 11.9998 1.33333 12.8972 1.33333 13.9998V15.9998C3.53867 15.9998 5.33333 17.7945 5.33333 19.9998C5.33333 22.2052 3.53867 23.9998 1.33333 23.9998Z" fill="white"/>
<path d="M11.3327 13.3332C10.9647 13.3332 10.666 13.0345 10.666 12.6665V11.3332C10.666 10.9652 10.9647 10.6665 11.3327 10.6665C11.7007 10.6665 11.9993 10.9652 11.9993 11.3332V12.6665C11.9993 13.0345 11.7007 13.3332 11.3327 13.3332Z" fill="white"/>
<path d="M11.3327 24.6146C10.9647 24.6146 10.666 24.3159 10.666 23.9479V21.6933C10.666 21.3253 10.9647 21.0266 11.3327 21.0266C11.7007 21.0266 11.9993 21.3239 11.9993 21.6933V23.9493C11.9993 24.3173 11.7007 24.6146 11.3327 24.6146ZM11.3327 18.9746C10.9647 18.9746 10.666 18.6759 10.666 18.3079V16.0519C10.666 15.6839 10.9647 15.3853 11.3327 15.3853C11.7007 15.3853 11.9993 15.6839 11.9993 16.0519V18.3079C11.9993 18.6759 11.7007 18.9746 11.3327 18.9746Z" fill="white"/>
<path d="M11.3327 29.3332C10.9647 29.3332 10.666 29.0345 10.666 28.6665V27.3332C10.666 26.9652 10.9647 26.6665 11.3327 26.6665C11.7007 26.6665 11.9993 26.9652 11.9993 27.3332V28.6665C11.9993 29.0345 11.7007 29.3332 11.3327 29.3332Z" fill="white"/>
<path d="M3.33267 12.0001C3.062 12.0001 2.80733 11.8348 2.70867 11.5668C2.57933 11.2214 2.754 10.8374 3.09933 10.7094L24.2993 2.79343C25.33 2.40676 26.5407 2.98543 26.8927 4.0241L29.2967 11.1188C29.414 11.4681 29.2273 11.8454 28.8793 11.9641C28.534 12.0828 28.1527 11.8948 28.034 11.5468L25.63 4.4521C25.5127 4.10543 25.11 3.9161 24.7647 4.04143L3.56467 11.9574C3.48867 11.9868 3.41 12.0001 3.33267 12.0001Z" fill="white"/>
</g>
<defs>
<clipPath id="clip0_5172_27739">
<rect width="32" height="32" fill="white"/>
</clipPath>
</defs>
</svg>
