<svg width="32" height="32" viewBox="0 0 32 32" fill="none" xmlns="http://www.w3.org/2000/svg">
<path d="M7.56189 5.24541C5.32724 7.48523 4.07227 10.52 4.07227 13.6839C4.07227 16.8478 5.32724 19.8826 7.56189 22.1224L15.4701 30.0306C15.5397 30.1002 15.6224 30.1555 15.7134 30.1932C15.8044 30.2309 15.9019 30.2503 16.0004 30.2503C16.0989 30.2503 16.1964 30.2309 16.2874 30.1932C16.3784 30.1555 16.461 30.1002 16.5306 30.0306L24.4389 22.1224C35.1698 10.4685 19.2178 -5.48646 7.56189 5.24541ZM23.3783 21.0618L16.0004 28.4398L8.62244 21.0618C6.66873 19.1035 5.57154 16.4501 5.57154 13.6839C5.57154 10.9176 6.66873 8.26433 8.62244 6.30596C18.8152 -3.07652 32.759 10.8722 23.3783 21.0618Z" fill="white"/>
<path d="M12.6511 11.5957C12.6553 12.4349 12.9724 13.2423 13.5404 13.8601C11.6643 14.5166 10.1133 15.9712 10.0004 18.3354C9.99381 18.5324 10.065 18.724 10.1986 18.8689C10.3322 19.0138 10.5174 19.1003 10.7143 19.1097C10.9112 19.119 11.1038 19.0505 11.2506 18.919C11.3973 18.7874 11.4864 18.6034 11.4985 18.4067C11.6122 16.0288 13.9108 14.9457 15.999 14.9457C18.0878 14.9457 20.3876 16.0292 20.5004 18.4067C20.5041 18.5054 20.5274 18.6024 20.5691 18.6919C20.6107 18.7815 20.6698 18.8619 20.7428 18.9283C20.8159 18.9947 20.9015 19.0459 20.9946 19.0789C21.0878 19.1118 21.1865 19.1258 21.2851 19.1201C21.3835 19.1154 21.48 19.0914 21.5691 19.0495C21.6582 19.0075 21.7381 18.9484 21.8044 18.8755C21.8706 18.8027 21.9218 18.7175 21.9552 18.6248C21.9885 18.5321 22.0032 18.4338 21.9985 18.3354C21.8868 15.9713 20.3352 14.5168 18.4582 13.8602C20.4995 11.629 18.7574 8.14984 15.9996 8.2466C15.558 8.2399 15.1195 8.32196 14.7102 8.4879C14.3009 8.65384 13.929 8.90028 13.6168 9.21262C13.3045 9.52496 13.0581 9.89683 12.8922 10.3062C12.7263 10.7155 12.6443 11.154 12.6511 11.5957ZM17.8476 11.5727C17.844 12.0586 17.6492 12.5236 17.3054 12.867C16.9616 13.2104 16.4964 13.4047 16.0104 13.4077C15.5245 13.4107 15.0569 13.2223 14.7088 12.8832C14.3608 12.5441 14.1602 12.0816 14.1506 11.5957C14.1542 11.1098 14.349 10.6448 14.6928 10.3014C15.0366 9.95798 15.5018 9.76375 15.9878 9.76073C16.4737 9.75771 16.9413 9.94614 17.2894 10.2852C17.6374 10.6244 17.838 11.0869 17.8476 11.5727Z" fill="white"/>
</svg>
