<svg width="32" height="32" viewBox="0 0 32 32" fill="none" xmlns="http://www.w3.org/2000/svg">
<path d="M20.5629 3.95418C20.2413 1.70005 18.2792 0 15.9992 0C14.5329 0 13.1403 0.707573 12.2745 1.89343C12.0976 2.13527 12.1505 2.47452 12.3924 2.65137C12.6334 2.82759 12.9735 2.77531 13.15 2.53315C13.8128 1.62632 14.8777 1.0848 15.999 1.0848C17.7428 1.0848 19.2429 2.38426 19.4889 4.1072C19.5277 4.3778 19.7598 4.57309 20.0254 4.57309C20.0506 4.57309 20.0767 4.57118 20.1026 4.56768C20.3991 4.52526 20.6052 4.25052 20.5629 3.95418Z" fill="white"/>
<path d="M28.3972 10.026L26.7701 7.31407C26.6722 7.15057 26.4957 7.05078 26.305 7.05078H24.7457C24.4464 7.05078 24.2034 7.29374 24.2034 7.5931C24.2034 7.89246 24.4464 8.13542 24.7457 8.13542H25.998L26.9743 9.76253H5.02555L6.00182 8.13542H6.57623C6.8756 8.13542 7.11855 7.89246 7.11855 7.5931C7.11855 7.29374 6.8756 7.05078 6.57623 7.05078H5.69483C5.50415 7.05078 5.32761 7.15057 5.22973 7.31407L3.60262 10.026C3.50203 10.1938 3.49965 10.4024 3.59578 10.5724C3.69192 10.7425 3.87211 10.8476 4.06771 10.8476H27.9321C28.1277 10.8476 28.3078 10.7425 28.4041 10.5724C28.5004 10.4024 28.4978 10.1935 28.3972 10.026Z" fill="white"/>
<path d="M25.6929 5.02481C25.617 4.90229 25.4957 4.81538 25.3556 4.78264L17.9619 3.05336C17.8219 3.02047 17.6745 3.04494 17.5521 3.12057C17.4301 3.19652 17.343 3.31776 17.3103 3.45791L16.7527 5.84138C16.6844 6.13296 16.8655 6.4247 17.1573 6.49271C17.4488 6.56103 17.7409 6.37989 17.8089 6.08815L18.243 4.23302L24.5803 5.71538L23.5845 9.97305C23.5162 10.2646 23.6973 10.5564 23.9891 10.6244C24.0309 10.6341 24.0723 10.6387 24.1133 10.6387C24.3596 10.6387 24.5826 10.4699 24.6406 10.22L25.76 5.43429C25.793 5.2943 25.7689 5.14684 25.6929 5.02481Z" fill="white"/>
<path d="M16.2873 6.30708L15.7931 2.12727C15.7762 1.98442 15.7033 1.85397 15.5902 1.76498C15.477 1.676 15.3342 1.63532 15.1907 1.65217L6.11921 2.72441C5.82191 2.75969 5.6093 3.02918 5.64442 3.32679L6.4683 10.2981C6.50104 10.5741 6.73509 10.777 7.00633 10.777C7.02747 10.777 7.04924 10.7756 7.07085 10.7732C7.36799 10.738 7.58059 10.4685 7.54563 10.1708L6.78531 3.7377L14.7796 2.7929L15.2099 6.43404C15.2452 6.7315 15.5134 6.94284 15.8123 6.90915C16.1096 6.87419 16.3222 6.60454 16.2873 6.30708Z" fill="white"/>
<path d="M20.5751 10.099L19.4986 5.62216C19.4649 5.48249 19.3771 5.36157 19.2545 5.28641C19.132 5.21189 18.9851 5.18853 18.8444 5.2219L10.1071 7.32317C9.81584 7.39308 9.63661 7.68609 9.70652 7.97735L10.2446 10.215C10.3145 10.5065 10.6075 10.6859 10.8986 10.6155C11.1898 10.5456 11.3691 10.2526 11.2992 9.96135L10.8878 8.25097L18.5705 6.40362L19.5202 10.3529C19.5798 10.6015 19.8023 10.7684 20.0471 10.7684C20.0892 10.7684 20.1318 10.7635 20.1746 10.7531C20.4658 10.6831 20.6451 10.3902 20.5751 10.099Z" fill="white"/>
<path d="M28.475 10.2772C28.4601 9.98897 28.2221 9.7627 27.9332 9.7627H4.06876C3.77988 9.7627 3.54185 9.98881 3.52692 10.2772L2.44212 31.4297C2.43449 31.5781 2.4882 31.7234 2.59053 31.8311C2.69302 31.9387 2.83508 31.9998 2.9838 31.9998H29.0177C29.1662 31.9998 29.3084 31.9388 29.4114 31.8311C29.5136 31.7234 29.5673 31.5783 29.5598 31.4297L28.475 10.2772ZM3.55457 30.915L4.58375 10.8473H27.4176L28.4467 30.915H3.55457Z" fill="white"/>
<path d="M20.0685 11.9321C19.1712 11.9321 18.4414 12.6619 18.4414 13.5592C18.4414 14.4565 19.1712 15.1864 20.0685 15.1864C20.9658 15.1864 21.6956 14.4565 21.6956 13.5592C21.6956 12.6619 20.9658 11.9321 20.0685 11.9321ZM20.0685 14.1017C19.7693 14.1017 19.5262 13.8584 19.5262 13.5594C19.5262 13.2604 19.7695 13.0171 20.0685 13.0171C20.3676 13.0171 20.6108 13.2604 20.6108 13.5594C20.6108 13.8584 20.3676 14.1017 20.0685 14.1017Z" fill="white"/>
<path d="M11.9318 11.9321C11.0345 11.9321 10.3047 12.6619 10.3047 13.5592C10.3047 14.4565 11.0345 15.1864 11.9318 15.1864C12.8291 15.1864 13.5589 14.4565 13.5589 13.5592C13.5589 12.6619 12.8291 11.9321 11.9318 11.9321ZM11.9318 14.1017C11.6328 14.1017 11.3895 13.8584 11.3895 13.5594C11.3895 13.2604 11.6328 13.0171 11.9318 13.0171C12.2309 13.0171 12.4741 13.2604 12.4741 13.5594C12.4741 13.8584 12.2309 14.1017 11.9318 14.1017Z" fill="white"/>
<path d="M20.0685 13.5591H20.0267C19.7274 13.5591 19.4844 13.802 19.4844 14.1014C19.4844 14.1754 19.499 14.2462 19.5262 14.3105V17.0844C19.5262 19.0282 17.9447 20.6099 16.0007 20.6099C14.0568 20.6099 12.4753 19.0284 12.4753 17.0844V14.1016C12.4753 13.8022 12.2323 13.5592 11.9329 13.5592C11.6336 13.5592 11.3906 13.8022 11.3906 14.1016V17.0846C11.3906 19.6266 13.4587 21.6947 16.0007 21.6947C18.5428 21.6947 20.6108 19.6266 20.6108 17.0846V14.1016C20.6108 13.8022 20.3679 13.5591 20.0685 13.5591Z" fill="white"/>
</svg>
