<svg width="32" height="32" viewBox="0 0 32 32" fill="none" xmlns="http://www.w3.org/2000/svg">
<path d="M14.5207 17.0134C14.5206 16.7925 14.4041 16.588 14.2143 16.4752C12.654 15.5487 11.6848 13.8465 11.6848 12.0332C11.6848 10.2205 12.654 8.51885 14.2143 7.59235C14.4041 7.47954 14.5206 7.2751 14.5207 7.05416C14.5208 6.83329 14.4046 6.62873 14.2148 6.51573C13.2281 5.92854 12.0958 5.61816 10.9404 5.61816C7.40314 5.61816 4.52539 8.49591 4.52539 12.0332C4.52539 15.5711 7.40314 18.4494 10.9404 18.4494C12.0958 18.4494 13.2281 18.139 14.2148 17.5518C14.4045 17.4388 14.5208 17.2342 14.5207 17.0134ZM10.9403 17.197C8.0937 17.197 5.77777 14.8805 5.77777 12.0332C5.77777 9.1866 8.0937 6.87066 10.9403 6.87066C11.5328 6.87066 12.1176 6.97191 12.669 7.16748C11.2687 8.37516 10.4324 10.1563 10.4324 12.0332C10.4324 13.911 11.2685 15.6924 12.669 16.9002C12.1176 17.0957 11.5328 17.197 10.9403 17.197Z" fill="white"/>
<path d="M16.918 15.6986C16.918 16.8379 17.8448 17.7647 18.9841 17.7647C20.1233 17.7647 21.0502 16.8379 21.0502 15.6986V11.8423C21.0502 11.2834 21.5049 10.8287 22.0638 10.8287C22.4097 10.8287 22.6901 10.5483 22.6901 10.2024C22.6901 9.85655 22.4097 9.57617 22.0638 9.57617C20.8143 9.57617 19.7977 10.5927 19.7977 11.8422V13.7996C19.5479 13.6922 19.2729 13.6324 18.9841 13.6324C17.8448 13.6325 16.918 14.5594 16.918 15.6986ZM18.984 14.8849C19.4327 14.8849 19.7977 15.2499 19.7977 15.6986C19.7977 16.1473 19.4327 16.5123 18.984 16.5123C18.5354 16.5123 18.1703 16.1472 18.1703 15.6986C18.1703 15.25 18.5354 14.8849 18.984 14.8849Z" fill="white"/>
<path d="M30.6801 20.4163V12.7316C30.6801 12.0412 30.1184 11.4795 29.428 11.4795H25.7367C25.5582 8.47406 24.2947 5.67431 22.1402 3.53944C19.8368 1.25706 16.7821 0 13.5389 0C6.80048 0 1.31836 5.48213 1.31836 12.2206C1.31836 16.4328 3.4453 20.2948 7.00798 22.5516C7.11192 22.6174 7.22798 22.6488 7.34248 22.6488C7.54992 22.6488 7.75292 22.5458 7.87217 22.3576C8.05723 22.0654 7.97036 21.6786 7.67823 21.4934C4.48011 19.4676 2.5708 16.0011 2.5708 12.2205C2.5708 6.17263 7.49111 1.25238 13.5389 1.25238C16.4497 1.25238 19.1914 2.38056 21.2587 4.42906C23.1779 6.33075 24.3087 8.82019 24.4823 11.4944C23.8787 11.5835 23.4134 12.1035 23.4134 12.7315V16.9984C22.5374 18.805 21.1859 20.3365 19.4952 21.432C17.7218 22.5812 15.6621 23.1887 13.539 23.1887C13.2494 23.1887 12.9567 23.1772 12.6692 23.1548C12.324 23.1288 12.023 23.3854 11.996 23.7302C11.969 24.075 12.2267 24.3764 12.5714 24.4034C12.8913 24.4284 13.2169 24.4411 13.5389 24.4411C15.9044 24.4411 18.1995 23.764 20.1763 22.4831C21.4412 21.6634 22.5349 20.6238 23.4134 19.4202V20.4162C23.4134 22.2043 24.7152 23.6932 26.4205 23.9873V28.0768L24.0824 29.7201C23.6329 30.0359 23.4421 30.6001 23.6078 31.124C23.7735 31.6479 24.254 31.9999 24.8034 31.9999H29.2901C29.8395 31.9999 30.32 31.6479 30.4857 31.124C30.6513 30.6001 30.4605 30.0359 30.0111 29.7201L27.6729 28.0768V23.9873C29.3783 23.6933 30.6801 22.2044 30.6801 20.4163ZM29.4277 16.2075H24.6655L24.6654 12.7319L29.4277 12.7316V16.2075ZM24.6657 20.4163L24.6656 17.4599H29.4277V20.4163C29.4277 21.7244 28.3635 22.7887 27.0553 22.7887H27.0381C25.73 22.7887 24.6657 21.7244 24.6657 20.4163ZM29.2917 30.7456C29.2915 30.7462 29.2914 30.7469 29.2911 30.7476C29.2907 30.7476 29.2904 30.7476 29.29 30.7476H24.8033C24.8029 30.7476 24.8025 30.7476 24.8022 30.7476C24.802 30.7469 24.8018 30.7462 24.8015 30.7456C24.8019 30.7453 24.8021 30.7451 24.8024 30.7449L27.0466 29.1677L29.2909 30.7449C29.2912 30.7452 29.2915 30.7454 29.2917 30.7456Z" fill="white"/>
<path d="M9.87039 23.8492C10.2163 23.8492 10.4966 23.5688 10.4966 23.2229C10.4966 22.8771 10.2163 22.5967 9.87039 22.5967C9.52452 22.5967 9.24414 22.8771 9.24414 23.2229C9.24414 23.5688 9.52452 23.8492 9.87039 23.8492Z" fill="white"/>
<path d="M15.593 11.7735C15.9389 11.7735 16.2193 11.4931 16.2193 11.1472C16.2193 10.8014 15.9389 10.521 15.593 10.521C15.2472 10.521 14.9668 10.8014 14.9668 11.1472C14.9668 11.4931 15.2472 11.7735 15.593 11.7735Z" fill="white"/>
<path d="M18.3333 9.60553C18.6791 9.60553 18.9595 9.32515 18.9595 8.97928C18.9595 8.63341 18.6791 8.35303 18.3333 8.35303C17.9874 8.35303 17.707 8.63341 17.707 8.97928C17.707 9.32515 17.9874 9.60553 18.3333 9.60553Z" fill="white"/>
<path d="M16.6048 6.98297C16.9506 6.98297 17.231 6.70259 17.231 6.35672C17.231 6.01085 16.9506 5.73047 16.6048 5.73047C16.2589 5.73047 15.9785 6.01085 15.9785 6.35672C15.9785 6.70259 16.2589 6.98297 16.6048 6.98297Z" fill="white"/>
</svg>
