<svg width="32" height="32" viewBox="0 0 32 32" fill="none" xmlns="http://www.w3.org/2000/svg">
<path d="M26.8805 4.55418C27.8818 4.30037 28.625 3.39168 28.625 2.3125C28.625 1.03737 27.5876 0 26.3125 0H5.6875C4.41244 0 3.375 1.03737 3.375 2.3125C3.375 3.39168 4.11812 4.30037 5.1195 4.55418C4.05325 5.46174 3.375 6.81217 3.375 8.31886C3.375 10.5686 5.20531 12.3989 7.45505 12.3989C8.26543 12.3989 9.00999 12.1127 9.59374 11.6365V27.3749H9.34374C8.1203 27.3749 7.12499 28.3703 7.12499 29.5937V31.3749C7.12499 31.7201 7.4048 31.9999 7.74999 31.9999H13.6458C13.991 31.9999 14.2708 31.7201 14.2708 31.3749C14.2708 31.0298 13.991 30.7499 13.6458 30.7499H8.37499V29.5937C8.37499 29.0596 8.80955 28.6249 9.34374 28.6249H22.6562C23.1904 28.6249 23.625 29.0595 23.625 29.5937V30.7499H18.3958C18.0506 30.7499 17.7708 31.0298 17.7708 31.3749C17.7708 31.7201 18.0506 31.9999 18.3958 31.9999H24.25C24.5951 31.9999 24.875 31.7201 24.875 31.3749V29.5937C24.875 28.3703 23.8796 27.3749 22.6562 27.3749H22.4036V11.6345C22.9877 12.1119 23.7333 12.3989 24.5448 12.3989C26.7946 12.3989 28.6249 10.5686 28.6249 8.31886C28.625 6.81217 27.9468 5.46174 26.8805 4.55418ZM4.625 2.3125C4.625 1.72662 5.10162 1.25 5.6875 1.25H26.3125C26.8983 1.25 27.375 1.72662 27.375 2.3125C27.375 2.89837 26.8983 3.37499 26.3125 3.37499H5.6875C5.10162 3.37499 4.625 2.89837 4.625 2.3125ZM21.1537 27.3749H18.5503V16.0079C18.5503 15.6627 18.2705 15.3829 17.9253 15.3829C17.5802 15.3829 17.3003 15.6627 17.3003 16.0079V27.3749H10.8437V9.63486H13.447V23.3125C13.447 23.6576 13.7269 23.9375 14.072 23.9375C14.4172 23.9375 14.697 23.6576 14.697 23.3125V9.63486H21.1537V27.3749ZM24.5449 11.1489C23.3654 11.1489 22.4058 10.1893 22.4058 9.00986C22.4058 8.13517 23.1174 7.42361 23.9921 7.42361C24.6229 7.42361 25.1361 7.9368 25.1361 8.56761C25.1361 9.00329 24.7816 9.35779 24.3459 9.35779C24.0007 9.35779 23.7209 9.63761 23.7209 9.98279C23.7209 10.328 24.0007 10.6078 24.3459 10.6078C25.4709 10.6078 26.3861 9.69254 26.3861 8.56761C26.3861 7.24755 25.3121 6.17361 23.9921 6.17361C22.6414 6.17361 21.509 7.12292 21.2251 8.38923C21.2017 8.38655 21.1778 8.38486 21.1537 8.38486H10.839C10.8173 8.38486 10.7959 8.38598 10.7747 8.38817C10.4904 7.12242 9.3583 6.17368 8.00799 6.17368C6.68793 6.17368 5.614 7.24761 5.614 8.56767C5.614 9.69267 6.52924 10.6079 7.65418 10.6079C7.99937 10.6079 8.27918 10.328 8.27918 9.98286C8.27918 9.63767 7.99937 9.35786 7.65418 9.35786C7.21849 9.35786 6.86399 9.00336 6.86399 8.56767C6.86399 7.93686 7.37718 7.42367 8.00799 7.42367C8.88093 7.42367 9.59124 8.13242 9.59411 9.00467C9.59411 9.00642 9.59386 9.00811 9.59386 9.00992V9.02555C9.58536 10.1978 8.62943 11.149 7.45518 11.149C5.89456 11.1489 4.625 9.87936 4.625 8.31886C4.625 6.28205 6.28206 4.62499 8.31887 4.62499H23.6811C25.718 4.62499 27.375 6.28205 27.375 8.31886C27.375 9.87936 26.1055 11.1489 24.5449 11.1489Z" fill="white"/>
<path d="M15.9713 30.75H15.9629C15.6177 30.75 15.3379 31.0298 15.3379 31.375C15.3379 31.7202 15.6177 32 15.9629 32H15.9713C16.3165 32 16.5963 31.7202 16.5963 31.375C16.5963 31.0298 16.3165 30.75 15.9713 30.75Z" fill="white"/>
<path d="M18.3677 13.1831C18.2514 13.0669 18.0902 13 17.9258 13C17.7608 13 17.6002 13.0669 17.4839 13.1831C17.367 13.2994 17.3008 13.4606 17.3008 13.625C17.3008 13.7894 17.367 13.9506 17.4839 14.0669C17.6002 14.1831 17.7608 14.25 17.9258 14.25C18.0902 14.25 18.2508 14.1831 18.3677 14.0669C18.4839 13.9506 18.5508 13.7894 18.5508 13.625C18.5509 13.4606 18.4839 13.2994 18.3677 13.1831Z" fill="white"/>
</svg>
