<svg width="32" height="32" viewBox="0 0 32 32" fill="none" xmlns="http://www.w3.org/2000/svg">
<g clip-path="url(#clip0_5172_27697)">
<path d="M30.4 28.8002H29.3333V26.6669H30.4C30.9891 26.6669 31.4667 26.1893 31.4667 25.6002V24.5336C31.4667 23.9445 30.9891 23.4669 30.4 23.4669H27.2V21.3336H30.4C30.9891 21.3336 31.4667 20.856 31.4667 20.2669V17.0669C31.4667 16.4778 30.9891 16.0002 30.4 16.0002H18.6421C19.1629 15.3329 19.4456 14.5107 19.4453 13.6642C19.447 13.1902 19.3564 12.7203 19.1787 12.2808C19.0979 12.0743 18.9989 11.8755 18.8827 11.6866C20.3616 10.8134 21.0732 9.0585 20.6202 7.40186C20.1671 5.74522 18.6615 4.59666 16.944 4.59757C16.6749 4.59476 16.4064 4.62358 16.144 4.68344C15.9342 2.27157 14.0654 0.335412 11.6625 0.0404203C9.25952 -0.254572 6.97787 1.17206 6.19093 3.46157C6.00294 3.31068 5.80117 3.17783 5.58827 3.06477C4.11559 2.29045 2.31083 2.5608 1.12969 3.73267C-0.0514516 4.90453 -0.336024 6.70711 0.426667 8.18584C0.596946 8.50743 0.810884 8.80393 1.0624 9.06691C0.80904 9.3317 0.593652 9.63037 0.4224 9.95437C-0.182549 11.1365 -0.129567 12.5481 0.562292 13.6815C1.25415 14.8149 2.48542 15.5073 3.81333 15.5096C4.13996 15.5097 4.46502 15.4645 4.7792 15.3752C4.89547 15.345 5.01031 15.3094 5.12373 15.2685C5.32243 15.6631 5.57222 16.0298 5.86667 16.3592V22.9336C5.86667 26.4776 5.7184 28.8002 3.73333 28.8002H1.6C0.716344 28.8002 0 29.5166 0 30.4002C0 31.2839 0.716344 32.0002 1.6 32.0002H30.4C31.2837 32.0002 32 31.2839 32 30.4002C32 29.5166 31.2837 28.8002 30.4 28.8002ZM28.2667 28.8002H27.2V26.6669H28.2667V28.8002ZM13.3333 28.8002V26.6669H26.1333V28.8002H13.3333ZM11.2 26.6669H12.2667V28.8002H11.2V26.6669ZM30.4 25.6002H9.06667V24.5336H30.4V25.6002ZM10.6667 22.9336V21.3336H12.2667V23.4669H10.6667C10.6667 23.2888 10.6667 23.1122 10.6667 22.9336ZM24 21.3336V23.4669H15.4667V21.3336H24ZM14.4 23.4669H13.3333V21.3336H14.4V23.4669ZM26.1333 23.4669H25.0667V21.3336H26.1333V23.4669ZM30.4 20.2669H9.06667V17.0669H30.4V20.2669ZM5.59253 14.0509C5.44538 13.9949 5.28102 14.0068 5.14347 14.0834C4.07557 14.6871 2.73596 14.5031 1.8704 13.6338C1.02883 12.7934 0.825645 11.506 1.36747 10.4472C1.56511 10.0734 1.84371 9.74856 2.18293 9.49624C2.31934 9.39571 2.39985 9.23635 2.39985 9.06691C2.39985 8.89746 2.31934 8.7381 2.18293 8.63758C1.84548 8.38687 1.56802 8.06423 1.37067 7.69304C0.824873 6.63331 1.02693 5.34228 1.8704 4.49997C2.72391 3.65705 4.02263 3.45842 5.08907 4.00771C5.47042 4.21091 5.79997 4.49904 6.05227 4.84984C6.18051 5.0262 6.4032 5.10672 6.61458 5.05317C6.82596 4.99962 6.98346 4.82279 7.01227 4.60664C7.27084 2.5824 8.99398 1.06603 11.0347 1.06691C12.1122 1.06156 13.1468 1.48955 13.9056 2.25464C14.6788 3.02584 15.1083 4.07625 15.0971 5.16824C15.0971 5.19597 15.0939 5.22157 15.0933 5.25251L15.0859 5.35331C15.0644 5.54334 15.1463 5.73032 15.3006 5.84337C15.4548 5.95641 15.6578 5.97821 15.8325 5.90051C16.0086 5.82255 16.1924 5.7632 16.3808 5.72344C16.5652 5.68195 16.7539 5.66208 16.9429 5.66424C18.2734 5.66313 19.4127 6.61733 19.645 7.92736C19.8773 9.23739 19.1356 10.5251 17.8859 10.9816C17.7206 11.0422 17.5958 11.1805 17.5525 11.3511C17.5092 11.5218 17.5529 11.7028 17.6693 11.8349C17.8907 12.0815 18.0663 12.3656 18.1877 12.6738C18.3143 12.9879 18.3788 13.3235 18.3776 13.6621C18.3781 14.3906 18.0892 15.0895 17.5744 15.605C17.4207 15.7556 17.2504 15.8882 17.0667 16.0002H9.06667C8.61684 16.0022 8.2166 16.2862 8.06613 16.7101C7.81981 16.6003 7.58489 16.4665 7.3648 16.3106C7.15688 16.1593 6.96318 15.9894 6.78613 15.8029C6.39373 15.3955 6.0936 14.9084 5.90613 14.3746C5.85457 14.2257 5.73977 14.1072 5.59253 14.0509ZM6.93333 22.9336V17.3005C7.26674 17.5195 7.62476 17.6985 8 17.8338V20.2669C8 20.856 8.47756 21.3336 9.06667 21.3336H9.6V22.9336V23.4669H9.06667C8.47756 23.4669 8 23.9445 8 24.5336V25.6002C8 26.1893 8.47756 26.6669 9.06667 26.6669H10.1333V28.8002H5.9696C6.928 27.4706 6.93333 25.108 6.93333 22.9336ZM30.4 30.9336H1.6C1.30545 30.9336 1.06667 30.6948 1.06667 30.4002C1.06667 30.1057 1.30545 29.8669 1.6 29.8669H30.4C30.6946 29.8669 30.9333 30.1057 30.9333 30.4002C30.9333 30.6948 30.6946 30.9336 30.4 30.9336Z" fill="white"/>
<path d="M7.46732 12.8005C7.76187 12.8005 8.00065 12.5617 8.00065 12.2671C8.00065 11.9726 7.76187 11.7338 7.46732 11.7338C6.87821 11.7338 6.40065 11.2562 6.40065 10.6671C6.40065 10.3726 6.16187 10.1338 5.86732 10.1338C5.57277 10.1338 5.33398 10.3726 5.33398 10.6671C5.33398 11.8453 6.28911 12.8005 7.46732 12.8005Z" fill="white"/>
<path d="M13.3341 11.7336C14.5123 11.7336 15.4674 10.7784 15.4674 9.60023C15.4674 9.30568 15.2287 9.06689 14.9341 9.06689C14.6396 9.06689 14.4008 9.30568 14.4008 9.60023C14.4008 10.1893 13.9232 10.6669 13.3341 10.6669C13.0396 10.6669 12.8008 10.9057 12.8008 11.2002C12.8008 11.4948 13.0396 11.7336 13.3341 11.7336Z" fill="white"/>
</g>
<defs>
<clipPath id="clip0_5172_27697">
<rect width="32" height="32" fill="white"/>
</clipPath>
</defs>
</svg>
