<svg width="48" height="48" viewBox="0 0 48 48" fill="none" xmlns="http://www.w3.org/2000/svg">
<path d="M35.25 6.75H3.75C2.92157 6.75 2.25 7.42157 2.25 8.25V39C2.25 39.8284 2.92157 40.5 3.75 40.5H35.25C36.0784 40.5 36.75 39.8284 36.75 39V8.25C36.75 7.42157 36.0784 6.75 35.25 6.75Z" fill="#A2D7FC"/>
<path d="M13.2614 45.1452C12.7299 45.145 12.2155 44.9566 11.8096 44.6134C11.4036 44.2702 11.1323 43.7943 11.0437 43.2702C11.0141 43.0755 11.0622 42.8771 11.1776 42.7176C11.293 42.5581 11.4665 42.4504 11.6606 42.4177C11.8548 42.385 12.054 42.43 12.2153 42.5429C12.3765 42.6558 12.487 42.8276 12.5227 43.0212C12.539 43.1183 12.5742 43.2114 12.6265 43.2949C12.6787 43.3784 12.7469 43.4509 12.8271 43.5081C12.9074 43.5652 12.9981 43.6061 13.0941 43.6282C13.1901 43.6503 13.2895 43.6533 13.3867 43.6369L44.4532 38.4214C44.6493 38.3884 44.8243 38.2788 44.9396 38.1168C45.0549 37.9547 45.1012 37.7535 45.0682 37.5574L39.9757 7.23117C39.9427 7.03506 39.8331 6.86009 39.671 6.74476C39.509 6.62943 39.3078 6.58318 39.1117 6.61617C38.9155 6.64919 38.7142 6.60291 38.5521 6.4875C38.39 6.3721 38.2803 6.19702 38.2473 6.0008C38.2143 5.80457 38.2606 5.60326 38.376 5.44116C38.4914 5.27906 38.6665 5.16944 38.8627 5.13642C39.4516 5.03783 40.0555 5.17688 40.542 5.52305C41.0285 5.86922 41.3578 6.39425 41.4577 6.98292L46.5479 37.3092C46.6456 37.8976 46.5061 38.5008 46.1598 38.9865C45.8135 39.4722 45.2888 39.8009 44.7007 39.9004L13.6349 45.1144C13.5115 45.135 13.3866 45.1453 13.2614 45.1452Z" fill="#1B245A"/>
<path d="M30.8292 14.0079C30.3137 14.0068 29.8142 13.8286 29.4143 13.5033C29.0145 13.1779 28.7384 12.7252 28.6324 12.2207L27.8599 8.55019C27.8212 8.35642 27.8604 8.1552 27.9692 7.99023C28.078 7.82526 28.2475 7.70989 28.4408 7.66918C28.6342 7.62847 28.8358 7.66572 29.0019 7.77283C29.1679 7.87993 29.285 8.04825 29.3277 8.24119L30.1002 11.9109C30.1196 12.0081 30.1581 12.1005 30.2135 12.1828C30.2689 12.265 30.34 12.3354 30.4227 12.39C30.5055 12.4445 30.5982 12.4822 30.6956 12.5007C30.793 12.5192 30.8931 12.5182 30.9901 12.4978C31.0871 12.4773 31.1791 12.4379 31.2608 12.3817C31.3424 12.3255 31.4121 12.2537 31.4659 12.1704C31.5196 12.0871 31.5563 11.9939 31.5738 11.8964C31.5913 11.7988 31.5893 11.6987 31.5679 11.6019L30.0229 4.26394C29.9848 4.06884 29.9083 3.88326 29.7978 3.71799C29.6873 3.55273 29.5451 3.41106 29.3794 3.30124C29.2137 3.19142 29.0278 3.11563 28.8326 3.07828C28.6374 3.04093 28.4366 3.04276 28.2421 3.08366C28.0476 3.12457 27.8631 3.20373 27.6994 3.31655C27.5358 3.42938 27.3961 3.57361 27.2887 3.74086C27.1813 3.90812 27.1081 4.09506 27.0736 4.29082C27.039 4.48658 27.0437 4.68726 27.0874 4.88119C27.1285 5.07582 27.0906 5.27881 26.982 5.44548C26.8734 5.61215 26.7031 5.72886 26.5084 5.76994C26.3138 5.81101 26.1108 5.77309 25.9441 5.66451C25.7775 5.55592 25.6607 5.38557 25.6197 5.19094C25.5353 4.80427 25.5284 4.40474 25.5991 4.01536C25.6699 3.62599 25.817 3.25446 26.032 2.92218C26.2469 2.5899 26.5255 2.30344 26.8517 2.0793C27.1778 1.85515 27.5451 1.69776 27.9324 1.61618C28.3196 1.53461 28.7192 1.53046 29.1081 1.60398C29.4969 1.67749 29.8674 1.82723 30.1982 2.04455C30.5289 2.26187 30.8134 2.54248 31.0352 2.87023C31.257 3.19797 31.4118 3.56636 31.4907 3.95419L33.0357 11.2937C33.1048 11.6218 33.0998 11.9611 33.021 12.287C32.9421 12.6129 32.7915 12.9171 32.58 13.1772C32.3685 13.4374 32.1015 13.647 31.7986 13.7907C31.4957 13.9345 31.1644 14.0087 30.8292 14.0079Z" fill="#1B245A"/>
<path d="M35.25 41.25H3.75C3.15326 41.25 2.58097 41.0129 2.15901 40.591C1.73705 40.169 1.5 39.5967 1.5 39V8.25C1.5 7.65326 1.73705 7.08097 2.15901 6.65901C2.58097 6.23705 3.15326 6 3.75 6H35.25C35.8467 6 36.419 6.23705 36.841 6.65901C37.2629 7.08097 37.5 7.65326 37.5 8.25V39C37.5 39.5967 37.2629 40.169 36.841 40.591C36.419 41.0129 35.8467 41.25 35.25 41.25ZM3.75 7.5C3.55109 7.5 3.36032 7.57902 3.21967 7.71967C3.07902 7.86032 3 8.05109 3 8.25V39C3 39.1989 3.07902 39.3897 3.21967 39.5303C3.36032 39.671 3.55109 39.75 3.75 39.75H35.25C35.4489 39.75 35.6397 39.671 35.7803 39.5303C35.921 39.3897 36 39.1989 36 39V8.25C36 8.05109 35.921 7.86032 35.7803 7.71967C35.6397 7.57902 35.4489 7.5 35.25 7.5H3.75Z" fill="#1B245A"/>
</svg>
