<svg width="49" height="48" viewBox="0 0 49 48" fill="none" xmlns="http://www.w3.org/2000/svg">
<path d="M38.7866 37.3397L34.5066 28.7998L30.2266 37.3397" stroke="#4F8AFB" stroke-width="2" stroke-linecap="round" stroke-linejoin="round"/>
<path d="M31.0059 35.8198H38.0459" stroke="#4F8AFB" stroke-width="2" stroke-linecap="round" stroke-linejoin="round"/>
<path d="M34.5057 44.0001C28.9057 44.0001 24.3457 39.4601 24.3457 33.8401C24.3457 28.2401 28.8857 23.6802 34.5057 23.6802C40.1057 23.6802 44.6657 28.2201 44.6657 33.8401C44.6657 39.4601 40.1257 44.0001 34.5057 44.0001Z" stroke="#4F8AFB" stroke-width="2" stroke-linecap="round" stroke-linejoin="round"/>
<path d="M10.706 4H18.546C22.686 4 24.686 6.00004 24.586 10.04V17.88C24.686 22.02 22.686 24.02 18.546 23.92H10.706C6.66602 24 4.66602 22 4.66602 17.86V10.02C4.66602 6.00002 6.66602 4 10.706 4Z" stroke="#4F8AFB" stroke-width="2" stroke-linecap="round" stroke-linejoin="round"/>
<path d="M18.6864 11.6997H10.5664" stroke="#4F8AFB" stroke-width="2" stroke-linecap="round" stroke-linejoin="round"/>
<path d="M14.6074 10.3398V11.6998" stroke="#4F8AFB" stroke-width="2" stroke-linecap="round" stroke-linejoin="round"/>
<path d="M16.6469 11.6797C16.6469 15.1797 13.9069 18.0197 10.5469 18.0197" stroke="#4F8AFB" stroke-width="2" stroke-linecap="round" stroke-linejoin="round"/>
<path d="M18.6863 18.02C17.2263 18.02 15.9063 17.24 14.9863 16" stroke="#4F8AFB" stroke-width="2" stroke-linecap="round" stroke-linejoin="round"/>
<path opacity="0.4" d="M4.66602 30C4.66602 37.74 10.926 44 18.666 44L16.566 40.5" stroke="#4F8AFB" stroke-width="2" stroke-linecap="round" stroke-linejoin="round"/>
<path opacity="0.4" d="M44.666 18C44.666 10.26 38.406 4 30.666 4L32.766 7.5" stroke="#4F8AFB" stroke-width="2" stroke-linecap="round" stroke-linejoin="round"/>
</svg>
