<svg width="48" height="48" viewBox="0 0 48 48" fill="none" xmlns="http://www.w3.org/2000/svg">
<g clip-path="url(#clip0_5536_19669)">
<path d="M45.7003 42.5041H2.11231C1.28247 42.5041 0.609375 41.8313 0.609375 41.0011V24.4678C0.609375 23.6379 1.28247 22.9648 2.11231 22.9648H45.7003C46.5301 22.9648 47.2032 23.6379 47.2032 24.4678V41.0011C47.2032 41.8313 46.5301 42.5041 45.7003 42.5041Z" fill="#FFE17D"/>
<path d="M0.609375 40.25V41.0015C0.609375 41.8317 1.28247 42.5044 2.11231 42.5044H45.7003C46.5301 42.5044 47.2032 41.8317 47.2032 41.0015V40.25H0.609375Z" fill="#FFD164"/>
<path d="M44.9132 2.70224C43.2242 2.50339 41.1998 3.25449 39.6064 4.84751C38.013 6.4409 37.2619 8.46568 37.4611 10.1546C39.1501 10.3539 41.1749 9.60277 42.7679 8.00938C44.3613 6.416 45.1124 4.39158 44.9132 2.70224Z" fill="#96D7A5"/>
<path d="M33.6421 13.9126C33.8413 12.2232 33.0898 10.1988 31.4968 8.60543C29.9034 7.01204 27.8786 6.26094 26.1897 6.46016C25.9904 8.14913 26.7415 10.1739 28.3349 11.7673C29.9283 13.3603 31.9527 14.1114 33.6421 13.9126Z" fill="#96D7A5"/>
<path d="M47.2028 34.9892H5.86963C4.62451 34.9892 3.61523 33.9799 3.61523 32.7348V25.9712H47.2028V34.9892Z" fill="#A5CDFF"/>
<path d="M3.61523 25.9712H47.2028V28.2256H3.61523V25.9712Z" fill="#8CB4EB"/>
<path d="M41.1919 18.4561H30.2323C29.5321 18.4561 28.8418 18.619 28.2156 18.9321L27.1137 19.4833C26.4878 19.7964 25.7971 19.9594 25.0973 19.9594H17.1436C16.3134 19.9594 15.6406 20.6321 15.6406 21.4623V22.9652H42.6949V19.9594C42.6949 19.1292 42.0221 18.4561 41.1919 18.4561Z" fill="#FFE17D"/>
<path d="M10.3797 42.5044C10.3797 44.1648 9.03382 45.5106 7.37342 45.5106C5.71338 45.5106 4.36719 44.1648 4.36719 42.5044C4.36719 40.8444 5.71338 39.4985 7.37342 39.4985C9.03382 39.4985 10.3797 40.8444 10.3797 42.5044Z" fill="#5D5360"/>
<path d="M16.391 42.5044C16.391 44.1648 15.0452 45.5106 13.3848 45.5106C11.7247 45.5106 10.3789 44.1648 10.3789 42.5044C10.3789 40.8444 11.7247 39.4985 13.3848 39.4985C15.0452 39.4985 16.391 40.8444 16.391 42.5044Z" fill="#5D5360"/>
<path d="M45.7016 42.5044C45.7016 44.1648 44.3557 45.5106 42.6953 45.5106C41.0353 45.5106 39.6895 44.1648 39.6895 42.5044C39.6895 40.8444 41.0353 39.4985 42.6953 39.4985C44.3557 39.4985 45.7016 40.8444 45.7016 42.5044Z" fill="#5D5360"/>
<path d="M45.7003 22.9648H2.11231C1.28247 22.9648 0.609375 23.6379 0.609375 24.4678V25.9711H47.2032V24.4678C47.2032 23.6379 46.5301 22.9648 45.7003 22.9648Z" fill="#FFEDB1"/>
<path d="M45.7003 22.2605H43.3972V19.9574C43.3972 18.7408 42.4077 17.7513 41.1911 17.7513H36.6336V13.2473C36.6336 12.4314 36.9515 11.6645 37.5283 11.0874L37.7323 10.8834C37.8289 10.8885 37.926 10.8918 38.0238 10.8918C39.8292 10.8918 41.7478 10.0298 43.269 8.50814C44.9723 6.80526 45.8493 4.60469 45.6157 2.62166C45.5776 2.29866 45.3227 2.04414 44.9997 2.00605C43.0171 1.77204 40.8161 2.64912 39.1129 4.35237C37.5096 5.95601 36.6384 8.00057 36.7373 9.88949L36.534 10.0931C35.6914 10.9358 35.2274 12.056 35.2274 13.2473V14.5027L34.3719 13.6472C34.4711 11.7583 33.5999 9.71334 31.9963 8.1097C30.2934 6.40682 28.0925 5.52938 26.1098 5.76339C25.7868 5.80147 25.5319 6.05635 25.4938 6.37935C25.2602 8.36239 26.1373 10.563 27.8401 12.2658C29.3618 13.7874 31.28 14.6495 33.0858 14.6495C33.1832 14.6495 33.2802 14.6462 33.3773 14.6411L34.3327 15.5965C34.9084 16.1722 35.2259 16.9376 35.227 17.7513H30.2311C29.4262 17.7513 28.6202 17.9418 27.9002 18.3017L26.7983 18.8529C26.2728 19.1155 25.6843 19.2546 25.0961 19.2546H17.1427C15.9262 19.2546 14.9363 20.2441 14.9363 21.4607V22.2605H2.11231C0.89612 22.2605 -0.09375 23.25 -0.09375 24.4665V40.9999C-0.09375 42.2165 0.89612 43.206 2.11231 43.206H3.7317C4.06129 44.9162 5.56825 46.2118 7.37294 46.2118C8.6089 46.2118 9.70461 45.6039 10.3792 44.6719C11.0534 45.6039 12.1494 46.2118 13.385 46.2118C15.1897 46.2118 16.6971 44.9158 17.0266 43.206H39.0524C39.382 44.9162 40.8894 46.2118 42.6941 46.2118C44.5335 46.2118 46.0636 44.866 46.3532 43.1071C47.2519 42.828 47.9063 41.989 47.9063 40.9999V24.4665C47.9063 23.25 46.9165 22.2605 45.7003 22.2605ZM40.1075 5.34664C41.3142 4.1396 42.8504 3.41853 44.2439 3.37752C44.2028 4.77095 43.4818 6.30721 42.2747 7.51388C41.4032 8.38546 40.3598 9.00216 39.322 9.29367L40.937 7.67904C41.2116 7.40438 41.2116 6.95907 40.937 6.68477C40.6623 6.41011 40.217 6.41011 39.9427 6.68477L38.3277 8.2994C38.6192 7.26192 39.2356 6.21822 40.1075 5.34664ZM30.1729 11.4364L31.7875 13.051C30.7501 12.7595 29.7064 12.1432 28.8348 11.2716C27.6281 10.0645 26.907 8.52865 26.8657 7.13485C28.2591 7.17623 29.7953 7.8973 31.002 9.10397C31.874 9.97555 32.4903 11.0193 32.7822 12.0567L31.1672 10.4417C30.8925 10.1674 30.4472 10.1674 30.1729 10.4417C29.8983 10.7168 29.8983 11.1621 30.1729 11.4364ZM16.3429 21.4603C16.3429 21.0194 16.7018 20.6605 17.1427 20.6605H25.0965C25.9014 20.6605 26.7075 20.4704 27.4274 20.1105L28.5294 19.5593C29.0549 19.2964 29.6434 19.1576 30.2311 19.1576H41.1911C41.632 19.1576 41.9909 19.5165 41.9909 19.9574V22.2605H16.3429V21.4603ZM7.37294 44.8059C6.10328 44.8059 5.0702 43.7725 5.0702 42.5028C5.0702 41.2332 6.10328 40.2001 7.37294 40.2001C8.6426 40.2001 9.67604 41.2332 9.67604 42.5028C9.67604 43.7725 8.64296 44.8059 7.37294 44.8059ZM13.385 44.8059C12.1154 44.8059 11.0823 43.7725 11.0823 42.5028C11.0823 41.2332 12.1154 40.2001 13.385 40.2001C14.6551 40.2001 15.6881 41.2332 15.6881 42.5028C15.6881 43.7725 14.6551 44.8059 13.385 44.8059ZM17.9425 41.7997H17.0266C16.6971 40.0895 15.1897 38.7935 13.385 38.7935C12.1494 38.7935 11.0534 39.4018 10.3792 40.3338C9.70461 39.4018 8.60854 38.7935 7.37294 38.7935C5.56825 38.7935 4.06092 40.0895 3.7317 41.7997H2.11231C1.67139 41.7997 1.3125 41.4408 1.3125 40.9999V26.6726H2.91212V32.733C2.91212 34.3642 4.2389 35.6909 5.87001 35.6909H17.9425V41.7997ZM17.9425 34.2847H11.8338V26.6726H17.9425V34.2847ZM22.4517 41.7997H19.3488V35.6909H22.4517V41.7997ZM22.4517 34.2847H19.3488V26.6726H22.4517V34.2847ZM26.9609 41.7997H23.858V35.6909H26.9609V41.7997ZM26.9609 34.2847H23.858V26.6726H26.9609V34.2847ZM44.9972 42.5039C44.9964 43.7732 43.9637 44.8059 42.6941 44.8059C41.4244 44.8059 40.3913 43.7725 40.3913 42.5028C40.3913 41.2332 41.4244 40.2001 42.6941 40.2001C43.9637 40.2001 44.9964 41.2325 44.9972 42.5017V42.5028V42.5039ZM46.5001 37.2905H45.7003C45.3117 37.2905 44.9972 37.6055 44.9972 37.9937C44.9972 38.3822 45.3117 38.6968 45.7003 38.6968H46.5001V40.9999C46.5001 41.213 46.4155 41.4068 46.2789 41.5503C45.8574 39.9654 44.4101 38.7935 42.6941 38.7935C40.8894 38.7935 39.3824 40.0895 39.0528 41.7997H28.3671V35.6909H38.1853C38.5734 35.6909 38.8884 35.376 38.8884 34.9878C38.8884 34.5993 38.5734 34.2847 38.1853 34.2847H35.8822V26.6726H41.9913V34.2847H41.1915C40.8029 34.2847 40.4884 34.5993 40.4884 34.9878C40.4884 35.376 40.8029 35.6909 41.1915 35.6909H46.5001V37.2905ZM28.3671 34.2847V26.6726H34.4759V34.2847H28.3671ZM46.5001 34.2847H43.3972V26.6726H46.5001V34.2847ZM46.5001 25.2664H8.12441C7.73622 25.2664 7.42128 25.5813 7.42128 25.9695C7.42128 26.358 7.73622 26.6726 8.12441 26.6726H10.4275V34.2847H5.87001C5.01454 34.2847 4.31873 33.5885 4.31873 32.733V26.6726H5.11854C5.50672 26.6726 5.82167 26.358 5.82167 25.9695C5.82167 25.5813 5.50672 25.2664 5.11854 25.2664H1.3125V24.4665C1.3125 24.0256 1.67139 23.6667 2.11231 23.6667H45.7003C46.1412 23.6667 46.5001 24.0256 46.5001 24.4665V25.2664Z" fill="black"/>
<path d="M7.37305 41.7998C6.9856 41.7998 6.66992 42.1151 6.66992 42.5029C6.66992 42.8904 6.9856 43.2061 7.37305 43.2061C7.76087 43.2061 8.07617 42.8904 8.07617 42.5029C8.07617 42.1151 7.76087 41.7998 7.37305 41.7998Z" fill="black"/>
<path d="M13.3848 41.7998C12.9973 41.7998 12.6816 42.1151 12.6816 42.5029C12.6816 42.8907 12.9973 43.2061 13.3848 43.2061C13.7726 43.2061 14.0879 42.8907 14.0879 42.5029C14.0879 42.1151 13.7726 41.7998 13.3848 41.7998Z" fill="black"/>
<path d="M42.6934 41.7998C42.3055 41.7998 41.9902 42.1151 41.9902 42.5029C41.9902 42.8904 42.3055 43.2061 42.6934 43.2061C43.0808 43.2061 43.3965 42.8907 43.3965 42.5033V42.5029V42.5026C43.3965 42.1151 43.0812 41.7998 42.6934 41.7998Z" fill="black"/>
</g>
<defs>
<clipPath id="clip0_5536_19669">
<rect width="48" height="48" fill="white"/>
</clipPath>
</defs>
</svg>
