<svg width="48" height="48" viewBox="0 0 48 48" fill="none" xmlns="http://www.w3.org/2000/svg">
<g clip-path="url(#clip0_5536_19767)">
<path d="M42.2776 34.1808H39.4336V9.3658C39.4336 9.20934 39.6166 9.12627 39.7324 9.23024L39.7805 9.27346C41.3688 10.6997 42.2776 12.744 42.2776 14.8908V34.1808Z" fill="#E4E5EA"/>
<path d="M8.56861 34.1808H5.72461V9.3658C5.72461 9.20934 5.90761 9.12627 6.02339 9.23024L6.07148 9.27346C7.6598 10.6997 8.56861 12.744 8.56861 14.8908V34.1808Z" fill="#E4E5EA"/>
<path d="M39.7747 9.27346L39.7265 9.23024C39.6107 9.12627 39.4277 9.20934 39.4277 9.3658V10.4652C40.347 11.7398 40.8548 13.2866 40.8548 14.8908V34.1807H42.2717V14.8909C42.2718 12.7441 41.363 10.6998 39.7747 9.27346Z" fill="#C9CCD9"/>
<path d="M6.07158 9.27346L6.02339 9.23024C5.90761 9.12627 5.72461 9.20934 5.72461 9.3658V10.4652C6.64383 11.7398 7.15167 13.2866 7.15167 14.8908V34.1807H8.56861V14.8909C8.56861 12.7441 7.65989 10.6998 6.07158 9.27346Z" fill="#C9CCD9"/>
<path d="M9.75392 47.297H4.5208C4.37445 47.297 4.25586 47.1784 4.25586 47.0321V44.5601H10.0189V47.0321C10.0189 47.1784 9.90017 47.297 9.75392 47.297Z" fill="#5B5C6C"/>
<path d="M43.4805 47.2399H38.2474C38.101 47.2399 37.9824 47.1213 37.9824 46.9749V44.5029H43.7454V46.9749C43.7454 47.1212 43.6268 47.2399 43.4805 47.2399Z" fill="#5B5C6C"/>
<path d="M9.75392 45.8713H4.5208C4.37445 45.8713 4.25586 45.7527 4.25586 45.6064V44.5308H10.0189V45.6064C10.0189 45.7526 9.90017 45.8713 9.75392 45.8713Z" fill="#464655"/>
<path d="M43.4805 45.8435H38.2474C38.101 45.8435 37.9824 45.7249 37.9824 45.5785V44.5029H43.7454V45.5785C43.7454 45.7249 43.6268 45.8435 43.4805 45.8435Z" fill="#464655"/>
<path d="M45.2829 44.6339H2.71773C1.72052 44.6339 0.912109 43.8254 0.912109 42.8282V35.791C0.912109 34.7938 1.72052 33.9854 2.71773 33.9854H45.283C46.2802 33.9854 47.0886 34.7938 47.0886 35.791V42.8282C47.0886 43.8254 46.2802 44.6339 45.2829 44.6339Z" fill="#E4E5EA"/>
<path d="M45.2817 33.9854H39.7676C40.765 33.9854 41.5735 34.7937 41.5735 35.7907V42.8286C41.5735 43.8256 40.765 44.6339 39.7676 44.6339H45.2817C46.2791 44.6339 47.0877 43.8256 47.0877 42.8286V35.7907C47.0877 34.7937 46.2791 33.9854 45.2817 33.9854Z" fill="#C9CCD9"/>
<path d="M26.762 36.5941H21.2376C20.7914 36.5941 20.4297 36.2324 20.4297 35.7862V33.9854H27.57V35.7862C27.57 36.2324 27.2082 36.5941 26.762 36.5941Z" fill="#7DE6C4"/>
<path d="M25.4182 19.1762C25.4221 19.9619 24.7881 20.6009 24.0032 20.6047C23.2182 20.6085 22.5781 19.9757 22.5742 19.1901C22.5723 18.7931 22.7336 18.4321 22.9969 18.1731C23.2516 17.9207 23.6015 17.7636 23.9893 17.7617C24.3817 17.7599 24.739 17.9173 24.9971 18.1738C25.2553 18.4303 25.4164 18.7839 25.4182 19.1762Z" fill="#54A1FF"/>
<path d="M23.96 12.0753C22.6682 12.0816 21.4586 12.4315 20.4177 13.0387C19.6149 13.5069 19.4648 14.6035 20.1184 15.2642L20.1244 15.2703C20.5818 15.7326 21.2922 15.8198 21.8545 15.493C22.4778 15.1309 23.2016 14.9221 23.9738 14.9183C24.7637 14.9145 25.5051 15.1259 26.1418 15.4972C26.702 15.8239 27.4113 15.7338 27.8677 15.2731L27.8738 15.267C28.5293 14.6053 28.3762 13.5082 27.5717 13.0388C26.5113 12.4205 25.2766 12.0689 23.96 12.0753Z" fill="#54A1FF"/>
<path d="M23.9326 6.38932C21.0166 6.40347 18.3336 7.3915 16.1894 9.04328C15.5179 9.5606 15.4597 10.5536 16.0558 11.1563L16.0615 11.1621C16.5625 11.6688 17.3639 11.7279 17.9285 11.2934C19.5954 10.0103 21.6804 9.24344 23.9464 9.23247C26.2513 9.22122 28.3762 9.99372 30.07 11.2997C30.6333 11.734 31.4341 11.6735 31.9348 11.1681L31.94 11.1629C32.5372 10.56 32.4784 9.5665 31.8064 9.04816C29.6292 7.36844 26.8961 6.37488 23.9326 6.38932Z" fill="#54A1FF"/>
<path d="M23.9053 0.703348C19.4244 0.725192 15.3235 2.33882 12.1363 5.00591C11.4993 5.53897 11.4526 6.50197 12.0368 7.09241L12.0421 7.09775C12.5647 7.62594 13.4014 7.65538 13.9715 7.17894C16.6659 4.92725 20.1331 3.56479 23.9191 3.54632C27.7714 3.52757 31.3062 4.90288 34.0429 7.19854C34.6067 7.6715 35.4399 7.63044 35.958 7.10769L35.9633 7.10244C36.5484 6.512 36.5013 5.54863 35.8642 5.01472C32.6301 2.30469 28.4558 0.681223 23.9053 0.703348Z" fill="#54A1FF"/>
<path d="M23.9961 19.3717C23.4319 19.3744 22.9439 19.0474 22.7119 18.572C22.6223 18.7594 22.5712 18.9686 22.5723 19.1897C22.5761 19.9754 23.2163 20.6082 24.0012 20.6043C24.7862 20.6005 25.4201 19.9615 25.4163 19.1759C25.4153 18.9551 25.3623 18.7474 25.2715 18.5615C25.0436 19.0381 24.5594 19.3689 23.9961 19.3717Z" fill="#4A7FDD"/>
<path d="M27.8699 14.0345L27.8638 14.0406C27.4074 14.5013 26.698 14.5914 26.1378 14.2646C25.5012 13.8933 24.7598 13.682 23.9699 13.6858C23.1977 13.6896 22.4739 13.8985 21.8506 14.2605C21.2882 14.5872 20.5779 14.5 20.1205 14.0378L20.1145 14.0317C20.0022 13.9182 19.9154 13.7913 19.8497 13.6575C19.6045 14.1736 19.6781 14.8181 20.1196 15.2643L20.1256 15.2704C20.583 15.7327 21.2933 15.8199 21.8556 15.4931C22.479 15.131 23.2027 14.9222 23.9749 14.9185C24.7648 14.9146 25.5062 15.126 26.1429 15.4973C26.7031 15.824 27.4125 15.734 27.8688 15.2732L27.8749 15.2671C28.32 14.8179 28.3913 14.1683 28.1401 13.6504C28.0741 13.7879 27.9852 13.9181 27.8699 14.0345Z" fill="#4A7FDD"/>
<path d="M31.9359 9.92994L31.9306 9.93529C31.43 10.4406 30.6292 10.5012 30.0659 10.0668C28.3721 8.76088 26.2472 7.98847 23.9423 7.99963C21.6762 8.01069 19.5913 8.77747 17.9243 10.0605C17.3596 10.4952 16.5583 10.4359 16.0573 9.92929L16.0515 9.92347C15.9392 9.80994 15.8503 9.68244 15.7842 9.54697C15.5363 10.0665 15.6208 10.7154 16.0566 11.1561L16.0623 11.1619C16.5633 11.6685 17.3647 11.7277 17.9294 11.2932C19.5963 10.0101 21.6812 9.24322 23.9474 9.23226C26.2523 9.22101 28.3771 9.99351 30.0709 11.2994C30.6343 11.7338 31.4351 11.6733 31.9357 11.1679L31.941 11.1626C32.3807 10.7186 32.4635 10.0633 32.2089 9.54135C32.142 9.68132 32.0517 9.81304 31.9359 9.92994Z" fill="#4A7FDD"/>
<path d="M36.2298 5.48223C36.1631 5.62173 36.0733 5.75317 35.9577 5.86979L35.9525 5.87504C35.4344 6.39779 34.6013 6.43885 34.0375 5.96588C31.3007 3.67023 27.766 2.29492 23.9137 2.31367C20.1276 2.33213 16.6604 3.6946 13.9661 5.94629C13.3959 6.42273 12.5592 6.39329 12.0367 5.8651L12.0313 5.85976C11.9193 5.74651 11.8309 5.61938 11.765 5.48438C11.5166 6.00601 11.6012 6.65251 12.0364 7.09238L12.0417 7.09773C12.5643 7.62592 13.401 7.65535 13.9711 7.17892C16.6655 4.92723 20.1326 3.56476 23.9187 3.54629C27.771 3.52754 31.3059 4.90285 34.0425 7.19851C34.6063 7.67148 35.4395 7.63042 35.9577 7.10767L35.9629 7.10242C36.402 6.65935 36.485 6.00629 36.2298 5.48223Z" fill="#4A7FDD"/>
<path d="M45.283 33.2822H42.9795V14.8317C42.9795 12.5085 41.9833 10.2908 40.2462 8.74716L40.1982 8.70459C39.9388 8.47416 39.567 8.41716 39.2502 8.55919C38.9338 8.70141 38.7293 9.01734 38.7293 9.36431V33.2822H36.3284C35.94 33.2822 35.6253 33.597 35.6253 33.9853C35.6253 34.3736 35.94 34.6884 36.3284 34.6884H45.283C45.8908 34.6884 46.3855 35.1831 46.3855 35.7909V42.8282C46.3855 43.4361 45.8909 43.9307 45.283 43.9307H43.745H37.982H2.71764C2.10977 43.9307 1.61514 43.4361 1.61514 42.8282V35.7909C1.61514 35.1831 2.10967 34.6884 2.71764 34.6884H19.727V36.5941C19.727 36.9824 20.0417 37.2972 20.4301 37.2972H27.5705C27.9589 37.2972 28.2736 36.9824 28.2736 36.5941V34.6884H33.3753C33.7637 34.6884 34.0784 34.3736 34.0784 33.9853C34.0784 33.597 33.7637 33.2822 33.3753 33.2822H27.5705H20.4301H9.27142V14.8317C9.27142 12.5085 8.27523 10.2907 6.53805 8.74716L6.49023 8.70478C6.23102 8.47416 5.85892 8.41706 5.54233 8.55919C5.22573 8.70131 5.02117 9.01734 5.02117 9.36431V27.3752C5.02117 27.7635 5.33589 28.0783 5.7243 28.0783C6.1127 28.0783 6.42742 27.7635 6.42742 27.3752V10.6737C7.35123 11.8508 7.86517 13.3141 7.86517 14.8317V33.2174H6.42742V30.4221C6.42742 30.0337 6.1127 29.7189 5.7243 29.7189C5.33589 29.7189 5.02117 30.0337 5.02117 30.4221V33.2822H2.71773C1.33445 33.2822 0.208984 34.4076 0.208984 35.7909V42.8282C0.208984 44.2116 1.33445 45.3369 2.71773 45.3369H3.55258V47.032C3.55258 47.5658 3.98683 48.0001 4.52064 48.0001H9.75367C10.2875 48.0001 10.7217 47.5658 10.7217 47.032V45.3369H37.2788V46.9777C37.2788 47.5115 37.713 47.9457 38.2468 47.9457H43.4799C44.0137 47.9457 44.4479 47.5115 44.4479 46.9777V45.3369H45.2828C46.666 45.3369 47.7915 44.2116 47.7915 42.8282V35.7909C47.7916 34.4077 46.6662 33.2822 45.283 33.2822ZM40.1354 10.6737C41.0592 11.8508 41.5732 13.3141 41.5732 14.8318V33.2175H40.1354V10.6737ZM26.8674 34.6884V35.891H21.1332V34.6884H26.8674ZM9.31548 46.5939H4.95883V45.3914H9.31558L9.31548 46.5939ZM43.0418 46.5396H38.685V45.337H43.0418V46.5396Z" fill="black"/>
<path d="M23.984 17.0586C23.4245 17.0614 22.8975 17.2798 22.5018 17.6719C22.0911 18.076 21.8664 18.6165 21.8692 19.1936C21.875 20.3616 22.8271 21.3079 23.9941 21.3079C23.9975 21.3079 24.0011 21.3079 24.0045 21.3079C25.1763 21.3021 26.1249 20.3445 26.1194 19.173C26.1167 18.607 25.8934 18.0751 25.4908 17.6751C25.088 17.2748 24.5567 17.0552 23.984 17.0586ZM23.9978 19.9017C23.9965 19.9017 23.9954 19.9017 23.9942 19.9017C23.5994 19.9017 23.2774 19.5817 23.2754 19.1869C23.2745 18.9922 23.3499 18.8102 23.4898 18.6726C23.6241 18.5396 23.8019 18.4658 23.9908 18.465C23.992 18.465 23.9932 18.465 23.9944 18.465C24.1854 18.465 24.3646 18.5387 24.4996 18.6727C24.6364 18.8086 24.7123 18.9888 24.7132 19.1798C24.715 19.5759 24.3941 19.8997 23.9978 19.9017Z" fill="black"/>
<path d="M28.3735 15.7623C28.8377 15.2937 29.0547 14.6501 28.9685 13.9965C28.8817 13.338 28.5017 12.7677 27.9261 12.432C26.7371 11.7386 25.3786 11.3726 23.995 11.3726C23.9822 11.3726 23.9695 11.3726 23.9568 11.3727C22.5863 11.3793 21.2401 11.7456 20.0636 12.4317C19.49 12.7663 19.1113 13.335 19.0245 13.992C18.9381 14.6459 19.1548 15.2901 19.6248 15.7653C20.3043 16.4521 21.3665 16.5904 22.2078 16.1015C22.7428 15.7908 23.3547 15.625 23.9775 15.622C24.6134 15.6155 25.2406 15.7859 25.7878 16.1051C26.1221 16.3002 26.4919 16.3953 26.8592 16.3953C27.4126 16.3952 27.9607 16.179 28.3735 15.7623ZM26.4962 14.8902C25.7392 14.4487 24.8748 14.2156 23.9949 14.2156C23.9867 14.2156 23.9787 14.2156 23.9706 14.2156C23.1024 14.2198 22.2486 14.4515 21.5014 14.8855C21.2141 15.0524 20.8534 15.0075 20.6185 14.7701C20.4624 14.6123 20.3896 14.3958 20.4185 14.1761C20.4479 13.9533 20.5768 13.7603 20.7721 13.6464C21.7356 13.0842 22.8393 12.7842 23.9635 12.7788C25.1091 12.775 26.2345 13.0733 27.2176 13.6467C27.4147 13.7617 27.5446 13.9561 27.5743 14.1802C27.5912 14.309 27.5879 14.5572 27.3684 14.7787C27.1392 15.0102 26.7804 15.0562 26.4962 14.8902Z" fill="black"/>
<path d="M30.9221 12.2919C31.473 12.2919 32.0234 12.0776 32.4396 11.6576C32.8682 11.2248 33.0909 10.6281 33.0505 10.0202C33.0102 9.41676 32.7133 8.85951 32.236 8.49126C29.8378 6.64138 26.9617 5.67323 23.9292 5.68616C20.9441 5.70069 18.1194 6.66894 15.7603 8.48629C15.2836 8.85351 14.9869 9.40982 14.9462 10.0124C14.9052 10.6203 15.1274 11.2175 15.5615 11.6564C16.3125 12.4159 17.5145 12.4993 18.3572 11.8504C19.9721 10.6076 21.9059 9.94532 23.9497 9.93538C26.0295 9.92357 27.9976 10.5895 29.6406 11.8563C30.0193 12.1483 30.4708 12.2919 30.9221 12.2919ZM23.943 8.52913C21.5887 8.54066 19.3605 9.30369 17.4996 10.736C17.2178 10.9529 16.8144 10.9234 16.5558 10.6619C16.4108 10.5151 16.3355 10.3129 16.3494 10.1069C16.3631 9.90332 16.4588 9.72341 16.6186 9.60023C18.7315 7.97263 21.2618 7.10535 23.9361 7.09241C26.6534 7.07873 29.2292 7.94788 31.3771 9.60473C31.5378 9.72866 31.6337 9.90941 31.6474 10.1137C31.6613 10.3225 31.5879 10.5193 31.4354 10.6731C31.182 10.9289 30.7795 10.9586 30.4995 10.7427C28.6204 9.29376 26.3733 8.52904 23.9971 8.52904C23.979 8.52904 23.9608 8.52913 23.943 8.52913Z" fill="black"/>
<path d="M14.4224 7.71853C17.079 5.49844 20.4528 4.26647 23.9225 4.24959C25.4419 4.24041 26.9443 4.46231 28.3838 4.90397C28.7548 5.01778 29.1482 4.80928 29.2622 4.43803C29.3761 4.06678 29.1676 3.6735 28.7963 3.55959C27.2463 3.084 25.632 2.84306 23.9969 2.84306C23.9699 2.84306 23.9427 2.84306 23.9158 2.84325C20.1196 2.86172 16.4278 4.20994 13.5206 6.63947C13.2265 6.88537 12.8056 6.86981 12.5366 6.59794C12.3945 6.45431 12.3214 6.264 12.331 6.06206C12.3405 5.85919 12.4316 5.67562 12.5876 5.54512C15.7529 2.89641 19.7734 1.4265 23.9087 1.40644C23.9378 1.40634 23.9662 1.40625 23.9952 1.40625C28.1671 1.40625 32.2189 2.87747 35.4125 5.55366C35.5691 5.68481 35.6605 5.86903 35.6699 6.07238C35.6792 6.27403 35.606 6.46406 35.4586 6.61275C35.199 6.87478 34.7756 6.89541 34.4949 6.65981C33.4959 5.82188 32.3983 5.10469 31.2325 4.52831C30.8843 4.35609 30.4625 4.49888 30.2906 4.84697C30.1185 5.19506 30.2611 5.61675 30.6091 5.78888C31.6745 6.31566 32.6777 6.97116 33.591 7.73719C33.9815 8.06466 34.4638 8.22647 34.946 8.22647C35.4975 8.22647 36.0489 8.01488 36.4627 7.59741C36.8789 7.1775 37.1019 6.59794 37.0746 6.00741C37.0472 5.41528 36.7706 4.857 36.3157 4.47581C32.869 1.58756 28.497 0 23.9951 0C23.9641 0 23.9328 9.375e-05 23.9019 0.0001875C19.4397 0.0218438 15.101 1.60809 11.685 4.46672C11.2305 4.84706 10.954 5.40441 10.9261 5.99606C10.8984 6.58678 11.121 7.16663 11.5423 7.59234C12.3245 8.38284 13.5625 8.43703 14.4224 7.71853Z" fill="black"/>
<path d="M5.72467 41.4098C6.11735 41.4098 6.43567 41.0915 6.43567 40.6988C6.43567 40.3061 6.11735 39.9878 5.72467 39.9878C5.332 39.9878 5.01367 40.3061 5.01367 40.6988C5.01367 41.0915 5.332 41.4098 5.72467 41.4098Z" fill="black"/>
<path d="M8.56842 41.4098C8.9611 41.4098 9.27942 41.0915 9.27942 40.6988C9.27942 40.3061 8.9611 39.9878 8.56842 39.9878C8.17575 39.9878 7.85742 40.3061 7.85742 40.6988C7.85742 41.0915 8.17575 41.4098 8.56842 41.4098Z" fill="black"/>
<path d="M40.8633 41.4098C41.256 41.4098 41.5743 41.0915 41.5743 40.6988C41.5743 40.3061 41.256 39.9878 40.8633 39.9878C40.4707 39.9878 40.1523 40.3061 40.1523 40.6988C40.1523 41.0915 40.4707 41.4098 40.8633 41.4098Z" fill="black"/>
<path d="M43.7442 41.4098C44.1369 41.4098 44.4552 41.0915 44.4552 40.6988C44.4552 40.3061 44.1369 39.9878 43.7442 39.9878C43.3515 39.9878 43.0332 40.3061 43.0332 40.6988C43.0332 41.0915 43.3515 41.4098 43.7442 41.4098Z" fill="black"/>
<path d="M16.4629 40.0278C16.0745 40.0278 15.7598 40.3426 15.7598 40.731C15.7598 41.1193 16.0745 41.4341 16.4629 41.4341H31.5361C31.9245 41.4341 32.2392 41.1193 32.2392 40.731C32.2392 40.3426 31.9245 40.0278 31.5361 40.0278H16.4629Z" fill="black"/>
</g>
<defs>
<clipPath id="clip0_5536_19767">
<rect width="48" height="48" fill="white"/>
</clipPath>
</defs>
</svg>
