<svg width="52" height="52" viewBox="0 0 52 52" fill="none" xmlns="http://www.w3.org/2000/svg">
<rect width="52" height="52" rx="8" fill="#F3EFFE"/>
<path d="M29 13H15C14.7348 13 14.4804 13.1054 14.2929 13.2929C14.1054 13.4804 14 13.7348 14 14V38C14 38.2652 14.1054 38.5196 14.2929 38.7071C14.4804 38.8946 14.7348 39 15 39H18V33C18 32.7348 18.1054 32.4804 18.2929 32.2929C18.4804 32.1054 18.7348 32 19 32H25C25.2652 32 25.5196 32.1054 25.7071 32.2929C25.8946 32.4804 26 32.7348 26 33V39H29C29.2652 39 29.5196 38.8946 29.7071 38.7071C29.8946 38.5196 30 38.2652 30 38V14C30 13.7348 29.8946 13.4804 29.7071 13.2929C29.5196 13.1054 29.2652 13 29 13ZM20 26H18C17.7348 26 17.4804 25.8946 17.2929 25.7071C17.1054 25.5196 17 25.2652 17 25C17 24.7348 17.1054 24.4804 17.2929 24.2929C17.4804 24.1054 17.7348 24 18 24H20C20.2652 24 20.5196 24.1054 20.7071 24.2929C20.8946 24.4804 21 24.7348 21 25C21 25.2652 20.8946 25.5196 20.7071 25.7071C20.5196 25.8946 20.2652 26 20 26ZM20 22H18C17.7348 22 17.4804 21.8946 17.2929 21.7071C17.1054 21.5196 17 21.2652 17 21C17 20.7348 17.1054 20.4804 17.2929 20.2929C17.4804 20.1054 17.7348 20 18 20H20C20.2652 20 20.5196 20.1054 20.7071 20.2929C20.8946 20.4804 21 20.7348 21 21C21 21.2652 20.8946 21.5196 20.7071 21.7071C20.5196 21.8946 20.2652 22 20 22ZM20 18H18C17.7348 18 17.4804 17.8946 17.2929 17.7071C17.1054 17.5196 17 17.2652 17 17C17 16.7348 17.1054 16.4804 17.2929 16.2929C17.4804 16.1054 17.7348 16 18 16H20C20.2652 16 20.5196 16.1054 20.7071 16.2929C20.8946 16.4804 21 16.7348 21 17C21 17.2652 20.8946 17.5196 20.7071 17.7071C20.5196 17.8946 20.2652 18 20 18ZM26 26H24C23.7348 26 23.4804 25.8946 23.2929 25.7071C23.1054 25.5196 23 25.2652 23 25C23 24.7348 23.1054 24.4804 23.2929 24.2929C23.4804 24.1054 23.7348 24 24 24H26C26.2652 24 26.5196 24.1054 26.7071 24.2929C26.8946 24.4804 27 24.7348 27 25C27 25.2652 26.8946 25.5196 26.7071 25.7071C26.5196 25.8946 26.2652 26 26 26ZM20 30H18C17.7348 30 17.4804 29.8946 17.2929 29.7071C17.1054 29.5196 17 29.2652 17 29C17 28.7348 17.1054 28.4804 17.2929 28.2929C17.4804 28.1054 17.7348 28 18 28H20C20.2652 28 20.5196 28.1054 20.7071 28.2929C20.8946 28.4804 21 28.7348 21 29C21 29.2652 20.8946 29.5196 20.7071 29.7071C20.5196 29.8946 20.2652 30 20 30ZM26 30H24C23.7348 30 23.4804 29.8946 23.2929 29.7071C23.1054 29.5196 23 29.2652 23 29C23 28.7348 23.1054 28.4804 23.2929 28.2929C23.4804 28.1054 23.7348 28 24 28H26C26.2652 28 26.5196 28.1054 26.7071 28.2929C26.8946 28.4804 27 28.7348 27 29C27 29.2652 26.8946 29.5196 26.7071 29.7071C26.5196 29.8946 26.2652 30 26 30ZM26 22H24C23.7348 22 23.4804 21.8946 23.2929 21.7071C23.1054 21.5196 23 21.2652 23 21C23 20.7348 23.1054 20.4804 23.2929 20.2929C23.4804 20.1054 23.7348 20 24 20H26C26.2652 20 26.5196 20.1054 26.7071 20.2929C26.8946 20.4804 27 20.7348 27 21C27 21.2652 26.8946 21.5196 26.7071 21.7071C26.5196 21.8946 26.2652 22 26 22ZM26 18H24C23.7348 18 23.4804 17.8946 23.2929 17.7071C23.1054 17.5196 23 17.2652 23 17C23 16.7348 23.1054 16.4804 23.2929 16.2929C23.4804 16.1054 23.7348 16 24 16H26C26.2652 16 26.5196 16.1054 26.7071 16.2929C26.8946 16.4804 27 16.7348 27 17C27 17.2652 26.8946 17.5196 26.7071 17.7071C26.5196 17.8946 26.2652 18 26 18Z" fill="#6A3DED"/>
<path d="M20 34H24V39H20V34Z" fill="#6A3DED"/>
<path d="M39 21H29C28.7348 21 28.4804 21.1054 28.2929 21.2929C28.1054 21.4804 28 21.7348 28 22V38C28 38.2652 28.1054 38.5196 28.2929 38.7071C28.4804 38.8946 28.7348 39 29 39H39C39.2652 39 39.5196 38.8946 39.7071 38.7071C39.8946 38.5196 40 38.2652 40 38V22C40 21.7348 39.8946 21.4804 39.7071 21.2929C39.5196 21.1054 39.2652 21 39 21ZM35 35H33C32.7348 35 32.4804 34.8946 32.2929 34.7071C32.1054 34.5196 32 34.2652 32 34C32 33.7348 32.1054 33.4804 32.2929 33.2929C32.4804 33.1054 32.7348 33 33 33H35C35.2652 33 35.5196 33.1054 35.7071 33.2929C35.8946 33.4804 36 33.7348 36 34C36 34.2652 35.8946 34.5196 35.7071 34.7071C35.5196 34.8946 35.2652 35 35 35ZM35 31H33C32.7348 31 32.4804 30.8946 32.2929 30.7071C32.1054 30.5196 32 30.2652 32 30C32 29.7348 32.1054 29.4804 32.2929 29.2929C32.4804 29.1054 32.7348 29 33 29H35C35.2652 29 35.5196 29.1054 35.7071 29.2929C35.8946 29.4804 36 29.7348 36 30C36 30.2652 35.8946 30.5196 35.7071 30.7071C35.5196 30.8946 35.2652 31 35 31ZM35 27H33C32.7348 27 32.4804 26.8946 32.2929 26.7071C32.1054 26.5196 32 26.2652 32 26C32 25.7348 32.1054 25.4804 32.2929 25.2929C32.4804 25.1054 32.7348 25 33 25H35C35.2652 25 35.5196 25.1054 35.7071 25.2929C35.8946 25.4804 36 25.7348 36 26C36 26.2652 35.8946 26.5196 35.7071 26.7071C35.5196 26.8946 35.2652 27 35 27Z" fill="#6A3DED"/>
</svg>
