<svg width="52" height="52" viewBox="0 0 52 52" fill="none" xmlns="http://www.w3.org/2000/svg">
<rect width="52" height="52" rx="8" fill="#F3EFFE"/>
<g clip-path="url(#clip0_5984_26760)">
<path d="M26 21.3125C24.9653 21.3125 24.125 22.1538 24.125 23.1875C24.125 24.2212 24.9653 25.0625 26 25.0625C27.0347 25.0625 27.875 24.2212 27.875 23.1875C27.875 22.1538 27.0347 21.3125 26 21.3125Z" fill="#6A3DED"/>
<path d="M26 28.8125C23.9329 28.8125 22.25 30.4944 22.25 32.5625V35.5962C23.4141 36.0527 24.676 36.3125 26 36.3125C27.324 36.3125 28.5859 36.0527 29.75 35.5962V32.5625C29.75 30.4944 28.0671 28.8125 26 28.8125Z" fill="#6A3DED"/>
<path d="M38.25 34.5C37.5566 34.5 36.9148 34.7021 36.3572 35.0315L33.9043 32.5793C35.3975 30.7917 36.3125 28.5063 36.3125 26C36.3125 23.4934 35.4119 21.1946 33.9194 19.4055L36.3572 16.9685C36.9148 17.2979 37.5566 17.5 38.25 17.5C40.3171 17.5 42 15.8181 42 13.75C42 11.6819 40.3171 10 38.25 10C36.1829 10 34.5 11.6819 34.5 13.75C34.5 14.4434 34.7019 15.0852 35.0315 15.6428L32.5935 18.0801C30.8044 16.5881 28.5059 15.6875 26 15.6875C23.4941 15.6875 21.1956 16.5881 19.4065 18.0801L16.9685 15.6428C17.2981 15.0852 17.5 14.4434 17.5 13.75C17.5 11.6819 15.8171 10 13.75 10C11.6829 10 10 11.6819 10 13.75C10 15.8181 11.6829 17.5 13.75 17.5C14.4434 17.5 15.0852 17.2979 15.6428 16.9685L18.0806 19.4055C16.5881 21.1946 15.6875 23.4934 15.6875 26C15.6875 28.5063 16.6025 30.7917 18.0957 32.5793L15.6431 35.0315C15.0852 34.7021 14.4434 34.5 13.75 34.5C11.6829 34.5 10 36.1819 10 38.25C10 40.3181 11.6829 42 13.75 42C15.8171 42 17.5 40.3181 17.5 38.25C17.5 37.5566 17.2981 36.9148 16.9685 36.3572L19.4116 33.915C19.719 34.1709 20.0391 34.4121 20.375 34.6318V32.5625C20.375 29.4607 22.8982 26.9375 26 26.9375C23.9329 26.9375 22.25 25.2556 22.25 23.1875C22.25 21.1194 23.9329 19.4375 26 19.4375C28.0671 19.4375 29.75 21.1194 29.75 23.1875C29.75 25.2556 28.0671 26.9375 26 26.9375C29.1018 26.9375 31.625 29.4607 31.625 32.5625V34.6318C31.9609 34.4121 32.281 34.1709 32.5884 33.915L35.0315 36.3572C34.7019 36.9148 34.5 37.5566 34.5 38.25C34.5 40.3181 36.1829 42 38.25 42C40.3171 42 42 40.3181 42 38.25C42 36.1819 40.3171 34.5 38.25 34.5Z" fill="#6A3DED"/>
</g>
<defs>
<clipPath id="clip0_5984_26760">
<rect width="32" height="32" fill="white" transform="translate(10 10)"/>
</clipPath>
</defs>
</svg>
