<svg width="48" height="48" viewBox="0 0 48 48" fill="none" xmlns="http://www.w3.org/2000/svg">
<path d="M4 20H44" stroke="#4F8AFB" stroke-width="2" stroke-miterlimit="10" stroke-linecap="round" stroke-linejoin="round"/>
<path d="M23.0966 41H12.8766C5.77659 41 3.97656 39.24 3.97656 32.22V15.78C3.97656 9.42003 5.45662 7.38003 11.0366 7.06003C11.5966 7.04003 12.2166 7.02002 12.8766 7.02002H35.0966C42.1966 7.02002 43.9966 8.78002 43.9966 15.8V24.62" stroke="#4F8AFB" stroke-width="2" stroke-linecap="round" stroke-linejoin="round"/>
<path opacity="0.4" d="M12 32H20" stroke="#4F8AFB" stroke-width="2" stroke-miterlimit="10" stroke-linecap="round" stroke-linejoin="round"/>
<path opacity="0.4" d="M44 36C44 37.5 43.58 38.92 42.84 40.12C41.46 42.44 38.92 44 36 44C33.08 44 30.54 42.44 29.16 40.12C28.42 38.92 28 37.5 28 36C28 31.58 31.58 28 36 28C40.42 28 44 31.58 44 36Z" stroke="#4F8AFB" stroke-width="2" stroke-miterlimit="10" stroke-linecap="round" stroke-linejoin="round"/>
<path opacity="0.4" d="M32.8828 36L34.8628 37.98L39.1228 34.04" stroke="#4F8AFB" stroke-width="2" stroke-linecap="round" stroke-linejoin="round"/>
</svg>
