<svg width="48" height="48" viewBox="0 0 48 48" fill="none" xmlns="http://www.w3.org/2000/svg">
<path d="M18.3172 21.74C18.1172 21.72 17.8772 21.72 17.6572 21.74C12.8972 21.58 9.11719 17.68 9.11719 12.88C9.11719 7.98 13.0772 4 17.9972 4C22.8972 4 26.8772 7.98 26.8772 12.88C26.8572 17.68 23.0772 21.58 18.3172 21.74Z" stroke="#4F8AFB" stroke-width="2" stroke-linecap="round" stroke-linejoin="round"/>
<path opacity="0.4" d="M32.8225 8C36.7025 8 39.8225 11.14 39.8225 15C39.8225 18.78 36.8225 21.86 33.0825 22C32.9225 21.98 32.7425 21.98 32.5625 22" stroke="#4F8AFB" stroke-width="2" stroke-linecap="round" stroke-linejoin="round"/>
<path d="M8.3175 29.12C3.4775 32.36 3.4775 37.64 8.3175 40.86C13.8175 44.54 22.8375 44.54 28.3375 40.86C33.1775 37.62 33.1775 32.34 28.3375 29.12C22.8575 25.46 13.8375 25.46 8.3175 29.12Z" stroke="#4F8AFB" stroke-width="2" stroke-linecap="round" stroke-linejoin="round"/>
<path opacity="0.4" d="M36.6797 40C38.1197 39.7 39.4797 39.12 40.5997 38.26C43.7197 35.92 43.7197 32.06 40.5997 29.72C39.4997 28.88 38.1597 28.32 36.7397 28" stroke="#4F8AFB" stroke-width="2" stroke-linecap="round" stroke-linejoin="round"/>
</svg>
