<svg width="48" height="48" viewBox="0 0 48 48" fill="none" xmlns="http://www.w3.org/2000/svg">
<path d="M5.54688 37.95V39.5317C5.55124 41.3797 6.28772 43.1506 7.59503 44.4566C8.90235 45.7627 10.6739 46.4974 12.5219 46.5H37.6469C38.9194 46.4982 40.1392 45.9919 41.039 45.0921C41.9388 44.1924 42.4451 42.9725 42.4469 41.7V2.25C42.4469 2.05109 42.3679 1.86032 42.2272 1.71967C42.0866 1.57902 41.8958 1.5 41.6969 1.5H13.8996C13.7007 1.5 13.5099 1.57902 13.3693 1.71967C13.2286 1.86032 13.1496 2.05109 13.1496 2.25V37.2H6.29687C6.09796 37.2 5.9072 37.279 5.76654 37.4197C5.62589 37.5603 5.54688 37.7511 5.54688 37.95ZM14.6496 3H40.9506V41.7C40.9506 42.5752 40.6029 43.4146 39.9841 44.0335C39.3652 44.6523 38.5258 45 37.6506 45C36.7754 45 35.936 44.6523 35.3172 44.0335C34.6983 43.4146 34.3506 42.5752 34.3506 41.7V37.95C34.3506 37.7511 34.2716 37.5603 34.131 37.4197C33.9903 37.279 33.7995 37.2 33.6006 37.2H14.6496V3ZM7.04687 38.7H32.8469V41.7C32.8477 42.9295 33.3224 44.1114 34.1721 45H12.5219C11.0693 44.9996 9.67626 44.4229 8.64851 43.3964C7.62077 42.3699 7.04231 40.9776 7.04012 39.525L7.04687 38.7Z" fill="#9473F2"/>
<path d="M22.1824 16.2172C22.3686 16.406 22.5924 16.5533 22.8394 16.6497C23.0863 16.7461 23.3509 16.7894 23.6157 16.7767C24.7924 16.7767 26.3157 16.0492 27.8007 15.0007C29.2887 16.0507 30.8089 16.7767 31.9857 16.7767C32.2505 16.7894 32.515 16.7461 32.7619 16.6497C33.0089 16.5533 33.2327 16.406 33.4189 16.2172C34.4944 15.0772 33.6372 12.9622 32.0689 10.9147C32.5057 10.3518 32.8941 9.75287 33.2299 9.12447C34.2597 7.14822 33.9049 6.12447 33.4212 5.61672C32.3044 4.43322 30.0169 5.26422 27.8029 6.82422C25.5897 5.26422 23.3029 4.43247 22.1847 5.61672C21.7032 6.12597 21.3462 7.14822 22.3759 9.12447C22.7118 9.75287 23.1001 10.3518 23.5369 10.9147C21.9642 12.9622 21.1069 15.075 22.1824 16.2172ZM32.3284 15.1875C32.0914 15.4372 30.8179 15.1875 29.0524 14.0392C29.3682 13.7752 29.6787 13.5045 29.9764 13.2232C30.3657 12.8565 30.7324 12.48 31.0774 12.0982C32.2572 13.7377 32.5579 14.943 32.3284 15.1875ZM26.6539 12.132C26.2302 11.7322 25.8462 11.3227 25.4817 10.9117C25.8282 10.5202 26.2144 10.1167 26.6539 9.70197C27.0462 9.33222 27.4272 9.00297 27.7962 8.70672C28.1712 9.00672 28.5507 9.32772 28.9474 9.70197C29.3877 10.1167 29.7724 10.5202 30.1197 10.9117C29.7552 11.3227 29.3697 11.7322 28.9474 12.132C28.5544 12.507 28.1712 12.8332 27.8007 13.131C27.4302 12.8332 27.0477 12.5032 26.6539 12.132ZM32.3277 6.64572C32.4334 6.75672 32.4664 7.34022 31.8972 8.43147C31.6532 8.88223 31.3775 9.31507 31.0722 9.72672C30.7219 9.34197 30.3552 8.96697 29.9772 8.60997C29.6772 8.32947 29.3697 8.05722 29.0547 7.79322C30.8224 6.64572 32.0922 6.39597 32.3277 6.64572ZM23.7027 8.43147C23.1342 7.34022 23.1672 6.75672 23.2722 6.64572C23.3636 6.57569 23.4787 6.54396 23.5932 6.55722C24.6634 6.72106 25.6768 7.14609 26.5437 7.79472C26.2294 8.05797 25.9204 8.33022 25.6234 8.60997C25.2484 8.96697 24.8794 9.34197 24.5284 9.72672C24.2236 9.31487 23.9481 8.88205 23.7042 8.43147H23.7027ZM24.5224 12.1005C24.8674 12.48 25.2342 12.8565 25.6234 13.2255C25.9234 13.5067 26.2324 13.7782 26.5474 14.0422C24.7819 15.1912 23.5084 15.4402 23.2714 15.1897C23.0344 14.9392 23.3442 13.7377 24.5224 12.1005Z" fill="#9473F2"/>
<path d="M18.5312 21.9678H27.8027C28.0017 21.9678 28.1924 21.8888 28.3331 21.7481C28.4737 21.6075 28.5527 21.4167 28.5527 21.2178C28.5527 21.0189 28.4737 20.8281 28.3331 20.6874C28.1924 20.5468 28.0017 20.4678 27.8027 20.4678H18.5312C18.3323 20.4678 18.1416 20.5468 18.0009 20.6874C17.8603 20.8281 17.7812 21.0189 17.7812 21.2178C17.7812 21.4167 17.8603 21.6075 18.0009 21.7481C18.1416 21.8888 18.3323 21.9678 18.5312 21.9678Z" fill="#9473F2"/>
<path d="M18.5312 25.9717H34.0637C34.2627 25.9717 34.4534 25.8927 34.5941 25.752C34.7347 25.6114 34.8137 25.4206 34.8137 25.2217C34.8137 25.0228 34.7347 24.832 34.5941 24.6913C34.4534 24.5507 34.2627 24.4717 34.0637 24.4717H18.5312C18.3323 24.4717 18.1416 24.5507 18.0009 24.6913C17.8603 24.832 17.7812 25.0228 17.7812 25.2217C17.7812 25.4206 17.8603 25.6114 18.0009 25.752C18.1416 25.8927 18.3323 25.9717 18.5312 25.9717Z" fill="#9473F2"/>
<path d="M18.5312 30.0244H22.0885C22.2874 30.0244 22.4782 29.9454 22.6188 29.8047C22.7595 29.6641 22.8385 29.4733 22.8385 29.2744C22.8385 29.0755 22.7595 28.8847 22.6188 28.7441C22.4782 28.6034 22.2874 28.5244 22.0885 28.5244H18.5312C18.3323 28.5244 18.1416 28.6034 18.0009 28.7441C17.8603 28.8847 17.7812 29.0755 17.7812 29.2744C17.7812 29.4733 17.8603 29.6641 18.0009 29.8047C18.1416 29.9454 18.3323 30.0244 18.5312 30.0244Z" fill="#9473F2"/>
<path d="M25.5781 28.5244C25.3792 28.5244 25.1884 28.6034 25.0478 28.7441C24.9071 28.8847 24.8281 29.0755 24.8281 29.2744C24.8281 29.4733 24.9071 29.6641 25.0478 29.8047C25.1884 29.9454 25.3792 30.0244 25.5781 30.0244H29.0619C29.2608 30.0244 29.4516 29.9454 29.5922 29.8047C29.7329 29.6641 29.8119 29.4733 29.8119 29.2744C29.8119 29.0755 29.7329 28.8847 29.5922 28.7441C29.4516 28.6034 29.2608 28.5244 29.0619 28.5244H25.5781Z" fill="#9473F2"/>
<path d="M32.6125 32.5166H18.5313C18.3323 32.5166 18.1416 32.5956 18.0009 32.7363C17.8603 32.8769 17.7812 33.0677 17.7812 33.2666C17.7812 33.4655 17.8603 33.6563 18.0009 33.7969C18.1416 33.9376 18.3323 34.0166 18.5313 34.0166H32.6125C32.8114 34.0166 33.0022 33.9376 33.1428 33.7969C33.2835 33.6563 33.3625 33.4655 33.3625 33.2666C33.3625 33.0677 33.2835 32.8769 33.1428 32.7363C33.0022 32.5956 32.8114 32.5166 32.6125 32.5166Z" fill="#9473F2"/>
</svg>
