<svg width="48" height="48" viewBox="0 0 48 48" fill="none" xmlns="http://www.w3.org/2000/svg">
<g clip-path="url(#clip0_5783_9928)">
<path d="M35.0303 4.88186C34.8896 4.7412 34.6989 4.66215 34.5 4.66211H13.5C12.6684 4.66202 11.8604 4.93834 11.2031 5.44759C10.5457 5.95685 10.0762 6.67016 9.8685 7.47536L11.3205 7.85036C11.4451 7.36709 11.7268 6.93896 12.1214 6.63333C12.516 6.32771 13.0009 6.16194 13.5 6.16211H33.75V9.91211C33.75 10.5088 33.9871 11.0811 34.409 11.5031C34.831 11.9251 35.4033 12.1621 36 12.1621H39.75V42.9121C39.75 43.5088 39.5129 44.0811 39.091 44.5031C38.669 44.9251 38.0967 45.1621 37.5 45.1621H13.5C12.9033 45.1621 12.331 44.9251 11.909 44.5031C11.4871 44.0811 11.25 43.5088 11.25 42.9121V25.6621H9.75V42.9121C9.75119 43.9063 10.1467 44.8594 10.8497 45.5624C11.5527 46.2654 12.5058 46.6609 13.5 46.6621H37.5C38.4942 46.6609 39.4473 46.2654 40.1503 45.5624C40.8533 44.8594 41.2488 43.9063 41.25 42.9121V11.4121C41.25 11.2132 41.1709 11.0225 41.0303 10.8819L35.0303 4.88186ZM35.25 9.91211V7.22261L38.6895 10.6621H36C35.8011 10.6621 35.6103 10.5831 35.4697 10.4424C35.329 10.3018 35.25 10.111 35.25 9.91211Z" fill="#9473F2"/>
<path d="M40.4966 1.66211H16.4966C15.583 1.66196 14.7008 1.99533 14.0156 2.59961L15.0094 3.72461C15.4197 3.36168 15.9488 3.16159 16.4966 3.16211H40.4966C41.0934 3.16211 41.6657 3.39916 42.0876 3.82112C42.5096 4.24308 42.7466 4.81537 42.7466 5.41211V39.9121C42.7471 40.4599 42.547 40.989 42.1841 41.3994L43.3091 42.3931C43.9134 41.7079 44.2468 40.8257 44.2466 39.9121V5.41211C44.2454 4.41791 43.85 3.46478 43.147 2.76177C42.444 2.05877 41.4908 1.6633 40.4966 1.66211Z" fill="#9473F2"/>
<path d="M12 21.1621V20.4121C12.5967 20.4121 13.169 20.1751 13.591 19.7531C14.0129 19.3311 14.25 18.7588 14.25 18.1621C14.25 17.5654 14.0129 16.9931 13.591 16.5711C13.169 16.1492 12.5967 15.9121 12 15.9121H10.5C10.3011 15.9121 10.1103 15.8331 9.96967 15.6924C9.82902 15.5518 9.75 15.361 9.75 15.1621C9.75 14.9632 9.82902 14.7724 9.96967 14.6318C10.1103 14.4911 10.3011 14.4121 10.5 14.4121H12C12.1989 14.4121 12.3897 14.4911 12.5303 14.6318C12.671 14.7724 12.75 14.9632 12.75 15.1621H14.25C14.25 14.5654 14.0129 13.9931 13.591 13.5711C13.169 13.1492 12.5967 12.9121 12 12.9121V12.1621H10.5V12.9121C9.90326 12.9121 9.33097 13.1492 8.90901 13.5711C8.48705 13.9931 8.25 14.5654 8.25 15.1621C8.25 15.7588 8.48705 16.3311 8.90901 16.7531C9.33097 17.1751 9.90326 17.4121 10.5 17.4121H12C12.1989 17.4121 12.3897 17.4911 12.5303 17.6318C12.671 17.7724 12.75 17.9632 12.75 18.1621C12.75 18.361 12.671 18.5518 12.5303 18.6924C12.3897 18.8331 12.1989 18.9121 12 18.9121H10.5C10.3011 18.9121 10.1103 18.8331 9.96967 18.6924C9.82902 18.5518 9.75 18.361 9.75 18.1621H8.25C8.25 18.7588 8.48705 19.3311 8.90901 19.7531C9.33097 20.1751 9.90326 20.4121 10.5 20.4121V21.1621H12Z" fill="#9473F2"/>
<path d="M18.75 16.6621C18.75 15.1788 18.3101 13.7287 17.486 12.4953C16.6619 11.262 15.4906 10.3007 14.1201 9.73302C12.7497 9.16536 11.2417 9.01683 9.78683 9.30622C8.33197 9.59561 6.9956 10.3099 5.9467 11.3588C4.89781 12.4077 4.1835 13.7441 3.89411 15.1989C3.60472 16.6538 3.75325 18.1618 4.32091 19.5322C4.88856 20.9027 5.84986 22.074 7.08323 22.8981C8.3166 23.7222 9.76664 24.1621 11.25 24.1621C13.2385 24.1599 15.1448 23.3691 16.5509 21.963C17.9569 20.557 18.7478 18.6506 18.75 16.6621ZM5.25 16.6621C5.25 15.4754 5.6019 14.3154 6.26119 13.3287C6.92047 12.342 7.85755 11.573 8.9539 11.1188C10.0503 10.6647 11.2567 10.5459 12.4205 10.7774C13.5844 11.0089 14.6535 11.5804 15.4926 12.4195C16.3318 13.2586 16.9032 14.3277 17.1347 15.4916C17.3662 16.6555 17.2474 17.8619 16.7933 18.9582C16.3392 20.0546 15.5701 20.9916 14.5834 21.6509C13.5967 22.3102 12.4367 22.6621 11.25 22.6621C9.65925 22.6603 8.13417 22.0276 7.00934 20.9028C5.8845 19.7779 5.25179 18.2529 5.25 16.6621Z" fill="#9473F2"/>
<path d="M21 12.1621H30V13.6621H21V12.1621Z" fill="#9473F2"/>
<path d="M21 9.16211H22.5V10.6621H21V9.16211Z" fill="#9473F2"/>
<path d="M24 9.16211H30V10.6621H24V9.16211Z" fill="#9473F2"/>
<path d="M18 23.4121C17.8011 23.4121 17.6103 23.4911 17.4697 23.6318C17.329 23.7724 17.25 23.9632 17.25 24.1621V27.9121H15.75V29.4121H35.25V27.9121H33.75V18.1621C33.75 17.9632 33.671 17.7724 33.5303 17.6318C33.3897 17.4911 33.1989 17.4121 33 17.4121H30C29.8011 17.4121 29.6103 17.4911 29.4697 17.6318C29.329 17.7724 29.25 17.9632 29.25 18.1621V27.9121H27.75V21.1621C27.75 20.9632 27.671 20.7724 27.5303 20.6318C27.3897 20.4911 27.1989 20.4121 27 20.4121H24C23.8011 20.4121 23.6103 20.4911 23.4697 20.6318C23.329 20.7724 23.25 20.9632 23.25 21.1621V27.9121H21.75V24.1621C21.75 23.9632 21.671 23.7724 21.5303 23.6318C21.3897 23.4911 21.1989 23.4121 21 23.4121H18ZM30.75 18.9121H32.25V27.9121H30.75V18.9121ZM24.75 21.9121H26.25V27.9121H24.75V21.9121ZM18.75 27.9121V24.9121H20.25V27.9121H18.75Z" fill="#9473F2"/>
<path d="M16.5 32.4121C16.3011 32.4121 16.1103 32.4911 15.9697 32.6318C15.829 32.7724 15.75 32.9632 15.75 33.1621V40.6621C15.75 40.861 15.829 41.0518 15.9697 41.1924C16.1103 41.3331 16.3011 41.4121 16.5 41.4121H24C24.1989 41.4121 24.3897 41.3331 24.5303 41.1924C24.671 41.0518 24.75 40.861 24.75 40.6621V33.1621C24.75 32.9632 24.671 32.7724 24.5303 32.6318C24.3897 32.4911 24.1989 32.4121 24 32.4121H16.5ZM23.25 39.9121H17.25V33.9121H23.25V39.9121Z" fill="#9473F2"/>
<path d="M27.75 32.4121H36.75V33.9121H27.75V32.4121Z" fill="#9473F2"/>
<path d="M27.75 38.4121H36.75V39.9121H27.75V38.4121Z" fill="#9473F2"/>
<path d="M27.75 35.4121H36.75V36.9121H27.75V35.4121Z" fill="#9473F2"/>
</g>
<defs>
<clipPath id="clip0_5783_9928">
<rect width="48" height="48" fill="white"/>
</clipPath>
</defs>
</svg>
