<svg width="48" height="48" viewBox="0 0 48 48" fill="none" xmlns="http://www.w3.org/2000/svg">
<g clip-path="url(#clip0_5783_9908)">
<path d="M21.7991 23.2679C20.994 24.073 20.994 25.383 21.7991 26.1881C22.6041 26.9932 23.9141 26.9933 24.7194 26.1881C25.5244 25.383 25.5244 24.073 24.7194 23.2679C23.9141 22.4628 22.6042 22.4628 21.7991 23.2679ZM23.7251 24.2622C23.9819 24.519 23.9819 24.937 23.7251 25.1938C23.4682 25.4506 23.0503 25.4506 22.7934 25.1938C22.5366 24.9369 22.5366 24.519 22.7934 24.2622C23.0503 24.0053 23.4681 24.0053 23.7251 24.2622Z" fill="#9473F2"/>
<path d="M12.5613 48C13.279 48 13.8716 47.7878 14.3035 47.3558C14.4457 47.2136 14.0546 47.7087 20.3247 39.5223V39.6009C20.3247 40.2186 21.0179 40.5856 21.5283 40.2372L23.1536 39.1297C23.22 39.0845 23.3059 39.0845 23.3724 39.1297L24.9972 40.237C25.5079 40.5856 26.2013 40.2189 26.2013 39.601V37.7492L26.9963 39.4212C27.2606 39.9778 28.0433 40.0144 28.3567 39.4792L29.3488 37.7811C29.3894 37.7116 29.4665 37.6746 29.5465 37.6871L31.4901 37.9895C32.1009 38.0834 32.5687 37.4561 32.3035 36.8978L28.9133 29.7684C29.1561 29.4204 29.4813 29.1412 29.8677 28.9511L30.6317 28.5754C31.1436 28.3237 31.3715 27.726 31.1721 27.2024C33.0878 25.4155 35.1072 23.7069 37.183 22.117C47.9265 13.8885 47.2091 14.4499 47.352 14.3071C48.2571 13.4021 48.1978 11.7726 47.1902 9.7027C47.2596 9.20531 47.1681 8.53345 46.7594 7.63024C46.5993 7.27655 46.1829 7.11953 45.829 7.27955C45.4752 7.43966 45.3182 7.85616 45.4783 8.20995C45.9138 9.17222 45.8096 9.59096 45.7383 9.66221C45.7348 9.66568 45.7309 9.66896 45.7264 9.67233C44.875 10.2934 42.8783 9.81801 40.5201 8.46502L40.8299 8.15529C41.1945 7.79054 41.1983 7.19199 40.8382 6.82068C39.8238 5.77592 39.0244 4.66741 38.5872 3.69933C38.1541 2.74025 38.2582 2.32272 38.3288 2.25213C38.3402 2.24079 38.3541 2.23076 38.3703 2.22204C38.403 2.2137 38.435 2.20301 38.4662 2.19007C39.0313 2.08255 40.8947 2.75618 43.0646 4.92614C43.2942 5.15581 43.5169 5.3927 43.7267 5.63034C43.9836 5.92141 44.4279 5.94906 44.7191 5.69211C45.0103 5.43516 45.0378 4.99082 44.7808 4.69975C44.5519 4.44046 44.3091 4.1822 44.0589 3.932C42.181 2.05358 39.8343 0.606947 38.2959 0.804275C36.2223 -0.20674 34.5901 -0.267579 33.684 0.638725C33.6123 0.710439 33.5421 0.791339 33.476 0.882363C25.2962 11.5622 25.4015 11.4446 24.3841 12.6945C24.0072 13.1574 24.3452 13.8414 24.9289 13.8414C25.1331 13.8414 25.3356 13.753 25.4746 13.5822C26.5181 12.3004 26.5034 12.2984 33.2039 3.55009C33.3091 3.96097 33.4549 4.36218 33.6199 4.74897C34.7514 7.40142 37.188 10.1387 39.4333 11.9712C30.7018 18.6587 29.2965 19.6668 26.6816 21.9439C25.8798 20.961 24.7064 20.3751 23.4386 20.3251C22.8195 19.5483 22.2407 18.7323 21.7116 17.8904C22.2295 17.3374 22.7429 16.7739 23.2425 16.2099C23.5001 15.9193 23.4732 15.4749 23.1826 15.2174C22.8919 14.9599 22.4475 14.9868 22.1901 15.2774C21.7323 15.7942 21.2626 16.3106 20.7887 16.8186C20.263 16.6183 19.6665 16.8494 19.4158 17.359L19.0401 18.123C18.7564 18.6998 18.269 19.1429 17.668 19.3707L17.2087 19.5447C16.6221 19.7667 16.345 20.4324 16.59 21.0014C14.7434 22.7109 12.7993 24.3495 10.8045 25.8774C0.130386 34.0526 0.775241 33.5474 0.635283 33.6874C-0.222274 34.5449 -0.211307 36.0813 0.666219 38.0135C2.74393 42.5888 8.92992 48 12.5613 48ZM24.1643 37.9677C23.6169 37.5946 22.9092 37.5947 22.3618 37.9677L21.7309 38.3976V34.384C21.7309 33.9957 21.4161 33.681 21.0278 33.681C20.6395 33.681 20.3247 33.9957 20.3247 34.384V37.2096C12.8959 46.909 13.3501 46.3207 13.3093 46.3614C12.7893 46.8813 11.036 46.5534 8.7114 44.9979L20.3247 29.835V31.103C20.3247 31.4913 20.6395 31.8061 21.0278 31.8061C21.4161 31.8061 21.7309 31.4913 21.7309 31.103V28.8613C22.6783 29.2108 23.7686 29.2401 24.7952 28.8613V38.3976L24.1643 37.9677ZM29.7628 36.2977C29.1078 36.1956 28.4691 36.4998 28.1349 37.0717L27.7498 37.7309L26.2014 34.4749V28.0145C26.2799 27.9443 26.3524 27.8746 26.4219 27.8031L30.5172 36.4151L29.7628 36.2977ZM28.2551 28.3836L27.328 26.4342C27.367 26.3409 27.4027 26.2465 27.435 26.1513C28.1028 26.6524 28.7944 27.1249 29.5025 27.5637C29.084 27.7695 28.7177 27.9385 28.2551 28.3836ZM46.2444 11.0445C46.7252 12.296 46.6329 13.0378 46.358 13.3126C46.0161 13.6547 45.0736 13.6549 43.6491 13.015L46.2444 11.0445ZM39.522 7.47472L39.2938 7.7028C38.2297 6.99185 37.1461 6.14414 36.0909 5.19874L37.1249 3.83694C37.5576 5.01135 38.467 6.32722 39.522 7.47472ZM36.9464 1.74667L35.0583 4.23338C34.9848 4.16167 34.9115 4.08958 34.8385 4.01702C34.3878 2.89099 34.3244 1.98675 34.6782 1.63296C34.9531 1.3582 35.6949 1.26577 36.9464 1.74667ZM37.5675 8.20985C39.2762 9.46104 41.581 10.8454 43.6709 11.233L42.2846 12.2856C40.5685 11.2341 38.89 9.72802 37.5675 8.20985ZM40.5935 12.8537C41.7134 13.6437 43.1214 14.4526 44.4381 14.7893L36.3283 21.0007C34.1758 22.6493 32.0828 24.4233 30.1006 26.2794C29.2589 25.7504 28.4429 25.1717 27.666 24.5526C27.6477 24.0894 27.557 23.6286 27.3938 23.1888C30.0969 20.8181 31.3702 19.9178 40.5935 12.8537ZM25.386 26.8509C24.2155 28.0214 22.3106 28.0214 21.1401 26.8509C19.9695 25.6802 19.9695 23.7755 21.1401 22.6049C22.3106 21.4343 24.2154 21.4342 25.386 22.6049C26.5567 23.7755 26.5567 25.6803 25.386 26.8509ZM18.166 20.6855C19.1017 20.3311 19.8601 19.6414 20.3017 18.7435L20.4273 18.4884C20.8662 19.1966 21.3386 19.8882 21.8397 20.556C20.7261 20.9338 19.8519 21.7292 19.3508 22.6952C18.8842 22.051 18.4575 21.4025 18.0538 20.728L18.166 20.6855ZM1.62952 34.6818C1.67039 34.641 1.02788 35.1365 11.6593 26.9937C13.6119 25.4983 15.5166 23.8984 17.3312 22.2305C17.8093 22.9739 18.3243 23.6975 18.8695 24.3915C18.7768 25.6128 19.1894 26.8656 20.1073 27.8062L7.57383 44.1707C6.89804 43.6403 6.2321 43.0478 5.58761 42.4033C2.02277 38.8384 0.862234 35.4489 1.62952 34.6818Z" fill="#9473F2"/>
</g>
<defs>
<clipPath id="clip0_5783_9908">
<rect width="48" height="48" fill="white"/>
</clipPath>
</defs>
</svg>
