<svg width="48" height="48" viewBox="0 0 48 48" fill="none" xmlns="http://www.w3.org/2000/svg">
<path d="M24 13.498C23.5472 13.498 23.1797 13.8656 23.1797 14.3184C23.1797 14.7711 23.5472 15.1387 24 15.1387C24.4528 15.1387 24.8203 14.7711 24.8203 14.3184C24.8203 13.8656 24.4528 13.498 24 13.498Z" fill="#9473F2"/>
<path d="M10.3828 28.2637C10.8356 28.2637 11.2031 27.8961 11.2031 27.4434C11.2031 26.9906 10.8356 26.623 10.3828 26.623C9.93004 26.623 9.5625 26.9906 9.5625 27.4434C9.5625 27.8961 9.93004 28.2637 10.3828 28.2637Z" fill="#9473F2"/>
<path d="M30.5625 5.29492C23.1774 5.29492 17.1161 10.3866 16.6473 16.8001C9.61409 17.1529 3 22.2244 3 29.084C3 31.9506 4.13434 34.7281 6.19922 36.9289C6.60777 38.6131 6.11174 40.3982 4.88095 41.629C4.64639 41.8636 4.57622 42.2164 4.70311 42.523C4.83 42.8293 5.12897 43.0293 5.46094 43.0293C7.80043 43.0293 10.055 42.1119 11.7302 40.4953C13.3622 41.0516 15.4915 41.3887 17.4375 41.3887C24.8216 41.3887 30.8823 36.2982 31.3524 29.886C33.0699 29.8098 34.8563 29.4925 36.2698 29.0109C37.945 30.6275 40.1996 31.5449 42.5391 31.5449C42.871 31.5449 43.17 31.345 43.2969 31.0386C43.4238 30.732 43.3536 30.3792 43.119 30.1446C41.8883 28.9138 41.3922 27.1287 41.8008 25.4445C43.8657 23.2437 45 20.4662 45 17.5996C45 10.4722 37.8764 5.29492 30.5625 5.29492ZM17.4375 39.748C15.5014 39.748 13.2952 39.368 11.8174 38.78C11.5008 38.6538 11.139 38.7368 10.9086 38.9883C9.91818 40.071 8.63036 40.826 7.22717 41.173C8.00038 39.6917 8.19777 37.9453 7.72737 36.2906C7.6902 36.1601 7.62131 36.0409 7.52678 35.9438C5.6657 34.027 4.64062 31.5907 4.64062 29.084C4.64062 23.3033 10.5007 18.4199 17.4375 18.4199C23.9878 18.4199 29.7422 22.9749 29.7422 29.084C29.7422 34.9643 24.2224 39.748 17.4375 39.748ZM40.4732 24.4595C40.3787 24.5569 40.3098 24.6761 40.2726 24.8062C39.8022 26.4609 39.9996 28.2073 40.7728 29.6886C39.3696 29.3419 38.0818 28.5867 37.0914 27.5039C36.861 27.2527 36.4992 27.1694 36.1826 27.2956C34.9018 27.8051 33.0747 28.1579 31.3498 28.2432C31.1101 25.141 29.5627 22.2254 26.9172 20.0605H37.6172C38.0703 20.0605 38.4375 19.6933 38.4375 19.2402C38.4375 18.7871 38.0703 18.4199 37.6172 18.4199H24.397C22.535 17.4721 20.4441 16.9193 18.2921 16.8033C18.7635 11.2938 24.0868 6.93555 30.5625 6.93555C37.4993 6.93555 43.3594 11.819 43.3594 17.5996C43.3594 20.1064 42.3343 22.5426 40.4732 24.4595Z" fill="#9473F2"/>
<path d="M24 26.623H13.6641C13.211 26.623 12.8438 26.9903 12.8438 27.4434C12.8438 27.8965 13.211 28.2637 13.6641 28.2637H24C24.4531 28.2637 24.8203 27.8965 24.8203 27.4434C24.8203 26.9903 24.4531 26.623 24 26.623Z" fill="#9473F2"/>
<path d="M24 31.5449H10.3828C9.92972 31.5449 9.5625 31.9121 9.5625 32.3652C9.5625 32.8183 9.92972 33.1855 10.3828 33.1855H24C24.4531 33.1855 24.8203 32.8183 24.8203 32.3652C24.8203 31.9121 24.4531 31.5449 24 31.5449Z" fill="#9473F2"/>
<path d="M37.6172 13.498H27.2812C26.8282 13.498 26.4609 13.8653 26.4609 14.3184C26.4609 14.7715 26.8282 15.1387 27.2812 15.1387H37.6172C38.0703 15.1387 38.4375 14.7715 38.4375 14.3184C38.4375 13.8653 38.0703 13.498 37.6172 13.498Z" fill="#9473F2"/>
</svg>
