<svg width="57" height="57" viewBox="0 0 57 57" fill="none" xmlns="http://www.w3.org/2000/svg">
<g clip-path="url(#clip0_5284_25328)">
<path fill-rule="evenodd" clip-rule="evenodd" d="M29.3891 52.125C30.0427 52.6598 30.368 52.9507 30.6964 52.9631C31.0216 52.9507 31.35 52.6597 32.0036 52.125L49.2384 34.4855C54.3359 29.0342 54.3359 20.1113 49.2384 14.6568C44.6068 9.70281 37.0011 10.8037 32.1756 15.5481L31.2687 16.4395C30.7433 16.9556 30.6432 16.9556 30.1053 16.4271L29.214 15.5482C24.3979 10.8006 16.7829 9.70281 12.1513 14.6569C7.05374 20.1114 7.05374 29.0343 12.1513 34.4857L14.2185 36.603L29.3891 52.125Z" fill="#FD8087"/>
<path fill-rule="evenodd" clip-rule="evenodd" d="M34.2979 13.8125C36.7779 17.4092 38.2165 21.6814 38.2165 26.2633C38.2165 26.7637 38.1977 27.2579 38.1634 27.7458C37.8882 31.8148 36.4746 35.5992 34.2167 38.8299C33.2222 40.253 32.065 41.5696 30.7641 42.7581C29.3756 44.0278 27.8275 45.1475 26.1482 46.0889C25.5728 46.411 24.9817 46.7144 24.375 46.9958L29.3881 52.125C30.0417 52.6598 30.367 52.9506 30.6953 52.9631C31.0206 52.9506 31.349 52.6597 32.0026 52.125L37.2752 46.7268L49.2373 34.4855C53.2653 30.1789 54.1097 23.7017 51.7736 18.4849C51.1512 17.0994 50.3068 15.8015 49.2373 14.6568C48.5336 13.9062 47.7611 13.2932 46.9418 12.8115C44.2711 11.2446 41.0906 11.0663 38.0883 11.9859C36.7717 12.3895 35.4863 13.0087 34.2979 13.8125Z" fill="#FE636E"/>
<path fill-rule="evenodd" clip-rule="evenodd" d="M46.9379 19.9081C51.8416 19.9081 55.8414 15.9079 55.8414 11.0008C55.8414 6.09674 51.8416 2.09668 46.9379 2.09668C42.0311 2.09668 38.0312 6.09685 38.0312 11.0008C38.0312 15.908 42.0311 19.9081 46.9379 19.9081Z" fill="#F8F2F0"/>
<path fill-rule="evenodd" clip-rule="evenodd" d="M43.7442 2.68468C46.8746 4.06707 49.0575 7.19465 49.0575 10.8351C49.0575 10.8914 49.0575 10.9476 49.0543 11.0009C49.0355 12.0361 48.8417 13.0275 48.4976 13.944C47.6095 16.3334 45.7206 18.2381 43.3438 19.1513C44.4414 19.6392 45.658 19.9082 46.937 19.9082C48.7165 19.9082 50.3771 19.3859 51.7688 18.4851C54.2208 16.8963 55.8407 14.1378 55.8407 11.0008C55.8407 6.08427 51.8533 2.09668 46.9372 2.09668C45.8114 2.09668 44.7355 2.30307 43.7442 2.68468Z" fill="#D6DCEA"/>
<path fill-rule="evenodd" clip-rule="evenodd" d="M9.08416 38.5859L7.25781 44.5095L9.08416 50.7866L17.4967 53.0759L24.3205 54.9306C28.3017 56.1691 30.0592 55.4622 33.7213 54.2862L47.1408 49.9828C50.9936 48.7474 50.4182 43.4493 44.7796 45.2602L37.2771 46.727L36.0512 46.9678C34.2311 47.3212 33.981 47.4682 32.1452 47.1836L26.1502 46.089L25.0619 45.8889C22.6038 45.1039 23.5607 41.8137 25.7061 42.1389C27.1572 42.3235 29.1024 42.5862 30.7661 42.7582C30.8006 42.7614 30.8349 42.7645 30.8662 42.7676C34.078 43.0929 35.3664 40.6941 34.2186 38.83C33.784 38.1201 32.9928 37.4851 31.8199 37.1129L27.3009 36.2841C24.3706 35.7462 22.2878 36.4155 17.7406 37.1629L15.1793 37.5851L9.08416 38.5859Z" fill="#FED1A3"/>
<path fill-rule="evenodd" clip-rule="evenodd" d="M1.48438 37.5256V51.9593C1.48438 52.1406 1.67512 52.2876 1.90656 52.2876H8.65533C8.88983 52.2876 9.08069 52.1406 9.08069 51.9593V50.7865V38.5859V37.5256C9.08069 37.3443 8.88994 37.1973 8.65533 37.1973H1.90656C1.67512 37.1972 1.48438 37.3442 1.48438 37.5256Z" fill="#99E6FC"/>
<path fill-rule="evenodd" clip-rule="evenodd" d="M1.48438 49.7419V51.9594C1.48438 52.1408 1.67512 52.2878 1.90656 52.2878H8.65533C8.88983 52.2878 9.08069 52.1408 9.08069 51.9594V50.7866V49.7419C9.08069 49.9202 8.88994 50.0703 8.65533 50.0703H1.90656C1.67512 50.0704 1.48438 49.9202 1.48438 49.7419Z" fill="#62DBFB"/>
<path fill-rule="evenodd" clip-rule="evenodd" d="M9.07812 49.7418V50.7865L17.4907 53.0758L24.3145 54.9305C28.2956 56.169 30.0532 55.4621 33.7153 54.2861L47.1347 49.9827C49.3082 49.2884 50.0713 47.2993 49.3145 46.02C48.9423 46.7581 48.2136 47.4211 47.1347 47.7652L33.7153 52.0687C30.0532 53.2415 28.2956 53.9515 24.3145 52.713L17.4907 50.8583L9.07812 48.5658V49.7418Z" fill="#FFBC85"/>
<path fill-rule="evenodd" clip-rule="evenodd" d="M25.7019 39.9214C24.0007 39.6649 23.0469 41.676 23.9475 42.9114C24.3071 42.3765 24.9264 42.0231 25.7019 42.1388C27.153 42.3234 29.0983 42.5861 30.762 42.7581L30.862 42.7675C33.9237 43.0772 35.2371 40.916 34.3615 39.0989C34.1206 39.5618 33.7173 39.959 33.1606 40.2248C32.5663 40.5094 31.7939 40.6439 30.8619 40.5501L30.7619 40.5407C29.0981 40.3687 27.153 40.106 25.7019 39.9214Z" fill="#FFBC85"/>
<path d="M22.1101 29.7077C22.3978 29.7077 22.6645 29.557 22.8129 29.3104L24.2928 26.8522L26.2539 29.9685C26.4073 30.2123 26.6752 30.357 26.9654 30.3518C27.2534 30.3458 27.5171 30.1892 27.6601 29.9391L30.8173 24.4227L35.0575 32.15C35.199 32.4079 35.4679 32.5704 35.7621 32.5756C35.7669 32.5756 35.7718 32.5757 35.7766 32.5757C36.0653 32.5757 36.3333 32.4238 36.4813 32.1752L39.1231 27.7405H45.4933C45.9463 27.7405 46.3136 27.3732 46.3136 26.9202C46.3136 26.4671 45.9463 26.0998 45.4933 26.0998H38.6569C38.3678 26.0998 38.1001 26.252 37.9522 26.5004L35.8058 30.1034L31.5515 22.3502C31.4086 22.09 31.1365 21.9273 30.8397 21.9246C30.8372 21.9246 30.8348 21.9246 30.8322 21.9246C30.5382 21.9246 30.2665 22.082 30.1203 22.3373L26.9148 27.9384L24.9716 24.8507C24.8213 24.6119 24.5591 24.4673 24.2773 24.4673C24.2747 24.4673 24.2719 24.4673 24.2692 24.4673C23.9844 24.47 23.7214 24.6204 23.5745 24.8645L21.6465 28.0671H16.9844C16.5313 28.0671 16.1641 28.4343 16.1641 28.8874C16.1641 29.3404 16.5313 29.7077 16.9844 29.7077H22.1101Z" fill="black"/>
<path d="M46.943 6.94043C46.49 6.94043 46.1227 7.30771 46.1227 7.76074V10.1806H43.7031C43.2501 10.1806 42.8828 10.5478 42.8828 11.0009C42.8828 11.4539 43.2501 11.8212 43.7031 11.8212H46.1227V14.2411C46.1227 14.6941 46.49 15.0614 46.943 15.0614C47.3961 15.0614 47.7633 14.6941 47.7633 14.2411V11.8212H50.1829C50.636 11.8212 51.0032 11.4539 51.0032 11.0009C51.0032 10.5478 50.636 10.1806 50.1829 10.1806H47.7633V7.76074C47.7633 7.30771 47.3961 6.94043 46.943 6.94043Z" fill="black"/>
<path d="M49.8347 35.0459C53.8311 30.7734 54.9765 24.3127 52.7797 18.774C55.1371 16.9973 56.6641 14.1742 56.6641 11.0008C56.6641 5.63868 52.302 1.27637 46.9402 1.27637C44.7377 1.27637 42.5809 2.03226 40.867 3.4048C40.5134 3.68798 40.4563 4.20423 40.7395 4.55784C41.0227 4.91134 41.5389 4.96854 41.8925 4.68537C43.3372 3.5284 45.0826 2.91699 46.9401 2.91699C51.3971 2.91699 55.0233 6.54343 55.0233 11.0008C55.0233 15.46 51.3972 19.0878 46.9401 19.0878C42.7901 19.0878 39.3619 15.9445 38.9067 11.914C38.9058 11.9047 38.9043 11.8953 38.9031 11.8859C38.8713 11.595 38.8537 11.2999 38.8537 11.0008C38.8537 9.73466 39.1381 8.52388 39.699 7.40191C39.9016 6.99668 39.7373 6.50395 39.3322 6.30127C38.9266 6.09882 38.4342 6.26299 38.2315 6.66812C37.5557 8.01988 37.213 9.47763 37.213 11.0007C37.213 11.1385 37.2166 11.2754 37.2223 11.4119C35.151 12.1523 33.2176 13.37 31.5973 14.9634L30.6906 15.8549C30.6862 15.8505 30.6829 15.8472 30.6785 15.8428L29.7871 14.9645C26.9029 12.1208 23.1273 10.5316 19.4271 10.6081C16.3482 10.6716 13.6237 11.878 11.5488 14.0961C11.2393 14.4275 11.2568 14.947 11.5882 15.2566C11.9196 15.565 12.4381 15.5486 12.7476 15.2172C14.5129 13.3294 16.8338 12.3024 19.461 12.2488C22.7204 12.182 26.064 13.5984 28.6354 16.1327L29.5279 17.012C29.9588 17.4364 30.3263 17.6475 30.6928 17.6475C31.0559 17.6475 31.4179 17.4397 31.8412 17.0241L32.7479 16.1327C34.1104 14.7935 35.7174 13.7507 37.4379 13.0819C38.3935 17.449 42.2907 20.7283 46.94 20.7283C48.5317 20.7283 50.0353 20.3437 51.3628 19.6625C53.1805 24.5517 52.1368 30.1763 48.6423 33.918L36.8661 45.9725L35.8916 46.1628C35.6553 46.2087 35.4464 46.2503 35.2561 46.2886C34.0202 46.539 33.7248 46.5981 32.2778 46.375L25.2614 45.092C24.3055 44.7617 24.4017 44.0004 24.4553 43.7718C24.5395 43.4164 24.8698 42.8421 25.5797 42.9493C25.5863 42.9504 25.5928 42.9515 25.5994 42.9526C25.9155 42.9931 26.2545 43.0368 26.6089 43.0817C27.9378 43.2534 29.4428 43.447 30.7794 43.5837C33.5137 43.8604 35.0603 42.4254 35.3819 40.8789C35.7089 39.3028 34.8109 37.2071 32.0656 36.3311C32.0328 36.3212 31.9989 36.3125 31.9639 36.3059L27.4456 35.4768C24.9934 35.0273 23.0859 35.374 20.1984 35.899C19.435 36.0379 18.5688 36.1943 17.6041 36.3529L15.4625 36.7051L14.803 36.0303L12.7413 33.9193C8.88797 29.7882 8.03375 23.3176 10.6675 18.1803C10.8742 17.7778 10.7145 17.2834 10.312 17.0767C9.90844 16.87 9.41406 17.0286 9.20734 17.4321C6.26297 23.1765 7.22547 30.4193 11.5491 35.0459C11.5534 35.0503 11.5578 35.0546 11.5611 35.059L13.4861 37.03L9.901 37.6193V37.5257C9.901 36.8923 9.3422 36.377 8.65533 36.377H1.90656C1.22144 36.377 0.664062 36.8923 0.664062 37.5257V51.9593C0.664062 52.5927 1.22144 53.108 1.90656 53.108H8.65544C9.34231 53.108 9.90111 52.5927 9.90111 51.9593V51.8599L17.2781 53.8671L24.0878 55.7178C25.642 56.2001 26.8944 56.3992 28.0373 56.3992C29.8464 56.3992 31.3831 55.9026 33.4131 55.2464C33.5936 55.1884 33.7784 55.1282 33.9688 55.067L47.388 50.7642C48.9433 50.2654 50.0502 49.1454 50.3477 47.7684C50.5784 46.7009 50.2569 45.6465 49.4869 44.9476C48.8634 44.3821 47.3978 43.5706 44.5727 44.4642L39.7011 45.4168L49.8227 35.059C49.827 35.0546 49.8303 35.0503 49.8347 35.0459ZM2.30469 51.4674V38.0175H8.26038V38.5811C8.26038 38.5829 8.26016 38.5845 8.26016 38.5863V50.7859C8.26016 50.7869 8.26038 50.7878 8.26038 50.7888V51.4674H2.30469ZM45.0266 46.0414C46.5403 45.5557 47.7642 45.5995 48.3855 46.1628C48.7202 46.4668 48.8514 46.9262 48.7442 47.4206C48.5714 48.2179 47.8769 48.884 46.887 49.2012L33.4667 53.5051C33.2753 53.5664 33.0894 53.6265 32.9078 53.6856C29.6977 54.7225 28.0866 55.2442 24.5603 54.1471C24.5516 54.1439 24.5417 54.1417 24.5319 54.1384L9.901 50.1594V39.282L17.8698 37.9728C18.8477 37.812 19.7216 37.6523 20.4927 37.5123C23.2981 37.0026 24.9923 36.6953 27.1492 37.0912L31.615 37.9104C33.3563 38.4825 33.9567 39.6736 33.7752 40.5453C33.5662 41.5526 32.455 42.105 30.9456 41.9518C29.6309 41.8173 28.1369 41.6248 26.8189 41.4553C26.4667 41.4093 26.1287 41.3656 25.8148 41.3262C24.2464 41.0943 23.1406 42.1914 22.8584 43.3978C22.7983 43.6548 22.7742 43.9282 22.7917 44.2039C22.8519 45.2014 23.448 46.2361 24.8086 46.6703C24.8425 46.6812 25.2953 46.7654 25.2953 46.7654L31.9945 47.9904C32.0011 47.9915 32.0087 47.9926 32.0164 47.9937C33.3989 48.2092 33.9972 48.1906 34.8448 48.0407C35.0669 48.0014 35.9725 47.8176 36.2055 47.7728L37.682 47.484C37.682 47.484 44.9959 46.0512 45.0266 46.0414Z" fill="black"/>
</g>
<defs>
<clipPath id="clip0_5284_25328">
<rect width="56" height="56" fill="white" transform="translate(0.664062 0.837891)"/>
</clipPath>
</defs>
</svg>
