<svg width="56" height="57" viewBox="0 0 56 57" fill="none" xmlns="http://www.w3.org/2000/svg">
<g clip-path="url(#clip0_5284_25306)">
<path d="M51.8206 10.8052L40.0417 2.35001C35.2425 1.11413 30.1562 1.68885 25.7537 3.96448L18.375 14.8379L24.3996 38.9308C28.7183 41.6254 33.9019 42.572 38.8943 41.5779L48.125 35.8379L54.7428 25.7442C54.9966 24.4576 55.1246 23.1493 55.125 21.8379C55.1287 17.916 53.9797 14.0794 51.8206 10.8052Z" fill="#BAFFE5"/>
<path d="M54.7405 25.7441C54.9943 24.4575 55.1223 23.1492 55.1227 21.8378C55.1264 17.9158 53.9774 14.0793 51.8183 10.8051L49.9785 9.48438C52.0275 13.186 52.8571 17.4395 52.3491 21.6397C51.8412 25.84 50.0216 29.7732 47.1493 32.8796C44.2769 35.986 40.4981 38.1076 36.3504 38.9424C32.2027 39.7772 27.8973 39.2827 24.0469 37.5294L24.3973 38.9307C28.716 41.6252 33.8996 42.5719 38.8919 41.5778L48.1227 35.8378L54.7405 25.7441Z" fill="#A5FAD7"/>
<path d="M14.875 21.8378C14.8736 25.2623 15.7469 28.6305 17.412 31.6229C19.0771 34.6154 21.4789 37.133 24.3897 38.9371C27.0044 37.3109 31.532 33.4328 27.8125 27.5878C23.958 21.5308 27.6968 18.8485 29.6566 17.9252C30.7597 17.4247 31.6901 16.609 32.3305 15.5808C33.2331 14.0814 33.4427 12.1945 29.2505 11.7753C23.9818 11.2485 24.8924 6.47648 25.7541 3.96436C22.4759 5.65916 19.7269 8.22305 17.8081 11.3755C15.8893 14.5279 14.8746 18.1473 14.875 21.8378Z" fill="#5BA187"/>
<path d="M37.1587 8.90052C41.7706 11.8354 41.2466 13.7918 40.0092 14.913C39.3401 15.4721 38.9202 16.2739 38.8419 17.1423C38.7635 18.0107 39.033 18.8748 39.5912 19.5446C40.5703 20.6334 41.9405 20.9433 43.6274 18.2443C45.6685 15.0935 48.4992 12.5323 51.8378 10.8155C49.0948 6.62665 44.8906 3.60888 40.0442 2.3501C36.5354 3.31715 31.6906 5.42082 37.1587 8.90052Z" fill="#5BA187"/>
<path d="M48.8592 21.4253C47.8527 21.7475 46.9649 22.3621 46.3091 23.1907C45.6532 24.0194 45.2589 25.0246 45.1765 26.0782C45.0195 27.9691 44.0511 30.4628 40.0346 30.4628C33.5658 30.4628 37.1596 38.3691 37.1596 38.3691L38.9001 41.5824C42.8128 40.808 46.4074 38.8894 49.2285 36.0697C52.0495 33.2501 53.97 29.6565 54.7464 25.7442C53.7342 23.1829 51.9162 20.4991 48.8592 21.4253Z" fill="#5BA187"/>
<path d="M37.3438 38.7179L38.8954 41.5824C42.808 40.808 46.4027 38.8894 49.2237 36.0697C52.0448 33.2501 53.9652 29.6564 54.7416 25.7442C54.2528 24.3266 53.4108 23.0569 52.2951 22.0549C51.7309 25.9999 50.0092 29.6889 47.3477 32.655C44.6863 35.6211 41.2048 37.7311 37.3438 38.7179Z" fill="#508D76"/>
<path d="M50.8773 11.3327C51.2172 11.1357 51.5407 10.9602 51.8347 10.8157C50.7449 9.16337 49.4187 7.67972 47.8984 6.41211C49.1219 7.90121 50.1251 9.55831 50.8773 11.3327Z" fill="#508D76"/>
<path d="M19.5391 34.7109C20.92 36.3692 22.5572 37.796 24.3887 38.9372C24.7457 38.7152 25.1391 38.4472 25.5415 38.1421C23.3576 37.3535 21.3268 36.1926 19.5391 34.7109Z" fill="#508D76"/>
<path d="M12.25 20.0879C14.4546 20.0879 16.5689 20.9637 18.1278 22.5226C19.6867 24.0815 20.5625 26.1958 20.5625 28.4004V41.9629H3.9375V28.4004C3.9375 26.1958 4.81328 24.0815 6.37217 22.5226C7.93107 20.9637 10.0454 20.0879 12.25 20.0879Z" fill="#717075"/>
<path d="M14 21.8379C11.7954 21.8379 9.68107 22.7137 8.12218 24.2726C6.56328 25.8315 5.6875 27.9458 5.6875 30.1504V41.9629H20.5625V28.4004C20.5627 26.6241 19.9906 24.895 18.931 23.4694C17.5054 22.4098 15.7763 21.8376 14 21.8379Z" fill="#5A5A60"/>
<path d="M14.875 36.7129H9.625C7.76848 36.7129 5.98801 37.4504 4.67525 38.7631C3.3625 40.0759 2.625 41.8564 2.625 43.7129H21.875C21.875 41.8564 21.1375 40.0759 19.8247 38.7631C18.512 37.4504 16.7315 36.7129 14.875 36.7129Z" fill="#D6646E"/>
<path d="M16.6221 38.4629H11.3721C9.82133 38.4639 8.3148 38.98 7.08927 39.9303C5.86374 40.8806 4.98867 42.2112 4.60156 43.7129H21.8721C21.8733 42.2842 21.4349 40.8896 20.6164 39.7186C19.4454 38.9001 18.0509 38.4617 16.6221 38.4629Z" fill="#CA404B"/>
<path d="M14.875 25.3379L14.1621 26.2289C13.3223 27.2787 12.21 28.0774 10.9468 28.5375C9.68366 28.9976 8.31827 29.1016 7 28.8379V31.4629C7 32.8553 7.55312 34.1906 8.53769 35.1752C9.52226 36.1598 10.8576 36.7129 12.25 36.7129C13.6424 36.7129 14.9777 36.1598 15.9623 35.1752C16.9469 34.1906 17.5 32.8553 17.5 31.4629V27.9629L14.875 25.3379Z" fill="#EFC599"/>
<path d="M21.877 55.9629H2.62702L1.12289 43.93C1.09211 43.6838 1.11404 43.4338 1.18724 43.1967C1.26044 42.9596 1.38322 42.7408 1.54744 42.5547C1.71167 42.3687 1.91357 42.2197 2.13977 42.1177C2.36596 42.0157 2.61127 41.9629 2.85942 41.9629H21.6446C21.8928 41.9629 22.1381 42.0157 22.3643 42.1177C22.5905 42.2197 22.7924 42.3687 22.9566 42.5547C23.1208 42.7408 23.2436 42.9596 23.3168 43.1967C23.39 43.4338 23.4119 43.6838 23.3811 43.93L21.877 55.9629Z" fill="#BECDF0"/>
<path d="M23.3813 43.9299C23.387 43.8577 23.3882 43.7852 23.3847 43.7129H4.60932C4.36119 43.7129 4.1159 43.7657 3.88972 43.8677C3.66355 43.9697 3.46165 44.1187 3.29744 44.3047C3.13323 44.4907 3.01045 44.7096 2.93725 44.9466C2.86406 45.1837 2.84211 45.4337 2.87288 45.6799L4.15843 55.9629H21.8772L23.3813 43.9299Z" fill="#A6BBE8"/>
<path d="M12.25 51.5879C13.6997 51.5879 14.875 50.4126 14.875 48.9629C14.875 47.5131 13.6997 46.3379 12.25 46.3379C10.8003 46.3379 9.625 47.5131 9.625 48.9629C9.625 50.4126 10.8003 51.5879 12.25 51.5879Z" fill="#BECDF0"/>
<path d="M12.25 45.4629C11.5578 45.4629 10.8811 45.6682 10.3055 46.0527C9.72993 46.4373 9.28133 46.984 9.01642 47.6235C8.75152 48.263 8.6822 48.9668 8.81725 49.6457C8.9523 50.3246 9.28564 50.9483 9.77513 51.4378C10.2646 51.9272 10.8883 52.2606 11.5672 52.3956C12.2461 52.5307 12.9499 52.4614 13.5894 52.1965C14.2289 51.9316 14.7756 51.483 15.1601 50.9074C15.5447 50.3318 15.75 49.6551 15.75 48.9629C15.749 48.035 15.3799 47.1453 14.7237 46.4892C14.0676 45.833 13.1779 45.4639 12.25 45.4629ZM12.25 50.7129C11.9039 50.7129 11.5655 50.6103 11.2778 50.418C10.99 50.2257 10.7657 49.9524 10.6332 49.6326C10.5008 49.3128 10.4661 48.9609 10.5336 48.6215C10.6012 48.282 10.7678 47.9702 11.0126 47.7255C11.2573 47.4807 11.5691 47.314 11.9086 47.2465C12.2481 47.179 12.5999 47.2136 12.9197 47.3461C13.2395 47.4786 13.5128 47.7029 13.7051 47.9906C13.8974 48.2784 14 48.6168 14 48.9629C13.9995 49.4269 13.815 49.8717 13.4869 50.1998C13.1588 50.5279 12.714 50.7124 12.25 50.7129Z" fill="black"/>
<path d="M35 0.837891C29.8535 0.846533 24.8887 2.74164 21.0454 6.16449C17.2021 9.58734 14.747 14.3004 14.1448 19.4116C12.8069 19.1286 11.4226 19.1481 10.0932 19.4685C8.76374 19.789 7.52265 20.4023 6.46057 21.2638C5.39848 22.1252 4.54222 23.213 3.95432 24.4477C3.36642 25.6824 3.06173 27.0329 3.0625 28.4004V39.369C2.68969 39.9349 2.39164 40.5467 2.17578 41.189C1.56326 41.3484 1.02996 41.7258 0.67594 42.2504C0.32192 42.7751 0.17152 43.4108 0.252962 44.0385L1.63389 55.0879H0.875C0.642936 55.0879 0.420376 55.1801 0.256282 55.3442C0.0921872 55.5083 0 55.7308 0 55.9629C0 56.195 0.0921872 56.4175 0.256282 56.5816C0.420376 56.7457 0.642936 56.8379 0.875 56.8379H23.625C23.8571 56.8379 24.0796 56.7457 24.2437 56.5816C24.4078 56.4175 24.5 56.195 24.5 55.9629C24.5 55.7308 24.4078 55.5083 24.2437 55.3442C24.0796 55.1801 23.8571 55.0879 23.625 55.0879H22.8661L24.247 44.0385C24.3285 43.4108 24.1781 42.775 23.8241 42.2504C23.4701 41.7257 22.9368 41.3483 22.3242 41.189C22.1084 40.5466 21.8103 39.9348 21.4375 39.369V37.8659C25.2192 41.0902 30.0304 42.854 35 42.8379C40.5695 42.8379 45.911 40.6254 49.8492 36.6871C53.7875 32.7489 56 27.4074 56 21.8379C56 16.2683 53.7875 10.9269 49.8492 6.98865C45.911 3.05038 40.5695 0.837891 35 0.837891ZM50.5516 10.5115C47.4519 12.288 44.8224 14.7805 42.8827 17.7808C41.971 19.2398 41.348 19.4428 41.1225 19.4624C40.8627 19.4932 40.5602 19.3163 40.2393 18.9595C39.8398 18.4602 39.653 17.8235 39.7195 17.1875C39.7859 16.5515 40.1003 15.9672 40.5944 15.5613C40.9771 15.2487 41.2799 14.8495 41.4776 14.3966C41.6753 13.9438 41.7622 13.4503 41.7313 12.9572C41.6 11.4046 40.2568 9.83613 37.6263 8.16217C36.2343 7.27649 35.4867 6.42879 35.5755 5.83755C35.6751 5.17439 36.9163 4.15878 40.0442 3.26295C44.2672 4.4178 47.9723 6.97376 50.5516 10.5115ZM12.25 20.9629C14.2218 20.9652 16.1122 21.7495 17.5065 23.1438C18.9008 24.5381 19.6852 26.4286 19.6875 28.4004V37.4829C18.7131 36.7303 17.5754 36.2172 16.3663 35.9852C16.9983 35.4135 17.5035 34.7157 17.8495 33.9368C18.1955 33.1579 18.3745 32.3152 18.375 31.4629V27.9629C18.375 27.7308 18.2827 27.5083 18.1186 27.3443L15.4936 24.7193C15.4066 24.6322 15.3022 24.5645 15.1872 24.5206C15.0722 24.4766 14.9493 24.4574 14.8264 24.4643C14.7035 24.4711 14.5834 24.5037 14.474 24.5601C14.3646 24.6165 14.2683 24.6953 14.1915 24.7915L13.4792 25.6823C12.741 26.6085 11.7616 27.3131 10.6487 27.7185C9.53589 28.124 8.33277 28.2146 7.17176 27.9804C7.04485 27.955 6.91388 27.958 6.78829 27.9894C6.66271 28.0207 6.54563 28.0795 6.44551 28.1615C6.34538 28.2435 6.2647 28.3467 6.20928 28.4637C6.15385 28.5807 6.12507 28.7085 6.125 28.8379V31.4629C6.1255 32.3152 6.3045 33.1579 6.65047 33.9368C6.99644 34.7157 7.50171 35.4135 8.13374 35.9853C6.92458 36.2173 5.7869 36.7303 4.8125 37.4829V28.4004C4.81482 26.4286 5.59915 24.5381 6.99345 23.1438C8.38775 21.7495 10.2782 20.9652 12.25 20.9629ZM12.25 35.8379C11.0901 35.8365 9.97809 35.3751 9.15792 34.555C8.33774 33.7348 7.87637 32.6228 7.875 31.4629V29.8368C9.19795 29.929 10.5235 29.6985 11.7378 29.1653C12.952 28.6321 14.0186 27.812 14.846 26.7756L14.9476 26.6483L16.625 28.3252V31.4629C16.6236 32.6228 16.1623 33.7348 15.3421 34.555C14.5219 35.3751 13.4099 35.8365 12.25 35.8379ZM14.875 37.5879C16.0316 37.5893 17.164 37.919 18.1406 38.5386C19.1172 39.1581 19.898 40.0422 20.392 41.0879H4.10795C4.60203 40.0422 5.38275 39.1581 6.35938 38.5386C7.33601 37.919 8.46842 37.5893 9.625 37.5879H14.875ZM3.39736 55.0879L1.98923 43.8214C1.97384 43.6983 1.98481 43.5733 2.02141 43.4548C2.058 43.3362 2.11939 43.2268 2.20149 43.1338C2.28359 43.0408 2.38453 42.9663 2.49762 42.9153C2.6107 42.8643 2.73334 42.8379 2.8574 42.8379H21.6426C21.7667 42.8379 21.8893 42.8643 22.0024 42.9153C22.1155 42.9663 22.2164 43.0408 22.2985 43.1338C22.3806 43.2268 22.442 43.3362 22.4786 43.4548C22.5152 43.5733 22.5262 43.6983 22.5108 43.8214L21.1026 55.0879H3.39736ZM15.8661 19.9572C16.1448 17.1157 17.053 14.372 18.5247 11.9255C19.9964 9.47901 21.9948 7.39111 24.3744 5.81358C24 7.37752 24.2224 9.02491 24.9981 10.4336C25.4718 11.1015 26.0951 11.6495 26.8183 12.0336C27.5415 12.4177 28.3445 12.6274 29.1631 12.6458C31.2964 12.8591 31.8022 13.4316 31.9206 13.6678C32.1342 14.0938 31.7992 14.7663 31.5809 15.1291C31.0303 16.0095 30.231 16.7068 29.2841 17.1328C28.4019 17.509 27.6082 18.0656 26.954 18.7669C26.2999 19.4682 25.7998 20.2987 25.4859 21.2049C24.9107 23.1912 25.4453 25.4966 27.0743 28.0571C27.5926 28.77 27.961 29.5806 28.1573 30.4398C28.3536 31.299 28.3737 32.1891 28.2164 33.0564C27.7063 35.2964 25.7664 36.9596 24.3908 37.8904C23.3295 37.1832 22.3403 36.3734 21.4375 35.4727V28.4004C21.4354 26.6026 20.9067 24.8449 19.9166 23.3444C18.9265 21.8438 17.5181 20.6663 15.8661 19.9572ZM26.0294 38.8666C27.925 37.5743 29.3038 35.6545 29.9226 33.4453C30.1356 32.3527 30.1237 31.2282 29.8879 30.1404C29.652 29.0525 29.197 28.0241 28.5507 27.1178C27.2032 25.0003 26.7375 23.1747 27.1669 21.6922C27.4077 21.0227 27.7872 20.4116 28.2806 19.8989C28.774 19.3862 29.37 18.9835 30.0298 18.7172C31.29 18.1439 32.3517 17.2095 33.0804 16.0324C33.9741 14.5469 33.7935 13.5005 33.4846 12.8845C32.9291 11.7757 31.5722 11.1285 29.3371 10.905C28.7828 10.9045 28.2361 10.7766 27.7392 10.5312C27.2422 10.2858 26.8084 9.92936 26.4711 9.48954C25.5922 8.11929 26.0389 5.96644 26.4677 4.60258C29.1172 3.27889 32.0382 2.58918 35 2.58789C35.5513 2.58789 36.0958 2.61659 36.6354 2.66227C34.9452 3.48652 34.0143 4.44893 33.8447 5.57777C33.6375 6.96114 34.5668 8.28948 36.6867 9.63873C39.4524 11.3985 39.9417 12.5658 39.9877 13.105C39.9991 13.3305 39.9529 13.5552 39.8535 13.758C39.7541 13.9608 39.6047 14.1349 39.4194 14.2641C38.5824 14.9809 38.0622 15.9993 37.9721 17.0977C37.882 18.1961 38.2292 19.2856 38.9382 20.1294C39.1942 20.4545 39.5179 20.72 39.8869 20.9074C40.2559 21.0948 40.6613 21.1995 41.0749 21.2144C41.1449 21.2144 41.2115 21.2114 41.2744 21.2056C42.3643 21.1108 43.376 20.2935 44.3672 18.7076C46.1717 15.9164 48.6276 13.6058 51.5235 11.9746C53.3112 14.9538 54.2537 18.3635 54.25 21.8379C54.25 22.1838 54.2398 22.5274 54.2217 22.8689C52.2623 20.0697 49.9581 20.1771 48.6022 20.5878C47.4282 20.9615 46.3921 21.6765 45.6261 22.6415C44.86 23.6066 44.3988 24.7779 44.3013 26.0061C44.1013 28.4162 42.7046 29.5877 40.0312 29.5877C38.1253 29.5877 36.762 30.2042 35.9792 31.4198C34.3027 34.0238 36.1441 38.2574 36.3869 38.7859L37.5402 40.9151C36.6982 41.0285 35.8496 41.0862 35 41.0879C31.8731 41.0925 28.7929 40.3297 26.0294 38.8666ZM39.3516 40.5857L37.9527 38.0079C37.4772 36.9611 36.4595 33.9072 37.4507 32.3674C37.8969 31.6748 38.741 31.3381 40.0312 31.3381C43.58 31.3381 45.7713 29.4476 46.0451 26.1514C46.112 25.2722 46.4392 24.4328 46.985 23.7403C47.5308 23.0477 48.2705 22.5335 49.1098 22.2631C51.0255 21.6834 52.609 22.8958 53.8289 25.8401C53.0608 29.4171 51.2922 32.7022 48.7291 35.3129C46.166 37.9235 42.9139 39.7521 39.3516 40.5857Z" fill="black"/>
</g>
<defs>
<clipPath id="clip0_5284_25306">
<rect width="56" height="56" fill="white" transform="translate(0 0.837891)"/>
</clipPath>
</defs>
</svg>
