<svg width="57" height="57" viewBox="0 0 57 57" fill="none" xmlns="http://www.w3.org/2000/svg">
<path fill-rule="evenodd" clip-rule="evenodd" d="M12.922 19.9779C12.922 18.5475 14.0948 17.3748 15.5251 17.3748H19.5211L19.5205 17.4848C19.518 17.8998 19.5722 18.3323 19.7467 18.7126L19.8177 18.8676H18.2878C16.5411 18.8676 15.1139 20.295 15.1139 22.0417V24.4291H12.9219L12.922 19.9779ZM38.3827 18.8676H34.6057L34.5169 17.3748H41.1455C42.576 17.3748 43.7487 18.5475 43.7487 19.9779V24.429H41.5567V22.0416C41.5567 20.2947 40.1296 18.8676 38.3827 18.8676Z" fill="#663E15"/>
<path fill-rule="evenodd" clip-rule="evenodd" d="M8.27039 24.9536H48.4013C50.3933 24.9536 52.0232 26.5834 52.0232 28.5756V51.4661C52.0232 53.4582 50.3933 55.0881 48.4013 55.0881H8.27039C6.27834 55.0881 4.64844 53.4583 4.64844 51.4661V28.5755C4.64855 26.5834 6.27834 24.9536 8.27039 24.9536Z" fill="#BF7428"/>
<path fill-rule="evenodd" clip-rule="evenodd" d="M8.27028 24.9536H48.4012C50.3932 24.9536 52.0231 26.5834 52.0231 28.5756V37.8872C50.8028 38.5099 49.4239 38.8618 47.9666 38.8618H8.70494C7.24763 38.8618 5.86863 38.5099 4.64844 37.8872V28.5755C4.64844 26.5834 6.27823 24.9536 8.27028 24.9536Z" fill="#8C551D"/>
<path fill-rule="evenodd" clip-rule="evenodd" d="M13.0156 32.9885H18.8108V42.4475C18.8108 43.6028 17.8654 44.5481 16.7101 44.5481H15.1164C13.9611 44.5481 13.0156 43.6028 13.0156 42.4475V32.9885Z" fill="#DC9954"/>
<path fill-rule="evenodd" clip-rule="evenodd" d="M13.0156 32.9885H18.8108V36.7126H13.0156V32.9885Z" fill="#B27C44"/>
<path fill-rule="evenodd" clip-rule="evenodd" d="M37.8594 32.9885H43.6545V42.4475C43.6545 43.6028 42.7091 44.5481 41.5537 44.5481H39.96C38.8046 44.5481 37.8594 43.6028 37.8594 42.4475V32.9885Z" fill="#DC9954"/>
<path fill-rule="evenodd" clip-rule="evenodd" d="M37.8594 32.9885H43.6545V36.7126H37.8594V32.9885Z" fill="#B27C44"/>
<path fill-rule="evenodd" clip-rule="evenodd" d="M22.3508 8.32872C29.4982 8.20797 33.0719 8.14771 33.0719 8.14771C33.1152 9.48296 33.5015 10.5213 34.2309 11.2626C37.881 13.3484 37.8086 15.0628 34.0136 16.4057C34.0424 17.456 34.2802 19.8868 34.122 20.7955C33.8225 22.5151 31.9461 23.8241 30.6452 20.9693C28.9267 22.8908 27.5504 22.6011 26.5162 20.1001C24.7494 21.5044 23.7957 20.9853 23.6548 18.5426C21.2173 19.2503 18.9474 19.3952 20.3226 14.9568C21.6932 11.8963 22.3692 9.68705 22.3508 8.32872Z" fill="#F3A766"/>
<path fill-rule="evenodd" clip-rule="evenodd" d="M19.0469 2.58789H36.2872V6.6807C36.2872 8.23448 35.2919 9.50586 34.0754 9.50586H21.2587C20.0422 9.50586 19.0469 8.23459 19.0469 6.6807V2.58789Z" fill="#324D5B"/>
<path fill-rule="evenodd" clip-rule="evenodd" d="M25.3622 45.2903H31.3021C31.9395 45.2903 32.4612 45.8119 32.4612 46.4493V48.0429C32.4612 48.6804 31.9397 49.202 31.3021 49.202H25.3622C24.7247 49.202 24.2031 48.6804 24.2031 48.0429V46.4493C24.2031 45.8118 24.7247 45.2903 25.3622 45.2903Z" fill="#DC9954"/>
<path fill-rule="evenodd" clip-rule="evenodd" d="M40.1811 24.3196V22.0415C40.1811 21.0555 39.3715 20.246 38.3856 20.246H34.7561C34.7533 20.6011 34.7357 20.9138 34.6949 21.1483C34.3058 23.3826 31.975 24.6035 30.412 22.3897C28.7997 23.7141 27.2935 23.267 26.2776 21.4465C24.8438 22.256 23.7013 21.7713 23.2633 20.246H18.2907C17.3049 20.246 16.4952 21.0557 16.4952 22.0415V24.3196H40.1811ZM15.0075 24.3196H13.0342V19.9779C13.0342 18.6078 14.1581 17.4841 15.528 17.4841H19.414C19.4108 17.9994 19.4946 18.4192 19.6501 18.7582H18.2907C16.4836 18.7582 15.0074 20.2345 15.0074 22.0415V24.3196H15.0075ZM11.5464 24.3196V19.9779C11.5464 17.7866 13.3368 15.9963 15.528 15.9963H19.6101C20.0051 14.2842 20.985 12.6222 21.48 10.7976C19.7183 10.7976 18.5667 9.06048 18.5667 7.30862V2.58789H36.8065V7.30862C36.8065 8.93197 35.8105 10.5692 34.2315 10.7768C34.3199 10.9175 34.419 11.0479 34.5286 11.168C35.5957 11.7867 36.363 12.392 36.8308 12.9841C37.6273 13.9922 37.6312 15.0916 36.737 15.9963H41.1485C43.3399 15.9963 45.1301 17.7865 45.1301 19.9779V24.3196H47.8351C50.1813 24.3196 52.0982 26.2365 52.0982 28.5828V50.8247C52.0982 53.1709 50.1813 55.0879 47.8351 55.0879H8.84134C6.49514 55.0879 4.57812 53.171 4.57812 50.8247V28.5828C4.57812 26.2365 6.49514 24.3196 8.84134 24.3196H11.5464ZM43.6423 24.3196H41.669V22.0415C41.669 20.2342 40.1928 18.7582 38.3857 18.7582H34.7118L34.636 17.4841H41.1486C42.5187 17.4841 43.6425 18.6078 43.6425 19.9779V24.3196H43.6423ZM47.8351 25.8075H8.84134C7.31633 25.8075 6.06595 27.0579 6.06595 28.5829V37.1619C7.07647 37.6095 8.13762 37.8338 9.26364 37.8338H12.7076V32.8709C12.7076 32.4601 13.0407 32.127 13.4516 32.127H19.0825C19.4934 32.127 19.8263 32.4601 19.8263 32.8709V37.8338H36.8499V32.8709C36.8499 32.4601 37.1829 32.127 37.5938 32.127H43.2247C43.6355 32.127 43.9685 32.4601 43.9685 32.8709V37.8338H47.4126C48.5386 37.8338 49.5996 37.6095 50.6102 37.1619V28.5829C50.6103 27.0578 49.36 25.8075 47.8351 25.8075ZM6.06606 38.7605V50.8247C6.06606 52.3497 7.31644 53.6001 8.84145 53.6001H47.8351C49.3601 53.6001 50.6105 52.3497 50.6105 50.8247V38.7605C49.5933 39.126 48.5035 39.3215 47.4128 39.3215H43.9688V42.0617C43.9688 43.5949 42.7169 44.8468 41.1836 44.8468H39.6351C38.1018 44.8468 36.85 43.595 36.85 42.0617V39.3215H19.8264V42.0617C19.8264 43.5948 18.5746 44.8468 17.0413 44.8468H15.4928C13.9595 44.8468 12.7076 43.5949 12.7076 42.0617V39.3215H9.26364C8.17306 39.3215 7.08325 39.1261 6.06606 38.7605ZM35.5948 15.0385C34.9311 15.6317 33.5268 15.9546 33.2985 16.2472C32.9732 16.6639 33.1528 17.494 33.1777 17.9628C33.2164 18.5908 33.334 20.303 33.2303 20.8985C33.1481 21.371 32.8171 21.9946 32.4024 22.0693C31.9772 22.1459 31.5289 21.4772 31.2584 20.8843C31.0257 20.3741 30.3661 20.3119 30.0151 20.7171C29.3791 21.4238 28.8674 21.7365 28.4801 21.6549C28.0676 21.5681 27.6602 21.0384 27.258 20.0657C27.0803 19.6344 26.5574 19.4822 26.1789 19.7189C25.9097 19.8873 25.2376 20.5014 24.9442 20.3417C24.634 20.173 24.5574 19.2278 24.533 18.7937C24.5063 18.3177 24.0472 17.9748 23.5482 18.1331C22.5489 18.4212 21.6149 18.6068 21.1703 18.3338C20.1046 17.6792 22.6479 12.301 23.0109 10.7976H32.5881C32.6635 10.9911 32.7496 11.1755 32.8464 11.3506C33.6927 12.8822 34.6695 12.638 35.6684 13.9023C36.0357 14.367 36.0273 14.6518 35.5948 15.0385ZM14.1956 37.2332V42.0617C14.1956 42.7736 14.7808 43.3588 15.4929 43.3588H17.0414C17.7533 43.3588 18.3387 42.7736 18.3387 42.0617V37.2332H14.1956ZM18.3386 33.6147H14.1956V35.7455H18.3386V33.6147ZM38.3378 37.2332V42.0617C38.3378 42.7737 38.923 43.3588 39.6351 43.3588H41.1836C41.8956 43.3588 42.4809 42.7736 42.4809 42.0617V37.2332H38.3378ZM42.4808 33.6147H38.3378V35.7455H42.4808V33.6147ZM35.3185 4.07572H20.0546V7.30862C20.0546 8.24028 20.5959 9.30975 21.4597 9.30975H33.9134C34.7772 9.30975 35.3185 8.24028 35.3185 7.30862V4.07572ZM25.4525 44.08C24.4225 44.08 23.5824 44.9201 23.5824 45.95V47.4985C23.5824 48.5286 24.4225 49.3686 25.4525 49.3686H31.2241C32.254 49.3686 33.0942 48.5285 33.0942 47.4985V45.95C33.0942 44.92 32.254 44.08 31.2241 44.08H25.4525ZM31.224 45.5678H25.4523C25.2435 45.5678 25.0701 45.7413 25.0701 45.95V47.4985C25.0701 47.7073 25.2435 47.8807 25.4523 47.8807H31.224C31.4328 47.8807 31.6062 47.7073 31.6062 47.4985V45.95C31.6062 45.7413 31.4328 45.5678 31.224 45.5678Z" fill="black"/>
</svg>
