<svg width="41" height="41" viewBox="0 0 41 41" fill="none" xmlns="http://www.w3.org/2000/svg">
<g clip-path="url(#clip0_2828_2436)">
<path d="M23.8875 28.2371V24.9227C23.8875 24.2883 23.3714 23.7722 22.737 23.7722H17.7679C17.3565 23.7722 16.9698 23.9324 16.679 24.2233L13.1409 27.7614C12.8674 28.0347 12.7864 28.4423 12.9343 28.7995C13.0822 29.1568 13.4277 29.3877 13.8145 29.3877H22.7369C23.3715 29.3876 23.8875 28.8715 23.8875 28.2371ZM22.7148 28.2149H14.3457L17.5083 25.0524C17.5776 24.983 17.6698 24.9449 17.7679 24.9449H22.7148V28.2149H22.7148Z" fill="#E86E39"/>
<path d="M27.7927 23.7722H26.1856C25.5513 23.7722 25.0352 24.2883 25.0352 24.9227V28.2371C25.0352 28.8715 25.5513 29.3876 26.1856 29.3876H30.8289C31.1906 29.3876 31.5164 29.187 31.6793 28.864C31.8423 28.5412 31.81 28.1598 31.5951 27.8689L31.5952 27.869L29.0316 24.3974C28.7425 24.006 28.2794 23.7722 27.7927 23.7722ZM26.2079 28.2149V24.9448H27.7927C27.9087 24.9448 28.0192 25.0005 28.0881 25.0939L30.3928 28.2149L26.2079 28.2149Z" fill="#E86E39"/>
<path d="M36.7912 27.7798L34.3095 27.5976L33.0182 25.849C32.8257 25.5885 32.4585 25.5333 32.1983 25.7257C31.9378 25.918 31.8825 26.2852 32.0749 26.5457L33.5262 28.511C33.6278 28.6486 33.7844 28.7349 33.9549 28.7474L36.7053 28.9493C37.7495 29.0259 38.5676 29.9062 38.5676 30.9534V31.5285H37.3415C36.6425 31.5285 36.0738 32.0972 36.0738 32.7962V34.7916C36.0738 35.4907 36.6425 36.0593 37.3415 36.0593H38.5676V36.4261C38.5676 36.7629 38.2936 37.0369 37.9568 37.0369H32.4541C32.1059 35.3069 30.5716 34.0331 28.7812 34.0331C27.4525 34.0331 26.2656 34.7349 25.5991 35.8036V30.7216C25.5991 30.3978 25.3367 30.1352 25.0128 30.1352C24.6889 30.1352 24.4264 30.3978 24.4264 30.7216V37.0368H15.7335C15.3854 35.3067 13.8513 34.033 12.0608 34.033C10.2702 34.033 8.73607 35.3067 8.38795 37.0368H3.37883C3.08371 37.0368 2.84355 36.7967 2.84355 36.5015V35.6543H4.5414C5.51572 35.6543 6.30836 34.8617 6.30836 33.8874C6.30836 32.913 5.51572 32.1206 4.5414 32.1206H2.84355V32.0829C2.84355 30.5967 4.05272 29.3876 5.53894 29.3876H9.61291C9.7684 29.3876 9.91748 29.3258 10.0276 29.2158L12.4002 26.8432C12.6291 26.6142 12.6291 26.243 12.4002 26.0141C12.171 25.785 11.7998 25.7852 11.5709 26.0141L9.37017 28.2149H5.53894C3.40612 28.2149 1.6709 29.9501 1.6709 32.0829V36.5017C1.6709 37.4435 2.43711 38.2097 3.37883 38.2097H8.64969C9.08341 38.2097 9.45233 37.8829 9.50776 37.4495C9.6713 36.1704 10.7689 35.2059 12.0608 35.2059C13.3527 35.2059 14.4502 36.1704 14.6137 37.4496C14.6692 37.8829 15.0381 38.2097 15.4719 38.2097H25.3701C25.8039 38.2097 26.1728 37.8829 26.2283 37.4495C26.3918 36.1704 27.4893 35.2059 28.7812 35.2059C30.0731 35.2059 31.1706 36.1704 31.3342 37.4493C31.3894 37.8827 31.7584 38.2097 32.1923 38.2097H37.9568C38.9402 38.2097 39.7402 37.4096 39.7402 36.4262V30.9534C39.7402 29.2952 38.4448 27.9011 36.7912 27.7798ZM4.5414 33.2933C4.86904 33.2933 5.13571 33.5599 5.13571 33.8876C5.13571 34.2153 4.86912 34.4819 4.5414 34.4819H2.84355V33.2933H4.5414ZM37.3416 34.8868C37.2892 34.8868 37.2465 34.8442 37.2465 34.7917V32.7963C37.2465 32.7439 37.2892 32.7012 37.3416 32.7012H38.5677V34.8868L37.3416 34.8868Z" fill="#E86E39"/>
<path d="M30.7559 31.2098V32.5172C30.7559 33.0575 31.1955 33.4971 31.7357 33.4971H33.9085C34.4488 33.4971 34.8884 33.0575 34.8884 32.5172V31.2098C34.8884 30.6694 34.4488 30.2299 33.9085 30.2299H31.7357C31.1955 30.2299 30.7559 30.6694 30.7559 31.2098ZM31.9285 31.4025H33.7157V32.3245H31.9285V31.4025Z" fill="#E86E39"/>
<path d="M7.73086 33.3013C7.40697 33.3013 7.14453 33.5638 7.14453 33.8876C7.14453 34.2114 7.40697 34.4739 7.73086 34.4739H8.06186C8.38575 34.4739 8.64819 34.2114 8.64819 33.8876C8.64819 33.5638 8.38575 33.3013 8.06186 33.3013H7.73086Z" fill="#E86E39"/>
<path d="M21.7963 30.9877C21.4724 30.9877 21.21 31.2502 21.21 31.574C21.21 31.8978 21.4724 32.1603 21.7963 32.1603H22.4175C22.7414 32.1603 23.0038 31.8978 23.0038 31.574C23.0038 31.2502 22.7414 30.9877 22.4175 30.9877H21.7963Z" fill="#E86E39"/>
<path d="M23.0199 17.7252C23.3438 17.7252 23.6062 17.4627 23.6062 17.1389V17.0119C23.6062 16.6881 23.3438 16.4255 23.0199 16.4255C22.696 16.4255 22.4336 16.6881 22.4336 17.0119V17.1389C22.4336 17.4627 22.6961 17.7252 23.0199 17.7252Z" fill="#E86E39"/>
<path d="M23.1418 9.00207C24.067 9.00207 24.8197 8.24938 24.8197 7.32415C24.8197 6.39893 24.067 5.64624 23.1418 5.64624C22.2166 5.64624 21.4639 6.39893 21.4639 7.32415C21.4639 8.24938 22.2166 9.00207 23.1418 9.00207ZM23.1418 6.8189C23.4203 6.8189 23.647 7.04553 23.647 7.32415C23.647 7.60278 23.4204 7.82941 23.1418 7.82941C22.8632 7.82941 22.6365 7.60278 22.6365 7.32415C22.6365 7.04553 22.8632 6.8189 23.1418 6.8189Z" fill="#E86E39"/>
<path d="M39.9137 7.00437H31.3137V5.87408H39.9137C40.2376 5.87408 40.5 5.61156 40.5 5.28775C40.5 4.96394 40.2376 4.70143 39.9137 4.70143H31.1894C31.0212 4.39974 30.6992 4.19507 30.3299 4.19507H28.6288L28.185 3.75126C27.9991 3.56559 27.7521 3.46334 27.4895 3.46334H23.131C22.8071 3.46334 22.5447 3.72585 22.5447 4.04966C22.5447 4.37347 22.8071 4.63599 23.131 4.63599H27.4114L27.8548 5.07941C28.0406 5.26532 28.2877 5.36773 28.5506 5.36773H30.1411V7.36593H28.2091C27.9464 7.36593 27.6993 7.46827 27.5134 7.65417L25.1552 10.0125H21.1284L18.77 7.65402C18.5842 7.46827 18.337 7.36593 18.0744 7.36593H16.1424V5.36773H17.733C17.9956 5.36773 18.2428 5.26539 18.4287 5.07949L18.8722 4.63591H20.6323C20.9562 4.63591 21.2186 4.37339 21.2186 4.04958C21.2186 3.72578 20.9562 3.46326 20.6323 3.46326H18.794C18.5314 3.46326 18.2843 3.56551 18.0983 3.75142L17.6547 4.19499H15.9536C15.5843 4.19499 15.2623 4.39974 15.0941 4.70135H1.08633C0.76244 4.70135 0.5 4.96387 0.5 5.28768C0.5 5.61148 0.76244 5.874 1.08633 5.874H14.9697V7.00429H1.08633C0.76244 7.00429 0.5 7.26681 0.5 7.59062C0.5 7.91442 0.76244 8.17694 1.08633 8.17694H15.1923C15.2881 8.29382 15.4104 8.38779 15.5497 8.4508V11.5198C15.5497 12.7854 16.5794 13.8151 17.8449 13.8151C19.1105 13.8151 20.1402 12.7854 20.1402 11.5198V10.6827L20.3546 10.8971C20.5405 11.0828 20.7875 11.185 21.0501 11.185H21.3154V14.1135H21.2798C20.97 14.1135 20.6788 14.2341 20.4597 14.4532L19.5777 15.3352C19.3586 15.5543 19.2379 15.8455 19.2379 16.1553V18.8456C18.7058 19.0739 18.332 19.6028 18.332 20.2175V21.4268H17.6159C16.6761 21.4268 15.7925 21.7928 15.1278 22.4574L13.3441 24.2411C13.1151 24.4701 13.1151 24.8413 13.3441 25.0702C13.4586 25.1847 13.6087 25.242 13.7588 25.242C13.9088 25.242 14.0589 25.1848 14.1734 25.0702L15.9571 23.2865C16.4002 22.8434 16.9893 22.5994 17.616 22.5994H27.9772C28.7186 22.5994 29.4242 22.9554 29.8646 23.5518L30.5692 24.5059C30.7616 24.7665 31.1286 24.8216 31.3891 24.6294C31.6496 24.4371 31.7048 24.07 31.5125 23.8094L30.8079 22.8552C30.1474 21.9607 29.0892 21.4267 27.9772 21.4267H27.7079V20.2174C27.7079 19.6027 27.3341 19.0738 26.802 18.8455V16.1552C26.802 15.8454 26.6813 15.5542 26.4623 15.3352L25.5801 14.453C25.361 14.234 25.0699 14.1134 24.7601 14.1134H24.7245V11.185H25.2334C25.4959 11.185 25.743 11.0827 25.929 10.8968L28.2873 8.53843H30.3299C30.6365 8.53843 30.9106 8.3974 31.0912 8.17687H39.9138C40.2376 8.17687 40.5001 7.91435 40.5001 7.59054C40.5001 7.26673 40.2376 7.00437 39.9137 7.00437ZM18.9676 11.5199C18.9676 12.1389 18.464 12.6425 17.845 12.6425C17.226 12.6425 16.7224 12.1389 16.7224 11.5199V8.53859H17.9963L18.9677 9.51002V11.5199H18.9676ZM19.5048 21.4269V20.2175C19.5048 20.0413 19.6481 19.898 19.8244 19.898H26.2156C26.3919 19.898 26.5352 20.0413 26.5352 20.2175V21.4269H19.5048ZM25.6292 16.1608V18.7253H20.4106V16.1608L21.2852 15.2862H24.7547L25.6292 16.1608ZM23.5518 14.1136H22.4882V11.1851H23.5518V14.1136Z" fill="#E86E39"/>
</g>
<defs>
<clipPath id="clip0_2828_2436">
<rect width="40" height="40" fill="white" transform="translate(0.5 0.836548)"/>
</clipPath>
</defs>
</svg>
