<svg width="41" height="41" viewBox="0 0 41 41" fill="none" xmlns="http://www.w3.org/2000/svg">
<g clip-path="url(#clip0_2828_2397)">
<path d="M20.5006 5.50933C21.4824 5.50933 22.2824 4.70933 22.2824 3.72752V2.55782C22.2824 1.576 21.4824 0.776001 20.5006 0.776001C19.5188 0.776001 18.7188 1.576 18.7188 2.55782V3.73358C18.7188 4.7154 19.5188 5.50933 20.5006 5.50933ZM19.9309 2.55782C19.9309 2.24267 20.1854 1.98812 20.5006 1.98812C20.8157 1.98812 21.0703 2.24267 21.0703 2.55782V3.73358C21.0703 4.04873 20.8157 4.30327 20.5006 4.30327C20.1854 4.30327 19.9309 4.04873 19.9309 3.73358V2.55782Z" fill="#E86E39"/>
<path d="M20.5006 34.8306C19.5188 34.8306 18.7188 35.6306 18.7188 36.6124V37.7881C18.7188 38.77 19.5188 39.57 20.5006 39.57C21.4824 39.57 22.2824 38.77 22.2824 37.7881V36.6124C22.2824 35.6245 21.4824 34.8306 20.5006 34.8306ZM21.0703 37.7821C21.0703 38.0972 20.8157 38.3518 20.5006 38.3518C20.1854 38.3518 19.9309 38.0972 19.9309 37.7821V36.6063C19.9309 36.2912 20.1854 36.0366 20.5006 36.0366C20.8157 36.0366 21.0703 36.2912 21.0703 36.6063V37.7821Z" fill="#E86E39"/>
<path d="M4.06402 18.3882H2.88826C1.90645 18.3882 1.10645 19.1882 1.10645 20.17C1.10645 21.1518 1.90645 21.9518 2.88826 21.9518H4.06402C5.04584 21.9518 5.84584 21.1518 5.84584 20.17C5.84584 19.1882 5.03978 18.3882 4.06402 18.3882ZM4.06402 20.7397H2.88826C2.57311 20.7397 2.31857 20.4852 2.31857 20.17C2.31857 19.8549 2.57311 19.6003 2.88826 19.6003H4.06402C4.37917 19.6003 4.63372 19.8549 4.63372 20.17C4.63372 20.4852 4.37311 20.7397 4.06402 20.7397Z" fill="#E86E39"/>
<path d="M38.1128 18.3882H36.9371C35.9553 18.3882 35.1553 19.1882 35.1553 20.17C35.1553 21.1518 35.9553 21.9518 36.9371 21.9518H38.1128C39.0947 21.9518 39.8947 21.1518 39.8947 20.17C39.8947 19.1882 39.0947 18.3882 38.1128 18.3882ZM38.1128 20.7397H36.9371C36.6219 20.7397 36.3674 20.4852 36.3674 20.17C36.3674 19.8549 36.6219 19.6003 36.9371 19.6003H38.1128C38.428 19.6003 38.6825 19.8549 38.6825 20.17C38.6825 20.4852 38.428 20.7397 38.1128 20.7397Z" fill="#E86E39"/>
<path d="M7.61552 9.8063C7.94886 10.1396 8.39734 10.3275 8.87613 10.3275C9.35492 10.3275 9.79734 10.1396 10.1367 9.8063C10.8337 9.10933 10.8337 7.98206 10.1367 7.29115L9.30643 6.46084C8.63371 5.78812 7.45795 5.78812 6.79128 6.46084C6.09431 7.15781 6.09431 8.28509 6.79128 8.976L7.61552 9.8063ZM7.64583 7.31539C7.75492 7.2063 7.89431 7.15175 8.04583 7.15175C8.19734 7.15175 8.3428 7.21236 8.44583 7.31539L9.27613 8.14569C9.38522 8.25478 9.43977 8.39418 9.43977 8.54569C9.43977 8.69721 9.37916 8.84266 9.27613 8.94569C9.06401 9.15781 8.68825 9.15781 8.47007 8.94569L7.63977 8.11539C7.42158 7.89721 7.42158 7.53357 7.64583 7.31539Z" fill="#E86E39"/>
<path d="M33.3855 30.5336C32.6886 29.8366 31.5613 29.8366 30.8704 30.5336C30.1734 31.2306 30.1734 32.3578 30.8704 33.0487L31.7007 33.879C32.034 34.2124 32.4825 34.4003 32.9613 34.4003C33.4401 34.4003 33.8825 34.2124 34.2219 33.879C34.9189 33.1821 34.9189 32.0548 34.2219 31.3639L33.3855 30.5336ZM33.3552 33.0245C33.1431 33.2366 32.7674 33.2366 32.5492 33.0245L31.7189 32.1942C31.4946 31.97 31.4946 31.6124 31.7189 31.3881C31.828 31.279 31.9674 31.2245 32.1189 31.2245C32.2704 31.2245 32.4158 31.2851 32.5189 31.3881L33.3492 32.2184C33.4583 32.3275 33.5128 32.4669 33.5128 32.6184C33.5128 32.77 33.4643 32.9215 33.3552 33.0245Z" fill="#E86E39"/>
<path d="M10.1367 30.5336C9.46401 29.8609 8.29431 29.8609 7.62158 30.5336L6.79128 31.3639C6.09431 32.0609 6.09431 33.1881 6.79128 33.8791C7.12462 34.2124 7.5731 34.4003 8.05189 34.4003C8.52462 34.4003 8.9731 34.2124 9.31249 33.8791L10.1428 33.0488C10.8276 32.3578 10.8276 31.2306 10.1367 30.5336ZM9.27613 32.1942L8.44583 33.0245C8.23371 33.2366 7.85795 33.2366 7.63977 33.0245C7.41552 32.8003 7.41552 32.4427 7.63977 32.2184L8.47007 31.3881C8.57916 31.2791 8.71855 31.2245 8.87007 31.2245C9.02159 31.2245 9.16704 31.2851 9.27007 31.3881C9.37916 31.4972 9.43371 31.6366 9.43371 31.7881C9.43371 31.9397 9.38522 32.0912 9.27613 32.1942Z" fill="#E86E39"/>
<path d="M34.2158 6.45474C33.5431 5.78201 32.3674 5.78201 31.7007 6.45474L30.8704 7.28504C30.1734 7.98201 30.1734 9.10929 30.8704 9.8002C31.2158 10.1457 31.6704 10.3214 32.131 10.3214C32.5916 10.3214 33.0401 10.1457 33.3916 9.8002L34.2219 8.96989C34.9067 8.27898 34.9067 7.15171 34.2158 6.45474ZM33.3552 8.11535L32.5249 8.94565C32.3007 9.16989 31.9431 9.16989 31.7189 8.94565C31.4946 8.72141 31.4946 8.36383 31.7189 8.13959L32.5492 7.30929C32.6583 7.2002 32.7977 7.14565 32.9492 7.14565C33.1007 7.14565 33.2461 7.20626 33.3492 7.30929C33.4583 7.41838 33.5128 7.55777 33.5128 7.70929C33.5128 7.8608 33.4643 8.01232 33.3552 8.11535Z" fill="#E86E39"/>
<path d="M20.5007 7.23657C13.3674 7.23657 7.56738 13.0426 7.56738 20.1699C7.56738 27.2972 13.3674 33.1032 20.5007 33.1032C27.6341 33.1032 33.434 27.3032 33.434 20.1699C33.434 13.0366 27.6341 7.23657 20.5007 7.23657ZM20.5007 31.8911C14.034 31.8911 8.7795 26.6305 8.7795 20.1699C8.7795 13.7093 14.034 8.44869 20.5007 8.44869C26.9674 8.44869 32.2219 13.7032 32.2219 20.1699C32.2219 26.6366 26.9674 31.8911 20.5007 31.8911Z" fill="#E86E39"/>
<path d="M21.1061 10.1881C21.1061 9.85476 20.8333 9.58203 20.5 9.58203C14.6636 9.58203 9.91211 14.3335 9.91211 20.1699C9.91211 20.5032 10.1848 20.776 10.5182 20.776C10.8515 20.776 11.1242 20.5032 11.1242 20.1699C11.1242 15.0002 15.3303 10.7942 20.5 10.7942C20.8333 10.7942 21.1061 10.5214 21.1061 10.1881Z" fill="#E86E39"/>
<path d="M24.6093 18.976H21.6941V13.7093C21.6941 13.4427 21.5184 13.2063 21.2638 13.1275C21.0093 13.0487 20.7305 13.1518 20.585 13.3699L15.8881 20.4184C15.7669 20.6063 15.7547 20.8427 15.8578 21.0427C15.9608 21.2427 16.1669 21.3639 16.3911 21.3639H19.3063V26.6306C19.3063 26.8972 19.482 27.1336 19.7366 27.2124C19.7972 27.2306 19.8517 27.2366 19.9123 27.2366C20.1123 27.2366 20.3002 27.1396 20.4154 26.9639L25.1123 19.9154C25.2335 19.7275 25.2457 19.4912 25.1426 19.2912C25.0396 19.0972 24.8335 18.976 24.6093 18.976ZM20.5184 24.6245V20.7578C20.5184 20.4245 20.2457 20.1518 19.9123 20.1518H17.5244L20.482 15.7154V19.5821C20.482 19.9154 20.7547 20.1881 21.0881 20.1881H23.476L20.5184 24.6245Z" fill="#E86E39"/>
</g>
<defs>
<clipPath id="clip0_2828_2397">
<rect width="40" height="40" fill="white" transform="translate(0.5 0.169922)"/>
</clipPath>
</defs>
</svg>
