<svg width="41" height="41" viewBox="0 0 41 41" fill="none" xmlns="http://www.w3.org/2000/svg">
<g clip-path="url(#clip0_2828_2450)">
<path d="M38.4584 28.235C36.4977 26.2787 33.5313 25.6762 30.9606 26.6758L29.8352 25.5529C29.9245 25.4856 30.0105 25.412 30.0918 25.3308L32.8999 22.5289C33.3602 22.0697 33.6136 21.4572 33.6136 20.8042C33.6136 20.1513 33.3602 19.5388 32.8999 19.0796H32.8999C32.3896 18.5705 31.708 18.3344 31.0386 18.3707C31.0553 18.2481 31.0644 18.1237 31.0644 17.9977C31.0644 17.2738 30.7831 16.595 30.2722 16.0864C29.7766 15.592 29.1351 15.3298 28.4848 15.2997C28.7949 14.3585 28.577 13.276 27.834 12.5328C27.2266 11.9267 26.4001 11.6702 25.6065 11.7619C25.6181 11.6594 25.6247 11.5558 25.6247 11.451C25.6247 10.727 25.3439 10.0482 24.8342 9.53957C23.7789 8.48664 22.0618 8.48671 21.0066 9.53957L19.2118 11.3304L19.0729 11.1918C18.4012 10.5215 17.307 10.5224 16.6339 11.1941L16.0383 11.7883L14.3025 10.0549C15.304 7.48885 14.6997 4.5291 12.7388 2.57252C11.1062 0.943512 8.76765 0.228222 6.48444 0.659303C6.15766 0.720785 5.16339 0.907889 4.95933 1.66865C4.75981 2.41269 5.46932 3.02259 5.8104 3.3157C5.84493 3.34539 8.61274 6.10187 8.61274 6.10187C9.33138 6.81895 9.37966 7.97314 8.72961 8.74686C7.95322 9.3963 6.79474 9.34833 6.07508 8.63023C6.07508 8.63023 3.31251 5.86852 3.28267 5.83398C2.98885 5.49376 2.37715 4.78613 1.63311 4.98589C0.872509 5.19041 0.685015 6.18194 0.623454 6.50748C0.191358 8.78741 0.908367 11.1214 2.5416 12.751C4.50232 14.7072 7.46871 15.3097 10.0394 14.3101L12.049 16.3152C11.8037 16.949 11.6894 17.6464 11.7313 18.3469C11.8266 19.9189 10.9933 21.4608 8.94468 23.5029L6.81076 25.632C6.08852 25.2616 5.17855 25.3771 4.57419 25.9801L1.58553 28.9621C1.22336 29.3234 1.02399 29.8052 1.02399 30.3187C1.02399 30.8322 1.22344 31.314 1.58546 31.6752L9.83856 39.9099C10.2128 40.2833 10.7045 40.47 11.1962 40.47C11.688 40.47 12.1797 40.2833 12.554 39.9098L15.5427 36.9278C15.9049 36.5665 16.1042 36.0847 16.1042 35.5712C16.1042 35.2607 16.0309 34.9621 15.8932 34.6944L19.5232 31.0725C20.5992 29.999 20.774 30.0281 21.9136 30.2183C22.1054 30.2503 22.3229 30.2867 22.5675 30.3215C23.5623 30.4644 24.7174 29.9589 25.3728 29.6089L26.6975 30.9309C26.3478 31.8282 26.1855 32.8041 26.2265 33.7779C26.2397 34.0928 26.4991 34.3392 26.8114 34.3392C26.8197 34.3392 26.8281 34.339 26.8365 34.3386C27.1597 34.3251 27.4108 34.052 27.3972 33.7287C27.3582 32.8004 27.5401 31.8711 27.9233 31.0413C28.0263 30.8182 27.9792 30.5545 27.8052 30.381L18.4295 21.024C18.8108 20.3055 19.0266 19.5413 19.0504 18.791C19.7252 19.3711 20.6128 19.8438 21.4806 20.0771C22.1912 20.2681 22.8561 20.2992 23.4532 20.1756C23.4531 20.1822 23.4527 20.1888 23.4527 20.1954C23.4532 20.9184 23.7347 21.5965 24.2444 22.1036C24.7238 22.5832 25.3539 22.8599 26.0306 22.8909C25.961 23.1195 25.9249 23.36 25.9249 23.6062C25.9249 24.2591 26.1784 24.8716 26.6386 25.3307C27.1147 25.8057 27.7398 26.0432 28.3652 26.0431C28.4604 26.0431 28.5555 26.0369 28.6503 26.0259L30.4118 27.7835C30.5851 27.9563 30.8475 28.0033 31.0699 27.9013C33.2807 26.8876 35.9174 27.355 37.6307 29.0644C38.989 30.4195 39.585 32.3618 39.2251 34.2603C39.1649 34.5783 39.0966 34.7449 39.0526 34.8263C38.9684 34.7711 38.8302 34.6475 38.6044 34.3858C38.5537 34.3271 35.7527 31.526 35.7527 31.526C34.5901 30.3659 32.7092 30.3022 31.4705 31.3812C31.4506 31.3986 31.4319 31.4172 31.4144 31.4371C30.3321 32.6739 30.396 34.5523 31.5597 35.7134L34.8654 39.0033C34.7831 39.0474 34.6159 39.1152 34.2986 39.175C32.395 39.534 30.4474 38.9394 29.0898 37.5846C28.6591 37.1529 28.3013 36.6621 28.0263 36.1255C27.8786 35.8375 27.5257 35.7238 27.2375 35.8714C26.9496 36.0191 26.8358 36.3722 26.9835 36.6601C27.314 37.305 27.7435 37.8945 28.2611 38.4131C29.5808 39.7299 31.3614 40.4497 33.2014 40.4496C33.6379 40.4496 34.0778 40.4091 34.5155 40.3265C34.8423 40.265 35.8366 40.0779 36.0406 39.3172C36.2402 38.5732 35.5306 37.9632 35.1896 37.6701C35.155 37.6404 32.3872 34.8839 32.3872 34.8839C31.6686 34.1669 31.6203 33.0127 32.2704 32.2389C33.0467 31.5895 34.2052 31.6376 34.9249 32.3556C34.9249 32.3556 37.6875 35.1173 37.7173 35.1518C38.0112 35.4921 38.6233 36.2 39.3669 35.9999C40.1273 35.7954 40.3148 34.8039 40.3764 34.4783C40.8087 32.1986 40.0916 29.8646 38.4584 28.235ZM27.0058 13.362C27.5925 13.9489 27.6018 14.9095 27.0272 15.5054L25.1438 17.3846C24.8204 16.9161 23.0413 15.1515 23.0413 15.1515L24.8342 13.3625C25.4331 12.7649 26.4076 12.765 27.0058 13.362ZM21.8344 10.3693C22.4332 9.77175 23.4079 9.77191 24.0065 10.3693C24.2944 10.6566 24.4529 11.0408 24.4529 11.4512C24.4529 11.8615 24.2944 12.2457 24.0065 12.533L22.2117 14.3238L20.0414 12.1583L21.8344 10.3693ZM10.5881 13.2023C10.415 13.0295 10.1527 12.9826 9.93012 13.0845C7.71909 14.0981 5.08253 13.6309 3.36938 11.9215C2.01107 10.5663 1.41499 8.62398 1.7749 6.72552C1.83513 6.40748 1.90341 6.24093 1.9474 6.15952C2.03161 6.21475 2.16981 6.33834 2.39566 6.59998C2.44637 6.65872 5.24737 9.45981 5.24737 9.45981C6.41007 10.62 8.29095 10.6837 9.5295 9.60465C9.54943 9.58731 9.5681 9.56856 9.5856 9.54871C10.6679 8.31188 10.6041 6.4335 9.44037 5.27236C9.44037 5.27236 6.19047 2.0666 6.13461 1.98246C6.21695 1.9384 6.38413 1.87059 6.70147 1.81083C8.60477 1.45162 10.5525 2.04645 11.9112 3.40219C13.6237 5.11088 14.0921 7.74025 13.0767 9.94511C12.974 10.1681 13.0212 10.4313 13.1949 10.6048L15.2089 12.6162L13.0256 14.7946C12.8854 14.9346 12.7565 15.0864 12.6371 15.2465L10.5881 13.2023ZM24.245 18.2814C24.0933 18.4328 23.9623 18.5994 23.8524 18.7774C22.6043 19.5507 20.6309 18.6989 19.6488 17.7529L19.527 17.6316C18.6293 16.7369 18.1518 16.2606 18.1077 16.2155C18.107 16.2147 18.1062 16.2141 18.1054 16.2133C18.1032 16.2111 18.1012 16.2087 18.099 16.2066C18.0959 16.2034 18.0928 16.2012 18.0896 16.1983C17.8656 15.9838 17.5105 15.9801 17.2825 16.1955C17.0474 16.4179 17.0371 16.7887 17.2594 17.0239C17.2615 17.0261 17.265 17.0297 17.2712 17.036C17.6711 17.435 17.8825 17.994 17.8825 18.6524C17.8825 19.6882 17.3532 20.8346 16.4666 21.7192C16.2376 21.9478 16.2372 22.3187 16.4657 22.5478C16.5802 22.6624 16.7304 22.7199 16.8805 22.7199C17.0303 22.7199 17.18 22.6628 17.2944 22.5487C17.4642 22.3793 17.6215 22.2021 17.7688 22.02L24.4998 28.7376C23.8175 29.0579 23.157 29.2224 22.7335 29.1615C22.502 29.1284 22.2918 29.0933 22.1065 29.0624C20.7488 28.8358 20.1403 28.8012 18.6954 30.2429L15.1288 33.8016L12.1817 30.8612C11.9526 30.6326 11.5816 30.633 11.3531 30.8621C11.1245 31.0912 11.125 31.4622 11.3541 31.6907L14.7138 35.0428C14.7139 35.0429 14.714 35.0431 14.7141 35.0432L14.7145 35.0436L14.7151 35.0442C14.8553 35.1841 14.9325 35.3713 14.9325 35.5713C14.9325 35.7713 14.8553 35.9584 14.715 36.0983L11.7262 39.0804C11.4339 39.372 10.9584 39.3719 10.6662 39.0804L2.41316 30.8458C2.27301 30.7059 2.19583 30.5187 2.19583 30.3188C2.19583 30.1189 2.27301 29.9316 2.41324 29.7918L5.4019 26.8097C5.69423 26.5181 6.16976 26.5182 6.46194 26.8097L9.41724 29.7584C9.64637 29.9869 10.0173 29.9866 10.2459 29.7575C10.4745 29.5284 10.474 29.1574 10.2449 28.9289L7.70526 26.3949L9.77215 24.3326C12.0829 22.0292 13.0186 20.2179 12.901 18.2764C12.8417 17.2857 13.2066 16.2693 13.8531 15.624L17.4615 12.0237C17.6745 11.8111 18.0334 11.8102 18.2451 12.0214L18.7969 12.572L22.6155 16.3822C22.7185 16.485 22.8214 16.5867 22.9228 16.687C23.4081 17.1671 24.1076 17.8592 24.2979 18.2283L24.245 18.2814ZM26.1588 21.7222C25.747 21.7222 25.3614 21.5635 25.0721 21.2741C24.7839 20.9872 24.6249 20.6038 24.6246 20.1947C24.6243 19.7845 24.7835 19.3996 25.0726 19.111L27.2725 16.9161C27.5718 16.6174 27.9652 16.468 28.3584 16.468C28.7518 16.468 29.1451 16.6174 29.4445 16.9161C29.4447 16.9163 29.4449 16.9165 29.4451 16.9167C29.7336 17.2039 29.8926 17.5878 29.8926 17.998C29.8926 18.4078 29.7339 18.7916 29.4451 19.0794C29.4448 19.0796 29.4446 19.0797 29.4444 19.08L27.2443 21.2752C26.9561 21.5635 26.5706 21.7222 26.1588 21.7222ZM27.4664 24.5014C27.228 24.2636 27.0968 23.9458 27.0968 23.6063C27.0968 23.2669 27.2281 22.949 27.4665 22.7111L30.2724 19.9093C30.5205 19.6618 30.8464 19.538 31.1723 19.538C31.4983 19.538 31.8242 19.6618 32.0723 19.9093H32.0724C32.3107 20.1471 32.4418 20.4649 32.4418 20.8044C32.4418 21.1438 32.3106 21.4617 32.0723 21.6994L29.2643 24.5014C28.7684 24.9959 27.9618 24.9958 27.4664 24.5014Z" fill="#E86E39"/>
</g>
<defs>
<clipPath id="clip0_2828_2450">
<rect width="40" height="40" fill="white" transform="translate(0.5 0.503174)"/>
</clipPath>
</defs>
</svg>
