<svg width="41" height="41" viewBox="0 0 41 41" fill="none" xmlns="http://www.w3.org/2000/svg">
<g clip-path="url(#clip0_2828_2412)">
<path d="M39.1669 36.2926V13.5033C39.1669 6.87584 33.7944 1.50326 27.1669 1.50326C20.5395 1.50326 15.1669 6.87584 15.1669 13.5033V14.9593C14.3707 15.2408 13.8371 15.9921 13.8336 16.8366V23.5033C13.8371 24.3478 14.3707 25.0991 15.1669 25.3806V26.8366C15.1669 27.573 14.57 28.1699 13.8336 28.1699C13.0972 28.1699 12.5003 27.573 12.5003 26.8366V4.04726C13.418 3.72402 13.9687 2.78603 13.8039 1.82714C13.639 0.868251 12.8066 0.168082 11.8336 0.169926H2.50028C1.52732 0.168082 0.694892 0.868251 0.530021 1.82714C0.36515 2.78603 0.915914 3.72402 1.83361 4.04726V26.8366C1.83361 33.464 7.2062 38.8366 13.8336 38.8366C20.461 38.8366 25.8336 33.464 25.8336 26.8366V25.3806C26.6298 25.0991 27.1634 24.3478 27.1669 23.5033V16.8366C27.1634 15.9921 26.6298 15.2408 25.8336 14.9593V13.5033C25.8336 12.7669 26.4306 12.1699 27.1669 12.1699C27.9033 12.1699 28.5003 12.7669 28.5003 13.5033V36.2926C27.5826 36.6158 27.0318 37.5538 27.1967 38.5127C27.3616 39.4716 28.194 40.1718 29.1669 40.1699H38.5003C39.4732 40.1718 40.3057 39.4716 40.4705 38.5127C40.6354 37.5538 40.0846 36.6158 39.1669 36.2926ZM2.50028 1.50326H11.8336C12.2018 1.50326 12.5003 1.80174 12.5003 2.16993C12.5003 2.53812 12.2018 2.83659 11.8336 2.83659H2.50028C2.13209 2.83659 1.83361 2.53812 1.83361 2.16993C1.83361 1.80174 2.13209 1.50326 2.50028 1.50326ZM13.8336 37.5033C7.94547 37.4963 3.17393 32.7247 3.16695 26.8366V4.16993H11.1669V26.8366C11.1669 28.3094 12.3609 29.5033 13.8336 29.5033C15.3064 29.5033 16.5003 28.3094 16.5003 26.8366V25.5033H24.5003V26.8366C24.4933 32.7247 19.7218 37.4963 13.8336 37.5033ZM25.8336 23.5033C25.8336 23.8714 25.5351 24.1699 25.1669 24.1699H15.8336C15.4654 24.1699 15.1669 23.8714 15.1669 23.5033V16.8366C15.1669 16.4684 15.4654 16.1699 15.8336 16.1699H25.1669C25.5351 16.1699 25.8336 16.4684 25.8336 16.8366V23.5033ZM27.1669 10.8366C25.6942 10.8366 24.5003 12.0305 24.5003 13.5033V14.8366H16.5003V13.5033C16.5003 7.61222 21.2759 2.83659 27.1669 2.83659C33.058 2.83659 37.8336 7.61222 37.8336 13.5033V36.1699H29.8336V13.5033C29.8336 12.0305 28.6397 10.8366 27.1669 10.8366ZM38.5003 38.8366H29.1669C28.7988 38.8366 28.5003 38.5381 28.5003 38.1699C28.5003 37.8017 28.7988 37.5033 29.1669 37.5033H38.5003C38.8685 37.5033 39.1669 37.8017 39.1669 38.1699C39.1669 38.5381 38.8685 38.8366 38.5003 38.8366Z" fill="#E86E39"/>
<path d="M5.16667 5.5033C4.79848 5.5033 4.5 5.80177 4.5 6.16996V7.5033C4.5 7.87149 4.79848 8.16996 5.16667 8.16996C5.53486 8.16996 5.83333 7.87149 5.83333 7.5033V6.16996C5.83333 5.80177 5.53486 5.5033 5.16667 5.5033Z" fill="#E86E39"/>
<path d="M5.16667 9.5033C4.79848 9.5033 4.5 9.80177 4.5 10.17V19.5033C4.5 19.8715 4.79848 20.17 5.16667 20.17C5.53486 20.17 5.83333 19.8715 5.83333 19.5033V10.17C5.83333 9.80177 5.53486 9.5033 5.16667 9.5033Z" fill="#E86E39"/>
</g>
<defs>
<clipPath id="clip0_2828_2412">
<rect width="40" height="40" fill="white" transform="translate(0.5 0.169922)"/>
</clipPath>
</defs>
</svg>
