<svg width="41" height="41" viewBox="0 0 41 41" fill="none" xmlns="http://www.w3.org/2000/svg">
<g clip-path="url(#clip0_2828_2421)">
<path d="M30.7561 21.5724H29.4005V21.3066C29.4005 20.2858 28.5699 19.4551 27.549 19.4551H26.1428C25.5103 19.4551 24.9511 19.7741 24.617 20.2595H22.3604C22.0807 19.8533 21.6432 19.5639 21.1371 19.4803L18.9144 15.9579C20.8404 13.768 21.1907 10.4848 19.5575 7.8965L18.7891 6.67876C18.6165 6.40501 18.2544 6.32305 17.9808 6.49587C17.7072 6.66852 17.6252 7.0304 17.798 7.30415L18.5663 8.52189C20.4552 11.5153 19.1048 15.5146 15.7584 16.7388C13.3456 17.6185 10.5566 16.7333 9.13167 14.4752L6.67526 10.5824C7.08135 10.3262 15.698 4.88906 16.11 4.62906L16.7873 5.70227C16.9599 5.97594 17.3217 6.05782 17.5955 5.88516C17.8692 5.7125 17.9512 5.35063 17.7784 5.07688L17.0398 3.9064C17.5148 3.29132 17.5823 2.41937 17.1442 1.7246C16.7931 1.1685 16.1907 0.836548 15.5324 0.836548C15.1732 0.836548 14.8222 0.938189 14.5175 1.13053L10.8476 3.44625C10.6194 2.10366 9.09753 1.43296 7.953 2.15515C6.81143 2.87577 6.75627 4.53555 7.873 5.32328L4.20275 7.63907C2.42126 8.76353 3.5411 11.5628 5.62283 11.1107L8.14042 15.1005C9.77418 17.6899 12.8886 18.7877 15.6945 17.9917L16.618 19.4551H7.833C6.81213 19.4551 5.9815 20.2857 5.9815 21.3066V21.5723H4.15775C4.03204 20.7367 3.30931 20.094 2.43923 20.094C1.48078 20.094 0.701172 20.8737 0.701172 21.8321V24.7889C0.701172 25.7473 1.48086 26.5269 2.43923 26.5269C3.30939 26.5269 4.03204 25.8841 4.15775 25.0485H5.98158V25.3143C5.98158 26.3007 6.7569 27.1093 7.73003 27.1629C6.22908 30.5275 5.46822 34.0388 5.46822 37.6141C5.46822 39.3911 6.91385 40.8367 8.69081 40.8367C10.4678 40.8367 11.9134 39.3911 11.9134 37.6141C11.9134 35.6069 12.2388 33.6099 12.8805 31.6782C12.9826 31.3711 12.8164 31.0394 12.5092 30.9374C12.2024 30.8353 11.8704 31.0016 11.7683 31.3088C11.0868 33.3598 10.7414 35.4812 10.7414 37.6141C10.7414 38.7448 9.82152 39.6647 8.69081 39.6647C7.5601 39.6647 6.64018 38.7447 6.64018 37.6141C6.64018 34.0368 7.43956 30.5236 9.01683 27.1659H13.6455C13.2074 27.9233 12.8163 28.6931 12.4782 29.4646C12.3482 29.761 12.4832 30.1067 12.7796 30.2366C13.0757 30.3665 13.4216 30.2315 13.5515 29.9352C13.9599 29.0036 14.4511 28.0736 15.0119 27.1661H15.8915C15.9308 29.1755 16.3483 31.8032 17.9362 33.9355C18.5569 34.7689 19.7489 34.9604 20.6009 34.3254C21.445 33.697 21.6198 32.505 20.9909 31.6609C20.0087 30.3421 19.7341 28.5793 19.7014 27.1662H20.8346C21.4709 27.1662 22.0331 26.8435 22.3664 26.3533H24.611C24.9444 26.8434 25.5067 27.1662 26.1428 27.1662H27.549C28.5699 27.1662 29.4005 26.3355 29.4005 25.3145V25.0488H30.7561C31.7145 25.0488 32.4942 24.2691 32.4942 23.3109C32.4943 22.3522 31.7145 21.5724 30.7561 21.5724ZM8.57847 3.14624C9.12917 2.7989 9.8273 3.29195 9.68363 3.92719C9.54011 4.56102 8.6987 4.70906 8.35011 4.15633C8.13401 3.8139 8.2362 3.36226 8.57847 3.14624ZM5.22025 9.98205C4.48962 9.98205 4.20845 9.02142 4.82822 8.63017C5.29494 8.33564 14.6772 2.41554 15.1429 2.12163C15.2602 2.04765 15.3949 2.00851 15.5324 2.00851C15.786 2.00851 16.018 2.13624 16.1529 2.34999C16.3684 2.69156 16.2659 3.14484 15.9244 3.36031C4.784 10.3899 5.53228 9.98205 5.22025 9.98205ZM3.00524 24.7889C3.00524 25.1009 2.75134 25.3548 2.43923 25.3548C2.12711 25.3548 1.87313 25.1009 1.87313 24.7889V21.8321C1.87313 21.52 2.12711 21.266 2.43923 21.266C2.75126 21.266 3.00524 21.52 3.00524 21.8321V24.7889ZM5.98158 23.8765H4.17728V22.7444H5.98158V23.8765ZM18.0488 16.7822L19.7355 19.4551H18.0038L16.8105 17.5643C17.2126 17.3677 17.6462 17.1021 18.0488 16.7822ZM20.0509 32.3607C20.1677 32.5175 20.2165 32.7105 20.1882 32.904C20.0936 33.5507 19.2632 33.7553 18.8762 33.2353C17.4757 31.3545 17.1017 28.9911 17.0635 27.1659H18.5293C18.5639 28.7656 18.8833 30.7928 20.0509 32.3607ZM21.4659 25.5641C21.3663 25.8155 21.1211 25.994 20.8345 25.994C20.4686 25.994 8.25308 25.994 7.833 25.994C7.45831 25.994 7.15346 25.6891 7.15346 25.3143C7.15346 24.4684 7.15346 22.1918 7.15346 21.3066C7.15346 20.9319 7.45823 20.627 7.833 20.627H17.6807C19.3376 20.627 20.0647 20.627 20.8346 20.627C21.2171 20.627 21.5141 20.9415 21.5141 21.3066C21.5141 25.6963 21.5323 25.3817 21.4659 25.5641ZM24.2913 25.1811H22.6861V21.4315H24.2913C24.2913 23.262 24.2913 23.5148 24.2913 25.1811ZM25.513 21.0528C25.6138 20.8037 25.858 20.6272 26.143 20.6272H27.5492C27.9239 20.6272 28.2287 20.9319 28.2287 21.3067V21.5725H25.4634C25.4633 21.2841 25.4513 21.2159 25.513 21.0528ZM28.2286 22.7444V23.8765H25.4633V22.7444H28.2286ZM28.2287 25.3142C28.2286 25.6891 27.9238 25.994 27.5491 25.994H26.1429C25.863 25.994 25.6112 25.8221 25.5093 25.557C25.4518 25.4073 25.4633 25.3168 25.4633 25.0485H28.2286V25.3142H28.2287ZM30.7561 23.8766H29.4005V22.7444H30.7561C31.0682 22.7444 31.3222 22.9984 31.3222 23.3105C31.3223 23.6227 31.0683 23.8766 30.7561 23.8766Z" fill="#E86E39"/>
<path d="M39.7128 22.7203H34.2813C33.9577 22.7203 33.6953 22.9826 33.6953 23.3063C33.6953 23.6299 33.9576 23.8922 34.2813 23.8922H39.7128C40.0364 23.8922 40.2988 23.6299 40.2988 23.3063C40.2988 22.9826 40.0365 22.7203 39.7128 22.7203Z" fill="#E86E39"/>
<path d="M39.5068 18.6691C39.38 18.3716 39.0361 18.2332 38.7379 18.3601L33.7419 20.4907C33.4443 20.6176 33.3059 20.9618 33.4329 21.2596C33.5594 21.5566 33.9033 21.6959 34.2018 21.5687L39.1977 19.438C39.4954 19.3111 39.6338 18.9669 39.5068 18.6691Z" fill="#E86E39"/>
<path d="M39.1977 27.1744L34.2018 25.0438C33.9039 24.9166 33.5597 25.0553 33.4329 25.3528C33.3059 25.6506 33.4443 25.9948 33.7419 26.1217L38.7379 28.2524C38.8129 28.2844 38.8909 28.2995 38.9675 28.2995C39.1952 28.2995 39.4119 28.1659 39.5067 27.9432C39.6338 27.6456 39.4954 27.3013 39.1977 27.1744Z" fill="#E86E39"/>
</g>
<defs>
<clipPath id="clip0_2828_2421">
<rect width="40" height="40" fill="white" transform="translate(0.5 0.836548)"/>
</clipPath>
</defs>
</svg>
