<svg width="41" height="41" viewBox="0 0 41 41" fill="none" xmlns="http://www.w3.org/2000/svg">
<g clip-path="url(#clip0_2828_2455)">
<path d="M39.9143 26.7128H34.8439C34.4539 26.7128 34.1365 26.3955 34.1365 26.0055V19.7557C34.1365 19.3657 34.4539 19.0483 34.8439 19.0483H39.9143C40.238 19.0483 40.5003 18.786 40.5003 18.4624C40.5003 18.1387 40.238 17.8764 39.9143 17.8764H34.8439C34.0123 17.8764 33.3055 18.4196 33.0587 19.1698H30.9314C30.1443 19.1698 29.5039 19.8101 29.5039 20.5972V21.2528H22.1348L25.2272 16.4282C25.4018 16.1558 25.3225 15.7934 25.05 15.6188C24.7777 15.4442 24.4153 15.5235 24.2406 15.796L20.7429 21.2528C19.8628 21.253 19.0354 21.5957 18.413 22.2179L14.4075 26.2227C14.1 26.5303 13.9307 26.9392 13.9307 27.3742C13.9307 27.8092 14.1001 28.2182 14.4077 28.5256C14.725 28.8428 15.1418 29.0014 15.5587 29.0014C15.9756 29.0014 16.3925 28.8427 16.7099 28.5253C16.9388 28.2965 16.9388 27.9255 16.71 27.6967C16.4811 27.468 16.1101 27.4678 15.8814 27.6967C15.7035 27.8746 15.4141 27.8745 15.2361 27.6967C15.1499 27.6106 15.1025 27.496 15.1025 27.3741C15.1024 27.2521 15.1499 27.1375 15.2361 27.0514L19.2414 23.0466C19.6426 22.6455 20.1759 22.4246 20.7432 22.4246H29.5038V23.3365H21.6067C20.7262 23.3365 19.8986 23.6794 19.2761 24.3018L17.9236 25.6543C17.6948 25.8832 17.6948 26.2542 17.9236 26.483C18.1525 26.7117 18.5235 26.7117 18.7523 26.483L20.1048 25.1304C20.5059 24.7292 21.0393 24.5083 21.6067 24.5083H29.5038V25.1639C29.5038 25.951 30.1442 26.5914 30.9313 26.5914H33.0586C33.3054 27.3414 34.0122 27.8846 34.8439 27.8846H39.9143C40.238 27.8846 40.5003 27.6224 40.5003 27.2987C40.5003 26.975 40.238 26.7128 39.9143 26.7128ZM30.6757 25.1639V20.5973C30.6757 20.4564 30.7904 20.3417 30.9313 20.3417H32.9646V25.4196H30.9313C30.7904 25.4196 30.6757 25.3049 30.6757 25.1639Z" fill="#E86E39"/>
<path d="M39.9141 31.2476C40.2377 31.2476 40.5 30.9853 40.5 30.6616C40.5 30.3379 40.2377 30.0757 39.9141 30.0757H12.7286C11.6711 30.0757 10.8107 30.9361 10.8107 31.9936V33.4966H1.08594C0.762266 33.4966 0.5 33.7589 0.5 34.0826C0.5 34.4062 0.762266 34.6685 1.08594 34.6685H39.9141C40.2377 34.6685 40.5 34.4062 40.5 34.0826C40.5 33.7589 40.2377 33.4966 39.9141 33.4966H15.4038V31.2476H39.9141ZM11.9827 33.4966V31.9936C11.9827 31.5822 12.3173 31.2476 12.7287 31.2476H14.232V33.4966H11.9827Z" fill="#E86E39"/>
<path d="M15.6055 20.5562C15.9291 20.5562 16.1914 20.2939 16.1914 19.9702V6.92407C16.1914 6.6004 15.9291 6.33813 15.6055 6.33813C15.2818 6.33813 15.0195 6.6004 15.0195 6.92407V19.9702C15.0195 20.2939 15.2818 20.5562 15.6055 20.5562Z" fill="#E86E39"/>
<path d="M5.25754 26.4221L8.26168 27.7491C8.33863 27.7831 8.41902 27.7992 8.49809 27.7992C8.72301 27.7992 8.93762 27.6689 9.03434 27.4499C9.16512 27.1538 9.03113 26.8079 8.73512 26.6771L5.73098 25.3502C5.43528 25.2194 5.0891 25.3534 4.95824 25.6494C4.82762 25.9455 4.96152 26.2913 5.25754 26.4221Z" fill="#E86E39"/>
<path d="M1.51148 24.7673L2.77015 25.3233C2.84711 25.3574 2.9275 25.3735 3.00656 25.3735C3.23148 25.3735 3.44609 25.2432 3.54281 25.0241C3.67359 24.7281 3.53961 24.3822 3.24359 24.2514L1.98492 23.6954C1.68921 23.5647 1.34296 23.6985 1.21218 23.9946C1.08148 24.2906 1.21546 24.6365 1.51148 24.7673Z" fill="#E86E39"/>
<path d="M22.7134 27.7992C22.7925 27.7992 22.8729 27.7831 22.9498 27.749L25.3065 26.7081C25.6025 26.5773 25.7365 26.2313 25.6057 25.9353C25.475 25.6394 25.1291 25.5052 24.833 25.6361L22.4763 26.6771C22.1803 26.8078 22.0463 27.1538 22.1771 27.4498C22.2739 27.6688 22.4884 27.7992 22.7134 27.7992Z" fill="#E86E39"/>
<path d="M10.9199 24.1274C11.0319 24.302 11.2209 24.3973 11.4138 24.3973C11.522 24.3973 11.6315 24.3673 11.7294 24.3046C12.0018 24.1299 12.0812 23.7674 11.9066 23.4951L7.50314 16.6253C7.32845 16.3528 6.96603 16.2736 6.69369 16.4481C6.42127 16.6227 6.34189 16.9852 6.5165 17.2575L10.9199 24.1274Z" fill="#E86E39"/>
<path d="M5.59766 15.3254C5.92126 15.3254 6.18359 15.0631 6.18359 14.7395C6.18359 14.4159 5.92126 14.1536 5.59766 14.1536C5.27405 14.1536 5.01172 14.4159 5.01172 14.7395C5.01172 15.0631 5.27405 15.3254 5.59766 15.3254Z" fill="#E86E39"/>
<path d="M15.6055 23.1689C15.9291 23.1689 16.1914 22.9066 16.1914 22.583C16.1914 22.2594 15.9291 21.9971 15.6055 21.9971C15.2819 21.9971 15.0195 22.2594 15.0195 22.583C15.0195 22.9066 15.2819 23.1689 15.6055 23.1689Z" fill="#E86E39"/>
</g>
<defs>
<clipPath id="clip0_2828_2455">
<rect width="40" height="40" fill="white" transform="translate(0.5 0.503174)"/>
</clipPath>
</defs>
</svg>
